<!DOCTYPE svg PUBLIC "-//W3C//DTD SVG 1.1//EN" "http://www.w3.org/Graphics/SVG/1.1/DTD/svg11.dtd"><svg xmlns="http://www.w3.org/2000/svg" width="222.5" height="222.5"><path d="M210.064 33.64H161.74v-9.353c0-2.579-2.094-4.677-4.676-4.677s-4.677 2.098-4.677 4.677v9.353h-48.32c-6.878 0-12.471 5.596-12.471 12.471V62.53l-6.491-2.165c-1.696-.603-16.824-5.873-30.759-6.558l-1.857 3.708h-.052l5.252 40.879-6.235 10.897-6.235-10.897 5.249-40.879h-.055L48.559 53.8c-14.453.709-30.233 6.373-30.939 6.628-.256.092-.423.286-.661.405a7.68 7.68 0 0 0-1.428.864c-.38.296-.697.606-1.004.962a7.33 7.33 0 0 0-.898 1.221 7.85 7.85 0 0 0-.627 1.409c-.095.274-.277.487-.344.779L.188 122.186a7.798 7.798 0 0 0 7.612 9.486 7.813 7.813 0 0 0 7.608-6.107l11.511-51.782c.804-.25 1.714-.518 2.704-.794v53.203l-6.202 77.138c-.411 5.146 3.422 9.657 8.574 10.065a9.352 9.352 0 0 0 10.069-8.573l5.605-69.715a9.314 9.314 0 0 0 3.772.804 9.264 9.264 0 0 0 3.772-.804l5.608 69.715a9.352 9.352 0 0 0 10.069 8.573c5.151-.408 8.984-4.926 8.573-10.065l-6.205-77.138V72.991c3.961 1.123 6.634 2.076 6.705 2.098.03.012.061.006.1.012.031.013.055.037.085.049l11.429 3.809v41.976c0 6.881 5.593 12.471 12.471 12.471h22.7l-19.905 74.324a4.674 4.674 0 1 0 9.031 2.411l20.563-76.741h15.941v54.382a4.678 4.678 0 0 0 4.676 4.677 4.678 4.678 0 0 0 4.677-4.677V133.4h15.941l20.557 76.741a4.688 4.688 0 0 0 5.736 3.313c2.484-.663 3.977-3.232 3.301-5.724l-19.906-74.324h22.701c6.874 0 12.47-5.59 12.47-12.471V46.11c.004-6.875-5.599-12.47-12.467-12.47zm6.235 87.294a6.243 6.243 0 0 1-6.235 6.235H104.067a6.241 6.241 0 0 1-6.235-6.235V81.041l19.744 6.585c.822.268 1.65.399 2.472.399 3.258 0 6.309-2.07 7.393-5.331.183-.548.146-1.097.201-1.653l46.855-21.681a1.556 1.556 0 0 0 .756-2.07 1.553 1.553 0 0 0-2.07-.758L127.3 77.762c-.749-2.226-2.388-4.128-4.786-4.932l-24.677-8.223V46.11a6.24 6.24 0 0 1 6.235-6.235H210.07a6.243 6.243 0 0 1 6.235 6.235v74.823h-.006z"/><path d="M51.454 52.129c10.872 0 19.701-12.62 19.701-23.501 0-10.887-8.829-19.71-19.701-19.71-10.888 0-19.717 8.829-19.717 19.71s8.829 23.501 19.717 23.501zM166.337 89.097l3.228-2.013-3.16-5.062-3.222 2.012a16.004 16.004 0 0 0-5.121-3.666l.853-3.696-5.814-1.343-.847 3.705a15.477 15.477 0 0 0-6.211 1.042l-2.021-3.23-5.061 3.16 2.021 3.23a15.688 15.688 0 0 0-3.665 5.127l-3.702-.855-1.34 5.812 3.702.853a15.702 15.702 0 0 0 1.047 6.211l-3.233 2.016 3.167 5.063 3.233-2.022a15.278 15.278 0 0 0 5.121 3.657l-.853 3.702 5.809 1.346.858-3.702a15.616 15.616 0 0 0 6.211-1.041l2.01 3.227 5.054-3.16-2.003-3.224a15.798 15.798 0 0 0 3.659-5.118l3.702.853 1.334-5.815-3.708-.861a15.632 15.632 0 0 0-1.048-6.208zm-8.987 14.736c-5.018 3.13-11.624 1.607-14.767-3.413-3.13-5.011-1.607-11.627 3.404-14.763 5.023-3.13 11.636-1.61 14.778 3.41 3.131 5.014 1.596 11.636-3.415 14.766z"/><path d="M198.64 79.613l-2.867.974a12.605 12.605 0 0 0-3.301-3.778l1.34-2.712-4.269-2.107-1.334 2.719a12.46 12.46 0 0 0-5.005-.326l-.98-2.874-4.5 1.528.969 2.874a12.481 12.481 0 0 0-3.775 3.303l-2.723-1.339-2.106 4.265 2.722 1.34a12.473 12.473 0 0 0-.328 5.015l-2.868.971 1.522 4.503 2.88-.974a12.403 12.403 0 0 0 3.3 3.778l-1.339 2.712 4.262 2.11 1.34-2.713c1.607.441 3.301.561 5.012.323l.968 2.874 4.506-1.525-.974-2.868a12.51 12.51 0 0 0 3.781-3.307l2.716 1.34 2.101-4.263-2.71-1.343c.438-1.601.561-3.303.329-5.005l2.868-.975-1.537-4.52zm-11.009 15.265c-4.47 1.516-9.311-.88-10.833-5.343-1.51-4.466.883-9.322 5.347-10.839 4.47-1.507 9.316.886 10.833 5.35 1.516 4.466-.884 9.316-5.347 10.832z"/></svg>