<svg xmlns="http://www.w3.org/2000/svg" width="30.5" height="30.5"><path d="M18.502 22.654c-.814-.546-7.785-5.294-9.664-8.617l-.103-.183-.212-.008c-1.618-.066-2.876.87-3.415 1.354-.22-.223-.444-.452-.673-.688l-.273-.28-.271.282c-1.061 1.101-1.53 2.125-1.396 3.048.109.749.621 1.401 1.481 1.888.155.088 1.95 1.309 3.901 2.867-.337.344-1.562 1.137-2.006 1.453-.499.354-2.578 2.241-2.578 2.241l1.343.317.465.908s.638-1.562 1.338-2.333 1.923-1.387 1.923-1.387-.661.944-1.135 1.86c-.473.916-.594 2.504-.594 2.504l.821-.26.566 1.234s.151-1.744.499-2.88c.281-.919.97-1.79 1.226-2.095 2.474 2.178 5.059 4.808 5.576 5.339.312.358.716.622 1.242.739.188.041.379.061.565.061 1.07 0 2.086-.667 2.74-1.835.764-1.359.979-3.449-.347-4.822-.363-.379-.707-.594-1.019-.707zm-10.49-1.197c-1.79-1.408-3.423-2.529-3.661-2.664-.659-.373-1.031-.824-1.106-1.34-.088-.606.224-1.32.928-2.126a90.286 90.286 0 0 0 4.519 4.345c-.575.933-.676 1.434-.68 1.785zm1.112-2.416a81.026 81.026 0 0 1-3.48-3.302c.447-.391 1.43-1.11 2.647-1.139.636 1.043 1.69 2.188 2.878 3.296-.618.063-1.39.333-2.045 1.145zm.769 3.963a5.988 5.988 0 0 1 .552-1.838c2.226 1.813 3.49 2.476 4.043 2.709-.086.638-.231 2.108.021 3.452-1.195-1.182-2.952-2.88-4.616-4.323zm9.319 4.812c-.471.839-1.37 1.65-2.483 1.404-1.911-.422-1.692-4.135-1.446-5.53l.062-.353-.351-.082c-.015-.004-1.204-.338-4.142-2.737.552-.642 1.436-.929 2.108-1.056a66.793 66.793 0 0 0 4.298 3.256c-.03.015-.058.029-.083.045-1.138.646-1.613 2.515-1.366 3.41.29 1.053.993 1.729 1.733 1.715.316-.012 1.086-.19 1.367-1.596l.044-.219-.169-.143c-1.068-.909-1.646-1.446-1.922-1.715.176-.342.408-.639.687-.797.423-.238.904-.082 1.433.467 1.055 1.098.859 2.808.23 3.931zm-1.096-1.458c-.132.479-.353.767-.604.774H17.5c-.314 0-.755-.401-.964-1.159-.067-.242-.048-.603.042-.979.313.293.802.735 1.538 1.364zM5.959 8.611l-1.196 3.831s4.888.475 8.958 1.744c4.072 1.272 8.361 3.663 8.361 3.663l1.216-3.899s-3.653-3.682-8.004-5.04c-4.349-1.357-9.335-.299-9.335-.299z"/><path d="M30.504 14.008l-1.423-1.493.14-.453s1.254-2.306-1.904-1.88c-.164.032-.262.085-.317.151L17.603.482 0 4.367l4.841 4.324.26-.833s5.561-1.179 10.41.334c4.85 1.515 8.924 5.62 8.924 5.62l-.453 1.453 3.636-.702c-.606 1.938-1.302 4.171-1.519 4.862l-1.035-.324-.752 2.406 1.676-.522 1.232 1.431.75-2.406-1.119-.351 1.644-5.266 2.009-.385zm-2.084-.539a.763.763 0 1 1-1.456-.455.763.763 0 0 1 1.456.455zm-.71-2.392c.397-.118 1.071-.24.892.334-.018.056-.067.218-.143.453l-.749-.787z"/></svg>