<svg xmlns="http://www.w3.org/2000/svg" viewBox="0 0 400 400"><path d="M97.1 13.6c-39.3 5.7-70.5 32.6-81.3 70.1l-2.3 7.8v218l2.3 7.8c11 38.1 42.1 64.5 82.6 70.2 7.8 1.1 19.5 1.5 40.8 1.5H169V12l-31.2.1c-20.6.1-34.5.6-40.7 1.5zM227.3 13.3c.4 1.2 11.4 16.9 44 63.2 6.6 9.3 14.1 20 16.6 23.6 16.8 23.9 19.7 27.8 20.6 27.6.5-.2 5-6.2 10-13.3 5-7.1 15.2-21.5 22.5-31.9 24.9-35.3 23.5-33 21.7-35.8-1.9-2.9-12.6-12.5-18-16.1-13.3-9-27.8-14.6-44.6-17.1-13.6-2-73.6-2.2-72.8-.2z"/><path d="M228 252.4V389h30.3c31.1 0 46.8-1.3 56.4-4.5 2.4-.8 4.9-1.5 5.5-1.5 1.9 0 17.9-8 23.3-11.7 16.6-11.3 31.5-30.5 37.1-48 4.9-15.3 4.7-10.8 5.1-109.8.3-84.7.2-92.9-1.2-91.4-.9.8-4.4 5.6-7.8 10.5-33.5 48.6-67.4 96.3-68.4 96.4-.6 0-4.9-5.4-9.5-12.1-4.5-6.6-11-15.8-14.3-20.4-3.3-4.6-13-18.4-21.5-30.6-8.5-12.2-18.4-26.3-21.9-31.3s-7.9-11.3-9.7-14l-3.4-4.8v136.6zm96.4 19.1c7.8 3.9 13.8 10 17.8 18.3 3 6.1 3.3 7.4 3.3 16.2 0 8.7-.3 10.1-3.3 16.1-5 10.4-14.1 18-24.2 20.7-8.7 2.2-10.8 2.3-17.5.7-16.8-3.9-28.3-15.8-30.5-31.7-2.6-18.3 6.9-34.6 24.5-42 3-1.3 6.5-1.6 14-1.5 8.9.2 10.7.6 15.9 3.2z"/></svg>