<svg xmlns="http://www.w3.org/2000/svg" viewBox="0 0 1200 467"><path d="M0 200.5V401h333v66h267v-66h600V0H0v200.5zm333.5-.5v133.5h-67l-.3-99.8-.2-99.7h-66v200l-66.7-.2-66.8-.3-.3-132.5c-.1-72.9 0-133.1.3-133.8.3-1 27.6-1.2 133.7-1l133.3.3V200zm333.3.2L667 334H534l-.2 33.2-.3 33.3-66.7.3-66.8.2V66l133.3.2 133.2.3.3 133.7zm466.7-.2v133.5h-67l-.3-99.8-.2-99.7h-66v200h-67V134h-66v200H733V200.7c0-73.4.3-133.7.7-134 .3-.4 90.4-.6 200.2-.5l199.6.3V200z"/><path d="M534 200.5V267h66V134h-66v66.5z"/></svg>