<svg xmlns="http://www.w3.org/2000/svg" width="400" height="400"><g fill-rule="evenodd"><path d="M196.2 10.951c-3.215 1.516-5.036 4.135-5.819 8.366-.775 4.197-.315 44.106.534 46.256 3.816 9.658 15.932 8.703 18.497-1.458.539-2.136.61-5.511.507-24.01l-.119-21.524-1.324-2.688c-2.566-5.211-7.497-7.196-12.276-4.942m-143 56.683c-5.795 2.627-7.189 8.834-3.313 14.748 2.945 4.494 34.309 35.293 37.679 37.001 8.901 4.51 17.428-3.837 13.058-12.783-2.176-4.455-34.644-36.497-39.135-38.622-3.014-1.426-5.661-1.536-8.289-.344m286.305-.228c-3.075 1.129-5.709 3.5-21.936 19.745-18.595 18.614-19.169 19.337-19.169 24.126 0 7.366 7.283 11.638 13.944 8.178 2.693-1.398 35.236-33.181 37.665-36.785 5.864-8.7-1.044-18.739-10.504-15.264m-148.446 25.84c-43.948 3.374-81.586 36.666-90.238 79.821-7.683 38.32 6.707 76.04 38.375 100.593 8.048 6.239 8.39 7.076 8.408 20.54.014 10.526.826 13.89 4.844 20.069 3.094 4.757 3.23 5.431 3.554 17.531.328 12.251.556 13.41 3.489 17.7l3.42 5c.94 1.375 2.316 4.21 3.057 6.3 7.168 20.226 25.789 29.889 45.43 23.577 11.368-3.654 17.861-10.763 23.542-25.777.629-1.663 2.048-4.1 3.493-6 5.046-6.635 5.501-8.341 5.716-21.4.186-11.367.318-11.952 4.008-17.8 3.601-5.707 3.89-7.01 4.266-19.2.441-14.323.475-14.408 8.315-20.467 32.83-25.371 47.24-65.342 37.66-104.464-11.813-48.237-56.549-79.922-107.339-76.023m23.741 2.156c87.268 12.916 115.302 122.438 45.291 176.939-8.772 6.829-8.562 6.361-8.931 19.859-.351 12.84-1.004 15.714-4.842 21.313-3.114 4.543-3.261 5.23-3.559 16.687-.352 13.571-.69 14.959-5.083 20.872-2.898 3.901-3.72 5.449-5.333 10.048-5.246 14.952-16.912 23.389-32.343 23.389-15.639 0-26.606-8.023-32.407-23.709-1.566-4.232-2.774-6.382-6.578-11.704-2.837-3.97-3.106-5.309-3.435-17.096-.342-12.262-.47-12.85-4.092-18.837-3.942-6.515-4.667-10.173-4.681-23.59-.011-9.866-.525-10.848-9.13-17.448-34.217-26.244-47.723-69.877-34.211-110.525 14.961-45.01 61.62-73.26 109.334-66.198m-24.8 15.01c-57.669 7.903-90.949 68.286-65.802 119.388 6.783 13.784 16.297 24.505 29.984 33.786 9.996 6.779 9.921 6.612 10.232 22.814.362 18.84-.097 18.333 17.186 18.962 13.651.497 21.923.518 35.8.089 18.177-.561 17.818-.189 18.183-18.851.322-16.44.227-16.227 10.235-23.014 45.321-30.734 51.746-90.781 13.78-128.78-18.019-18.036-45.561-27.689-69.598-24.394m-5.487 57.166c3.529.902 4.433 1.329 9.263 4.37 4.651 2.929 7.467 3.154 11.059.884 8.418-5.318 9.991-5.839 17.565-5.814 16.224.052 28.236 12.43 28.125 28.982-.07 10.523-4.129 18.442-15.604 30.441-16.252 16.994-22.918 24.455-24.231 27.121l-1.29 2.619-.2 21.209c-.22 23.345-.176 22.941-2.734 25.093-2.785 2.343-9.845 2.465-12.7.219-2.527-1.988-2.547-2.169-2.56-23.102-.013-20.796-.182-22.917-2.114-26.542-1.276-2.395-8.982-10.968-22.702-25.258-12.641-13.166-16.832-21.098-16.907-32-.129-18.817 17.204-32.781 35.03-28.222m-10.447 17.161c-5.584 1.992-8.725 8.508-7.121 14.769 1.355 5.291 3.652 8.529 12.806 18.054 3.107 3.233 7.899 8.228 10.649 11.099 9.642 10.067 9.343 10.149 26.055-7.175 14.603-15.138 16.837-18.479 16.91-25.286.077-7.095-4.46-11.966-11.165-11.987-5.047-.017-8.38 2.024-13.466 8.244-6.565 8.029-10.116 8.216-16.576.875-7.327-8.326-12.266-10.672-18.092-8.593M10.892 203.412c-10.853 2.963-12.05 13.614-2.01 17.887L11 222.2h56.8l2.115-.956c8.22-3.714 7.779-14.145-.742-17.533-2.468-.981-54.8-1.249-58.281-.299m321.145.022c-9.496 2.554-10.652 13.783-1.837 17.845l2 .921 27 .126c19.502.091 27.611-.004 29.2-.342 13.139-2.79 12.672-16.297-.649-18.759-3.823-.707-52.994-.522-55.714.209m-225.445 90.981c-4.119 1.585-42.563 39.455-44.811 44.142-4.206 8.767 4.042 17.189 12.616 12.882 2.934-1.474 2.973-1.509 18.203-16.637 22.713-22.56 24.433-24.376 25.794-27.254 3.979-8.411-3.229-16.433-11.802-13.133m179.808-.29c-5.104 1.618-7.387 8.131-4.737 13.511 2.328 4.725 40.383 42.393 44.737 44.281 8.142 3.531 15.777-5.097 11.822-13.36-1.748-3.65-40.025-41.851-43.786-43.698-2.768-1.359-5.326-1.593-8.036-.734m-108.518 27.96c-7.662 2.033-6.856 16.599 1.013 18.314 4.389.957 42.592.368 44.565-.687 5.897-3.153 5.067-15.655-1.163-17.505-2.451-.728-41.723-.836-44.415-.122m12.637 34.311c-10.15 2.146-2.034 13.694 9.681 13.775 10.237.071 18.558-10.257 10.8-13.405-1.468-.595-18-.894-20.481-.37" fill="#f6b81c"/><path d="M190 94.807c-89.887 9.312-121.972 122.364-50.323 177.318 8.605 6.6 9.119 7.582 9.13 17.448.014 13.417.739 17.075 4.681 23.59 3.622 5.987 3.75 6.575 4.092 18.837.329 11.787.598 13.126 3.435 17.096 3.804 5.322 5.012 7.472 6.578 11.704 11.828 31.98 53.57 32.187 64.75.32 1.613-4.599 2.435-6.147 5.333-10.048 4.393-5.913 4.731-7.301 5.083-20.872.298-11.457.445-12.144 3.559-16.687 3.838-5.599 4.491-8.473 4.842-21.313.369-13.498.159-13.03 8.931-19.859 30.153-23.473 44.472-59.104 38.315-95.341-8.763-51.572-56.273-87.594-108.406-82.193m23.725 16.167c58.79 11.031 88.709 74.311 58.956 124.693-6.495 10.998-15.102 19.943-26.863 27.919-10.008 6.787-9.913 6.574-10.235 23.014-.365 18.662-.006 18.29-18.183 18.851-13.877.429-22.149.408-35.8-.089-17.283-.629-16.824-.122-17.186-18.962-.311-16.202-.236-16.035-10.232-22.814-13.687-9.281-23.201-20.002-29.984-33.786-25.147-51.102 8.133-111.485 65.802-119.388 4.171-.572 19.634-.205 23.725.562m8.572 211.233c6.23 1.85 7.06 14.352 1.163 17.505-1.973 1.055-40.176 1.644-44.565.687-7.869-1.715-8.675-16.281-1.013-18.314 2.692-.714 41.964-.606 44.415.122M211 356.766c7.758 3.148-.563 13.476-10.8 13.405-11.715-.081-19.831-11.629-9.681-13.775 2.481-.524 19.013-.225 20.481.37" fill="#27201e"/></g></svg>