<!DOCTYPE svg PUBLIC "-//W3C//DTD SVG 1.1//EN" "http://www.w3.org/Graphics/SVG/1.1/DTD/svg11.dtd"><svg xmlns="http://www.w3.org/2000/svg" width="108.6" height="108.6"><path d="M78.119 73.246c-6.566-3.363-13.357-6.156-20.227-8.791-.513-.193-1.123-.588-1.336-1.035-.562-1.24-.947-2.555-1.354-3.85-.248-.836-.471-1.615-1.379-2.021-.248-.106-.471-.584-.471-.895.055-3.016-.648-6.182 1.592-8.813.068-.082.098-.197.145-.295 1.209-2.639 1.414-5.66 3.104-8.121.043-.053.053-.135.061-.205.197-1.883.396-3.748.559-5.623.017-.23-.186-.645-.387-.717-.928-.324-.879-1.076-.873-1.82 0-3.664 0-4.195-.006-7.859 0-2.131-.627-4.021-2.234-5.473-1.835-1.646-3.718-3.24-5.604-4.83-.904-.77-.99-1.363-.135-2.207.379-.375.857-.645 1.297-.957a26.912 26.912 0 0 1-.287-.432c-.57 0-1.143-.074-1.693.008-2.086.338-4.18.633-6.223 1.113-3.908.922-7.703 2.143-10.871 4.76-2.164 1.785-3.895 3.867-4.115 6.813-.109 1.543-.096 3.098-.109 4.637-.012 2.521.023 1.908-.031 4.418-.014.41-.238 1.084-.525 1.174-1.016.332-1.049.982-.908 1.83.1.584.025 1.191.152 1.762.35 1.574.725 3.148 1.178 4.695.334 1.154.988 2.244 1.176 3.416.359 2.344 1.234 4.381 2.818 6.152.256.295.453.783.424 1.174a82.523 82.523 0 0 1-.555 5.396c-.051.348-.416.871-.713.938-1.201.244-1.383 1.166-1.672 2.104a44.523 44.523 0 0 1-1.254 3.652c-.148.373-.521.758-.889.926-2.127.922-4.299 1.777-6.445 2.679-2.281.959-4.588 1.877-6.818 2.936-2.299 1.103-4.531 2.337-6.779 3.546-1.326.707-2.563 1.493-3.598 2.467L0 89.236c15.256 0 23.221 11.031 39.098 12.391l-5.85-8.072 9.07-24.811-2.805-6.025h5.619l-2.814 6.025 9.072 24.811-5.695 7.877c11.559-1.936 30.006-12.195 38.956-12.195L81.52 75.73a13.013 13.013 0 0 0-3.401-2.484z"/><path d="M89.391 6.955c-10.582 0-19.19 8.609-19.19 19.191 0 .418.016.84.045 1.273l-8.81 5.725a1.572 1.572 0 0 0-.692 1.586 1.57 1.57 0 0 0 1.182 1.266l13.445 3.246a19.211 19.211 0 0 0 14.021 6.094c10.582 0 19.191-8.607 19.191-19.189S99.973 6.955 89.391 6.955zm0 35.232a16.061 16.061 0 0 1-12.004-5.406 1.582 1.582 0 0 0-.809-.486l-10.361-2.502 6.541-4.25c.502-.326.775-.908.707-1.502a16.26 16.26 0 0 1-.117-1.895c0-8.846 7.197-16.043 16.043-16.043s16.043 7.197 16.043 16.043-7.198 16.041-16.043 16.041z"/><path d="M83.561 25.6h-2.664a.335.335 0 0 0-.334.334v8.883c0 .184.15.332.334.332h2.664a.331.331 0 0 0 .334-.332v-8.883a.334.334 0 0 0-.334-.334zM90.473 21.936h-2.664a.333.333 0 0 0-.334.334v12.547c0 .184.148.332.334.332h2.664a.332.332 0 0 0 .334-.332V22.27a.335.335 0 0 0-.334-.334zM97.08 14.816h-2.666a.331.331 0 0 0-.332.332v19.668c0 .184.148.332.332.332h2.666a.331.331 0 0 0 .332-.332V15.148a.332.332 0 0 0-.332-.332z"/></svg>