<svg xmlns="http://www.w3.org/2000/svg" viewBox="0 0 512 512"><path d="M15.038 362h246.019l11.381 6.571a91.418 91.418 0 0 0-.399 8.429c0 2.73.132 5.529.399 8.429l-21.823 12.599a15.003 15.003 0 0 0-5.49 20.49l30 51.962a15.004 15.004 0 0 0 9.108 6.989 14.988 14.988 0 0 0 11.382-1.499l22.165-12.798a104.01 104.01 0 0 0 14.259 8.279V497c0 8.284 6.716 15 15 15h60c8.284 0 15-6.716 15-15v-25.546a104.077 104.077 0 0 0 14.384-8.366l23.219 12.985c7.159 4.004 16.21 1.513 20.312-5.592l30-51.962a15.001 15.001 0 0 0-5.49-20.49l-21.823-12.599c.268-2.9.399-5.699.399-8.429 0-2.731-.132-5.529-.399-8.429l21.823-12.6a15.001 15.001 0 0 0 5.49-20.49l-30-51.962c-4.101-7.104-13.148-9.597-20.312-5.592l-23.219 12.985a104.077 104.077 0 0 0-14.384-8.366V257c0-8.284-6.716-15-15-15h-15V15c0-8.284-6.716-15-15-15h-362c-8.284 0-15 6.716-15 15v332c-.001 8.284 6.715 15 14.999 15zm386.963-55.343c8.513 3.035 16.38 7.604 23.384 13.58a14.999 14.999 0 0 0 17.058 1.681l18.927-10.585 15.103 26.157-17.587 10.154a14.998 14.998 0 0 0-7.249 15.721c.957 5.169 1.402 9.502 1.402 13.635s-.445 8.466-1.402 13.636a15 15 0 0 0 7.249 15.721l17.587 10.153-15.103 26.157-18.927-10.585a15.002 15.002 0 0 0-17.058 1.681c-7.005 5.977-14.872 10.546-23.384 13.58a15 15 0 0 0-9.963 14.129V482h-30v-20.53a15 15 0 0 0-9.963-14.129c-8.515-3.035-16.382-7.604-23.384-13.578a14.999 14.999 0 0 0-17.236-1.58l-17.851 10.307-15-25.98 17.587-10.153a15 15 0 0 0 7.249-15.721c-.957-5.17-1.402-9.503-1.402-13.636s.445-8.466 1.402-13.635a14.999 14.999 0 0 0-7.249-15.721l-17.587-10.154 15-25.98 17.851 10.307a15 15 0 0 0 17.236-1.58c7.004-5.976 14.871-10.545 23.384-13.58a15 15 0 0 0 9.963-14.129V272h30v20.528a15 15 0 0 0 9.963 14.129zM347.038 242c-8.284 0-15 6.716-15 15v25.546a104.017 104.017 0 0 0-14.259 8.28l-22.165-12.797a15.001 15.001 0 0 0-20.49 5.49L247.134 332H30.038V90h332v152h-15zm15-182h-30V30h30v30zm-60-30v30h-272V30h272z"/><path d="M215.734 151.754c-7.864-2.591-16.348 1.681-18.942 9.55l-30 91c-2.594 7.868 1.682 16.348 9.55 18.942 7.852 2.586 16.342-1.664 18.942-9.55l30-91c2.594-7.867-1.682-16.348-9.55-18.942zM144.942 244.929l-44.816-33.062 44.943-33.891c6.614-4.988 7.933-14.394 2.945-21.008-4.988-6.614-14.393-7.933-21.008-2.945l-61 46a15.003 15.003 0 0 0 .127 24.048l61 45c6.721 4.959 16.098 3.444 20.976-3.166 4.918-6.667 3.5-16.058-3.167-20.976zM326.164 200.096l-60-46c-6.572-5.04-15.989-3.797-21.03 2.778-5.04 6.575-3.797 15.99 2.778 21.031l44.301 33.964L248.038 245c-6.627 4.971-7.971 14.373-3 21 4.947 6.595 14.341 7.994 21 3l60-45a15 15 0 0 0 .126-23.904zM332.038 377c0 24.813 20.187 45 45 45s45-20.187 45-45-20.187-45-45-45-45 20.187-45 45zm60 0c0 8.271-6.729 15-15 15s-15-6.729-15-15 6.729-15 15-15 15 6.729 15 15z"/></svg>