<svg xmlns="http://www.w3.org/2000/svg" width="746.7" height="708" viewBox="0 0 560 531"><path d="M270.3 7.4c2.3 1.8 2.6 16.6.2 16.6-.8 0-1.5.3-1.5.8 0 .4 2.3.7 5 .7 5 0 6.4-.8 3.4-1.9-1.3-.5-.8-1.5 2.6-5.6 2.3-2.8 4.6-5 5.1-5 1.6 0 1.1 10-.6 10.6-2.9 1.2-1.4 2 3.5 2 2.8 0 5-.3 5-.8 0-.4-.7-.8-1.5-.8-1.2 0-1.5-1.6-1.5-8s.3-8 1.5-8c.8 0 1.5-.4 1.5-.9 0-.4-2.2-.9-5-1-4.9-.1-6.6 1.1-3.4 2.3 1.2.5.7 1.6-2.8 5.6-2.4 2.7-4.6 5-5 5-.5 0-.8-2.3-.8-5 0-3.6.4-5.2 1.5-5.6 3.1-1.2 1.3-2.4-3.7-2.4-4.6.1-5.1.2-3.5 1.4zM242.5 9c-1.6.4-2.2.8-1.3.9 3.1.2 2.9 2-.9 7.7l-3.8 5.7-.6-2.9c-1.1-5-1-9.2.4-9.7.6-.3.1-.5-1.3-.5-3.1 0-9.1 1.5-6.9 1.7 1.9.1 2.5 2.1 3.5 10.5.5 4.4.4 6-.7 6.8-1 .7-.4.8 2 .4 1.8-.3 4.3-.6 5.5-.6 1.9-.1 1.9-.2.4-1.1-1-.5-1.8-1.4-1.8-2 0-1.2 6.3-10.8 7.1-10.8.3-.1.9 2.3 1.3 5.1.5 4.3.3 5.5-1.1 6.5-1.5 1.2-1.5 1.3.3 1.2 1 0 3.7-.4 5.9-.8 3.3-.6 3.6-.8 1.9-1.4-1.7-.6-2.3-2.1-3.2-8-1-6.4-.9-7.3.5-8.5 1.5-1 1.3-1.2-1.3-1.1-1.6.1-4.2.5-5.9.9zM203.5 17.1c-2.9 1-4.1 1.8-2.9 1.8 1.4.1 2.4.9 2.8 2.3 1 4 .7 4.6-3 5.8-3 1-3.8 1-4.5-.1-1.3-2-1.1-5.3.4-6.8 1-1.2.8-1.3-.8-.6-1.1.4-3.6 1.2-5.5 1.7-2.9.9-3.2 1.2-1.6 1.7C191.3 24 195.6 39 193 39c-.5 0-1 .4-1 .9s2.3.2 5-.7c2.8-.9 5-1.9 5-2.4 0-.4-.6-.5-1.4-.2-.9.4-1.8-.7-2.6-3.1-.7-2-1-3.7-.8-3.9.1-.1 2-.7 4-1.3 3.7-1.1 3.7-1.1 4.9 2.5.9 2.7.9 3.7 0 4-.6.2-1.1.7-1.1 1.1 0 .4 2.3.1 5-.8 4-1.2 4.7-1.7 3.2-2.2-2.7-1-7-14.8-5.1-16 2.7-1.6.2-1.6-4.6.2zM367.9 21.4c.9 1 .5 3-1.5 8.5-2.1 5.7-3.1 7.1-4.8 7.2-1.4 0-.4.8 2.9 2.3 5.3 2.4 6.5 2.5 4.6.3-.8-1-.8-2.2 0-4.6.6-1.7 1.2-3.1 1.4-3.1 1.4 0 7.5 3.2 7.5 4 0 2.3-2.5 6-3.7 5.6-.7-.3-1.3-.2-1.3.2 0 .7 4.2 2.5 9 3.9 1.1.4 1.1.1-.2-.9-1.6-1.4-1.5-1.9 1-8.6 1.9-5.2 3.2-7.2 4.7-7.5 2-.3 2-.4 0-1.1-1.1-.4-3.5-1.4-5.2-2.2-1.9-.8-3.3-.9-3.3-.4 0 .6.5 1 1 1 1.3 0 1.3 2.3-.1 5.4-1.1 2.3-1.2 2.4-4.8.9-2-.8-3.7-1.6-3.9-1.7-.1-.2.3-1.7.9-3.4.8-2.2 1.8-3.2 3.2-3.2 1.3-.1.2-.9-2.8-2-6-2.4-6.1-2.4-4.6-.6zM158 34.5c-2.5 1.3-3.8 2.4-2.9 2.5 1 0 2.8 2.7 4.8 7 2.7 5.7 3.1 7.4 2.1 8.5-.7.8-1 1.5-.8 1.5 1.1 0 11.5-5.4 13.1-6.8 2.5-2.2 2.1-5.9-.8-7.8-2-1.3-3-1.4-6.1-.4-3.3 1.1-3.9 1.1-5.1-.6-1.6-2.2-1.7-4.1 0-4.7.6-.2 1-.7.7-1-.3-.3-2.5.6-5 1.8zM278.9 41.4c-.2.2-8.5.9-18.4 1.6-9.9.7-18.4 1.6-19 2.1-.5.5-.1.9 1.2.9 3.4 0 4.1 1.9 5.1 14.5 1.1 12.2.7 14.5-2.4 14.5-.8 0-1.4.4-1.4.9 0 1.1 16.1.2 17.4-1 .6-.5.2-.9-1.1-.9-3.5 0-4.2-2.2-4.9-15.2l-.7-12.5 3.3-.6c4.5-.9 9.8-.9 10.4.1.3.5.8 6.6 1.2 13.6.7 12.4.7 12.7-1.5 13.3-1.1.3-2.1 1-2.1 1.6 0 .6 1.9.7 5.3.3 2.8-.3 6.7-.6 8.5-.6 3.6 0 4.4-1.7 1-2.2-2.5-.3-2.8-1.9-4.2-19.1-.6-7.6-.5-7.8 1.9-8.9 1.4-.6 2.5-1.5 2.5-2 0-.8-1.3-1.1-2.1-.4zM299.6 46.3c-5.5 3.1-7.8 7.8-7.4 14.8.7 9.8 7.6 15.9 18.3 15.9 9.5 0 16.5-5.3 18.1-13.7 1.2-6.6-3.6-15.1-10.3-17.9-5.1-2.2-14.1-1.8-18.7.9zm17.5 2.6c2.6 2.6 2.9 3.6 2.9 9 0 10.4-4.1 17.1-10.5 17.1-7.8 0-11.3-8.2-8.4-19.5 2.3-9.3 10.1-12.5 16-6.6zM130.6 49.6c-7.9 5-8.7 5.7-6.6 5.4 3.3-.5 4.2.2 6 4.2 2.4 5.2 2.6 9.8.6 9.8-2.1 0-3.1 2.1-1.5 3.1.9.5 2 .2 3.2-.9 2.4-2.1 1.9-7.1-1.3-13.7-2.2-4.5-2-6.5.4-6.5 1.8 0 9.8 12.8 8.5 13.5-.5.4-.9 1-.9 1.5 0 1 8.9-4.1 9-5.2 0-.3-.8-.4-1.8-.1-2.5.6-10.6-11.9-8.9-13.6 2.7-2.7-.5-1.6-6.7 2.5zM429 49.9c0 .5.4 1.3 1 1.6.5.3-.9 3.5-3.3 7.1-3 4.6-4.7 6.3-5.9 6-3.2-.8-1.9.8 3.9 4.6 8.3 5.5 13.3 4.6 11.9-2.2-.5-2.5-.2-3 1.4-3 2.3 0 4.3-3.2 3.4-5.5-.8-1.9-12.4-10-12.4-8.6zM349 52.4c0 .3.9 1.5 2 2.6 2.3 2.3 2 4.9-1.3 11.5-4.7 9.6-9.2 13.1-12.7 10-2.3-2-5-1.3-5 1.3 0 4.1 4.7 5.4 10 2.7 3.9-2 7.1-6.4 11.5-15.8 2.1-4.2 3.8-7.7 4-7.7 1.2 0 6.5 2.3 6.4 2.8 0 .4-1.9 6.1-4.2 12.7-3.9 11.1-4.4 12-7 12.3-1.5.2-2.7.7-2.7 1.1 0 1.1 15.9 6 16.5 5.1.3-.5-.4-1.1-1.5-1.5-2.7-.9-2.6-2.4 1.7-14.5 4.1-12 5-13.3 7.5-12.7 1 .3 2 .2 2.2-.2.3-.4-5.2-2.7-12.2-5.1-7-2.3-13.3-4.5-13.9-4.8-.7-.2-1.3-.1-1.3.2zM196.6 58.2c-.3 1.3-.7 8.4-1.1 15.7-.4 9.4-1 14.2-2 15.8-.8 1.2-1.5 2.4-1.5 2.7 0 .3 2.3-.3 5.2-1.3 5.5-1.9 7.4-3.8 3.6-3.7-1.9.1-2.3-.5-2.6-3.6-.3-3.5-.2-3.6 4.8-5.3 3.9-1.3 5.4-1.4 6.5-.5 2.5 2 2.9 5 .8 6.5-3.3 2.5-.7 2.5 5.3.1 3.2-1.2 6.8-2.6 7.9-3 1.8-.7 1.7-.9-1.1-1.9-1.9-.8-6.9-5.5-12.9-12.2-5.3-6.1-10.3-11.1-11.1-11.3-.7-.2-1.5.7-1.8 2zM387.5 69c2.3 2.5 1.7 4.3-4.7 16-4.9 8.7-5.6 9.5-8.1 9.2-4.5-.5-3.1 1.1 4.8 5.2 7 3.7 10.5 4.5 7 1.6-2.4-2-1.8-3.8 4.3-15 5.3-9.5 6-10.5 8.5-10.3 1.5.1 2.7-.1 2.7-.5 0-.9-13.5-8.2-15.1-8.2-.7 0-.5.8.6 2zM165.9 70.1c-1.9 1.9-2.1 2.9-1.5 9 .5 6.1.4 7.1-1.4 8.9-1.1 1.1-2.3 2-2.8 2-.8 0-5.2-7.9-5.2-9.4 0-.5.7-1.8 1.7-2.8.9-1 1.1-1.8.6-1.8-1.5 0-15.3 8.1-15.3 9 0 .4 1.4.7 3.2.6 3-.1 3.5.4 9.5 10.8 5.9 10.3 6.2 11.1 4.6 12.8-3 3.3-.7 2.9 6.5-1.3 7.5-4.4 9.1-6.2 4.5-5.3-2.5.5-3.1 0-6-4.8-2.2-3.7-2.8-5.5-2-6 2.3-1.5 4.9-.7 9.4 2.7 2.6 2 5.8 3.8 7.2 4.2 3 .8 7.1-1.4 8.8-4.7 1.5-3.1.6-4.6-1.7-2.5-1.7 1.5-2.2 1.4-7.5-1.4-3.2-1.7-7-3.1-8.4-3.1-2.5 0-2.6-.2-2.6-6.3 0-5.6.2-6.2 2.2-6.5 2.8-.4 4.5-2.5 3.7-4.6-.9-2.3-5-2-7.5.5zM458.9 72.3c1.6 2.1-8.4 13-11.3 12.3-1.3-.3.4 1.8 4.4 5.4 3.6 3.3 6.7 6 7 6 .3 0 1.1-.9 1.8-2.1 1.2-1.9 1.1-2-.7-1.4-2.3.7-6.1-1.3-6.1-3.3 0-.7.7-2.4 1.6-3.8 1.3-1.9 1.9-2.2 3-1.3.9.7 1.2 2 .8 3.3-.4 1.7-.1 1.5 2-.9 3.2-3.8 3.2-4.3.1-3.7-3.2.6-3.2-.8 0-3.8 2-1.9 2.7-2.1 4-1 .8.7 1.5 2.6 1.5 4.2 0 2.6.2 2.9 1.5 1.8 2.5-2 1.8-3.5-3.9-8.4-5.2-4.4-8.1-6.1-5.7-3.3zM409.5 83.6c-2.9 3.9-2.8 5.2.3 3.5 3-1.6 5.7-1.4 8.2.7l2.1 1.7-7.4 10.1c-4.1 5.6-8 10.4-8.6 10.8-.6.4-1.9.2-2.9-.3-1.1-.6-2.2-.8-2.5-.4-.9.8 13.5 11.3 14.5 10.6.5-.3.2-1.3-.6-2.2-.9-1-1.6-2.1-1.6-2.5 0-.4 3.4-5.5 7.6-11.2 6.6-9.1 7.8-10.3 9.5-9.4 2.7 1.5 4.2 4.8 3.5 8.1-.3 1.6-.1 2.9.3 2.9 1 0 5.6-6.9 5-7.4-.2-.2-5.9-4.4-12.6-9.4l-12.2-9.1-2.6 3.5z"/><path d="M256.3 82.1c-74.1 8.6-139.6 58.8-166.6 127.6-9.7 24.6-13.6 43.4-14.4 69.6-1 30.3 3.3 55 14.6 84.2 1.5 4 2.1 4.6 2.7 3.1 1.3-3.3.7-7-2.5-16.1-3.9-10.9-7.6-25.9-9.3-38-1.6-11.7-1.6-41.4.1-53.5 10.9-78.5 67.7-144.1 144-166 19.8-5.7 31.3-7.3 54.6-7.3 27.6-.1 47 3.2 70.5 12 67.5 25.2 115.3 83.1 128.6 155.8 2.6 14 2.6 50.8.1 64.5-2.3 12.5-5.2 23.6-8.8 34-2.1 6-2.7 9.4-2.3 11.8.8 4.3 1.5 3.5 5.2-6.8 15.1-41.3 16.7-86.4 4.6-128.3C454.8 150.9 387.2 93 306.7 82.5c-12.6-1.6-38.2-1.8-50.4-.4zM75.5 95.1c-2.4 2.5-3.3 3.9-2.2 3.5 1.2-.4 3 .2 4.9 1.5l3 2.1-3.3 3.4-3.3 3.4-2.3-2.2c-1.6-1.5-2.1-2.8-1.7-4.2.5-1.7-.1-1.4-3 1.3-3.8 3.6-4.6 5.4-2.1 4.5 2.1-.9 12.7 8.6 12.1 10.8-.7 2.8.6 2.1 4.2-2.3 3.2-3.8 3.3-4 1-3.4-1.7.4-3-.1-4.6-1.8l-2.2-2.3 3-2.9 3-2.9 2.5 2.4c1.4 1.3 2.3 3 2.1 3.7-.9 2.1.2 1.5 3.4-2 3-3.2 4.1-5.9 1.7-3.8-1.9 1.5-13.1-8.4-12.4-11 .3-1.1.4-1.9.3-1.9-.1 0-2 1.9-4.1 4.1zM484.3 96.2c.9 2.5-9.8 12.1-12.6 11.2-1.6-.5-1.4.1 1.4 3.5 3.5 4.2 5.3 5.3 4.2 2.5-.3-.8.4-2.5 1.7-3.9l2.3-2.4 2.9 2.4c3.4 2.9 6 3.2 8.2.9 2.2-2.2 2-3.5-1.3-8-3.6-5-7.7-8.7-6.8-6.2z"/><path d="M115.3 106.2c-3.4 2.8-6 5.6-5.6 6.1.3.5 1 .4 1.6-.2 2.1-2.1 3.4-1.1 11.6 8.3 7.8 9 9.3 11.8 7.1 13.1-.6.4-.8 1.1-.4 1.6.6 1.1 14.7-10.3 17.5-14.2 3.7-5.2 2.2-11.7-3.2-13.9-3.7-1.6-8-.5-12.5 3.1-2 1.6-4 2.9-4.4 2.9-1.1 0-6-6.7-6-8.2 0-.8.5-1.9 1.2-2.6.7-.7.8-1.2.2-1.2-.5 0-3.7 2.3-7.1 5.2zM445 107.5c0 .3.6 1.4 1.2 2.5 1.1 1.7.7 2.6-3.7 7.1-2.8 2.8-7.2 6.9-9.9 9.2-4.2 3.6-5 3.9-6.8 2.8-4.6-2.9-2.4.4 6.8 10.4l9.8 10.5 3.3-3.2c1.8-1.8 3.3-3.3 3.3-3.5 0-.2-1.8 0-4.1.3-3.5.6-4.4.3-7-2.2-1.6-1.5-2.9-3.6-2.9-4.6 0-2.1 5.7-8.8 7.6-8.8 1.7 0 2.8 4.1 1.9 6.9-1 3.2.7 2.5 5.5-2.4 4.4-4.5 4.9-6.6 1.1-4.5-1.5.8-2.7.8-4.1 0-2.8-1.5-2.6-2 2.1-6.5l4-4 3.1 3.4c2.6 2.9 2.9 3.9 2.4 7.2-.7 4.6.1 4.8 3.2.8 2.8-3.4 3.4-2.3-7.6-14-6.6-7-9.2-9.1-9.2-7.4zM248 110c-2.6 2.6-2.5 5.4.1 7.9 2 1.8 2 2.1.5 3.6-3.4 3.5-.6 7.5 5.3 7.5 6.6 0 9.6-6.6 4.9-11-1.7-1.6-1.9-2.3-1-3.2 1.6-1.6 1.5-3.4-.4-5.2-2.2-2.2-7-2-9.4.4zM98.6 121.7c-.3.3-.1 1.2.4 1.8.8.9.2 1.6-2 2.5-5.6 2.3-9.3 8.9-9.2 16.1.2 10.1 10.9 18.5 20.5 15.8 6.4-1.7 12.7-8.6 12.7-13.9 0-1.3.7-2 2-2 3 0 2.4-1.3-2.1-4.9-4.7-3.8-6.1-3.4-3.5 1 4.8 8.2-3.4 16.5-12.8 12.9-4-1.5-10.4-7.8-11.6-11.6-1.3-3.9-.8-6.2 2.1-9.3 1.7-1.8 3-2.2 7-2 2.7.2 5.1 0 5.4-.3.3-.3-.9-1.6-2.7-3-4.6-3.4-5.4-3.8-6.2-3.1zM353.4 127c-2.8 1.1-6 5.3-7.5 9.7-1 3.1-.9 3.9.8 6.2 1.1 1.4 3.1 2.7 4.5 2.9 3.5.4 7.8-3.3 7.8-6.7 0-2.8-2.6-6.1-4.8-6.1-1.7 0-1.5-1.5.6-3.3 2.6-2.4 4.1-2.1 5.2.9.6 1.4 1.4 2.2 2 1.9 1.7-1 1.1-3.3-1.2-4.9-2.5-1.8-4.2-1.9-7.4-.6zM50.2 128.3c-8.1 4.7-8 17 .2 19.7 9.8 3.2 18.6-10.4 11.4-17.6-2.9-3-8.4-3.9-11.6-2.1zm6.8 4.4c3.7 2.5 4.9 4.5 5 7.6 0 3.2-3.4 5.3-7.3 4.3-3.4-.8-8.7-6-8.7-8.4 0-4.8 6.3-6.8 11-3.5zM472.2 138.3c.1 1.3-1.1 6.3-2.7 11.1l-3 8.6-6-.6c-3.3-.4-7.5-1.3-9.4-2-1.9-.8-3.6-1.2-3.8-1-.6.6 6 10.6 7 10.6.4 0 .5-1.1.1-2.4-.7-2.8 1.8-3.8 7.2-2.9 3.7.6 4 1.3 2.3 6.4-1.6 4.6-2.5 5.5-4.4 3.9-3.3-2.7-2.5.1 2.1 6.9 4.4 6.7 6.8 8.4 5.7 4.1-.3-1.1.9-6.1 2.7-11l3.3-9 6.6.6c3.6.3 7.7 1.3 8.9 2.1 3.7 2.3 3.8.8.1-4.6-3.7-5.5-5.3-6.5-4.3-2.7.7 2.8-1.8 3.8-7.2 2.9-3-.5-3.4-.9-2.8-2.7 2.2-6.9 3.6-8.5 5.8-6.7 3 2.5 2.1-.5-2.3-6.9-4.9-7.4-6.2-8.4-5.9-4.7zM526 155c0 1.4-1.7 2.8-6 5-6.3 3.2-9 3.7-9 1.8 0-.6-.3-.9-.6-.5-.7.7 3.2 9.7 4.2 9.7.3 0 .4-.7.1-1.5-.4-.8-.2-1.7.3-2 1.1-.7 13 2.4 13 3.4 0 .3-2.2 1.6-4.9 2.7-3.6 1.6-5.2 1.9-6 1.1-1.7-1.7-1.3-.1.9 4.3 2 3.9 3.8 5.6 2.6 2.4-.8-2 13.2-8.7 15.2-7.2 1.7 1.5 1.5.3-.9-4.5-2-3.9-2.2-4-3-1.9-.5 1.2-1 2.2-1.2 2.2-.4 0-7.5-2.4-10.7-3.6-1-.4.1-1.4 3.3-3 3.8-2 5.2-2.3 6.3-1.3 1.9 1.5 1.8 1-.6-4.5-2.3-5-3-5.7-3-2.6zM276.4 160.5c-.4.8-.4 2.2 0 3 .7 1.9.1 1.9-2.9-.1-2.2-1.4-2.4-1.4-3.5.5-1 1.9-.8 5 .6 11.9.4 2 .3 2.1-1.6 1-1.6-1-1.9-2-1.4-4.1.4-2 .1-2.9-1.2-3.4-2.1-.8-4.4 2-3.7 4.6.3 1.2-.4 2.1-2.4 3-2.6 1.2-2.9 1.1-5.6-2.3-1.6-2-3.2-3.6-3.7-3.6-.4 0-1.3 2-1.9 4.4-.9 3.6-1.6 4.6-4.2 5.5-1.8.6-4.3 1.1-5.5 1.1-1.9 0-2.4.5-2.4 2.6v2.6l-11.5-.4c-6.4-.1-11.9-.8-12.3-1.3-1.1-1.6-4.4-1.8-5.3-.3-1.2 1.9-39.6 1.9-40.8 0-.7-1.2-2.3-1.1-6.8.3-2.3.7-3.3 4.5-1.3 4.5.6 0 1 2.8 1 6.3 0 8.3-1.4 9.6-10.7 9.5l-6.8-.1-.3 4.1c-.2 3.2 0 4.2 1.2 4.2s14.6 20.5 14.6 22.4c0 .3-.9.6-2 .6-2.9 0-2.6 4.6.5 9.2 1.4 2 2.5 4.6 2.5 5.7 0 2.1-.4 2.1-33 2.1-21.3 0-33 .4-33 1s11.7 1 33.1 1c32.9 0 33 0 32.7 2.1-.3 2.1-.6 2.1-33.4 2l-33.2-.1-.4 3-.5 3h33.9c22.4 0 33.7.3 33.3 1-.4.6-12.8 1-34.1 1-21.6 0-33.4.4-33.4 1s11.8 1 33.5 1H158l-.1 15.2c-.1 8.4-.4 26.2-.7 39.5l-.7 24.1-2.7 2.4c-1.5 1.2-3.8 3.1-5.2 4.1-2.9 2-3.4 3.7-1.1 3.7 1.2 0 1.5 1.4 1.5 6.5v6.5h9c5.3 0 9 .4 9 1s-4.2 1-10.5 1H146v2.5c0 2.3-.4 2.5-4.5 2.5H137v-16c0-10 .4-16 1-16s1-1.8 1-3.9c0-3.3.4-4 2.2-4.3 1.8-.2 1-1.2-5-6.1l-7.1-5.7-8.1 5.7c-7.2 5.1-7.8 5.8-5.6 6.1 2.3.3 2.6.8 2.6 4.3 0 2.1.5 3.9 1 3.9.6 0 1 6.7 1 18v18h26v10h-8.5c-8.3 0-8.5.1-7.5 2 .9 1.7 2.1 2 8.6 2 6.6 0 7.5.2 7.2 1.7-.2 1.4-1.3 1.7-5.6 1.4-3.2-.1-5.2.2-5.2.8 0 .7 2.2 1.1 5.5 1.1h5.5v4c0 3-.4 4-1.6 4-.8 0-1.2.5-.9 1 .4.6 1.1.8 1.6.5.5-.4.9.2.9 1.3 0 1 .9 2.7 2 3.7s2 1.3 2 .7c0-.8 2.9-1.2 9-1.2h9v6c0 6.2-.4 6.7-4.9 6.1-.7-.2-1 .2-.6.8.3.6 1.7 1.1 3.1 1.1 2.3 0 2.4.2 2.4 7.5v7.5l7.1 4.6c48.8 31.6 109.6 39.5 165.4 21.4 11.8-3.9 33.5-13.9 42.8-19.9l4.7-3.1v-18h5c2.8 0 5-.4 5-.9s-2.1-.8-4.7-.8h-4.8l-.3-6.1-.3-6.2h10.7c9 0 10.5.2 10 1.5-.9 2.5.6 1.7 5.1-2.7 3.9-3.8 5.8-6.8 3.3-5.3-.6.4-1-1-1-3.4V402h4.4c2.5 0 4.8-.5 5.1-1 .4-.6-1.3-1-4.4-1-3.9 0-5.1-.4-5.1-1.5 0-1.2 1.4-1.5 6.3-1.5 5.8 0 8.7-1.1 8.7-3.2 0-.4-3.4-.8-7.5-.8s-7.5-.2-7.5-.4.9-2.5 2-5l1.9-4.6h9.3c8.2 0 9.5-.2 10.6-2 1.1-1.8 1-2-.8-2-1.9 0-2-.6-2-16 0-10 .4-16 1-16s1-1.8 1-4c0-3.7.2-4 2.6-4 2.3 0 1.7-.8-5-6l-7.6-6.1-5.3 3.9c-2.8 2.1-5.8 4.2-6.4 4.6-1 .6-1.3-6.2-1.3-32.3V270h26.5c17 0 26.5-.4 26.5-1s-12-1-33.9-1c-21.6 0-34.2-.4-34.6-1-.4-.7 11.2-1 33.9-1 36.2 0 35.5.1 33.8-4.2-.7-1.6-2.5-1.8-20.5-1.5-10.8.1-19.7-.1-19.7-.4 0-.3.8-1.3 1.8-2.2 1.6-1.5 4.5-1.7 19.5-1.7 11.1 0 17.7-.4 17.7-1s-11.2-1-31.6-1h-31.6l.7-4.3c.3-2.3.9-5 1.1-6 .4-1.2 0-1.7-1.4-1.7-1.5 0-2.1-.9-2.4-3.2-.7-4.5 8.7-24.8 11.4-24.8 1.6 0 1.9-.6 1.6-4.3l-.3-4.2-7.2.3-7.3.4v-7.9c0-4.5.5-8.4 1.1-9 1.3-1.3.4-3.3-1.7-3.3-.8 0-1.4-.4-1.4-.9 0-1.2-4.3-.8-5.2.4-1.1 1.6-40 1.3-40.5-.3-.6-1.6-3.4-1.5-6.9.3-2 1-5.9 1.5-12.5 1.5h-9.6l-.6-2.9c-.6-2.6-.9-2.8-4.8-2.7-2.3 0-4.4-.4-4.6-.9-1.1-3.3-4.5-7.5-6.1-7.5-1.1 0-3.3.7-5 1.6-4.9 2.4-6.8 1.6-6.4-2.9.3-2.7-.1-3.9-1.2-4.3-2-.8-4.6 1.3-4.6 3.6 0 1-.6 2.3-1.4 2.9-1.2 1-1.6.8-2.1-1.1-.4-1.3-1.8-3.5-3.2-4.9-1.4-1.5-2.3-3.5-2.2-4.5.7-3.8-3.5-6.2-4.7-2.9zm-24.5 29.4c1 .6 1.2 2.7.9 7.9-.2 4.5 0 6.8.7 6.6.6-.3.9-3.2.7-7.4-.4-6.9-.3-7 2.2-7 2.6 0 2.6.1 2.6 7.1 0 5.9-.3 7-1.5 6.5-.8-.3-1.5-.1-1.5.3 0 .5 9.3 1 20.7 1 15.2.1 20.5-.1 19.7-.9-.8-.8-6.6-1-18.3-.8l-17.1.3v-6.6c0-5.2.4-6.8 1.6-7.3 2.4-.9 33.7-.7 35.3.3 1 .6 1.2 2.7.9 7.9-.2 4.5 0 6.8.7 6.6.6-.3.9-3.2.7-7.4l-.4-7H306.1l-.3 6.7c-.3 5.8-.6 6.8-2 6.7-1-.1-1.8.2-1.8.7 0 .5 1.2.8 2.8.7l2.7-.2-.3-6.9c-.3-5.1-.1-7.2.9-7.8 1.6-1 32.9-1.2 35.3-.3 1.2.5 1.6 2.1 1.6 7.5 0 3.9.4 6.9 1 6.9s1-3 1-7c0-6.8.1-7 2.5-7s2.5.2 2.5 7c0 5.5-.3 6.8-1.4 6.4-.8-.3-1.7 0-2.2.7-.5.9.1 1 2.6.6 1.8-.4 6.8-.7 11.1-.7h7.9v-7c0-6.8.1-7 2.5-7s2.5.2 2.5 7v7h18v-7c0-6.8.1-7 2.5-7 2.5 0 2.5.1 2.5 8v8H278.5c-79 0-119.5-.3-119.5-1 0-.6.6-1 1.3-1 .9 0 1.1-1.9.9-7l-.4-7H167.1l-.3 6.7c-.3 5.8-.6 6.8-2 6.7-1-.1-1.8.1-1.8.5 0 .3 5.8.6 12.9.6 7.1 0 12.7-.3 12.4-.8-.2-.4-1.2-.7-2.1-.7-1.5 0-1.7-.9-1.4-6.5.4-6.1.5-6.5 2.8-6.5s2.4.3 2.4 7c0 6 .3 7 1.8 7 .9 0 14.8.3 30.7.6 21.4.4 28.5.2 27.3-.6-1.2-.7-7.5-1-18.3-.8l-16.5.3v-6.6c0-3.6.3-6.9.7-7.2 1-1 34.6-.8 36.2.2zM413 209.5v2.5H143v-5h270v2.5zM400 232v5H159v-10h241v5zm1 7.5c0 1.3-14.3 1.5-122.5 1.5s-122.5-.2-122.5-1.5 14.3-1.5 122.5-1.5 122.5.2 122.5 1.5zm-234.2 65.2l.2 45.3h-9.3l.6-22.3c.4-12.2 1-32.7 1.3-45.5l.7-23.3 3.1.3 3.1.3.3 45.2zm37.9-36c-.4 5.4-.7 12.6-.7 16v6.3h-11.1c-9.8 0-11-.2-9.9-1.5.9-1.1 3.4-1.5 9.4-1.5h8.1v-13c0-11.7-.2-13-1.7-13-1.8 0-2.3-1.1-1.1-2.3.3-.4 2.2-.7 4.1-.7h3.5l-.6 9.7zm8.3 35.8V350h-9.3l.6-21.8c.4-11.9 1-32.4 1.3-45.5l.7-23.7H213v45.5zm38-41.2c0 2.4-.3 9.7-.6 16.3l-.7 11.9h-10.8c-6 0-10.9-.2-10.9-.5 0-2.1 3.2-3 10.7-3h8.3v-13c0-12.3-.1-13-2-13-2.2 0-2.7-1.5-.7-2.3.6-.3 2.4-.6 4-.6 2.5-.1 2.7.2 2.7 4.2zm8 41.2V350h-9.3l.6-18.3c.4-10 .9-29.9 1.3-44.2.3-14.3.7-26.6.9-27.3.3-.6 1.8-1.2 3.5-1.2h3v45.5zm38-38.7c0 3.8-.3 11-.6 16l-.7 9.1-10.8.3c-6 .2-10.9.1-10.9-.2 0-2.1 3.2-3 10.7-3h8.3v-13c0-12.3-.1-13-2-13-2.2 0-2.7-1.5-.7-2.3.6-.3 2.4-.6 4-.6 2.7-.1 2.7-.1 2.7 6.7zm8 38.7V350h-9.3l.6-14.8c.4-8.1 1-28.2 1.3-44.7.4-16.5.8-30.3 1.1-30.8.2-.4 1.7-.7 3.4-.7h2.9v45.5zm38-36.3c0 5.1-.3 12.3-.6 16l-.7 6.7-10.8.3c-6 .2-10.9.1-10.9-.2 0-2.1 3.2-3 10.7-3h8.3v-13c0-12.3-.1-13-2-13-2.2 0-2.7-1.5-.7-2.3.6-.3 2.4-.6 4-.6l2.7-.1v9.2zm8 36.3V350h-4.5c-3.6 0-4.5-.3-4.5-1.8 0-.9.5-14.5 1-30.2s1-35 1.1-43c0-8 .3-14.8.6-15.3.2-.4 1.7-.7 3.4-.7h2.9v45.5zm38.7-34.8c-.4 5.8-.7 13-.7 16v5.3h-11.6c-10.2 0-11.5-.2-10.4-1.5.9-1.1 3.4-1.5 9.6-1.5h8.4v-13c0-12.6-.1-13-2.1-13-1.8 0-1.9-.2-.9-1.5.7-.8 2.8-1.5 4.8-1.5h3.5l-.6 10.7zm5.3 34.8V350H388.7l.6-20.3c.4-11.1 1-31.6 1.3-45.5.7-23.6.8-25.2 2.5-25.2 1.8 0 1.9 1.9 1.9 45.5zm-198.2-29.3l-.3 9.3h-12l-.3-9.3-.3-9.2h13.2l-.3 9.2zm46 0l-.3 9.3h-12l-.3-9.3-.3-9.2h13.2l-.3 9.2zm46 0l-.3 9.3-5.7.3-5.8.3V266h12.1l-.3 9.2zm46.2.3v9.5l-6-.1-6-.2V266h12v9.5zm46 0v9.5h-12v-19h12v9.5zm-177.3 29.2c-.4 5.8-.7 13.2-.7 16.5 0 5.1-.2 5.8-1.9 5.8-1.1 0-2.2-.9-2.6-1.9-.3-1-1.7-3.1-3.2-4.5-3-3.1-9.5-3.6-13.1-1l-2.2 1.5v-12.3c0-8.3.4-12.8 1.2-13.6.8-.8 5-1.2 12.2-1.2h10.9l-.6 10.7zm46.3-3.4c0 4.1-.3 11.5-.6 16.5-.6 7.8-1 9.2-2.4 9.2-1 0-2.3-1.3-3-3-2.3-5.7-10.2-7.9-15.5-4.4l-2.5 1.6v-12.4c0-8.3.4-12.8 1.2-13.6.8-.8 4.9-1.2 12-1.2H250v7.3zm46 2.4c0 15.9-1 23.3-3 23.3-1 0-2.3-1.3-3-3-.7-1.7-2.2-3.7-3.4-4.5-2.7-2-9.1-1.9-12.1.1l-2.5 1.6v-12.4c0-8.3.4-12.8 1.2-13.6.8-.8 4.9-1.2 12-1.2H296v9.7zm46 2.2c0 16.1-.7 21.1-3.1 21.1-1.1 0-1.9-.6-1.9-1.4 0-.8-1.3-2.8-2.9-4.5-2.4-2.6-3.7-3.1-7.3-3.1-3.1 0-5.1.6-6.6 2l-2.2 2.1v-12.9c0-8.6.4-13.2 1.2-14 .8-.8 4.9-1.2 12-1.2H342v11.9zm46.7.3c-.4 6.6-.7 14.1-.7 16.5 0 3.9-.2 4.3-2.5 4.3-1.6 0-2.5-.6-2.5-1.6 0-.8-1.3-2.9-2.9-4.5-3.8-3.7-10.2-4.1-13.8-.7l-2.3 2.1v-12.9c0-8.8.4-13.4 1.2-14.2.8-.8 5.1-1.2 12.7-1.2h11.4l-.6 12.2zM135 363v16h-6v-32h6v16zm300 .1v16l-2.7-.3-2.8-.3-.3-14.5c-.1-7.9 0-15 .2-15.7.3-.7 1.7-1.3 3.1-1.3h2.5v16.1zM167 365v5h-16v-10h16v5zm46 0v5h-16v-4.3c0-2.4.3-4.7.7-5 .3-.4 3.9-.7 8-.7h7.3v5zm192.5 0v4.5l-11.2.3-11.3.3v-10.2l11.3.3 11.2.3v4.5zm-180.4 20l1.6 7-3.9 1.8-3.8 1.9-3.1-4.8-3.1-4.9h-22.4l-1.4 3.7c-3.3 9.3-4 10.5-5.5 9.3-.8-.7-3.3-1-5.7-.8l-4.2.3-2.4-6.3-2.4-6.2H150v-8h73.5l1.6 7zm48.3-5.3c.2 1 .7 3.4 1.1 5.3.4 1.9.8 4.2 1.1 5.1.3 1-.8 2.1-3.1 3.2l-3.4 1.6-3.7-4.4-3.6-4.5h-7.3c-7 0-7.4.1-11.7 4-4.3 3.7-4.7 3.9-7.7 2.7-1.7-.6-3-1.6-2.7-2.2.2-.6.9-3.6 1.6-6.8l1.1-5.7H254c17.1 0 18.9.2 19.4 1.7zm49.9 2c.4 2.1.9 5.2 1.3 6.8.5 2.8.3 3.1-3.2 4.4l-3.8 1.4-3.5-4.2c-3.6-4.1-3.6-4.1-10.7-4.1-6.9 0-7.3.1-11.7 4-4 3.6-4.8 3.9-7.2 3-2.4-.9-2.7-1.4-2.1-4.3.4-1.7.9-4.9 1.3-7l.6-3.7h38.4l.6 3.7zm85-1c0 1.3-.1 3-.2 3.8-.1 1.2-1.9 1.5-9.9 1.5h-9.8l-2.3 6.3-2.2 6.3-6.2-.2-6.2-.1-2.3-6.2-2.4-6.1H345l-3.5 4.9-3.6 5-3.2-1.7c-1.8-.9-3.3-1.8-3.5-1.8-.2-.1.7-4.9 2.3-12.2l.5-2.2 37.2.2 37.2.3-.1 2.2zm-39.7 13.7c2.3 5.7 2.3 5.9.5 8.1l-1.8 2.3-2.9-2.3c-4.3-3.6-13.2-3.5-18 .1-1.9 1.5-3.4 2.1-3.4 1.4 0-.6-.9-2.5-2.1-4.1l-2-2.9 2.2-3.3c4.5-6.5 3.9-6.2 14.9-5.7l10.2.5 2.4 5.9zm-198 .1c2.1 5.1 2.2 6.1 1 7.3-1.2 1.2-1.7 1.2-3.7-.2-1.7-1.1-4.6-1.6-10.1-1.6H150v-12.1l9.1.3 9.1.3 2.4 6zm44.7-1.8l2.9 4.1-2.8 3.5-2.8 3.5-2.4-1.9c-3.8-3-12.8-2.6-17.2.6l-3.5 2.5-1.6-2.1c-1.5-2-1.5-2.6.9-8.6l2.6-6.4 10.5.3 10.5.3 2.9 4.2zm49.4-.9l3 3.7-3.2 3.8-3.2 3.7-3.7-1.5c-3.2-1.4-3.9-1.4-6.6 0-4 2-4 2-7.9-2.6l-3.3-4.1 3.3-3.4c3.2-3.3 3.5-3.4 10.9-3.4 7.7 0 7.7 0 10.7 3.8zm48.8-.2l3.1 3.6-3.7 4c-3.6 4-3.6 4-6.7 2.4-2.9-1.5-3.5-1.5-7.2 0-2.2.9-4.2 1.5-4.3 1.3-.2-.2-1.6-2.1-3.1-4.2l-2.8-3.9 3.3-3.4c3.2-3.3 3.6-3.4 10.8-3.4 7.5 0 7.6 0 10.6 3.6zm95.1-2c-.3.9-.6 3.6-.6 6v4.4h-8.2c-7 0-8.5.3-10.5 2.2-2.2 2.1-2.4 2.1-3.7.3-1.1-1.5-.9-2.7 1.2-8.2l2.5-6.3h10c8.6 0 9.8.2 9.3 1.6zm-241.8 13.1c1.8 1.5 2 2.6 1.5 6.5l-.6 4.8H150v-13h7.4c5.6 0 7.9.4 9.4 1.7zm43.1.9c2.5 2.1 3.1 3.3 3.1 6.5v3.9h-23v-3.8c0-3.3.5-4.3 3.7-6.5 5.2-3.7 11.9-3.7 16.2-.1zm153.5-.2c2.8 2.1 3.1 2.8 2.8 6.5l-.4 4.1H343v-3.4c0-2.8.7-4.1 3.7-6.5 4.9-4.1 12-4.4 16.7-.7zm45 4.3l.1 6.3H388v-4.2c0-2.9.7-4.9 2.2-6.5 2-2.2 2.9-2.3 10.2-2.1l8 .3v6.2zm-150-4.2c3.4 1.4 3.6 1.8 3.6 6v4.5h-16v-4.3c0-3.9.3-4.5 3.3-6 4.1-2 4.7-2 9.1-.2zm48.6 0c2.6 1.4 3 2.1 3 6v4.5h-15v-4.5c0-4.2.3-4.7 3.3-6 4.1-1.8 5.2-1.8 8.7 0zM213 422v6h-23v-12h23v6zm49 0v6h-16v-12h16v6zm48 0v6h-15v-12h15v6zm56 0v6h-23v-12h23v6zm-137 19.5c0 27.2.2 26.3-6.5 25.1l-3.5-.7v-16.8l3.6-.3 3.6-.3.1-9.3.2-9.2h-3.7c-2.7 0-3.8-.4-3.8-1.5s1.1-1.5 3.8-1.5c3.5 0 3.7-.2 3.7-3s-.2-3-3.9-3c-3.8 0-3.9 0-2.1-2 1.1-1.2 3.1-2 5.2-2h3.3v24.5zm14 .5v25h-11v-17.9l3.7-.3 3.7-.3.1-9.2V430h-3.7c-2.7 0-3.8-.4-3.8-1.5s1.1-1.5 3.8-1.5c3.4 0 3.7-.2 3.7-3 .1-2.8-.2-3-3.7-3-3.1 0-3.8-.4-3.8-2 0-1.8.7-2 5.5-2h5.5v25zm34 0v25h-10v-18h8v-19h-4c-2.9 0-4-.4-4-1.5s1.1-1.5 4-1.5c3.8 0 4-.2 4-3s-.3-3-3.5-3c-1.9 0-3.5-.4-3.5-.8 0-1.8 2.6-3.2 5.7-3.2h3.3v25zm15 0v25.1l-5.6-.3-5.6-.3-.1-8.8-.2-8.7h7.5v-18.9l-3.5-.3c-2-.2-3.5-.8-3.5-1.3 0-.6 1.5-1.1 3.5-1.3 3.1-.3 3.5-.6 3.5-3.3 0-2.6-.3-2.9-3.4-2.9-2.5 0-3.5-.5-3.9-2-.5-1.8 0-2 5.4-2h5.9v25zm33 0v25h-9v-18h7v-18.9l-3.7-.3c-2.1-.2-3.8-.8-3.8-1.3 0-.6 1.7-1.1 3.8-1.3 3.4-.3 3.7-.6 3.7-3.3 0-2.7-.3-2.9-3.7-2.9-3.5 0-3.6 0-1.8-2 1-1.1 3.1-2 4.7-2h2.8v25zm14.8-.3l-.3 24.8-5.2.3-5.3.3V449h7v-19h-3.5c-2.4 0-3.5-.5-3.5-1.5s1.1-1.5 3.5-1.5c3.2 0 3.5-.2 3.5-3s-.3-3-3.5-3c-2.8 0-3.5-.4-3.5-2 0-1.8.7-2 5.5-2h5.5l-.2 24.7zM213 436.4v6.5l-11.2-.2-11.3-.2-.3-6.3-.3-6.2H213v6.4zm48.8-.2l-.3 6.3h-15l-.3-6.3-.3-6.2h16.2l-.3 6.2zm48 0l-.3 6.3-7.2.3-7.3.3V430h15.1l-.3 6.2zm56.2.3v6.5h-23v-13h23v6.5zM213 450v6h-8.5c-5.8 0-9.6-.5-11.5-1.5-2.6-1.4-3-2.1-3-6V444h23v6zm48.8-.3l-.3 5.8h-15l-.3-5.8-.3-5.7h16.2l-.3 5.7zm48.2.3v6h-15v-12h15v6zm56 0v6h-23v-12h23v6zm-34.2 18.5c-1.3 1.4-24.7 5.5-37.1 6.6-10.6 1-17 1-28 .1-12.6-1.1-37.1-5.3-38.5-6.7-.3-.3 23-.5 51.8-.5 28.8 0 52.1.2 51.8.5zM71.1 161.7c-2.1 1.9-12.2 19.5-11.5 20.2.2.2 1.3-.4 2.3-1.3 1.9-1.8 2.3-1.7 10.8 2.9 13.1 7.1 14.6 8.3 13.9 11.1-1.3 5.1 1.5 2 6.5-7.2 5.9-11.1 6.7-16 3.2-19.6-2.8-2.7-7.5-2.8-11.1-.1l-2.7 2-.1-3.5c-.1-5.8-6.6-8.3-11.3-4.5zM497 177.4c0 3.1-.6 3.5-13.3 8.7l-10.9 4.4-1.8-2.2c-3-3.7-2.8-1.7.4 6.7 3.3 8.4 4.6 9.9 4.6 5.2 0-2.5.7-3.1 5.6-5.1 3-1.3 5.6-2.2 5.8-2 .7 1.1 4.6 11.3 4.6 12.3 0 .7-2.4 2.2-5.2 3.4l-5.3 2.3-1.8-2.2c-1-1.2-2-1.9-2.3-1.6-.8.8 5.8 16.7 6.7 16.1.4-.2.5-1.2.2-2.2-.6-2.6 1-3.7 13.3-8.7l10.9-4.5 1.8 2.2c3.2 3.8 3 1-.3-7.2-3.3-7.8-4.4-9-4.5-4.8 0 2.2-3.6 4.9-8.2 6.3-2 .5-2.6-.1-4.8-5.1-1.4-3.1-2.5-6.2-2.5-6.8 0-.7 2.3-2 5-3 4.9-1.8 5.2-1.8 7-.1 1.1 1 2.2 1.6 2.4 1.4.6-.6-5.8-15.9-6.6-15.9-.5 0-.8 1.1-.8 2.4zM17.8 188c-.9 2.8-1.2 5-.8 5 .5 0 1-.5 1.2-1.2.3-.9 2.7-.4 8.1 1.6 4.2 1.5 7.7 2.9 7.7 3.1 0 .1-.7 1.9-1.6 4-1.1 2.8-1.9 3.5-3.2 3-.9-.4-4.3-1.6-7.4-2.7-4.6-1.6-5.8-2.4-5.9-4.1 0-1.3-.8-.2-1.8 2.8-1.7 4.8-1.9 7.3-.2 4.7.6-.9 2-.8 6.2.7 8.4 2.9 8.9 3.2 8.9 4.7 0 3.6 1.8.7 4.5-7.4 2.7-7.9 3.3-8.8 6.2-9.7l3.2-1.1-3.1-1.2c-2.6-1-3.4-.9-4 .2-1.2 2-15.4-3.3-15.2-5.7.3-3.3-1.1-1.6-2.8 3.3zM51.7 200.1c-3 8.4-3 10.7 0 7l1.8-2.2 12.2 4.7c11.7 4.5 12.2 4.8 12.5 7.8.4 3.5.2 3.9 4.5-7.2 2.7-6.8 2.5-8.9-.4-5.3l-1.8 2.2-7-2.6c-3.8-1.5-9.4-3.6-12.2-4.7-4.7-1.7-5.3-2.3-5.3-4.9 0-4.9-1.4-3.3-4.3 5.2zM46.8 224.1c-1 .5-2.3 1.9-2.9 3.1-1.4 2.6-5.9 22.1-5.2 22.8.2.3 1.3-.6 2.3-2l1.9-2.5 11.2 2.3c13.2 2.7 15.3 3.6 14.6 6.3-.3 1.2-.1 1.9.6 1.6 1.4-.4 4.6-14.7 4.6-21 .1-5.9-1-8.1-4.7-9.6-3.8-1.6-7.6-.1-10.2 4.1-1.8 3-2 3.1-2 1 0-2.7-4.2-7.2-6.7-7.2-1 0-2.6.5-3.5 1.1zM514.7 224.8c.7 2.8-1.2 3.6-14.1 6.7l-11.9 2.7-1.8-2.3c-1-1.3-1.9-2.2-2.1-1.9-.7.8 3.4 17 4.2 17 .5 0 1-1.2 1.2-2.7.3-2.6.8-2.9 12.7-5.6l12.5-3 1.8 2.3c3.2 3.9 3.1 2.7-.3-11.3-.6-2-1.4-3.7-1.8-3.7-.5 0-.7.8-.4 1.8zM520.6 253.3c-.7 2.9-1.8 3.1-18.3 4.2l-9.2.6-.7-2.5c-1.2-4.8-2.7-2.9-2 2.6.3 2.9.6 7 .6 9 0 2.1.5 3.8 1 3.8.6 0 1-.8 1-1.8s.5-2.3 1.2-3c1.5-1.5 12.8-1.6 12.8-.1 0 2.6-2.4 5-7 7-2.7 1.1-5.6 2.9-6.5 3.9-2.3 2.6-2.3 8.4 0 11 2.4 2.7 3.7 2.5 2.9-.4-.5-1.9.3-3 4.5-6.2 2.8-2.2 5.6-5 6.2-6.4l1.2-2.5 5.8 2.8c5.6 2.7 5.8 2.8 5.2 6.2-.6 3.9 1.6 5.7 4.2 3.5 3.8-3.2.7-9-6.2-11.6-6.1-2.2-8.5-4.2-8.1-6.8.3-1.8 1.1-2.1 5.5-2.4 4.8-.3 5.3-.1 6.7 2.5 1.8 3.2 1.8 3.1 1.6-6.2-.2-7.8-1.3-11.3-2.4-7.2zM1.1 263.2c0 2.9.3 4.7.6 4 .2-.7 2.2-1.2 4.4-1.2H10l-.6 4.2c-.4 2.4-.7 4.4-.8 4.4-.1.1-1.6-.1-3.3-.3-2.1-.3-3.3-1.1-3.4-2.2-.2-2.3-1.6 3.9-1.8 7.4 0 2.5.1 2.7 1 1.2.8-1.4 2.4-1.7 8.5-1.7 6.8 0 7.5.2 8.4 2.2.8 2.1.9 2.1.9.3.1-1.1.4-3.8.7-6 .5-3.6.4-3.8-.9-2.3-.8 1-2.8 1.8-4.6 1.8-3 0-3.1-.1-3.1-4.5 0-4.5 0-4.5 3.5-4.5 2.8 0 3.8.5 4.5 2.2.7 1.9.9 1.6.9-1.9.1-2.3.4-4.8.7-5.7.3-.9.1-1.6-.5-1.6s-1.1.7-1.1 1.5c0 1.7-2.4 1.9-10.7.9-3.5-.5-5.3-1.1-5.3-2 0-.8-.4-1.4-1-1.4-.5 0-1 2.4-.9 5.2zM54.7 264.1c-2.6 1.5-4.7 7-4.7 11.9v4.1l-5.2-.3c-4.4-.2-5.5-.7-6.3-2.6-1.8-4.1-2.5-2.3-2.5 6.3 0 5 .4 8.5 1 8.5s1-.9 1-2c0-2.4-.4-2.3 13.5-2.1 13 .3 14.5.6 14.5 3.2 0 1 .4 1.9.9 1.9s1.2-4.7 1.6-10.4c.8-11.3-.3-16.9-3.5-18.6-2.4-1.3-8-1.2-10.3.1z"/><path d="M90.7 286.7c-1.3 1.3-.7 3.5.8 2.9 1.2-.4 1.5 1.8 1.7 15.2l.3 15.7 4.3.3 4.2.3V286h-5.3c-3 0-5.7.3-6 .7zm9.3 16.8V319h-5v-31h5v15.5zM120 303.5V321h16v-35h-16v17.5zm14 0V319h-5v-31h5v15.5zM420 303.5V321h16v-35h-16v17.5zm14 .4v15.8l-2.5-.5-2.5-.4v-14.7c0-8.1.3-15.1.7-15.4.3-.4 1.5-.7 2.5-.7 1.7 0 1.8 1.1 1.8 15.9zM454 303.5V321h6.5c3.7 0 6.5-.4 6.5-1s-.9-1-2-1c-2 0-2-.5-1.8-15.3l.3-15.2h2.5c2.4 0 2.5.4 3.1 7l.5 7 .2-8.1.2-8.2-8-.1-8-.1v17.5zM491.6 297.6c-.8 6.6-.3 7.5 2.1 4.5 1.7-2 2.1-2.1 4.7-1 2.7 1.3 2.8 1.5 2.3 6.7-.3 3-.8 5.6-1 5.8-.2.2-1.8.7-3.6 1-2.7.6-3.3.4-3.8-1.5-1-4-2-2.1-2.9 5.9-.6 4.4-.6 8-.2 8 .5 0 1.1-.6 1.4-1.4.8-2 4.8-3.4 28.2-9.6 2.4-.6 4.2-1.7 4.2-2.5 0-.7-5.5-4.4-12.2-8.1-12.9-7-16.8-9.9-16.8-12.1 0-.7-.4-1.3-.9-1.3-.4 0-1.1 2.5-1.5 5.6zM67 300.8c0 3.1-1.8 3.8-14.4 5.6-12.1 1.7-14.6 1.4-14.6-2 0-.8-.4-1.4-1-1.4-1.2 0-1.3-1.5 1 13.6 1.1 7.1 2 13.5 2 14.1 0 .7.5 1.3 1 1.3.6 0 1-.8 1-1.9 0-1 .7-2.4 1.5-3.1 2.2-1.8 12.7-2.4 18.2-1.1 6.1 1.6 7.4 2.7 6.4 5.4-1.1 3.1-.3 4.7 2.4 4.7 3.1 0 4-3.1 2.1-6.8-2.4-4.7-8.2-6.5-20.7-6.4l-10.7.1-.5-3.2c-.2-1.8-.3-3.4-.1-3.6.2-.2 6.1-1.3 13-2.3 13-1.9 15.4-1.6 15.4 1.8 0 .8.5 1.4 1.1 1.4.7 0 .9-1 .5-2.5-.3-1.3-.9-5.2-1.3-8.5-.5-5.6-2.3-9.5-2.3-5.2zM459.2 349c-.5 1.4-1.9 4.8-3.1 7.7-3.6 9.2-11.7 24.6-17.8 33.8-8.2 12.4-14.8 20.2-27.6 32.8l-11 10.7 4.3 5.2 4.4 5.1-3.5 2.9c-6.7 5.7-22.6 15.7-34.4 21.6-29.7 14.9-63.3 22.1-97 20.9-31.6-1.2-59-8.1-85.8-21.9-9.6-4.9-26.8-15.9-33-21l-2.8-2.3 4.5-5.5 4.5-5.4-5.7-5c-20.9-18.4-39.4-44.1-49.8-69.3-2.8-6.7-5-10.9-5.4-10.1-.4.7-2.4 7.1-4.5 14.3-2.1 7.1-4 13.2-4.1 13.3-.1.2-6.7-3.2-14.6-7.6-7.9-4.4-14.4-7.9-14.5-7.8-.2.1 1.3 4.3 3.3 9.2C70.8 383.4 80 401 87.2 412c3.5 5.2 6.6 10 7 10.6.4.7-1.5 2.7-4.7 5-3 2.1-5.5 4.2-5.5 4.6 0 1.5 15.9 19.8 25.5 29.3 31.3 30.9 71 52.7 114.5 62.9 45.2 10.7 97 7.7 139.6-7.9 15.3-5.6 38.6-17.4 52-26.4 13.8-9.2 30.5-23.2 41.4-34.7 8.1-8.5 19-21.8 19-23.1 0-.5-2.4-2.6-5.3-4.7l-5.3-3.8 7.3-11c8.4-12.8 16.9-29 21.9-41.9 1.9-5 3.4-9.2 3.2-9.4-.2-.1-6.4 3.3-13.8 7.6s-13.7 7.8-14 7.9c-.3 0-1.4-3-2.4-6.6-1.1-3.7-3.2-10.6-4.7-15.3-2.4-7.8-2.8-8.4-3.7-6.1zm3.9 23.2c1.7 5.7 3.5 10.7 3.9 11.1.4.4 4.7-1.5 9.6-4.4 4.9-2.8 9.7-5.5 10.6-6 1.5-.8 1.4-.1-.8 4.8-6 13.7-21.4 40-24.6 41.9-.5.3-4.1-1.9-8.1-4.8-4-3-7.7-5.7-8.4-6.1-.7-.4-3.4.9-6.4 3.2-4.9 3.7-17.6 11.3-21 12.6-.8.3.9-2 3.9-5.2 12.6-13.3 24.4-30.5 33.3-48.6 2.4-4.8 4.5-8.7 4.6-8.7.1 0 1.7 4.6 3.4 10.2zm-358.6-3c7.6 16.5 19.8 34.6 32 47.7 4.3 4.4 7.3 8.1 6.8 8.1-1.4 0-19-10.6-23.3-14-2.1-1.6-4-3-4.3-3-.2 0-4 2.7-8.3 6-4.3 3.3-8.1 6-8.5 6-.9 0-10.5-14.6-15.6-23.5-4.8-8.6-11.8-23.4-11.2-23.9.2-.2 5.1 2.3 10.9 5.5 5.8 3.2 10.7 5.9 11 5.9.3 0 1.9-4.7 3.5-10.5 1.7-5.8 3.3-10.5 3.6-10.5.3 0 1.8 2.8 3.4 6.2zm31.9 67.9C190.9 490 272 508.4 345 484.4c35.8-11.8 67.8-32.9 91.5-60.3 4.3-5 8.3-9.1 8.7-9.1.5 0 6.3 4.1 12.8 9.1l11.9 9.2-7.5 8.7c-37.8 44.3-87.4 71.8-146.9 81.7-15.3 2.5-54.2 2.5-70 0-51.4-8-96.8-30.6-132.5-65.7-11-10.8-22.3-23.7-21.8-25 .2-.5 5.7-4.9 12.2-9.8l11.9-8.9 5.9 6.9c3.3 3.8 10.1 11 15.2 15.9z"/><path d="M401.1 465.6c-3.6 2.2-4.1 2.8-2.8 3.6 2.4 1.3 7.9 9.6 7.2 10.8-1.2 2 1.1.9 4.8-2.1 2.9-2.4 3.7-3.7 3.5-5.8-.2-2-.9-2.7-3-2.9-1.9-.2-2.5-.8-2.1-1.8.5-1.4-1.3-4.4-2.6-4.4-.3 0-2.6 1.2-5 2.6z"/></svg>