<svg xmlns="http://www.w3.org/2000/svg" viewBox="0 -50 450 750"><path d="M82 461.7c-1 0-1.5-1.4-1.5-3v-.7a30.8 30.8 0 0 1 21.2-27c2.8-1 5.7-1.9 8.5-2.5-10-4.2-19.3-11.7-22.2-22.8-1-2.8-1.4-5.8-1.4-8.9 0-10.3 5.2-20.9 15.3-25 2.7-1.4 5.6-2 8.5-2 10.7 0 21.2 8.4 21.3 19.8v.2c0 7-4.5 13.7-11 16a14 14 0 0 1-18-7.1c-1-1.6-1.3-3.3-1.3-5 0-5.6 4.1-11.3 10-11.6l1.6-.2c4.9 0 9 4.8 9 9.5 0 2.4-1 4.7-3.4 6.3a6.4 6.4 0 0 1-3.9 1.3c-3.4 0-6.5-2.6-6.5-5.2V393.2c0-2.9 1.7-4 2.4-4l.3.2.1.3c0 .5-.5 1.2-.5 2.3 0 .3 0 .7.2 1.1.3 1.4 1.8 2.5 3.6 2.5.7 0 1.5-.2 2.3-.7a4 4 0 0 0 2-3.5c0-2.8-2.7-6-5.8-6h-1c-4 .3-7 4.2-7 8.2 0 1.2.3 2.5 1 3.6 1.7 4.3 5.2 6 9 6 6.4 0 13.5-5.3 13.5-12.5v-1c-.2-9.3-8.9-16.5-17.8-16.5-2.4 0-5 .6-7.2 1.7-8.6 3.5-13.3 12.7-13.3 21.9 0 2.7.4 5.4 1.2 8 3.2 11.8 14.3 19 25.9 22.5a100.7 100.7 0 0 1 18.5-.4 83 83 0 0 0 16.5-6.2c11.2-5 21-13.7 33.8-17 12.4-3.2 25-4.6 37.5-5.5h.2l.2 3.4h-.2c-12.4 1-24.9 2.3-36.8 5.4-11.7 3-21.6 11.5-33.2 16.7a87 87 0 0 1-17.2 6.5v.2h-.5a47 47 0 0 1-10.7 1.2c-2.7 0-5.5-.2-8.2-.9-4.8.7-9.6 1.8-14 3.5a27.3 27.3 0 0 0-19 24.1c-.2 1.8-1 3.3-2 3.4zm1.6-3.4a27.6 27.6 0 0 1 19.2-24.4c4.5-1.8 9.3-2.9 14.2-3.5 2.8.6 5.5.9 8.2.9 3.6 0 7.2-.5 10.7-1.3h.2v-.1c6.1-1.5 12-3.9 17.3-6.5 11.6-5.2 21.4-13.8 33.3-16.8a210 210 0 0 1 36.7-5.4l-.2-2.7A212 212 0 0 0 186 404c-12.7 3.3-22.4 12-33.7 17a82.6 82.6 0 0 1-16.7 6.3l-7.6-.3c-3.7 0-7.3.2-11 .6-11.6-3.5-23-10.6-26.1-22.6-.9-2.6-1.3-5.4-1.3-8.1 0-9.3 4.8-18.6 13.5-22.2 2.4-1.2 5-1.8 7.4-1.8 9.1 0 18 7.3 18.2 16.8v1.1c0 7.5-7.3 13-14 13a9.8 9.8 0 0 1-9.3-6.3 8 8 0 0 1-1-3.8c0-4.2 3.1-8.3 7.4-8.5h1c3.4 0 6.1 3.3 6.1 6.3 0 1.5-.6 2.9-2 3.8-1 .6-1.8.8-2.6.8-2 0-3.6-1.3-4-2.8l-.2-1.2c0-1.2.6-2 .5-2.3-.4 0-2 .8-2 3.5v.5c0 2.3 2.9 4.8 6.1 4.8a6 6 0 0 0 3.7-1.2 7 7 0 0 0 3.2-6c0-4.5-4-9-8.6-9.1-.5 0-1 0-1.5.2-5.7.3-9.7 5.8-9.7 11.2 0 1.7.3 3.3 1.2 4.8 2 4.9 7.3 8 12.5 8a16.8 16.8 0 0 0 15.9-16.7v-.2c-.2-11.1-10.5-19.5-21-19.5-2.8 0-5.7.7-8.4 2-9.8 4.1-15 14.5-15 24.7 0 3 .4 6 1.3 8.8 3 11.2 12.5 18.6 22.6 22.7l.6.3h-.6c-3 .8-6 1.6-9 2.8a30.4 30.4 0 0 0-21 26.7v.6c0 1.6.6 2.6 1 2.6h.1c.6 0 1.5-1.3 1.6-3zm139.6-60h.2-.2zm110.4-18.1a50.9 50.9 0 0 1-32.5-27.6c-6-12.3-8-26-8.3-39.3v-2.8c.3-3.5.5-6.8.4-10.2-.2-10.6-2.5-20.8-4.2-31.7-2.3-14-4.6-28-7.3-41.8h.2l.2-.1c2.6 13.9 5 27.9 7.3 41.8 1.7 11 4 21.2 4.2 31.8 0 3.4 0 6.7-.5 10.2v2.8c.3 13.3 2.3 27 8.3 39.1 6.2 13 18 23.8 32.3 27.5 4.6 1.5 9.7 2.4 14.8 2.3 9.6-.2 19.2-3.7 25.7-11.1a28.7 28.7 0 0 0 7.7-20.3 23.8 23.8 0 0 0-9.6-19.4 21 21 0 0 0-14.6-5.2c-9.7.2-19.4 6.4-21.8 16.5-.5 1.5-.7 3.2-.7 4.8.1 6 3.7 12 9.2 14.7 2.2 1.2 4.6 1.8 7 1.7 5.3 0 10.5-3 13-7.7l-2.3-1.3c-2.1 3.9-6.4 6.3-10.7 6.4-2 0-4-.5-5.8-1.5a14.3 14.3 0 0 1-7.7-12.3c0-1.4.1-2.8.6-4.1 2.1-8.9 10.6-14.3 19.2-14.5 4.6 0 9.2 1.3 13 4.6a21.3 21.3 0 0 1 8.6 17.3c.1 6.7-2.4 13.5-7 18.5-6.1 6.8-14.7 10-23.7 10.2-4.8 0-9.7-.7-14.3-2.2a47.8 47.8 0 0 1-30.5-26 89.8 89.8 0 0 1-8-38v-2.8c.4-3.3.5-6.6.5-10-.3-10.8-2.6-22-4.2-32.4-2.4-14-4.7-28-7.4-42a73 73 0 0 0-4-14.5c-.4-.7-.7-1-.8-1v1.1c0 2.5.9 8.3 2.2 15h-.4a123 123 0 0 1-2.3-15c0-.8 0-1.3.4-1.5h.1c.8 0 1.4 1.8 2.4 4.7 1 2.8 2 6.8 2.8 11.2 2.6 14 5 28 7.3 42 1.7 10.4 4 21.5 4.2 32.4.1 3.4 0 6.7-.4 10v2.8c.3 13 2.3 26.2 8 37.8a47.4 47.4 0 0 0 30.2 25.8c4.6 1.5 9.5 2.3 14.2 2.2 8.9-.2 17.4-3.4 23.3-10a26 26 0 0 0 7-18.3 21 21 0 0 0-8.5-17 18.3 18.3 0 0 0-12.7-4.5c-8.4.1-16.8 5.5-18.9 14.2a14 14 0 0 0 7 16c1.7 1 3.7 1.4 5.6 1.4 4.2-.1 8.4-2.5 10.4-6.3l.1-.2 3 1.7v.1c-2.6 5-8 8-13.5 8.1-2.5 0-5-.5-7.2-1.8a17.4 17.4 0 0 1-9.4-15c0-1.7.2-3.3.7-5 2.5-10.2 12.4-16.4 22.2-16.6 5.3-.2 10.6 1.5 14.8 5.2 6.6 4.7 9.7 12 9.8 19.6a29 29 0 0 1-7.8 20.6 34.8 34.8 0 0 1-26 11.2c-5.1.1-10.3-.7-15-2.3zM339.2 68.8a12.6 12.6 0 0 1 25.2 0 12.6 12.6 0 0 1-25.2 0zm12.6 11c6.1 0 11.1-5 11.1-11a11.1 11.1 0 0 0-22.2 0c0 6 5 11 11.1 11zM339 96.2c0-4.7 3.8-8.5 8.5-8.5s8.6 3.8 8.6 8.5a8.6 8.6 0 1 1-17.1 0zm8.5 7a7 7 0 0 0 0-14.1 7 7 0 0 0 0 14.1zm10.3-15.9a4.8 4.8 0 1 1 9.6 0 4.8 4.8 0 0 1-9.6 0zm4.8 3.3a3.3 3.3 0 1 0 0-6.6 3.3 3.3 0 0 0 0 6.6zM10 468.8a11 11 0 0 1 7-14 11 11 0 0 1 14 7h-.1c.4 1.2.5 2.4.5 3.5 0 4.6-2.9 9-7.5 10.5a11 11 0 0 1-14-7zm7.3-12.9a9.9 9.9 0 0 0-6.8 9.4 9.9 9.9 0 0 0 9.9 9.9 9.9 9.9 0 0 0 9.9-9.9 9.9 9.9 0 0 0-9.9-9.9c-1 0-2 .2-3 .5zm8.4 37.1c-.3-1-.4-1.8-.4-2.7 0-3.5 2.2-6.8 5.7-8 1-.2 1.8-.4 2.7-.4a8.5 8.5 0 0 1 8.4 8.4c0 3.5-2.3 6.8-5.8 8l-.2-.6.2.6a8.4 8.4 0 0 1-10.6-5.3zm5.7-9.6c-3 1-5 3.9-5 7 0 .7.1 1.4.4 2.2 1 3 3.8 5 6.9 5a7.3 7.3 0 0 0 7.3-7.2 7.2 7.2 0 0 0-7.2-7.3h-.1c-.8 0-1.5 0-2.3.3zm7.1-6.8A4.5 4.5 0 0 1 34 472c0-2 1.3-3.7 3.2-4.4l1.4-.2c2 0 3.8 1.2 4.4 3.2.2.4.2 1 .2 1.4 0 2-1.2 3.7-3.1 4.4l-.2-.6.2.6-1.4.2zm-1-7.9A3.5 3.5 0 0 0 35 472l.1 1.1a3.5 3.5 0 0 0 3.3 2.4c.4 0 .8 0 1.1-.2A3.5 3.5 0 0 0 42 472c0-.4 0-.7-.2-1a3.5 3.5 0 0 0-3.3-2.5c-.3 0-.7 0-1 .2z"/><path d="M160 623.5c-14.6-3.1-22.2-19.5-23-35.4l-.1-3.8c0-11 2.3-22.2 4.7-31.2-17 33-49.2 40.6-66.7 43-2.4.2-5 .4-7.7.4-28.1 0-64.2-18.5-67-60l-.2-5c0-36.7 28.3-53 28.4-53.1l.4.7a57.3 57.3 0 0 0-24 48c0 28.6 18.8 57.2 59 57.2l7.8-.3c55-4.8 62-46.7 62-68a87 87 0 0 0-.7-11.1c-12 26.8-30.5 33.6-45.8 33.6-15.3 0-27.4-6.6-27.5-6.6l.3-.7c8 2.8 15.1 4 21.5 4 25 0 39-18.7 47-37.6 6.2-14.5 8.6-29 9.4-35-12.4 29.7-27.7 36.2-38.6 36.2-8.1 0-13.7-3.6-13.7-3.6l.3-.7c3.2.9 6.2 1.3 9 1.3 11 0 18.9-6.3 27.2-18 5.6-7.8 13.2-25.2 23.7-37 30.9-34.6 78.6-41 78.6-41l.2.6c-26.4 9.9-82.6 19.4-82.8 91.7 0 18 8.9 34.6 22.5 46.6a78.8 78.8 0 0 0 51.3 19.4c30.2 0 62-18.4 79.7-67.1l.3-1 .4 1s5 13.5 5 27c0 11-3.4 22.3-15.8 25.8-18 5-20.8 23.8-20.8 35.5 0 5.4.6 9.3.6 9.3h-.4l.3-.2-.3.2h.4l-.7.3c-10-14.7-27.1-18.5-42-18.5-13.8 0-25.6 3.2-28.2 4 2.7 3.6 4.1 9 4.1 15 0 15.6-9.3 35-30.1 35a39 39 0 0 1-8-1zm-22.3-39.2v3.8c.9 15.7 8.4 31.7 22.4 34.7 2.8.5 5.4.8 7.9.8 20.3 0 29.4-18.8 29.4-34.1 0-6.2-1.5-11.7-4.3-15.2l-.3-.4.5-.2s13.2-4 28.8-4c14.7 0 31.6 3.5 41.8 17.5-.1-1.7-.4-4.5-.4-8 0-11.7 3-31 21.4-36.2 12-3.3 15.2-14 15.2-25 0-11.2-3.5-22.5-4.6-25.8-17.8 48.2-49.7 66.7-80 66.7-38.6 0-74.5-30.2-74.6-66.7v-.2c.2-69 51.3-81.3 79-90.7-4.9 1-13.2 3-23 6.7-15.8 5.9-35.3 16.1-50.6 33.3-10.4 11.7-18 29-23.6 37-8.4 11.7-16.6 18.3-27.9 18.3-1.9 0-4-.2-6-.6l.8.3c2.3.9 5.7 1.7 9.6 1.7 10.9 0 26.4-6.5 39-38.3l.6.2s-1.7 19-9.7 38c-8 19-22.3 38-47.7 38-4.6 0-9.6-.6-15-2l1.5.6a61.2 61.2 0 0 0 19.2 3.3c15.3 0 33.7-6.8 45.6-34.4l.5-1.2.2 1.3s1 5 1 12.4c0 21.5-7.3 64-62.7 68.8a93 93 0 0 1-8 .4 58.7 58.7 0 0 1-45-18.2A59 59 0 0 1 4 527.2a62 62 0 0 1 11.1-36l-.3.5c-7 8.6-14 21.7-14 39.8l.1 4.9c2.8 41 38.5 59.3 66.3 59.4 2.6 0 5.2-.2 7.6-.5 18.2-2.4 52-10.4 68-46.6 2.6-8.4 5-14 5-14l.7.2c-1.3 5-3 9.7-4.9 14-2.9 9.6-6 22.7-6 35.4zM28.7 479z"/><path d="M189 588.5c.8 23.8-22.7 30.7-36.8 16.6-16.8-16.8-1.2-68.3-1.2-68.3s-11.3 46.8 5.2 58.6c19.4 13.7 32.8-6.9 32.8-6.9z"/><path d="M163.7 590.9c-16.1-4.1-16.8-28.3-16.8-33.3v-1h1.1s.4 6.4 2.5 12.9c2.2 6.5 6 13 12.8 13.7l2 .1c10.7 0 12.4-9.8 12.4-9.8l.3-1.7.8 1.5c1.3 2.6 1.8 5 1.8 7 0 6.8-5.7 11-12.6 11.1a18 18 0 0 1-4.3-.5zm.3-1.1c1.3.3 2.7.5 4 .5 6.4 0 11.5-4 11.5-10 0-1.5-.3-3.2-1-5-1.1 2.9-4.3 9.1-13.1 9.2-.7 0-1.5 0-2.2-.2-8.2-1-12.3-9.1-14.3-16.3 1.5 8.7 5.3 19.5 15 21.8z"/><path d="M172 563.6c4.7 9.1-2.9 15.1-11.2 13-13.6-3.3-12.8-26.3-12.8-26.3s1.2 20 12.3 21.3c10.1 1 11.8-8 11.8-8z"/><path d="M156.2 564c-5.4-3.8-6.5-11.8-6.5-18.2 0-5 .7-9 .7-9.1h1.2c.2 3.1 4.7 11.8 13.2 15a6 6 0 0 1 4.2 5.7c0 4-3.3 8.1-7.9 8.2-1.6 0-3.2-.5-4.9-1.7zm-5.4-18.2c0 6.3 1.2 14 6 17.2 1.6 1 3 1.4 4.3 1.4 3.8 0 6.8-3.7 6.8-7 0-2-1-3.8-3.5-4.7a23.8 23.8 0 0 1-13.2-13c-.2 1.6-.4 3.7-.4 6.1zm-.4-9h.6-.6zM342.6 240c-2.4 0-5-.5-7.7-1.5-2.1-1.1-16.6-6.5-29.4-19.7-13-13.2-21.5-34-25.5-54.6a183.2 183.2 0 0 1-3.3-35.8c0-24.5 4.3-43 4.6-44.4v-.2l.2-.2.4-.1c.2 0 .3 0 .4.2l1.2 1.8-1.1-.6v1l-.1 5c0 13 1.3 42.3 11.8 69.2a92.2 92.2 0 0 0 29.1 40.9c11 8.1 20.4 10.3 22.2 11.3 6.4 2.5 11.4 8.6 11.4 15.4 0 .8 0 1.7-.2 2.6-1 5.7-6.9 9.7-14 9.7zM280 96.9a220 220 0 0 0-2.3 31.5c0 11 .9 23.1 3.4 35.6 3.9 20.5 12.4 41 25.1 54 12.7 13 26.8 18.3 29 19.5 2.6 1 5 1.3 7.3 1.3 6.7 0 12-3.7 12.9-8.8l.2-2.3c0-6.3-4.6-12-10.8-14.4-1.5-.8-11.3-3.2-22.3-11.4a93.3 93.3 0 0 1-29.5-41.4 202.5 202.5 0 0 1-12-69.6v-.3l-1 6.3z"/><path d="M343.2 181c-1.7-.5-11-2.3-21.4-9.4a75.6 75.6 0 0 1-26-32.7 142.3 142.3 0 0 1-10.5-53V84.7l.2-.2h.1v-.1h.8v.2h.1v.4c.2 1 4.4 27.7 18.4 49.2 7 11 16.8 19.6 25.2 23.4 8.5 4 15.1 4.1 16.5 4.5 5.3 1 10 5 10.2 10.4v.2c0 4.7-4.8 8.5-11 8.5-.8 0-1.6 0-2.5-.2zm-46.3-42.5a74.6 74.6 0 0 0 25.5 32.2c10.3 7 19.4 8.7 21 9.1l2.3.2c5.8 0 9.9-3.6 9.9-7.4v-.1c-.1-4.8-4.4-8.5-9.3-9.4-1.1-.3-8.1-.6-16.7-4.6a64.3 64.3 0 0 1-25.7-23.8 137.6 137.6 0 0 1-17.3-43.1c.5 9.7 2.4 28.4 10.3 46.9zm-10.7-54zm.2.2zm0-.1z"/><path d="M327.3 135.2h-.1c-1-.4-6.9-1.5-13.6-5.8a49.4 49.4 0 0 1-17-20.7c-7.4-16.6-7.4-33.9-7.5-35v-.1l.1-.2.2-.1.3-.2.4.2.1.1v.5l.2.6.4 2.2a84.7 84.7 0 0 0 10.9 29.3 42.7 42.7 0 0 0 16.3 16c5.5 2.6 9.8 2.8 11 3.2 3.8.4 7 2.7 7 5.7 0 2.8-3.3 4.4-7.3 4.4h-1.4zm1.4-1.1c1.9 0 3.5-.4 4.6-1 1-.6 1.6-1.4 1.6-2.2 0-2.1-2.7-4.4-6-4.6h-.2c-.5-.4-5.4-.7-11.2-3.4a43.8 43.8 0 0 1-16.8-16.3 88.4 88.4 0 0 1-9.8-24.3l.2 2.3a88 88 0 0 0 6.6 23.6c3.7 8.4 10 16 16.5 20.3 6.4 4 12 5 13.3 5.5l1.2.1zm-39-60.4zm0 0zm.5-.2zM154.4 516.7s10.8 11.9 25.2 18c7 3 14.5 4 20 3 5.3-1 8.7-3 9.4-3.2 2.7-1.3 6.2-.8 8 1.7 1.7 2.4.3 6.3-3.6 8.1-1 .4-6.4 3-13.8 3-7.3 0-15.6-3.3-22.6-7.9-14.2-9.2-22.6-22.8-22.6-22.7z"/><path d="M155.8 515.8c-.1 0 8.9 6.5 19.3 8.5 5.2 1.1 10.4.7 13.9-.7 3.5-1.3 5.5-3.2 6-3.5 1.6-1.2 4-1.4 5.5 0 1.4 1.3 1 4.1-1.3 5.9-.6.3-3.7 2.5-8.6 3.5a30 30 0 0 1-16.5-1.7c-10.8-4.1-18.3-12-18.3-12z"/><path d="M153.6 511.6s5.8 4.3 12.6 5.8c3.4.8 6.8.6 9.2-.3 2.4-.9 3.8-2.1 4-2.3 1.2-.9 2.6-1 3.4-.4.7.7.2 2.2-1.2 3.4-.4.2-2.3 1.5-5.4 2.3-3 .7-7 .3-10.5-1-7-2.5-12-7.5-12-7.5zm69.6-121.8c.1 0-8.4-.3-15.4-5.1-3.6-2.4-6.3-6-7.7-9.4-1.3-3.3-1.5-6.1-1.6-6.6-.3-2-1.6-3.7-3.2-3.5-1.6.2-2.8 2.8-2.4 5.7.2.7.9 5 3.2 8.9 2.3 4 6.3 6.9 10.4 8.5 8.4 3.3 16.8 1.5 16.7 1.5z"/><path d="M223.2 388.6s-5.6-1.7-9.7-6.4c-2.1-2.3-3.6-5.3-4.1-7.8-.5-2.6-.4-4.5-.4-4.9 0-1.5-.7-2.8-1.7-3-1-.1-2.1 1.4-2.1 3.5 0 .5.1 3.1 1.2 6.3 1.1 3.1 3.4 6.2 6 8 5.1 4 10.8 4.3 10.8 4.3z"/><path d="M225.6 387.8s-3.6-1-6.4-4a11.6 11.6 0 0 1-2.8-5.1c-.4-1.7-.3-3-.3-3.3 0-1-.3-2-.8-2-.6 0-1 1-1.1 2.2a11.8 11.8 0 0 0 4.5 9.2c3.2 2.7 7 3 7 3zm51.5-12.8c.5 6.6 2.5 13 1.7 19.5-.9 6.5-3 12.9-6.4 18.5a44.9 44.9 0 0 1-32.6 20 40.2 40.2 0 0 0-29.3 22.6c-5.2 11.5-3.4 26.5 6.4 34.8-9.6-8.4-11.2-23.3-6-34.6a39.5 39.5 0 0 1 29.2-21.8 46.2 46.2 0 0 0 33.5-20.2 50.2 50.2 0 0 0 7-19c.9-7.5-1.1-13.3-1.5-20"/><path d="M276 380.8s1.5 5.7-3.1 9c-3.2 2-9.5.7-9.5.7s4.6-17.9 12.6-9.7zm.3 17.7c.1 0-.7 5.6-6 5.8-3.4 0-8.1-3.7-8.1-3.6.2 1 9.3-10.6 14.1-2.2zm-6.3 14.7c.2 0-2.4 4.5-6.8 3-3-1.2-5.6-5.9-5.7-5.8-.3.9 11.2-5.6 12.5 2.8zm-11.1 11.5c.1 0-3.8 2.9-7.1 0-2.2-2.2-2.7-7.2-2.8-7.2-.3.7 12-.8 9.9 7.2zm-13.2 5.6s-3.9 1.5-6.6-1.5c-1.9-2-1.2-6.8-1.1-6.8 1-.2 12 2.2 7.7 8.3zm-14 3.8s-3.2 1.6-6.1 0c-2-1.3-2.6-5.4-2.5-5.5.2-.6 13-.7 8.6 5.5zm-11 6.1s-2.3 2.1-5.1 1.4c-2-.5-3.5-3.9-3.5-3.9 0-.5 10.8-3.9 8.6 2.5zm-8.2 8.5s-1.3 2.4-3.9 2.6c-1.8 0-3.9-2.4-3.9-2.4-.1-.4 8-6 7.8-.2zm-4.7 9.4s-.6 2.3-2.7 3c-1.4.5-3.7-1-3.7-1 0-.3 5-6.7 6.3-2zm-1.8 9.6s.1 1.9-1.5 2.8c-1 .7-3 0-3 0 0-.1 2.3-6.1 4.4-2.8zm1 9.2s.6 1.4-.4 2.6c-.8.8-2.5.7-2.5.7 0-.1.3-5.5 2.9-3.3zm2.9 7.3s.7 1.1.2 2.2c-.4.8-1.9 1.1-1.9 1.1-.2 0-.7-4.5 1.7-3.3zm4.4 5.3s.9.6.6 1.8c-.2.7-1.4 1.3-1.4 1.3s-1.6-3.6.8-3.1zm66.6-109.3s0 5.9 4.6 7.4c3.2 1 8.4-2.4 8.4-2.4s-8-15.4-13-5zm-.2 18.9c0 .1-2.1 5.3 1 8.8 2 2.5 8 1.4 8 1.3 1-.5-1-19.2-9-10zM274 415c0 .2-3.5 4-2 8 .9 2.8 6.3 3.7 6.4 3.7 1-.2 5.2-17-4.5-11.6zm-12.4 12.3c0 .2-4.4 1.9-4.5 6-.2 2.8 4 5.6 4.1 5.5.8.2 10.8-12.5.4-11.5zm-14 6s-4.5.5-5.2 4c-.4 2.4 1.9 6 2 6 .3 0 12-7.5 3.2-10zm-13.6 3.5c.1 0-3.4.8-3.2 3.8.2 2 3 4.5 3 4.5-.4.2 6.5-6.5.3-8.3zm-10.2 5s-2.6 1.5-1.8 4c.6 1.6 3.6 3.1 3.6 3.1-.3.2 3.9-7-1.8-7.1zm-7.8 7.3s-1.8 2-.5 3.8c1 1.2 3.8 1.7 3.8 1.8-.2.1 1.5-7-3.3-5.6zm-4.7 8.3s-1 2 .5 3.2c1 .8 3.5.5 3.5.6-.2.1-.4-6-4-3.8zm-2.1 8.4s-.3 1.8 1.1 2.4c1 .4 2.8-.2 2.8-.2-.2 0-1.4-4.6-3.9-2.2zm.3 8.3s0 1.5 1.3 1.7c1 .1 2.2-.8 2.2-.8-.1.1-2-3.5-3.5-.9zm2.1 6.7s.4 1.2 1.4 1c.8 0 1.7-1 1.7-1s-2.6-2.4-3.1 0zm2.8 4.7s.5 1 1.4.7c.5-.2 1.1-1.3 1.1-1.3s-2.5-1.5-2.5.6zm3 3.6s.5 1 1.5.6c.6-.2 1.1-1.3 1.1-1.3 0 .2-2.6-1.4-2.6.7zm.3 2.9s.7-.6 1.8.2c.7.5 1.4 2 1.4 2s-3.5-.3-3.2-2.3zM295.6 17.6c-13 3.2-27.4 4-37.9 13.2a52.5 52.5 0 0 0-18.2 34.9 70.1 70.1 0 0 1-13.8 38.1c-8.2 10.9-24.3 17.3-37.3 10.3 13 7.2 29.3 1 37.7-10 9-10.7 13-24.8 14.4-38.3A51.3 51.3 0 0 1 258.6 32c10.1-8.7 24.1-9.3 37.4-12.4m-6.5-2.6s-5.8 2-9.5-2.3c-2.5-3-1.6-9.4-1.6-9.4s19 2.9 11.1 11.7zm-18.7 4.5c-.2 0-5 2.7-9.7 0-3.3-1.7-4-8-4-8 .5-1.1 21.5-1.7 13.7 8zm-15.5 8.9s-3.4 3.9-8.1 3.2c-3.4-.5-6-5.5-6-5.6 0-1.1 17.6-8.2 14.1 2.4z"/><path d="M244.6 44.4s-1.7 4.5-6 5.3c-3.2.5-7-3-7-3.1-.3-.7 12.2-12.5 13-2.2zM239.4 59c-.1 0-.4 4.4-4.1 5.9-2.6 1-6.8-1.3-6.8-1.4-.3-.3 7.8-12.9 11-4.5zM237 73.9s-.2 3.8-3.7 4.6c-2.3.6-5.7-1.6-5.7-1.6.2.3 6-9.2 9.3-3zm-3.3 12.2s-.7 3.3-3.8 3.5c-2 0-4.7-2.3-4.7-2.3.2.3 6.5-7 8.5-1.2zM228.6 97s-1.2 2.6-3.9 2.2c-1.7-.3-3.5-2.9-3.5-2.8 0 .3 6.7-4.8 7.4.5zm-6.5 8.3s-1.5 2-3.6 1c-1.4-.5-2.4-3-2.4-3 0 .4 6.4-2.5 6 2zm-7.6 5.9s-1.5 1.3-3 .1c-1-.7-1.2-2.8-1.2-2.8 0 .3 5.4-.7 4.2 2.7zm-8.5 3.7c.1 0-1.5.6-2.4-.8-.5-.8-.2-2.5-.2-2.5-.1.2 4.5.8 2.7 3.3zm-7.7.5s-1.5.1-1.8-1.1c-.3-.9.4-2.2.4-2.2s3.5 1.9 1.4 3.3zm-6.9-1.1s-1.2-.4-1.2-1.5c0-.8.8-1.7.8-1.7s2.5 2.6.4 3.2zm99.1-92.5s-6 .5-7.2 5.3c-.7 3.3 3.2 8.1 3.2 8.1s15.2-9.4 4-13.4zm-18 3.7s-5.5 1.4-5 6c.5 3 4.8 6.7 4.7 6.7-.9-.1 9.5-9.4.3-12.7zm-14 7.7c.1 0-4.2 2.9-2.2 6.7 1.3 2.5 6 4.2 6 4.2-.7.2 5.2-11.1-3.8-10.9zm-10.2 12.2s-2.9 3.8 0 6.7c2 1.8 6.7 1.8 6.7 1.8-.5.3 1-12-6.7-8.5zM243 58.7s-1.6 4 1.5 6c2 1.3 6.2.2 6.2.2-.4.2-1.6-11.3-7.7-6.2zM240.5 73s-1 3.7 1.3 5.6c1.6 1.4 5.5.2 5.5.2.2-.2-2-12-6.8-5.8zm-3.3 12.6s-1.4 3 .4 5.1c1.1 1.4 4.7 1 4.7 1 0-.2.1-10.7-5-6.1zm-5 11.3s-1.8 2.3-.6 4.4c.8 1.5 3.9 1.7 3.9 1.6 0-.1 2-9-3.3-6zm-6.4 9s-2 1.6-1.3 3.6c.4 1.4 2.8 2 2.9 2 0-.1 3.4-7.2-1.6-5.6zm-7.6 6.8s-2 1-1.8 2.6c0 1.1 1.8 2.1 1.8 2 .1 0 4.2-4.9 0-4.6zm-9 4.4s-1.7.3-2 1.6c-.3 1 .9 2.2.9 2.2.1 0 4.7-3 1.1-3.8zm-8.5 1.5s-1.5-.2-2 .7c-.5.7.2 2 .2 2 0 .2 4.5-1.3 1.8-2.7zm-6.8-.8s-1.3-.5-2 .2c-.5.5-.2 1.7-.2 1.7s4.1-.1 2.2-2zm-5.5-2.2s-1-.8-2-.4c-.7.2-1 1.4-1 1.4 0 .1 4 1.1 3-1zm-1.2-2.8s-.7.6-2-.4c-.8-.6-1.5-2-1.5-2s3.6.3 3.5 2.4zM266.6 360s12.2-21 12.2-46.6c0-5-.4-10-1.5-15-1.3 2.9-5.5 10.8-11.9 10.9-1.4 0-2.8-.4-4.3-1.3a17.4 17.4 0 0 1-9-16.2c0-5.3 1.5-11.8 4.8-19.8a153.2 153.2 0 0 0 10.3-50c0-8.4-1.6-14.9-5.3-16.6-7.8-4-10.9-21.5-10.9-42.2 0-19.5 2.8-41.6 7.5-57.6h.7l-.1 8.3c0 11.8.8 35.2 5.8 62 4.7 25 19.3 77.4 19.3 122.5 0 24.6-4.3 47.1-17 62l-.6-.4zm11.2-62.9c1.3 5.5 1.8 11 1.8 16.3 0 19.4-7 36.3-10.4 43.4 10.5-14.6 14.2-35.6 14.2-58.4 0-45-14.5-97.2-19.2-122.4-5-26.9-5.9-50.3-5.9-62.1l.1-5.1a225.8 225.8 0 0 0-6.6 54.3c0 20.7 3.3 38.2 10.5 41.6 4.2 2.1 5.6 8.8 5.6 17.4 0 15.6-5 37.6-10.3 50.2-3.3 8-4.8 14.3-4.8 19.5 0 7.4 3 12.3 8.7 15.6 1.4.8 2.7 1.1 3.9 1.1 3.5 0 6.4-2.8 8.5-5.7 2-2.9 3.2-5.8 3.2-5.8l.5-1 .2 1.1z"/><path d="M257.3 293.1a8 8 0 0 1 16.1 0 8 8 0 0 1-16.1 0zm8 7.3a7.3 7.3 0 0 0 0-14.6 7.3 7.3 0 0 0 0 14.6zM264.2 274.6c0-3.2 2.5-5.7 5.6-5.7 3 0 5.6 2.5 5.6 5.7 0 3-2.5 5.6-5.6 5.6a5.6 5.6 0 0 1-5.6-5.6zm5.6 4.8c2.7 0 4.9-2.2 4.9-4.8 0-2.7-2.2-5-5-5a4.9 4.9 0 0 0-4.8 5c0 2.6 2.2 4.8 4.9 4.8zM268.1 259.2c0-2 1.7-3.7 3.7-3.7s3.7 1.7 3.7 3.7-1.7 3.7-3.7 3.7-3.7-1.7-3.7-3.7zm3.7 3a3 3 0 0 0 0-5.8v-.1a3 3 0 0 0 0 5.8zM269.8 246.3c0-1.1 1-2 2-2a2 2 0 0 1 0 4 2 2 0 0 1-2-2zm2 1.2c.7 0 1.3-.5 1.3-1.2s-.6-1.3-1.3-1.3c-.7 0-1.2.6-1.2 1.3 0 .7.5 1.2 1.2 1.2zM134.9 351v-1c0-17.4 9-24.8 15.2-28-1 .2-2 .2-3 .2-17 0-28.6-16.5-30-36.8-1.5-21.5-18-22.3-20.8-22.3h-.4v-.8l3.6-.2c21.3 0 23.7 22.6 23.7 22.6 5.4 21.4 16.5 26.6 26.3 26.7 8.4 0 15.8-3.9 17.9-5-9-5.4-11.5-12.5-11.5-18.5 0-7 3.2-12.4 3.3-12.5l.7.3a33 33 0 0 0-.7 6c0 13.5 10.6 16 18.7 16a42 42 0 0 0 8.3-.8 50.4 50.4 0 0 0 4.8-20.3c0-23-22.4-30.2-22.5-30.2l.2-.8c29.8 6.5 32.9 34.2 32.8 45.3v3.8c11.2-9 15-18 15-26.2 0-9.3-5-17.7-10-23.8-5-6-10-9.7-10-9.7a50.3 50.3 0 0 1-20.4-39.1c0-20.1 14-37.5 35.1-37.5h4.8v.7a34.5 34.5 0 0 0-35.5 34.5c0 12.6 6.6 26.8 22.8 39.2 18.7 14.1 24 30.1 24 43.6 0 17.4-8.8 30.7-8.8 30.7l-.3.5-.3-.5s-.2-.4-.9-1c-.6-.6-1.6-1.4-3.1-2.2-3-1.6-8.1-3.2-16.3-3.2H194c-17.3 1-39.3 17.1-39.3 45.5 0 3.1.3 6.3.8 9.6 5.9 36.3 50.8 41.2 50.9 41.2v.8l-6.6.2c-39.4 0-64.4-23.1-65-47zm.7-1v1c.5 23.3 25 46.2 64.2 46.2h2.8c-10.9-2-42.8-10.7-47.8-41.2-.6-3.4-.8-6.7-.8-9.8a44.9 44.9 0 0 1 40-46.2 68 68 0 0 1 3.6 0c14 0 19.2 4.7 20.6 6.2a60.6 60.6 0 0 0 8.4-29.8c0-13.3-5.2-29-23.7-43-16.4-12.5-23.2-27-23.2-39.8a35 35 0 0 1 27.7-34.3c-18.4 2-30.5 18-30.5 36.6 0 13 6 27.2 20 38.5 0 0 20.4 14.9 20.4 34.1 0 8.7-4.2 18.1-16.1 27.4l-.7.5v-.9s.3-1.7.3-4.6c0-10.4-2.7-35.1-27.4-43.2 6.7 3.5 18.3 12 18.4 28.9 0 5.8-1.5 12.7-5 20.7l-.1.2h-.2s-3.8 1-8.6 1c-4 0-9-.7-12.8-3.1-3.8-2.4-6.6-6.7-6.6-13.7 0-1.1 0-2.3.2-3.6-.9 2.2-2 5.8-2 9.8 0 6 2.4 12.9 11.6 18.1l.5.3-.5.4s-8.7 5.4-18.8 5.4c-10.1 0-21.6-5.6-27-27.3 0 0-2.3-20.7-21.3-21.9 6.1 1.5 15.5 6.4 16.6 22.4 1.4 20.1 12.9 36.2 29.4 36.2 1.9 0 3.9-.2 6-.7 1.8-.6 3-.8 3-.8l.2.7-3.2.9c-5.7 2-17.6 8.5-17.6 28.4zm82.6-43.1l.3-.2-.3.2z"/><path d="M210 391.8c.1-.3-8 .4-19-4.7a50.7 50.7 0 0 1-28-33.1 40 40 0 0 1 16.5-42.7c12.2-8 24.4-4.9 26.1-4 8.9 3.4 11 11.2 8.8 12.2-2.2 1.4-6.5-1.9-11.8-3.7-1-.4-9-3.5-19.2 2-10 4.9-18.9 20.2-16 35.3a47.9 47.9 0 0 0 24.2 32.8c10.3 5.7 18.5 5.7 18.4 6z"/><path d="M209.2 390.4c.2 0-10-.9-18.3-7.6-9.3-6.7-9.4-20.1-9-21 .5-2.5 2.3-4 4.1-3.6a4 4 0 0 1 2.7 4.5c-.2.7-2.3 10.4 4.5 17.6 6.3 7.3 16.2 10.1 16 10.1z"/><path d="M183.7 377s-4-3.6-7-8.5c-3.4-4.6-3.4-11.7-2.6-12.4.6-1.5 2.2-2 3.2-1.3 1 .8 1.4 2 1 2.8-.3.2-1.7 4.8.5 10 1.7 5 5 9.3 5 9.3zM214.7 588.4c-2.6 2.3-6.2 2.3-8.3.5-2.2-2-2.4-5.4-.6-8.3 1.8-3 6-3.5 8.8-1a5.9 5.9 0 0 1 .1 8.8zm7.7 10.8c-2.6 1.4-5.6.7-7-1.3-1.5-2.1-1-5.2 1.2-7a5 5 0 0 1 7.4 1 5 5 0 0 1-1.6 7.3zm4.8 10.9c-2.5.8-5-.3-5.8-2.4-.8-2 .1-4.6 2.4-5.8a4.4 4.4 0 0 1 6.1 2.3c1.1 2.5-.3 5.2-2.7 6zm2.3 10.4c-2.2.3-4.1-1-4.5-3-.4-1.8.9-3.8 3-4.4 2-.6 4.2.7 4.7 2.9.4 2.2-1.1 4.2-3.2 4.5zm.7 9.3c-1.7 0-3.2-1.4-3.3-3 0-1.6 1.2-3 3-3.2a3 3 0 0 1 3.5 3 3 3 0 0 1-3.2 3.2zm-.2 8.2c-1.5-.1-2.6-1.4-2.5-2.7a2.7 2.7 0 0 1 2.9-2.4c1.5 0 2.6 1.3 2.5 2.8a2.6 2.6 0 0 1-2.9 2.4zm-1.3 7.4c-1.2-.2-2-1.4-1.8-2.5.2-1.1 1.3-2 2.6-1.8 1.2.2 2.1 1.4 1.9 2.6-.3 1.2-1.5 2-2.7 1.7zM227 652c-1-.3-1.5-1.3-1.3-2.2.2-1 1.2-1.5 2.2-1.3 1 .3 1.6 1.2 1.3 2.2-.2 1-1.2 1.5-2.2 1.2zm-1.6 5.5c-.7-.2-1.1-1-.9-1.7.2-.7 1-1 1.7-.8.8.2 1.2 1 1 1.7-.3.7-1 1-1.8.8zm-1.6 4.6a1 1 0 0 1-.6-1.1c.2-.5.7-.7 1.2-.5.5.1.7.7.6 1.1-.2.5-.7.7-1.2.5zm-1.6 4.1a.6.6 0 0 1-.4-.9c.2-.3.6-.4.9-.3.3.2.5.5.3.8-.1.4-.5.5-.8.4zM221 669c-.1-.1-.2-.3-.1-.5 0-.2.3-.2.5-.1.2 0 .2.3.2.5-.1.1-.3.2-.5.1zM302.1 239.6c-4 1.4-8.4-.8-9.6-5a7.3 7.3 0 0 1 6-9c4.2-.7 8 1.5 9 5 1 3.6-1.4 7.6-5.4 9zm6 15a6.3 6.3 0 0 1-8.6-3 6.3 6.3 0 0 1 3.7-8.4c3.5-1.2 7.1.2 8.4 3.1 1.2 3-.2 6.6-3.5 8.3zm7.5 12.6a5.5 5.5 0 0 1-7.9-1.5 5.5 5.5 0 0 1 2.2-7.7c2.8-1.5 6.2-.8 7.7 1.6 1.4 2.4.6 5.8-2 7.6zm8 10.3a4.7 4.7 0 0 1-6.8-.4 4.7 4.7 0 0 1 .9-6.8c2.2-1.6 5-1.3 6.6.5 1.5 2 1.3 4.8-.7 6.7zm8.4 7.8c-1.4 1.7-4 2-5.6.5a3.9 3.9 0 0 1 0-5.6c1.6-1.6 4-1.7 5.5-.4 1.5 1.3 1.5 3.8.1 5.5zm8.3 5.7c-1 1.7-3 2-4.5 1s-1.8-3-.6-4.6c1-1.4 3-1.8 4.4-.9 1.4 1 1.7 3 .7 4.6zm7.9 4.7c-.7 1.4-2.3 2-3.7 1.2-1.4-.6-1.8-2.4-1-3.7a2.8 2.8 0 0 1 3.7-1.3c1.2.7 1.7 2.4 1 3.8zm7.5 3.3c-.4 1.2-1.8 1.9-2.9 1.4a2.2 2.2 0 0 1-1-3c.4-1.1 1.7-1.7 2.7-1.2 1.1.4 1.6 1.7 1.2 2.9zm6.8 2.2c-.3.9-1.2 1.4-2.1 1.2a1.6 1.6 0 0 1-1-2.2c.2-.9 1.2-1.4 2-1.2.9.3 1.3 1.2 1 2.2zm5.8 1.3c-.2.7-.8 1-1.4 1a1 1 0 0 1-.7-1.4c.1-.6.7-1 1.3-.9.5.1.9.7.8 1.3zm5.2 1c0 .4-.5.7-1 .7-.3-.1-.6-.5-.5-1s.5-.7.9-.6c.4 0 .7.4.6.9zm3.7.5c0 .2-.3.3-.5.3-.3 0-.4-.3-.4-.5 0-.3.3-.4.5-.4.3 0 .4.3.4.5zM268.2 321.9c-2-1-3-3.1-2.3-4.8.8-1.7 3-2.4 5.1-1.6 2 .8 3.1 3 2.3 4.9-.8 1.8-3.1 2.5-5.1 1.5zm-3.7 6.8c-1.6-.9-2.3-2.8-1.6-4.2.8-1.4 2.7-1.9 4.4-1 1.7.8 2.5 2.7 1.7 4.2s-2.8 2-4.5 1zm-3.6 6.1c-1.4-1-2-2.6-1.2-3.8.7-1.2 2.5-1.5 4-.7 1.3.8 2 2.6 1.1 3.8-.8 1.3-2.5 1.6-4 .7zm-3.7 5c-1-.8-1.4-2.3-.7-3.3s2.2-1 3.3-.3c1.2.8 1.5 2.3.8 3.3s-2.2 1.2-3.4.3zm-3.4 4.2c-.9-.7-1-1.9-.4-2.6.6-.8 1.8-.8 2.7 0 1 .6 1.1 1.9.5 2.7-.7.8-2 .8-2.8 0zm-3.4 3.6c-.6-.7-.7-1.7 0-2.3.5-.5 1.5-.5 2.2.2.7.7.8 1.7.2 2.4-.7.5-1.8.4-2.4-.3zm-3.4 2.7c-.5-.7-.4-1.6.1-2 .6-.3 1.4-.2 1.9.4.5.7.5 1.6-.1 2-.6.4-1.5.2-2-.4zm-3.5 1.9c-.3-.6-.1-1.2.4-1.5.5-.2 1 0 1.4.6.4.5.3 1.3-.3 1.5-.5.3-1.2 0-1.5-.6zm-3.1 1.4c-.1-.5 0-1 .5-1.1.3-.2.8 0 1 .5.2.5 0 1-.4 1.2-.5.2-1-.2-1.1-.6zm-2.8.7c0-.4.2-.7.4-.8.3 0 .6.2.6.5.1.3 0 .7-.4.7-.3 0-.5-.1-.6-.4zm-2.6.1c0-.3.2-.5.4-.5s.4.2.4.5c0 .2-.2.4-.4.4s-.3-.2-.3-.4zm-1.7 0l.2-.2.2.2c0 .2-.2.3-.3.3 0 0-.2-.2-.1-.3zM113.6 546a6.4 6.4 0 0 1 0-8.7c2.3-2.4 6-2.5 8.7-.4 2.7 2.2 2.8 6.3.3 9a6.1 6.1 0 0 1-9 0zm-10.9 8.6a5.4 5.4 0 0 1 1-7.3 5.4 5.4 0 0 1 7.4.7c2 2.2 1.6 5.7-.8 7.6-2.5 2-6 1.4-7.6-1zM91.8 561c-1-2.3-.2-5 2-6.2 2-1.2 4.8-.5 6.2 1.6 1.4 2.2.7 5.1-1.7 6.5a4.5 4.5 0 0 1-6.5-1.9zm-10.4 3.8c-.6-2.1.6-4.1 2.5-4.9a4 4 0 0 1 5 2.4c.8 2-.2 4.4-2.5 5-2.2 1-4.5-.4-5-2.5zm-9.7 1.6c0-1.8 1.2-3.3 2.9-3.5 1.6-.1 3.2 1 3.6 2.7.3 1.8-1 3.6-3 3.7-1.9.3-3.5-1.1-3.5-3zM63 566a2.7 2.7 0 0 1 3-2.3c1.4 0 2.4 1.4 2.4 2.9s-1.4 2.6-3 2.4c-1.7-.2-2.7-1.6-2.4-3zm-7.5-2.4c.5-1.2 1.7-1.8 2.8-1.3 1.2.3 1.8 1.5 1.5 2.7-.3 1.2-1.7 2-3 1.5-1.2-.5-1.8-1.8-1.3-3zm-6.3-3.4c.6-.9 1.6-1 2.5-.6.9.4 1.2 1.5.8 2.4-.5 1-1.6 1.3-2.6.8s-1.2-1.7-.7-2.6zm-5-3.4c.5-.6 1.4-.7 2-.3.6.5.7 1.4.2 2-.4.7-1.3.8-2 .3-.6-.5-.7-1.4-.2-2zm-3.9-3.4a1 1 0 0 1 1.3 0c.4.3.4 1 0 1.3a1 1 0 0 1-1.2 0 1 1 0 0 1 0-1.3zm-3.3-3.2c.4-.3.8-.3 1 0 .2.3.2.7 0 1-.3.2-.7.2-1-.1a.7.7 0 0 1 0-1zm-2.1-2.4h.5v.6h-.6v-.6zM305.2 47.5c-3.2-.2-5.7-2.9-5.3-6a5.4 5.4 0 0 1 6.7-4.5c3.1.7 5.3 3.3 5 6-.4 2.7-3.1 4.7-6.4 4.5zm-.2 11.9c-2.7.1-5-1.9-5.2-4.6.1-2.6 2.4-4.7 5.1-4.5 2.8 0 5 2.1 5 4.5 0 2.3-2.1 4.4-4.9 4.6zm1.3 10.6c-2.4.5-4.7-1-5-3.3a4.2 4.2 0 0 1 4-4.6c2.3-.2 4.5 1.4 4.7 3.4.3 2-1.3 4-3.7 4.5zm2.1 9.3c-2 .7-4-.4-4.5-2.3-.5-2 .7-3.8 2.8-4.3 2-.4 4 .7 4.4 2.4.5 1.7-.8 3.6-2.7 4.2zm3.2 7.7c-1.5.8-3.5.2-4-1.3a3 3 0 0 1 1.9-3.8c1.6-.5 3.3.1 3.8 1.5.4 1.4-.2 3-1.7 3.7zm3.6 6.5c-1.2.8-2.7.5-3.4-.7-.7-1.2-.1-2.7 1.2-3.3 1.2-.6 2.7-.3 3.2.8.7 1 .2 2.5-1 3.2zM319 99c-1 .8-2.3.7-3-.2-.6-1-.3-2.2.7-2.9 1-.7 2.2-.5 2.7.4.7.8.5 2-.4 2.7zm3.8 4.7c-.7.7-1.7.7-2.3 0-.6-.7-.5-1.8.2-2.4.8-.6 1.8-.6 2.3 0 .6.7.5 1.7-.2 2.4zm4 3.3c-.5.6-1.3.7-1.8.3-.5-.5-.5-1.3 0-1.8.5-.6 1.3-.7 1.7-.2.5.4.5 1.2 0 1.8zm3.4 2.7c-.3.4-.8.5-1.2.3-.4-.3-.4-.8-.1-1.1.3-.4.8-.5 1.2-.3.3.2.4.7 0 1.1zm3.2 2.2c-.1.3-.5.3-.8.2-.2-.2-.3-.6 0-.9.1-.2.5-.3.7-.2.3.2.3.6.1.9zm2.3 1.4c0 .2-.3.2-.4.1-.1-.1-.2-.3 0-.5 0-.1.2-.2.4 0 .1 0 .1.2 0 .4zM166 96a28.2 28.2 0 0 1-15.6-25.5c0-2 .2-4.1.7-6.1a23.4 23.4 0 0 1 22.8-18.9c2 0 4 .3 6 1 8.7 1.6 14.3 10.1 14.3 18.5 0 4.5-1.6 9-5.1 12.2a13.8 13.8 0 0 1-9.2 3.7c-2.9 0-4.8-.8-5-1.6 0-.1 0-.2.2-.3.1-.3.6-.2 1.2-.3l2.8-.3c2.3-.4 5.1-1.3 7.7-3.7a13 13 0 0 0 4-9.7c0-6.8-4.5-14-11.8-15.3a19.9 19.9 0 0 0-24.6 15.4 24.8 24.8 0 0 0 13 27.8 34.8 34.8 0 0 0 32.3-1.4c10.3-5.9 14.7-16.4 15.3-28.6 2.1-11.7 5.5-23.3 10.7-34.1A68.7 68.7 0 0 1 249 0h6.4l-.6.4a65 65 0 0 0-26.1 29.9c-5 10.5-8.4 21.7-10.5 33.2-.3 11.2-5.5 25.2-16.8 31a38.5 38.5 0 0 1-19.4 5.2c-5.6 0-11.1-1.2-16.2-3.8zm-14.5-31.6A27.8 27.8 0 0 0 166 95.6a38.1 38.1 0 0 0 35.2-1.5c11.2-5.7 16.4-19.5 16.7-30.7 2-11.4 5.4-22.8 10.4-33.3A65.5 65.5 0 0 1 254.1.4h-4.9A68.3 68.3 0 0 0 226 29a134.4 134.4 0 0 0-10.7 34c-.6 12.2-5 22.9-15.4 28.8a35.2 35.2 0 0 1-17.8 4.9c-5.2 0-10.3-1.2-14.8-3.5a25.1 25.1 0 0 1-13.9-22.7c0-1.8.3-3.7.7-5.5a20.2 20.2 0 0 1 19.8-16.4c1.7 0 3.5.2 5.2.8 7.4 1.3 12 8.6 12 15.6 0 3.7-1.2 7.4-4 10-5 4.5-11.1 3.8-11.7 4.2 0 .1.3.6 1.1.8.8.3 2 .5 3.4.5 2.6 0 5.8-.8 9-3.5a16 16 0 0 0 5-12c0-8.2-5.6-16.6-14-18.2-2-.6-4-1-6-1a23 23 0 0 0-22.4 18.6zm23.9 14.8zM249.2.4V.2v.2zM320.5 39.4C324 22 340.1 9.7 355.5.2h-13.9c-12.3 10-23.2 22-25.5 38.9-.7 21.4 13.4 45 35.7 46.4-22-3-33.2-26.7-31.3-46z"/><path d="M338.6.2h-8.2c-24.4 16.4-43 41-52.8 68.5-10.6 29-11 60.3-7.7 90.4-2-14.2-3.3-28.5-3.2-42.9-1.8-43.5 16.2-88 48.8-116h-6.3a151.3 151.3 0 0 0-45.8 116c-.2 55 20 106.7 24.7 160.5 1.5 26.4 2 55-12.3 78.3a82.7 82.7 0 0 1-66.9 38.7c-26.5-.8-53-24-50.4-52a43.7 43.7 0 0 1 20-33.5c11.4-7.2 27-6.9 38.3.7a36 36 0 0 0-38.5-1c-11.9 7-19 20.3-20.4 33.8-2.7 28.3 23.9 52.1 51 53a84 84 0 0 0 68.4-38.8c14.6-23.7 14.4-52.8 13-79.4-.6-8-1.6-15.9-2.8-23.7l2.9 17c4.3 32.8 6.8 69-9.9 98.4-8.2 15-23.4 23.7-38.7 30.4-15.3 7.2-32 10.9-47.5 18.2a80.5 80.5 0 0 0-37.8 33.2 85.1 85.1 0 0 0-9.3 49.6c5.3 34.7 41.7 58.4 75.5 54.2 35.2-3.6 59.7-34.6 70.4-65.9-11 31.2-35.5 62-70.5 65.4-33.5 4-69.3-19.8-74.3-53.9-2-16.6 1.5-34 9.4-48.7a79 79 0 0 1 37.3-32.4c29.8-13.4 68.3-18 87.4-49 17.4-30.4 14.8-66.8 10.7-100-4.8-33.6-14-66.4-18.6-99.8-4.2-33.1-5-68 6.7-99.5 10.6-28.9 31-54.2 57.4-69.8z"/></svg>