<svg xmlns="http://www.w3.org/2000/svg" viewBox="-90 0 840 780"><path d="M414 543s-15-13-42-27c-26-14-63-27-105-27-14 0-29 1-44 5l-1-2s35-25 58-27h3c20 0 39 17 43 21 2-5 9-22 24-23l7 1c22 6 50 46 59 79h-1v-1 1h1v2l-2-2zm-1-2c-9-32-36-70-57-75l-6-1c-16 0-23 22-23 22v2l-1-1s-5-6-13-11-19-10-30-10h-2c-19 1-45 18-54 24 14-3 27-4 40-4 77 0 135 44 146 54z"/><path d="M150 701c-17-19-28-47-28-79 0-30 12-62 36-86s59-41 104-41c20 0 43 3 67 11 135 40 170 168 170 168l-1 1s-11-21-25-43c-15-22-35-47-53-55-17-7-30-10-40-10-15 0-23 6-29 14-4 6-16 14-29 14-8 0-16-4-22-14-2-4-3-7-3-11 0-14 13-25 19-30l-11 1c-14 0-37-4-54-26l-8-1c-17 0-59 5-89 44-13 17-20 41-20 66 0 47 26 96 83 99h7c60 0 78-36 78-68 0-10-2-20-5-27 0 0-3-6-10-12-6-6-16-12-30-12h-6c-27 4-32 22-32 36 0 9 2 16 2 16h-2a38 38 0 0 1 29-58l1 1 6-1c24 0 53 17 53 56v2c-1 34-19 70-81 74h-7c-28 0-52-11-70-29zm-26-79c0 65 42 107 96 107l7-1c61-4 78-39 80-72v-2c0-38-28-54-52-54h-6c-19 2-33 18-33 37l1 10v-7c0-14 6-34 34-37l6-1c29 0 41 25 41 25 4 8 5 18 5 28 0 16-4 34-16 47-13 13-32 22-63 22h-7c-58-2-85-52-85-100 0-25 7-50 21-67 31-40 72-44 90-44h9v1c17 22 39 26 53 26 8 0 14-2 14-2v2s-20 14-20 30l2 10c6 10 14 13 21 13 12 1 24-8 28-13 6-8 15-15 30-15 11 0 24 3 41 11 30 13 62 68 74 89-5-12-14-34-32-59-25-37-68-79-135-99-24-7-46-10-66-10-90 0-138 66-138 125zm292-120c0-19 4-42 18-64 19-31 44-42 66-42 19 0 36 8 47 21 11 12 16 26 16 38 0 14-7 27-19 36-10 8-19 11-27 11-11 0-20-6-26-13s-9-14-9-20c0-9 5-17 12-21 3-2 6-3 10-3 9 0 17 5 20 16h-2s-6-13-17-13l-10 3c-8 6-9 13-9 18v5c4 10 15 24 31 24 8 0 18-4 28-13 9-9 12-18 12-28 0-24-21-48-42-53l-12-2c-12 0-21 4-27 8-6 3-9 7-10 8v2c0 15-9 24-14 27 5 0 16 1 18 10v4c0 10-10 13-16 13h-3l-5-1c-6 0-14 5-21 21-2 4-3 10-3 17 0 19 7 43 7 43l-2 1s-11-22-11-53zm20-63c-14 22-18 44-18 63 0 18 4 33 7 42-2-9-4-22-4-33 0-7 0-13 3-18 7-16 15-21 22-21h5l3 1c6 0 15-3 15-12l-1-3c-2-9-12-10-17-10h-2v-1l8-6c4-5 8-11 8-21l-1-3h1s14-16 38-16l12 1c22 5 44 30 44 55 0 10-4 20-13 29-10 10-20 14-29 14-17 0-28-15-32-25l-1-6c0-5 2-13 10-19 4-3 8-4 11-4h1-2c-3 0-7 1-10 3-5 4-10 12-10 20 0 6 2 12 8 19s15 12 25 12c8 0 17-3 27-10 11-9 17-21 17-35 0-12-5-25-15-37a62 62 0 0 0-46-21c-22 0-46 12-64 42zm-33 50c-17-7-29-28-29-51 0-13 4-27 12-39l1-1h1l4 7c7-10 18-10 30-10h7l15-1 1-1v3c0 11-10 13-18 15-9 3-17 6-17 20v2l5-1 3 1 1 1v7c0 15-11 20-21 28v1c0 7 2 13 6 17l-1 1 1-1-1 1 1-1 2 3-3-1zm-27-51c0 21 10 40 25 48-3-5-4-10-4-16v-2c10-8 21-13 21-27l-1-7-2-1-5 2-1-1v-2c0-16 9-20 18-22 8-3 16-4 16-14v-1l-14 1h-7c-12 0-24 1-30 11l-1 3v-3c0-3-2-5-4-7-8 12-11 25-11 38zm-77-111c-21-8-35-33-35-60 0-15 4-32 14-46l1-1v1c3 2 5 4 6 8 8-12 18-14 27-14h17c6 0 12-1 17-4l1-1v3c0 13-11 16-21 20-10 5-19 9-19 26v1l-1 1v1l6-2 4 2 1 9c0 17-13 24-24 33v1c0 9 2 15 7 21l-1 1v-1 1l1-1 1 3-2-2zm-33-60c0 26 12 49 31 58-4-6-6-12-6-20v-2c12-9 25-16 25-32l-1-8-3-1-6 1h-1v-4c0-17 11-23 21-27s20-7 20-19c-6 3-11 4-17 4l-17-1c-10 0-19 2-27 15l-1 2v-2c-1-4-2-6-5-8-9 14-13 29-13 44zm127 128c7-26 28-44 56-44 8 0 16 2 24 4 5-1 10-1 12-5l2 1c-3 10-19 20-34 20h-3l4 2c3 0 6 0 8 2v1c-5 10-15 12-26 12l-19-1c-9 0-17 2-22 8h-2zm3-3c5-5 13-6 21-6h19c11 0 20-1 24-10l-6-2c-2 0-5-1-5-4v-1h4c12 0 26-7 30-15-3 2-6 2-10 3-8-3-17-4-24-4-26 0-46 16-53 39zm76-44c-8 0-14-3-25-3l-9 1h-1c-2-1-3-1-3-3l2-2 4-1 8-2c15-6 51-14 53-42v-1c0-9-6-21-18-21 4 2 9 4 9 10l-1 4v1c-4 4-8 6-12 6-8 0-14-8-14-16 0-6 5-12 15-12h1c19 0 27 16 27 34s-9 39-26 45c-4 2-7 2-10 2zm0-1l9-2c16-6 25-26 25-44s-7-33-25-33c-11 1-14 6-14 11 0 7 5 14 12 14 3 0 7-1 11-5l1-4c0-6-10-8-12-9l-3-2h7c13 0 20 13 20 22v1c-2 30-40 37-55 44l-7 2-5 1 2 1 9-1c11 0 18 4 25 4zm-35-2l1-1-1 1z"/><path d="M447 653c-2 4-7 13-7 20l1 6 1 1h-2s-8-2-8-9v-1c-3 4-9 9-18 9-6 0-12-2-20-10l1-1 4 2 7 2c3 0 6-1 7-6 1-1 1-8 4-13-3 0-11-3-12-10l1-3v-2l1 1 3 2 6 2c1 0 3 0 5-2l6-5c-4-3-11-10-11-18v-3l1-2v1l5 6c3 3 6 5 9 5 1 0 2 0 2-2 0-1-1-12-3-15l-1-2h2s26 2 27 19v1h-1l-1 6c0 1 0 2 2 2 4 1 14 2 14 13v5c0 10 8 19 8 19l-1 1-14-9c-1 0-5 3-5 8l3 9-1 1s-14-9-15-28zm-13 14l-1 4c0 4 4 6 6 7l-1-5c1-10 9-23 9-23l2-3v5a32 32 0 0 0 11 26v-1l-2-6c0-7 7-10 7-10h1l10 7c-2-3-6-9-6-16v-3 1l1-3c0-9-9-10-13-11-3 0-4-2-4-4l2-6v-1c0-12-19-16-24-17l3 15v1l-4 3c-6 0-11-7-14-10v1c0 8 11 17 12 18h1l-2 2v-1l-6 5-6 3c-4 0-7-2-9-4v2c0 7 12 9 12 9h2l-2 1c-4 4-4 13-4 13v1c-2 5-5 7-9 7l-5-1c5 3 9 5 13 5 12 0 19-12 19-12l1 1z"/><path d="M418 668s9-9 10-19c2-12 19-14 23-15l1 2-10 5c-5 2-9 7-9 10 0 5-6 16-14 18l-3 1 2-2zm1 1l-1-1 1 1zm11-20c-1 7-6 14-9 17 6-3 10-11 10-15 1-6 9-11 15-14-7 1-16 5-16 12zm56-46l-9-3h-1c-4 0-7-2-8-4l-1-6v-1l-2-1-4 1c-11-2-11-16-11-19v-3l1 1c2 2 9 3 10 4l2-2-3-6-3-3-2-1 2-1h1c6 0 11 6 13 9l4-3 2-4c0-3-2-5-2-5l-1-1h1l2-1c6 1 7 6 7 9l8-1h1c4-1 5-3 5-5l-2-7 1-1c4 5 6 9 6 13 0 6-5 10-8 12 5 1 6 7 6 7v2l-2-1-5-1c-4-1-9 1-12 2 13 3 17 12 17 12l1 3-2-2c-3-2-5-2-7-2l-5 2 6 10-2 1-4-4zm2 0l-3-6-1-1h1s2-4 6-4l5 1-2-2c-3-3-8-6-15-7h-3l3-1s8-4 15-4l5 1c-1-2-2-4-5-4h-2l-1-1s10-5 10-13l-1-6v1c0 3-2 6-6 6h-2l-8 2-1 1v-2l-1-4c-1-2-2-4-5-4l2 5c0 2-1 4-3 5l-4 4-1 1v-1s-6-9-12-9c2 2 5 6 5 9 0 1 0 3-2 3h-1l-10-3c0 4 1 16 10 17l4-1c1 0 3 1 3 3v1c0 3 1 8 8 8h1c4 0 9 3 11 5zm-20-14zm24-13v-1 1z"/><path d="M467 585c1-3 3-13 12-13 7 0 11-3 11-3h1c-2 6-7 7-10 7h-1c-3 0-6 2-8 5l-3 4h-2zm12-11c-4 0-7 3-9 6 3-2 6-5 10-5h1l6-3-8 2zM96 706v-1s12-12 27-12c7 0 16 4 23 15l-1 1-5-3c-3-2-8-3-13-3-4 0-9 1-14 4l4 3c3 2 8 4 15 4l12-2h2l-1 2s-9 10-22 10c-8 0-17-4-27-18zm27 17c9 0 16-6 19-9l-10 1c-15 0-20-7-20-8h-1l1-1c5-3 11-5 15-5 7 0 12 3 15 5-6-9-13-11-19-11-12 0-23 9-25 11 9 13 18 17 25 17zm112 47s-24-2-24-22c0-2 0-6 2-9h1c0 2 1 15 14 19v-1c0-4-2-10-12-19h1v1-1h-1l-1-1h2s21 0 21 21l-2 11v1h-1zm-22-22c-1 16 18 20 22 20l1-10c0-15-12-19-17-19 9 7 10 14 10 18v3h-1c-11-3-14-11-15-16v4zm-23 35s-17-12-17-29c0-7 4-15 13-23l1 1c0 1-4 7-4 16 0 5 1 11 6 17 1-1 2-1 2-3 2-2 3-6 3-11s-1-11-4-18h1-1v-2l1 1c1 0 15 8 15 24 0 7-4 16-15 27h-1zm-15-29c0 14 13 25 15 27 11-10 14-18 14-25 0-11-8-18-11-21 2 6 2 11 2 16 0 11-5 16-5 16h-1c-6-7-8-13-8-19 0-5 1-9 3-12-7 6-9 12-9 18zm-44 18s-2-8-2-17c0-14 5-33 33-35v2s-20 7-20 28v4h2l6-4c5-3 11-11 15-25l1-3 1 3s2 6 2 14c0 12-6 29-37 33h-1zm-1-17l2 15c30-4 36-19 36-31l-2-12c-8 28-24 29-24 29h-1v-6c0-16 10-24 16-28-22 4-27 20-27 33zm412-223c-1 0-7-8-8-18 0-6 4-13 13-17l1 1s-6 5-6 13l2 8 3-2c1-3 3-7 3-13v-5l1-1-1 1-1-3 2 2s6 6 6 14c0 6-3 14-14 20l-1 1v-1zm-6-18c0 8 5 15 6 17 11-7 14-13 14-19 0-5-3-9-4-11v3c0 14-7 17-8 17v1l-1-1c-2-4-2-7-2-10 0-4 1-8 3-11-6 4-8 9-8 14zm33-62l1-2h1c3 0 10-1 13-8h-2c-2 0-7 1-12 7l-2 2v-3s1-13 15-13c3 0 6 0 10 2 0 0-3 16-16 17l-8-2zm8 0c10 0 14-11 14-14l-8-2c-9 0-12 6-13 10 5-5 10-6 12-6l3 1h1v1c-3 7-8 9-12 10h3zm-7-3h-1 1zm-4 21l1-1 4 2 8 2c4 0 7-1 11-3l-2-2-10-2-10 1-2 1 1-2s6-9 16-9c6 0 13 3 20 12l1 1-1 1s-9 10-20 10c-6 0-12-3-17-11zm17 9c9 0 17-7 19-9-7-9-14-11-19-11-6 0-11 4-13 6l8-1c10 0 14 5 14 5v1c-5 4-9 5-13 5l-9-2c4 4 9 6 13 6zm-15-12v-1 1zm-2 41c-5-4-10-10-10-21v-1h2s5 16 21 16c0-3-2-11-19-18h1-3l2-1 8-1c9 0 23 4 24 29v1h-1l-8 1c-5 0-12-1-17-5zm17 3l7-1c-1-23-14-26-22-27l-5 1c17 7 18 17 18 19v1h-2c-12 0-18-8-21-13 2 17 16 20 25 20zM197 298A135 135 0 0 1 94 178l-1-6c0-49 38-89 87-93h5c38 0 71 30 74 69v4c0 31-24 58-56 60h-3c-25 0-46-20-48-45v-2c0-18 15-35 30-35l6 1v1s-27 1-27 32v1c0 19 19 34 40 34 15 0 30-8 40-28-3 1-7 3-12 3-4 1-8-1-11-7l-1-6c0-14 20-18 20-34 0-4-1-9-4-15 0 0-13-19-29-23l-18-2c-24 0-59 11-82 55 0 0-3 11-3 29 0 21 5 49 27 75-2-4-4-10-4-17 0-9 3-19 15-29l1 1s10 14 10 28l-2 10c-2 3-2 5-2 7 0 14 17 31 42 34h3c6 0 7-2 8-6l2-17c2-12 8-27 38-35v2s-22 11-24 22v6c0 10 5 15 5 22l-3 9c4-3 9-6 16-6 4 0 8 1 11 5 14 13 10 22 29 36 18 12 49 27 67 54l-2-12c0-6 1-11 6-16v-1l1 1s14 17 14 32l-1 7 10-2h5c9 0 11-7 16-18l1-2v3l1 6c0 7-1 16-7 23-9 10-17 11-22 11h-3c8 19 9 49 9 54v1h-2c-8-86-75-134-169-161zM180 81c-48 3-85 43-85 91v6s1 22 14 48 39 56 89 70c87 25 153 69 167 146-1-11-3-27-8-38v-1l1-1h4c5 0 12-1 21-10 5-6 6-16 6-22v-3c-4 9-7 16-16 16h-2l-3-1c-4 0-7 2-9 3l-3 2-1-1c2-3 3-6 3-10 0-13-11-27-14-30-3 4-4 9-4 14 0 9 4 18 4 19v1h-1c-16-31-52-47-71-61s-16-24-29-36c-3-3-7-5-10-5-10 0-20 10-20 10l-1-1c5-6 6-10 6-13 0-7-5-11-5-22l1-6c1-9 11-16 18-20-35 12-28 36-31 48-1 5-4 8-10 8h-3c-26-4-44-21-44-36l2-7c2-4 2-7 2-10 0-12-7-24-9-27-10 9-13 19-13 27 0 12 7 22 7 23l-1 1c-27-28-33-59-33-82 0-18 4-30 4-30 23-45 58-55 83-55l19 2c16 4 29 23 29 23 3 6 5 11 5 16-1 17-21 22-21 34l2 5c2 5 6 7 9 7 7 0 13-5 13-5l1 1c-9 23-26 32-42 31-22 0-42-15-42-35v-1c0-24 16-31 25-33h-2c-7 0-14 4-19 11-5 6-9 15-9 23v2c2 25 22 43 46 43h3c31-2 54-27 54-58v-4c-3-38-34-67-72-67h-5zm178 323zm0-1zm132 236c0-12 2-20 2-20 7-25 30-41 54-41l15 2c20 6 32 24 32 43l-1 12c-5 16-19 26-35 26l-9-1c-13-4-22-15-22-28l2-8c2-9 12-16 20-16 3 0 5 1 8 3l-1 1h-5c-5 0-13 2-17 13l-1 5c0 11 11 23 25 23 6 0 13-2 19-8h-3c-3 0-8-2-8-7v-1c0-7 5-9 10-11s9-5 9-13v-3s-4-13-11-19c-6-3-16-7-27-7-12 0-26 4-40 17 0 0-12 16-12 39 0 7 1 14 4 22v-1c0-7 3-16 15-21h1v1s2 4 2 10c0 4-1 10-5 13-3 3-4 6-4 9 0 7 4 15 12 23l9 10h-1 1-1 1l-1 1a82 82 0 0 1-37-68zm4-20s-3 8-3 20c0 17 6 41 31 62l-4-4c-8-8-12-17-12-24 0-4 1-7 4-10s4-8 4-12l-1-9c-11 5-13 13-13 19l1 7-2 1a73 73 0 0 1 6-69c14-14 29-18 41-18s22 4 27 8c9 6 12 19 12 20l1 3c0 9-6 13-10 15-6 2-10 3-10 8v1c1 5 4 6 7 6h5l1 1c-7 8-15 11-22 11-14 0-26-12-26-25l1-5c4-12 12-15 17-15h-1c-8 0-16 6-19 15l-1 7c0 12 8 23 20 26l9 2c15 0 29-10 33-25l2-12c0-19-13-36-32-41-4-2-9-2-14-2-24 0-45 15-52 39z"/><path d="M92 132v-1c3 0 10-6 11-18 0-12 8-24 20-29l8-1c10 0 19 4 19 4v1-1l2 1-2 1c-23 7-30 25-35 35-3 7-13 8-18 9l-5-1zm5-1c5 0 14-1 17-8 4-10 11-27 34-35l-4-1c-4-2-8-3-13-3l-8 2c-11 4-18 16-19 27 0 9-4 15-8 18h1zm83-52v-1h1-1v1h-1v-1s0-18 10-25c9-6 26-15 27-20l1-1h-1 1v-2h1l1 1-1 1 1 9c0 6-1 14-8 19-11 10-21 19-30 19h-1zm1-1c8 0 18-9 29-19 6-5 8-12 8-18l-1-6c-4 6-19 13-27 20-8 5-9 19-9 23zm66 24c-8-2-18-13-24-16-6-2-20-6-27-6h-2l-3 1 2-2s15-14 26-14c12 0 23 9 28 20 4 9 10 13 15 13h2v1s-6 4-13 4l-4-1zm-24-17c7 3 17 14 24 16h4l9-2c-6 0-11-5-15-14-4-10-15-18-26-18-5-1-11 3-16 6l-7 5c8 1 22 4 27 7zm-29-5v-1 1zm-64 1c-19-2-24-17-24-17l-1-2 2 1 6 2 19-2 7 1c14 2 21 18 21 18h-1 1v1h-1l-5 1-24-3zm-18-10c3 3 9 7 18 8l24 3h4c-2-4-8-15-20-17h-6l-19 1-5-1 4 6zm28-9l-13-1-11 1h-1c-16 0-19-15-19-15v-3l1 2c3 3 18 7 25 7h1c8 0 18 7 18 7l-1 1v-1 1l1-1 2 2h-3zm-3-2l-3-2c-3-2-8-4-11-3h-1c-7-1-18-3-24-6 2 4 6 11 17 11h22z"/><path d="M148 65s-11-13-18-14-27 3-32-17l-1-3 2 2 5 4 9 3h10c10 0 23 3 26 24l1 3-2-2zm-18-15c6 0 14 8 17 11-4-17-15-20-24-20l-9 1h-1c-5 0-10-4-13-6 6 16 23 13 30 14zm49 6l-1-13c0-5 1-10 4-13 7-8 16-22 17-27l1-3 1 3s2 6 2 14c0 5-1 12-5 17-9 11-17 17-17 21h-1l-1 1zm1 0v-1 1-1 1zm3-25c-3 3-4 8-4 12l1 9c3-5 9-10 17-19 3-5 4-11 4-16l-1-11c-3 7-10 18-17 25z"/><path d="M191 48l8-14c3-3 5-11 6-16 2-4 10-12 14-13h1v1s0 16-5 23-18 17-23 20l-1-1zm1 0zm15-29c-1 4-3 12-6 16l-7 10c6-4 16-11 19-17 4-5 5-17 5-21-3 2-10 8-11 12zm-68 117c2-1 5-11 6-28 1-18 19-21 19-21h1-1l6-1v2c-2 0-3 3-3 7v1c0 5-2 17-7 27s-20 14-20 14l-1-1zm7-28c0 14-2 23-4 27 4-2 13-6 16-13 5-9 8-22 8-26v-1l1-7h-2c-1 0-18 4-19 20zm67 12c-34-3-37-25-37-33v-3h1l8-1c15 0 20 14 21 19s8 17 8 17v1h-1zm-35-33c0 7 2 27 33 31l-7-16c-1-5-5-17-19-17l-7 1v1zm-16-19c-2 0-4-2-4-4 0-3 2-5 4-5 3 0 4 2 4 4v1c0 2-1 4-4 4zm0-8c-1 0-3 2-3 4s2 3 3 3c2 0 4-2 4-3v-1c0-1-2-3-4-3zm9 6c-2 0-3-2-3-4 0-1 1-3 3-3s3 2 3 3c0 2-1 4-3 4zm-2-4c0 2 1 3 2 3s3-1 3-3l-3-2-2 2zm-1-4c-2 0-3-2-3-3 0-2 1-3 3-3 1 0 2 1 2 3l-2 3zm0-1l2-2-2-2-2 2h-1 1l2 2zm7 2c-2 0-3-2-3-4s1-3 3-3 4 1 4 3-2 4-4 4zm0-1c2 0 3-1 3-3 0-1-1-3-3-3v1l-3 2c0 2 2 3 3 3zm-9 17c0-2 1-3 3-3s4 1 4 3-2 4-4 4-3-2-3-4zm3 3c2 0 3-1 3-3 0-1-1-3-3-3l-3 3 3 3zm-1-7c-2 0-2-1-2-2l1-2h1l2 2h-1 1l-2 2zm-2-2l2 1 1-1-1-1v-1 1l-2 1zm-3 11l-2-2 2-2 2 2-2 2zm-1-2l1 1 1-1-1-1v-1 1l-1 1zm0 0zm14-1l-2-2c0-2 1-2 2-2s2 0 2 2l-2 2zm-1-2l1 1 1-1-1-2-1 2zm-13-24l-1-1h-1c0-2 1-2 2-2l2 1v1l-1 1h-1zm-1-1l1 1s1 0 0 0l2-1-2-2-1 2zm6 0l-1-1h-1l1-1 1-1 1 2h-1 1l-1 1zm-1-1h1v-1l-1 1zm-11 7c-1 0-2-1-2-3l2-2 2 2c0 2-1 3-2 3zm-1-3l1 2 1-2-1-1-1 1h-1 1zm23 11l-2-2 2-2 2 2-2 2zm-1-2l1 1 1-1-1-1v-1 1l-1 1zm-16-4l-2-2 2-3c2 0 3 1 3 3l-2 2h-1zm-1-2l1 2h1l1-2-2-2-1 2zm13-4c-1 0-2-1-2-3l2-2 2 2c0 2-1 2-2 2v1zm-1-3l1 2 2-2-2-1-1 1h-1 1-1 1zm4 22c-2 0-3-1-3-3l2-3h1l2 3c0 2-1 3-2 3zm0-1l1-2-1-2c-2 0-2 1-2 2h-1 1l2 2zm-21-7c-1 0-3-1-3-3s2-3 3-3c2 0 4 1 4 3h-1 1c0 2-2 3-4 3zm-2-3l2 3c2 0 3-2 3-3s-1-3-3-3l-2 3zm4 9l-2-2 2-2 2 2-2 2zm-1-2l1 1 1-1-1-2-1 2h-1 1-1 1zm6 8c-1 0-2-1-2-3s1-3 2-3c2 0 3 1 3 3s-1 3-2 3h-1zm0-1h1l2-2c-1-1-1-2-3-2l-2 2 2 2zm1-27h1-2l1-1s2-4 2-10v-4c-1-5-6-12-6-18l1-5c3-6 10-4 17-8h1s7 5 7 13c0 2 0 4-2 7-6 10-8 26-18 26h-2zm19-27l2-6c0-6-5-10-7-12-7 4-14 3-15 8l-1 4c0 5 4 12 6 18v4l-2 10c8 0 10-15 17-26z"/><path d="M141 21v-5c0-13 16-16 16-16l1 1c-3 3-4 6-4 10v6c0 7 4 10 6 15l1 4c0 6-2 11-2 11v1h-3c-12 0-14-23-15-27zm1-5l1 4c1 5 3 27 13 26h2l1-10-1-3c-1-5-5-8-6-16v-6c0-3 1-6 3-8-5 1-13 5-13 13z"/><path d="M143 45c-3-4-2-3-18-8-11-3-13-14-13-19v-3h2c-1 2 8 8 18 11 11 3 13 18 13 18h-1 1-1 1v3l-2-2zm-29-27c0 5 1 14 12 18l17 6c-2-5-5-13-12-15-8-2-15-5-17-9zm25 7c-8 0-11-4-11-8s3-8 3-8l2-3v4c0 7 6 14 6 14v-1 1l2 1h-2zm-9-8c0 3 1 5 7 6-2-2-5-6-6-11l-1 5zm115 729l2-6-1-4-1-5c0-4 2-9 5-12 4-3 10-4 12-4l2 1h2l-2 1c-9 7-9 16-9 22-1 6-9 8-10 8v-1zm6-26c-3 3-4 7-4 11l1 5v4l-1 5c3-1 6-3 6-6 0-5 0-14 9-22-3 0-8 1-11 3zm24-13l-1-8 1-6c3-4 9-12 9-14v-1l1-1 1 1c1 2 3 5 3 9l-1 6c-4 7-7 13-12 14h-1zm1 0l1-1-1 1zm1-13l-2 5 1 7c3-2 7-7 10-14l1-5-1-6-9 13z"/><path d="M282 704s4-9 10-11l4-1c4 0 9 2 12 5s5 4 7 4l3-1 1 2s-4 4-8 4h-1l-13-3h-1l-13 2-3 2 2-3zm1 1h-1 1zm14-4l13 4h1l4-2c-2 0-5-2-8-5-3-2-7-4-11-4l-4 1c-3 1-6 5-8 8l12-2h1zm-48 17c-7 0-10-5-10-5l-1-1h2c3 0 8-4 14-5l3-1c6 0 11 5 11 5l-1 1 1-1v2c-3 2-5 2-14 4l-5 1zm-7-4l7 2 4-1 13-3-2-2-7-2h-2c-6 1-10 5-13 6z"/><path d="M239 712c-5 0-8-5-8-5l-1-2 2 1h3l10-1 4-1 6 1v1-1l3 1h-3l-11 5-5 1zm-5-4l5 2 4-1 8-3h-6l-10 2h-1z"/><path d="M259 706l-4-1-6-2h-1c-2 1-5 3-9 3-3 0-6-2-9-5l-2-3 3 2h1l4 1 2-1c2 0 6-3 10-3s8 2 12 8l-1 1v-1 1l1-1 1 3-2-2zm-20-2l9-2h1l8 1c-3-3-6-4-9-4-4 0-7 2-9 3h-6c2 2 4 2 6 2zm28-18l1-2 3-15v-3l2 2s4 5 4 12v3l-4 12v1h-1 1-1 1-2s-4-5-4-10zm2-2v2l2 7 4-11 1-2c0-4-2-7-3-9l-4 13z"/><path d="M275 690l2-8v-8c0-3 2-7 4-8v-1l1 1 2 10v2c-1 4-6 11-7 13l-2-1zm2 1l-1-1 1 1zm1-17l1 5-1 4-1 4 5-10v-1l-1-8-3 6zm-11 66v-2c0-2 0-6-2-11l-1-4c0-6 6-10 6-10l2-1 1 1v1l1 3 1 11v3c-1 5-7 10-7 10l-1-1zm-1-17v3l3 12c2-2 4-5 4-8v-2c1-5 0-9-1-11l-1-3c-1 1-5 4-5 9zm9-13v-1l8-2c5 0 8 4 9 5l7 7 1 1h-1l-8 1c-13 0-16-11-16-11zm16 10l6-1-6-6c-1-1-4-5-8-5l-6 2c0 2 4 10 14 10zm-28-16v-1l1-2h1l2 1v1l-1 2h-1l-2-1zm2-3l-1 2 1 1h1l1-1v-1l-2-1zm2 0l1-2h1l2 1h-1 1v1l-1 1-1 1-2-2zm2-1l-1 1 1 1 1-1v-1h-1zm-3-1l-1-1v-2h1l2 1v1l-1 1h-1zm0 0l1-1-1-1-1 1 1 1zm2-2l1-2h1l2 1v1l-2 2-2-2zm2 1l1-1v-1h-2v1h-1 1l1 1zm-1 10v-1l1-2 2 1v1l-1 2h-1l-1-1zm1 0h1l1-1-2-1-1 1v1-1l1 1zm-2-3l-1-1 1-1h1l1 1h-1 1l-1 1v1l-1-1zm0-1v1h1v-1h-1zm-1 6v-1l1-1 1 1v1l-1 1-1-1zm1-1zm6-2l-2-1v-1l1-1h1l1 1h-1 1l-1 2zm-1-2v1h1v-1h-1zm-11-8v-2h1l1 1-1 1v1l-1-1zm1-1h-1v1h1v-1zm1 0v-2h1v2h-1zm1-1zm0 0zm-6 5v-1l1-1 1 1-1 2-1-1zm1-1z"/><path d="M271 700v-2h1l1 1-1 1v1l-1-1zm1-1h-1v1h1v-1zm-10 1v-2h1l1 1v2h-1l-1-1zm1-1l-1 1h2v-1h-1zm4-3l-1-1v-1l1-1 1 1h1l-1 2h-1zm0-1l1-1h-1v1h-1 1zm3 8l1-2h1l1 1v1l-1 1-2-1zm2 0v-1h-1v1h1zm-11 1c-1 1-1 0-2-1l1-2h1l2 1h-2l-1 1 1 1 1-1v-1h1v1l-1 1h-1zm1 2v-2h1l1 1-1 2-1-1zm1 0v-1h-1l1 1h-1 1zm2 2v-1l1-2 2 1v1l-1 1-1 1-1-1zm1 0h1v-1l-1-1v1h-1 1v1zM261 695l1-1-2-6c-1-2-6-5-6-9v-1c0-3 4-4 6-7h1s6 1 6 7v2c-1 6 2 14-5 16h-1v-1zm2 0h-1 1zm-8-16c0 3 4 5 7 9l1 6c3-2 2-9 3-15v-1c0-3-4-5-5-5-3 3-6 3-6 6z"/><path d="M248 687c-2-1-2-3-2-4 0-6 5-9 5-9l2 1-1 3 2 5c1 3 3 3 5 6 2 2 2 7 2 7h-1 1v1h-3c-5 0-9-8-10-10zm0-4l1 3c1 2 5 10 9 10h2l-2-6c-2-2-4-3-6-7l-2-5v-1l-2 6z"/><path d="M253 698l-2-1-8 1c-8 0-10-8-10-8l2-1 6 2 3-1h1c6 1 9 7 9 7h-1l1-1-1 1h1l1 2-2-1zm-10-2h8c-1-2-3-4-6-4h-4l-6-1c1 2 4 5 8 5z"/><path d="M240 685l1-2v-3l1 3c1 3 6 5 6 5l-1 1 1-1 2 1-2 1h-3c-4 0-5-3-5-5zm5 4l-3-3c0 1 1 3 3 3zM475 397l1-1h2c2 0 6-1 8-4 4-4 10-7 15-7h5c7 2 11 11 11 11l1 2-2-1-9-1c-8 0-14 3-18 5l-3 1c-6 0-11-5-11-5zm4 1c2 2 4 3 7 3l2-1c4-2 10-6 19-6l8 1c-2-3-5-7-10-8l-4-1c-5 0-10 3-13 7-3 3-7 5-9 5zm54 5v-1l1 1-1-1v1l-1-1h1s6-8 13-8h19v-1h3l-1 1v1c-1 2-5 9-13 10h-11c-4 0-8 0-10-2zm10 1l11-1c6 0 9-5 10-7h-4l-14-1c-5 0-10 5-11 7l8 2zm12 32c-3-4-3-12-5-16-2-3-8-11-11-12v-1 1-1 1l-3-1h3l5-1c4 0 9 1 12 3 4 3 6 9 6 15v4l-1 4c0 4 2 6 4 7l-1 1s-6 0-9-4zm-4-16c2 4 3 12 6 15 1 2 3 2 5 3-2-2-2-4-2-6v-5l1-3c0-6-2-11-6-14-3-2-8-2-11-2h-2l9 12z"/><path d="M522 398l-12-11c-5-5-6-9-6-13v-3l1-2 1 2c1 3 8 5 14 10 3 4 4 8 4 11v5l-1 1h-1zm1-1v-1 1zm-18-23c0 3 1 8 6 12l11 10v-4c0-3 0-7-3-10-5-4-11-6-13-9l-1 1z"/><path d="M521 382l-11-9c-4-2-5-6-5-9l1-4 1-3v3c0 2 6 9 9 11 4 3 6 10 6 10h-1l1-1-1 1h1l1 3-2-2zm-15-18c0 3 1 6 5 8l8 6c0-2-2-4-4-6-3-2-7-6-8-10l-1 2z"/><path d="M523 385v-5l-3-7c-3-2-10-6-10-13l1-6 1-2v3c1 0 1 5 5 7 2 2 10 6 10 15 0 2 0 5-2 9l-2 2v-3zm1 0h1-1zm-13-25c0 6 7 10 10 12l4 10 1-5c0-8-8-11-10-13-3-2-4-4-4-6l-1 2zm29 32c1 0 4-10 11-11l17-7 2-1-1 2s-4 11-12 13l-15 4h-2zm2 0h-1 1zm9-10c-2 0-5 3-6 5l-2 3 13-3c5-1 9-7 10-10l-15 5z"/><path d="M549 393v-1 1-1 1-1l8-4c2 0 6-3 8-5l8-2 3 1h1l-1 1s-5 7-10 9l-13 1h-4zm4-1l12-2c3 0 7-5 9-7h-1l-7 2-8 5-5 2zm-58 24l-1-1 1-1h1s5-3 11-10c3-4 7-5 10-5l7 1-1 1 1-1 2 2v1h-1l-3 3-12 10-6 1-9-1zm9-1l5-1c5-2 11-7 12-9l3-3h-1l-2-1h-4c-3 0-6 1-9 4l-10 10h6zm30 17c-7-6-9-12-9-17 0-7 4-11 4-11l1-1v1c7 2 9 7 9 11l-1 7-3 10v1l-1-1zm-7-17c0 4 1 10 7 15l2-9 1-6c0-3-1-7-7-10-1 1-3 5-3 10zm3-10v-1 1zm-1-13l-1-2v-2l3-1 1 1 1 2v1h-1 1l-3 1h-1zm0-3v2h3v-3h-1l-2 1zm5 5l-1-2v-1l2-1h1l1 2-1 1-1 1h-1zm0-3v2h2v-2h-2zm1-2l-1-2v-1h1-1 3l1 1-1 1-1 1h-1zm0-2v1h2v-1h-1v-1l-1 1zm3 5l-1-2v-1l2-1h1l1 2v1l-2 1h-1zm0-2v1l1 1 1-1v-2h-2v1zm-10 9l-1-2 1-1 2-1h1l1 2-1 1-1 1h-2zm1-3l-1 1 1 1 1 1 1-1v-1l-1-1h-2 1zm2-1h-1v-2l1-1 1 1v2-1 1h-1zm0-1h1l-1-1v1zm-6 3v-1l1-1h1v2l-1 1-1-1zm1-1h-1l1 1v-1zm6 4v-2h2v2l-1 1-1-1zm1-1h-1l1 1v-1zm2-15l-1-1 1-1h1l1 1-1 1-1 1v-1zm0-1v1h1v-1h-1zm2 2v-2l1 1v1h-1zm0-1h1-1zm-7 0l-1-2 2-1 1 1v1h-1 1l-1 1h-1zm0-2v1h1v-1h-1zm8 13h-1v-2h2v2-1 1h-1zm-1-1h1v-1l-1 1zm-6-7v-2l1-1h1l1 1v1h-1 1l-2 1h-1zm1-2h-1l1 1h1v-1h-1zm7 3l-1-2h1l1-1h1v2l-1 1h-1zm0-2v1h1v-1h-1zm-6 11v-2l1-1h1l1 2v1h-3zm1-2v2l1-1v-1h-2 1zm-7-8l-1-2v-1l2-1 1 1 1 1v2l-1-1 1 1h-3zm0-2v1l1 1 1-1v-2h-1l-1 1zm-1 5l-1-1v-1h2l1 1v1h-2zm0-1l1 1v-2l-1 1v-1 1z"/><path d="M526 395l-1-2 1-1 1-1 1 1 1 1v1l-2 1h-1zm0-2l1 1h1v-2h-1l-1 1v-1 1zM536 382l1 1-1-1h-1l1-1s4-1 5-5c2-3 2-10 6-12l2-1 9 2v1h1v4c0 2-1 6-5 7-5 2-10 7-15 7-1 0-2 0-3-2zm3 0c4 1 9-4 14-6 4-2 4-4 4-6v-3l-8-2h-1c-3 2-3 8-5 12l-5 5h1z"/><path d="M534 382c-3-2-4-4-4-6 0-5 4-11 5-13 2-4 5-6 8-6 4 0 7 2 7 2l-1 1c-3 0-4 2-6 6l-3 9c-1 3-5 6-5 6l-1 1zm0-1l1-1-1 1zm9-22c-2 0-5 1-6 5-1 2-5 7-5 12l2 4 5-6c1-2 0-5 2-9l5-6h-3zM528 375c0-3 0-2-6-10l-2-6c0-5 4-8 4-9l1 2 5 10 1 5-2 8-1 2v-2zm1 0zm-7-16c0 2 0 4 2 5l5 8 1-5-2-4-5-9-1 5z"/><path d="M533 365c-3-2-3-4-3-6 0-4 5-5 5-5l2-1-1 2c-2 2-2 5-2 7v2h-1l1-1-1 1h1v2l-1-1zm-2-6l1 3 1-5-2 2zM285 310c-6-14-8-26-8-36 0-40 38-50 38-50l1 2a62 62 0 0 0-33 57c0 15 4 27 4 27h-2zm-6-36l3 23-1-14c0-17 5-39 27-54-11 5-29 18-29 45zM384 443c0-31 30-38 30-38l1 1a48 48 0 0 0-26 44c0 11 3 20 3 21h-1c-5-11-7-20-7-28zm2 0l2 15v-8c0-12 3-29 19-41-9 5-21 15-21 34zM326 430c-11-2-22 0-30-13-2-4-3-7-3-11 0-9 6-15 11-20-3 2-7 2-10 2-13 0-21-9-29-23-11-17-24-43-24-43l-1-2 2 1a172 172 0 0 1 120 137h-1c-11-23-23-27-35-28zm-15-46s-16 9-16 22c0 3 0 7 3 10 7 12 17 11 29 12 11 2 23 5 33 25-2-9-7-29-19-51-16-29-45-62-98-79l23 41c9 14 16 23 28 23 5 0 10-2 16-5l1 2zM75 450v-13c-1-3 0-6 3-7-2-1-4-3-4-6v-1c0-3 2-4 4-5s3-3 3-9v-1h1-1l2-1c0 1 3 8 3 18 0 8-2 17-9 26l-2 1v-2zm1-13v1l1 10c6-8 8-16 8-23l-2-13c-1 4-2 6-4 7-2 2-3 2-3 4v1c0 4 3 4 5 5h1v1h-1c-4 1-5 3-5 7z"/><path d="M82 408l1-1 8 3c3 0 4-2 7-3l3 1 3 6h3l6 2 10 7 2 1h-2l-8 1c-21 0-33-17-33-17zm10 7c5 4 13 8 23 8h6l-8-5-6-3c-2 0-3 1-4 3h-1l-1-1 2-3-3-4-2-1-7 2-5-1 6 5zm-10-7l1-1-1 1zm-17 57v-4c0-12-11-34-11-48v-4c2-16 17-20 17-20h1v1c6 11 9 15 9 19l-1 3c-1 6-4 5-6 9v2l2 6 1 1h-1c-1 0-2 3-2 7l1 14v1c0 5-9 14-9 14l-1-1zm-10-55v3c0 13 12 35 12 48v2l2-3 5-8v-1l-2-14 2-8-2-6 1-3c3-5 5-3 6-8v-3c0-3-2-7-8-18-3 1-14 6-16 19zm16-19v-1 1z"/><path d="M124 424c-3-3-14-11-18-11l-1 1h-1v-1s-2-6-7-6l-7 2-3-1c-6-2-7-5-15-18l1-1v1-1l-1 1v-1s7-7 17-7l10 2c15 6 31 36 42 37v2l-12 2-5-1zm1-2l4 1 9-1c-12-6-27-31-40-37l-9-1c-8 0-14 4-15 6 7 12 9 15 13 17h3l7-1h1c4 0 6 4 7 6h1c6 0 16 8 19 10zm-87 27c-2 0-11-7-20-16-9-10-18-22-18-32 0-6 3-12 12-15 0 0 13-7 27-7h4s18 1 28 12v1-1l1 1-1 1s-25 8-25 35l1 8v3c0 4-1 10-8 10h-1zm-26-62c-8 4-10 8-10 14 0 9 8 21 17 30 8 10 18 17 19 17h1c5 0 6-6 6-9v-2l-1-9c0-25 20-34 25-37a47 47 0 0 0-26-11h-4c-13 0-27 7-27 7z"/><path d="M65 465c2-3 3-7 3-12 0-12-6-28-6-40l1-6c3-12 10-14 10-14h1l5 7-1 1 1-1v1s0 4-7 10c-3 3-4 6-4 10l1 8 2 19c0 14-5 18-5 18l-1-1zm5-68l-6 10-1 6c0 10 5 23 6 34 0-5 0-10-2-18l-1-8c0-4 1-8 5-11l6-7 1-2-5-6s-2 0-3 2z"/><path d="M138 423c-4 0-14-2-30-16-5-4-9-7-13-7l-5 1-8 1-4-1 1-1-1 1-4-8v-1s4-3 10-3l8 1c16 5 31 32 47 32l2-1v2h-3zm-43-25c5 0 9 4 14 8 5 5 10 8 14 10-11-8-21-22-32-24l-7-1-6 1-2 1 3 7 3 1 8-2 4-1h1z"/><path d="M63 411c2-8 12-15 12-15l1-1 2 3-1 1 1-1 1 1-2 1-7 6-5 6-2-1zm4-5l9-8-1-1-8 9z"/><path d="M75 396l1-1 12-2 7 1-1 1-7 1-9 3-1 1-2-4zm2 3l1-1-1 1zm1-1c2-2 7-3 11-4h-1l-11 2 1 2zm-65 9l-6-2-3-6c0-2 0-3 2-4 1-2 14-12 29-13h4c13 0 22 5 23 6h1v2l-1-1h-3l-7-1-15 3c-12 4-19 14-21 15l-3 1zm22-23c-14 1-27 11-28 12l-2 3c0 2 1 3 3 5l5 2 2-1c1-1 9-12 21-16 6-2 11-2 16-2h3c-4-2-10-3-16-3h-4zm27 5zm0 0zm-28 51v-6c0-7 1-19 9-27 7-8 15-11 16-12h1v1l-1 1-1 1-4 3-9 11c-3 7-3 13-3 18l1 8v2c0 3-1 5-3 5l-1 1c-2-1-4-3-5-6zm10-32c-7 8-9 19-9 26l1 5 3 5h1l1-4v-2l-1-8c0-5 1-12 4-18l7-10-7 6z"/><path d="M25 430c0-4 2-19 13-27 10-9 22-12 23-12h1l1 1h-1v1h-2l-5 3-14 10c-7 8-8 18-8 22v3c0 3-1 5-3 6h-1c-2 0-4-3-4-7zm14-26c-11 8-13 22-13 26l3 5c1 0 3-2 3-4v-1l-1-2c0-5 1-15 9-23l11-9-12 8zm23-13z"/><path d="M20 423c-3 0-4-2-4-5l1-1c0-2 5-15 16-21 10-6 21-7 22-7h1v2h-2l-5 2c-4 1-9 4-13 7-8 7-11 18-11 19-1 2-3 4-5 4zm14-25c-10 5-16 18-16 19v1l2 4 3-3c0-1 3-13 12-20l10-6c-3 1-7 2-11 5zm22-9zm0 1zm0-1z"/><path d="M8 412l-1-2 1-1 2-1h1l1 1 2 2 3-2h2v1l-1 1-4 3h-1c-3 0-5-2-5-2zm5 0h1c-2 0-4-2-4-3l-1 1c0 1 0 1 0 0l4 2zm5-3zm-8-8l-1-2 1-3 3-1 3 1-1 1 1-1 1 3-1 3-3 1-3-2zm1-4v3l2 1h2v-4l-2-1-2 1zm6-2l-1-1 2-3h1l3 1-1 1 1-1 1 2-2 2-1 1-3-2zm2-3l-1 2v1h2l1-1v-1l-2-1zm114 4c-4 0-9-4-9-4-9-8-18-10-25-10-14 0-24 8-24 8l-1 1v-1l-2-9c0-12 5-22 5-22 7-13 22-23 22-23 4-3 7-4 11-4 10 0 18 12 23 24 5 13 7 27 7 33v3c-2 2-4 4-7 4zm-5-4l5 2c2 0 4-1 5-3v-2c0-5-2-20-7-32-5-13-12-24-21-24-3 0-7 2-10 4 0 1-15 10-21 23 0 0-5 10-5 21l1 7c3-2 12-8 24-8 8 0 17 3 26 11l3 1zm-54-2l1-1-1 1z"/><path d="M76 382v-1h-1c0-2 1-15 9-27s24-18 25-18l2-1c3 0 6 3 6 7l1 2c0 3-2 6-5 7-1 0-13 1-23 9-8 7-13 19-13 21h-1v1zm34-45c-2 0-17 6-25 18-4 7-7 15-8 20l12-16c10-8 23-10 24-10 2 0 3-2 3-5v-2c-1-3-3-5-5-5h-1zm18 52c-1 0-10-9-23-10h-4c-7 0-15 3-17 3v1h-1v-2h1v-1l4-2 13-4 6-1c13 0 25 9 26 10l3 6-1 2-2 1c-2 0-4-1-5-3zm-23-12c14 2 23 10 24 11 1 2 3 2 4 2h1l1-1-3-5s-12-9-25-9h-6l-8 3 8-1h4zm-22 4zm0 0z"/><path d="M79 383h-1v-2h1l1-1 4-4c4-3 10-7 16-9l11-2c10 0 18 4 19 5 2 2 4 4 4 6l-1 2-3 1-4-2c-1 0-9-6-19-6l-5 1c-12 2-22 10-23 11zm1-1zm47-6l3 1h2v-1l-3-5s-9-4-18-4c-3 0-7 0-10 2-5 1-10 4-13 6l13-5h6c11 0 19 5 20 6zm-49 7zm0 0z"/><path d="M80 376l-1-1h1l1-1 3-4c3-3 7-7 13-10 6-4 13-5 19-5l6 1c3 1 5 3 5 5v1c-1 2-3 3-5 3l-2-1-10-1c-3 0-7 0-11 2-9 3-16 9-18 11h1-2zm36-19c-5 0-13 1-18 5-4 2-8 4-10 7l10-6 12-2c6 0 10 2 11 2h1l3-1v-1c0-1-1-3-3-3l-6-1zm0-2h-1v-2h2l2-2v-1l-1-2v-1l2-2h1l2 1v2c0 1 0 3-2 5s-4 2-5 2zm-1 0zm0 0zm0 0zm0 0zm5-7v4l1-4v-2h-1v2zm-4 7zm0 0zm-1 0h1-1zm0 0zm0 0zm0-1zm-10-9v-1c0-2 1-3 3-4h1c2 0 3 1 4 3v1c0 2-1 3-3 4h-1l-4-3zm4 1h1l1-2v-1l-2-1h-1l-1 2v1h-1 1l2 1zm-10 2l-1-1 2-3h1c2 0 3 1 3 2l1 1-2 3h-1c-1 0-3 0-3-2zm3 1v-1l1-1v-1h-2l-1 1v1l2 1zm-77 42v-1c-1-1 0-2 1-2l1-1 2 2h-1 1v1l-1 2h-1l-2-1zm1-2v1h1v-1h-1zm4 0v-1l1-2 2 1-1 1 1-1v1l-1 2-2-1zm2-1h-1 1zm2-1l1-2h1l1 1-1 1 1-1v1l-1 1-2-1zm2 0h-1 1zm2-1l2-2 2 2h-1 1l-2 2-2-2zm2 0zm4 1l-2-1 2-2 1 1 2 1h-2v1h-1z"/><path d="M47 387l-1-1 1-2h1l1 2h-1 1l-2 1zm0 0zm36 27l-8-13-6-11-4-9 1-2h1c2 0 3 2 7 8h-1v1l-6-7c0 1 0 3 3 8l6 11 12 18-9-19-6-11v-1h1l6 11c6 10 10 18 10 21l-1 1c-2 0-3-2-6-6z"/><path d="M62 353c0-4 0-8 2-12 2-6 8-11 13-11h1c5 0 8 4 8 8v1c-1 4-4 6-7 6h-1c-3 0-5-3-5-5v-1c0-2 2-4 5-4 2 0 4 2 4 4-1 2-2 3-4 3-1 0-2-1-2-3l2-2v1l-1 1 1 1v1l2-2-2-3c-2 0-3 2-3 3v1c0 2 1 3 3 4h1c2 0 5-2 5-5v-1c0-3-2-6-6-7h-1c-4 0-10 5-12 11l-2 11c0 13 6 27 6 27h-2s-5-14-5-27zm-23 4l-5-1c-5 0-10 2-11 4l-2 4c0 2 1 4 3 5l3 1 5-2 1-3-2-3h-2l-3 1v2l1 1 1 1 1-1 1-1-1-1-1 1-1-1 2-1h1l1 2v2l-3 1h-2l-2-3 1-3 4-2 3 1 2 4-1 4c-1 2-4 3-6 3l-4-1c-2-2-3-4-3-7l1-5c3-3 8-5 13-5l6 1c15 5 27 27 27 27h-2s-11-21-26-25zm98 75c-9-2-16-7-16-8h-1v-1h2l1 1 3 1 12 2h1c8 0 11-6 12-6l3-2 2 1c2 0 3 2 3 3l-1 3-5 4c-3 2-6 3-11 3l-5-1zm0-1l5 1c7 0 14-5 14-7h1v-2l-1-2h-2l-2 1s-4 7-13 7h-1l-10-2 9 4zm-17-7zm2-1zm-1 0zm-59 60c-2 0-4-2-4-4s1-4 3-5c1 0 8-1 11-9 3-7 4-16 4-16v-1h1l-1 1h1l1 2v6l-1 9c-1 11-12 17-14 17h-1zm1-2s4-1 6-4c3-2 6-6 6-11l1-9-2 9c-3 7-9 9-12 10-1 0-3 1-3 3 0 1 1 2 3 2h1zm14-31l-1-1 1 1zm-1-1l1-1-1 1 1-1-1 1zm0 0l1-1-1 1z"/><path d="M62 483c-2 0-4-2-4-4s1-4 3-5c1 0 8-1 11-9 3-7 4-16 4-16v-1h1l-1 1h1l1 2v6l-1 9c-1 11-12 17-14 17h-1zm1-2s4-1 6-4c3-2 6-6 6-11l1-9-2 9c-3 7-9 9-12 10-1 0-3 1-3 3 0 1 1 2 3 2h1zm14-31l-1-1 1 1zm-1-1l1-1-1 1 1-1-1 1zm0 0l1-1-1 1z"/><g><path d="M283 46h-1 1l4-4 3-1h2-1l2-3h1l4 1 3-2 1 1s-6 9-16 9l-3-1zm3 0c7 0 12-5 14-7h-7l-1 2 1 1v1h-1l-2-1-2 1-4 3h2z"/><path d="M305 58c-4-4-5-9-5-13l1-7h1c0 3 1 4 2 4 1 1 2 1 2 3s-1 3-2 3c2 1 2 2 2 4v7l-1-1zm-4-13c0 3 1 8 4 12v-5c0-2 0-3-2-4h-1 1c1-1 2-1 2-3l-2-2-1-3-1 5zm-27 1v-1c5-1 12-15 19-18l5-1c5 0 8 2 8 2v1-1 1c-3 6-4 8-7 9h-5c-2 0-2 3-2 3h-2c-2 0-6 4-8 5l-3 1-5-1zm5 0l3-1c1-1 6-5 8-5h1c0-1 1-3 3-3h1l3 1 1-1c2-1 3-2 6-8l-2-1-5-2-4 1c-6 3-13 16-18 18l3 1z"/><path d="M306 58v-5l-1-5h-1l1-1 1-2v-1c-2-2-3-2-4-5v-1l4-9s8 1 9 9v2c0 7-4 17-4 22v3s-5-4-5-7zm4 5v-1c0-6 5-16 5-22l-1-2c-1-6-6-8-7-8l-4 8v1l3 4 1 2-1 3 1 5-1 5h1c-1 1 2 4 3 5zm-36-32l-1-2c0-6 4-27 14-27 1 0 3 0 5 2 0 0 7 4 11 10 0 0 3 6 3 11l-1 4v1-1l-4-2-7-2c-4 0-9 2-13 6l-4 2-3-2zm3-18l-3 16v1l3 2 3-2c5-4 10-5 14-5 5 0 9 2 11 3v-3c0-5-3-10-3-10-3-6-10-11-10-11l-5-1c-5 0-8 5-10 10zm28 16z"/><path d="M274 46v-1h1c7 0 14-13 22-16h4l4 1-1 4h-1v1h-2l-3-1h-2l-7 4c-7 7-12 8-14 8h-1zm23-16c-5 2-9 8-14 12l6-5c2-2 4-4 7-4l2 1h5l1-3-3-1h-4z"/><path d="M308 55v-7l1-4c0-2-1-4-3-5-3-3-3-5-3-5l2-4h1s3 1 5 7v4l-2 17 2 6v1c-1 0-3-2-3-10zm-1-17l3 6-1 4v8l2-15-1-4c-1-4-4-5-4-6l-2 3c0 1 0 2 3 4z"/><path d="M303 34c-1-2-8-2-8-2v-1l3-1 6 2h1l-1 1v1h-1zm1-1zm0 0v-1l-6-1 6 2z"/><path d="M304 34h-1v-1l1-2 1 1s5 3 5 7l-6-5zm4 2l-3-3h-1l4 3zm-4-11h-1c0-1-2-7-7-10-4-4-10-4-11-4l-2-4c0-2 2-3 3-3h1c1 0 8 2 12 8 5 6 5 12 5 13zM284 7l1 3c1 0 7 1 12 4l6 8-4-9c-4-6-12-9-12-9h-1c-1 0-2 1-2 3zm-8 24l-1-2 1-2c1-1 7-5 13-6l3 1 8 3h1v1h-1l-8-2h-2c-6 1-10 5-11 6l-2 1h-1zm1-4l-1 2v1h1l2-1s4-5 11-6h5l-3-1h-3c-6 0-12 5-12 5zm23-2zm0 1zm0 0zm0 0zm0-1zm0 0zm0 0zm0 0zm0 0z"/><path d="M303 26h-1v-1h-1l-2-1c-2-2-5-3-8-3h-2c-5 0-9 3-9 3l-2 1-2-1v-1l1-3 10-2h5c6 2 11 7 11 7l1 1h-1zm0-1zm0 0zm0 0zm0 0zm-25-4l-1 2 1 1 1-1c1 0 5-3 10-3h3l6 2-6-3-5-1c-5 0-9 3-9 3z"/><path d="M302 23h-1v-1l-2-1-6-4h-5l-6 1h-1l-2-1v-1l2-2 4-1 8 2c5 2 9 6 9 7v1zm0 0zm-9-6l5 2-5-3c-3-2-6-2-8-2h-4l-1 2 1 1h1l6-1 5 1zm8 6zm-19-11l-1-2V9l1-1 1 1v2l1 1h1-1 1l-1 1-2-1zm2 1zm0-1zm-3-2l1 2V9h-1v1zm6-1l-2-1V7l2-1h1l1 2-2 2V9zm-1-2v1l1 1 1-1V7h-2zm4 3l-1-1 1-1 1-1 1 1v2-1 1h-2zm0-1l1 1V9h1l-1-1-1 1zm29 42v-4c0-13-12-17-13-17 5-6 13-7 13-7h3c6 0 12 3 12 3 4 1 6 4 6 7 0 10-15 23-17 23h-1c-3 0-3-3-3-5zm1-4l-1 3v1c0 2 1 4 3 4h1c0 1 5-3 8-7 4-5 8-11 8-15 0-3-1-5-5-7l-12-2h-2s-8 1-13 6c3 0 13 5 13 17z"/><path d="M332 35s-4-5-10-6l-6-1h-6 1v-1l3-1 8-1h1c7 0 14 4 14 5l1 2-1 3-3 1-2-1zm-9-7c6 2 9 6 10 7h1l2-1 1-2v-2c-1 0-7-5-14-5h-1l-9 2h3l7 1zm-13 0zm0 0zm12 26l-2-2v-1l1-3-2-9c-2-4-7-7-7-7v-1h1l2 1 5 4c4 4 5 11 5 14l-1 2-2 3v-1zm-3-15l3 9-1 3v1l1 2 2-3v-1c0-3-1-9-5-13l-3-3c2 2 3 3 3 5z"/><path d="M327 50c-2 0-2-1-2-3s-1-7-4-11c-4-4-9-6-10-6h-1v-1h2l3 1 7 4c6 4 7 11 7 13s-1 3-2 3zm-6-15c4 4 5 10 5 12l1 2 1-2c0-2-1-9-6-12l-6-3 5 3zm-10-5v-1 1zm0-1z"/><path d="M329 42c-1-1-2-6-6-9s-9-4-9-4h-1v-1h1l10 3c5 3 8 8 8 9v1l-1 3-2-2zm-6-9c5 3 6 8 6 8l2 2 1-2v-1s-3-6-8-8l-5-2 4 3zm-9-4zm19 10l-2-2h2l2-1h1l1 1-1 1v1h-3zm0-1h1l2-1h-1l-2 1zm-1-1zm0 0zm0 0zm0 0zm1-4l-1-1v-1l2-1h1l1 2-1 1-1 1-1-1zm0-2v2h1v-1h1l-1-1h-1zm-3 0l-1-1v-1l2-1 1 2-1 1h-1zm0-2v1h1v-1h-1zm-36-17l-1-1v-1h2v1l-1 1zm0-1h1l-1-1v1zm2 2l-1-1h1v-1l1 1v1h-1zm0-1zm1 2v-1h1l1 1h-2zm2 2l-1-1h1v-1l1 1v1l-1-1 1 1h-1zm0-1zm0 0zm1 2v-1h1v1h-1zm0 0zm0 0zm0 0zm1 1v-1l1 1v1l-1-1zm0 0zm0 0zm0 0zm-3 26v-1l4-10 3-5 3-4h1v1l-1 4h-1 1l-3 5-6 10h-1zm8-16l-3 5-4 9 1-2 4-6 3-5 1-4v-1l-2 4zm3-4s7-10 14-11h2c3 0 5 1 7 3v2l-2 3-2 1-3-2v-1l2-3 3 1v1l-1 2h-1l-1-1-1-1 1-1h1l1 1h-2v1h1l1-1-2-1-1 2 2 2h1l2-3v-2l-6-2h-2c-7 1-14 11-14 11v-1z"/><path d="M307 24s4-7 4-13V7c-1-3-4-5-6-5s-3 1-3 2v1l2 2c2 0 2-1 2-2l-1-1-1 1h-1 1l1 1V4l1 1-1 1-2-1 2-2 2 2c0 2-1 3-3 3l-3-3V4c0-2 2-3 4-3 3 0 6 3 6 6l1 4c0 6-4 14-4 14l-1-1zm-2-21zm1 63l-1-7v-2l1 3 2 5c2 3 5 3 5 3h1l2 2c0 2-1 2-2 2h-1c-1 0-6-2-7-6zm7 6h1l1-2-1-1h-1c-1 0-4 0-6-4l-1-4v4c1 5 6 7 7 7zm-8-15zm0 0zm-39-8v-1l1-2h3s1 2 4 2h2c4 0 7-2 7-3h1v2-1l-1 1-1 1-5 3h-4l-7-2zm1 0l2 1 4 1 3-1 4-2-4 1h-2c-3 0-5-2-5-2h-2v2zm16-3v-1 1zm0-1zm1 0z"/><path d="M266 49v-1l1-2h3s1 2 4 2h2c4 0 7-2 7-3h1v2-1l-1 1-1 1-5 3h-4l-7-2zm1 0l2 1 4 1 3-1 4-2-4 1h-2c-3 0-5-2-5-2h-2v2zm16-3v-1 1zm0-1zm1 0z"/></g><g><path d="M595 558l-1-1h8l4 1c0-1 1-2 3-2 3 0 2 4 7 4l1-1v1s-4 2-9 2c-4 0-9-1-13-4zm13 3l7-1c-5 0-4-3-6-3s-3 2-3 2v1c-1-2-2-3-4-3h-1l-5 1c4 3 8 3 12 3zm1 20v-5c0-10 8-16 8-16h1l-2 4 2 4-1 2-3 1v2h1l-2 3-3 5v1l-1-1zm1-5v4l3-4 1-3-2-2v-1h2l2-1 1-1-1-4v-2c-2 2-6 7-6 14z"/><path d="M615 559c-3 0-2-2-5-3h-1l-3 1v1-1l-4-1-7 1h-1l-7-4v-1h2c6 0 18-7 26-7h1c8 1 10 9 10 9l-10 5h-1zm-4-4c2 2 2 3 4 3h1l9-4c0-2-3-7-9-8h-1c-7 0-19 7-26 7l5 3h1l7-1 4 1 3-1h2zm-2 29l1-3c1-1 5-6 5-9l-1-1h1s3-1 3-3l-1-4v-2c1-3 3-4 9-8h1s3 4 3 10v4c-3 8-18 17-19 22h-1l-1-6zm7-12c0 3-5 8-6 10v2l1 5c2-7 15-15 18-21l1-4c0-5-3-8-4-9-6 4-7 5-8 8l-1 1 1 4c0 2-2 3-3 4h1z"/><path d="M625 554s-5-12-18-12h-7c-2 0-5 0-5-4 0-2 14-20 24-20 3 0 6 1 8 5 0 0 4 8 4 15v1s0 9-6 15zm0 0zm0-1c5-5 5-14 5-14v-1c0-7-4-14-4-14-1-4-4-5-7-5-4 0-10 4-15 9-5 4-8 9-8 10 0 3 2 3 4 4l2-1h5c12 0 17 10 18 12z"/><path d="M621 558c-1 0-3 0-6-3-1-2-3-2-5-2h-4l-11 2c-6 0-8-2-8-2l1-1 5 2c7 0 15-4 21-4h3c6 1 8 5 8 5l-4 3zm0 0v-1 1zm-5-4c2 3 4 3 5 3l3-2c-1-1-2-3-7-4l-3-1c-5 0-11 3-17 4l9-1 4-1 6 2z"/><path d="M610 589c0-3 1-8 8-16 2-2 3-4 3-7v-2l-1-4v-2h1v-1l4-2v1s2 1 2 5l-1 4c-2 8-15 16-15 24v1h-1v-1zm11-29l1 4v2c0 3-1 5-3 8l-6 7c4-6 11-11 13-17v-3l-1-5-4 2v2z"/><path d="M621 557c0-2-6-6-6-6v-1c4 1 8 6 8 6v1l-1 1h-1v-1zm1 0zm0 0v-1c0-1-2-3-5-4l5 5z"/><path d="M624 566s-1-7-3-8v-1l2-1 2 7v3h-1zm0-3l-1-6h-1l2 6zm3-13h-1v-2l1-3-2-9c-2-6-8-9-8-10l-1-2 1-3 3-1 2 1c1 0 7 7 7 14v3c0 6-1 10-2 11l1 1h-1zm-9-28l-1 2v2c1 0 6 4 9 10l1 9v1l2-8-1-3c0-7-6-14-6-14l-2-1-2 2zm5 26h-1v-1l-2-2-6-4-8-1h-6l-3-1c0-2 1-2 3-3h4c3 0 9 0 13 4 4 3 6 7 6 8h1-1zm-9-8l5 4-3-4c-3-3-9-4-12-4l-4 1-2 2 2 1 1-1h5l8 1z"/><path d="M625 550v-1h-1v-1l-1-2-6-7c-4-3-8-4-11-4h-2l-3-1v-1l3-2h1c2 0 10 1 14 6s6 11 6 12v1zm-7-12l4 6c0-2-2-4-4-6-4-5-11-6-13-6l-3 1 2 1h2c3 0 8 1 12 4z"/><path d="M626 546h-1v-1l-1-2-4-7c-4-4-9-5-10-5-1-1-2-1-2-3 0-1 1-2 3-2v1c1 0 8 2 11 8 3 5 4 10 4 11zm0 0zm-17-18l1 2c1 0 7 1 11 6l3 5-3-6c-3-5-9-8-10-8l-2 1zm17 18z"/><path d="M615 528v-1h-1l-1-2v-1l1-2h1l1 1-2 2 1 2v1zm0-1zm0 0zm0 0zm-2-3l1 1 1-2-1-1-1 2zm2-1zm0 5zm0 0zm4-2l-1-2 1-1 2-1 1 1v3h-1 1-3zm1-2h-1l1 1v1l1-1 1-1h-1v-1l-1 1zm2 5v-3h1l1 1 1 1-1 1h-2zm1-2l-1 1h2v-1h-1zm3 62l-2-3c0-3 2-5 2-5 4-4 5-9 5-13 0-7-5-12-5-12l-1-1h1l6-1 10 2c7 4 12 11 12 11 2 2 2 4 2 6 0 11-23 16-29 16h-1zm6-21c0 4-2 9-5 14l-2 4c0 1 0 2 2 2 3 0 10-1 17-4 6-2 12-6 12-11l-3-6s-5-7-12-10c0 0-4-2-9-2l-5 1c1 1 5 6 5 12z"/><path d="M647 575c0-1-1-7-5-12-4-4-11-6-11-6v-1h-1 1c2 0 8 0 13 4 7 4 10 12 11 12v1c0 2-2 3-3 4h-2l-3-2zm-5-12c5 4 6 11 6 12l2 1h1c2 0 3-2 3-3s-4-9-10-12c-4-3-8-4-10-4 2 1 6 3 8 6zm-15 24l-1-1 1-3c1 0 5-5 5-12v-1l-2-10h1v1l1 1 3 7v3c0 7-4 13-4 14l-3 1h-1zm6-17v1c0 7-5 12-5 12l-1 3h1l2-1s5-6 4-13v-3l-1-4v5zm-2-10z"/><path d="M633 585v-3c1-1 3-5 3-9v-4c-1-6-5-10-6-11v-1h1v1l2 2 5 8 1 7-2 9-3 2-1-1zm4-16v4c0 5-3 9-3 9v3l3-2 2-8-2-6c0-3-2-5-3-7l3 7zm-7-12zm0 0z"/><path d="M641 582l-1-2v-1l1-5-2-6c-1-5-5-9-6-9v-1h1l8 8c2 4 2 8 2 11v3l-2 2h-1zm-1-15l1 7v6l1 1 1-2 1-2c0-3-1-7-3-10l-4-5 3 5zm6 12l-1-3h1v1h1v1l2-1 1 1v1l-1 1h-1l-2-1zm0-1l2 1h1v-1h-3zm0-2zm0 0zm2-3l2-2v-1l2 2-1 2h-1l-2-1zm2-2l-1 2 1 1h1v-2l-1-1zm-3-2l1-2h1l1 1v1l-1 1h-1l-1-1zm1-1v1h1v-1h-1zm-24-36v-1l1-1 1 1v1h-2zm1-1v1l1-1h-1zm1 3h-1l1-1h1v1h-1zm0 0zm0 2l1-1 1 1-1 1v-1 1l-1-1zm1 0zm0 2v-1l1 1v1-1 1h-1v-1zm0 0zm0 0zm0 0zm0 2l1-1v2-1 1-1 1l-1-1zm1 0h-1 1zm0 0zm0 2h-1l1-1v2-1zm-1 0zm0-1zm-16 23c0-2 4-4 10-8l5-3 4-2h1l1 1-4 3-6 4-10 5h-1zm15-11l-5 4-9 6 10-5 5-3 4-3-1-1-4 2z"/><path d="M652 560c-2 0-3-1-3-3s1-3 3-3l2 2v1l-2 1-1-1 1-2 1 1h-1l-1 1 1 1 2-1v-1l-2-1-2 2 2 3h1c1 0 3-2 3-4s-3-5-5-6l-6-1c-6 0-14 3-14 3s7-4 14-4l6 1c3 1 6 4 6 7v1c0 2-2 3-4 3h-1zm-1-3zm-20-5zm-1-1s11-6 13-14v-2c0-3-1-6-3-7h-2l-2 2-1 1 2 2 1 1 1-1 1-1-1-1-1-1-1 1 1 1v-1h1v1l-1 1h-1l-1-2 1-1h2l1 2v1l-2 2-2-1-2-3 1-2 3-2 3 1c2 1 3 4 3 7l-1 2c-2 8-13 14-13 15v-1zm-19 48h-2c-1 0-4-4-4-8l1-3 3-8h1v1l-1 2-1 6c0 4 3 6 4 6l1 2-1 1-1 1zm-1-1l1 1 1-1v-1l-1-1s-4-2-4-7l1-5-2 5v2c0 3 2 7 3 7h1zm0-18zm0 0zm0 0zm0 0zm0 0zm-23-22c-5 0-9-5-9-7l2-2 3 1v1c0 1 1 4 5 5l8 1v1h-2l-3 1-4-1zm0 0h5l-5-1c-4-2-5-6-5-6l-2-2-1 2c0 1 4 6 8 7zm9 0zm-16-9z"/><path d="M587 558c-5 0-9-5-9-7l2-2 3 1v1c0 1 1 4 5 5l8 1v1h-2l-3 1-4-1zm0 0h5l-5-1c-4-2-5-6-5-6l-2-2-1 2c0 1 4 6 8 7zm9 0zm-16-9z"/></g><g><path d="M242 340c-7-6-16-13-29-13h-3v-2c0-2 1-7 6-8l-6-3c-5-2-12-4-20-4s-16 3-23 10l-2 1v-2s0-15 9-19l-19-2c-9 0-20 1-31 6l-1-2s7-6 9-12c-3 1-8 4-14 5l-3-1c-9-2-15-11-15-11l-1-2h2l1 1h4c4 0 9-1 11-6-3 2-9 5-16 5s-15-3-22-12c-2 0-18-1-25-10l1-1 3 1 8 2 4-1c-1-1-3-4-5-4l-1 1-2-1c1 0 5-7 18-7 6 0 13 2 23 5l-3-2c-3-3-9-5-16-5h-6l-3 1c-18 0-25-19-26-22l-1-1h6l5 1c-6-5-18-16-24-31l2-1 9 8c5 4 11 8 16 8-3-3-9-15-9-23v-4l1 3 6 9c3 4 7 9 10 10-4-5-13-18-13-37l1-8h1l3 8 5 7-2-10c0-5 1-10 4-16 6-14 7-21 7-23l1-1s12 18 12 36v2h-1 1v4c0 14 2 53 26 82 29 34 51 45 95 56 0 0 27 7 43 48l-1 1-10-14zm6 5c-8-15-16-24-23-30-9-7-15-8-15-8-44-11-67-23-96-57-25-29-27-69-27-83v-6c0-13-7-27-10-32 0 3-2 10-7 21-3 6-3 11-3 15 0 7 2 11 2 11l1 1h-1c-5-1-9-8-10-13v4c0 23 14 38 14 38l2 1h-2c-8-1-15-12-19-18 2 9 10 22 10 22l1 1h-3c-7 0-19-10-24-14 8 17 23 27 26 29l-1 1-9-1h-3c1 4 9 19 24 19h9c16 0 22 9 22 9l1 2-2-1c-10-4-19-5-25-5s-10 2-13 3l-1 1c3 0 6 5 6 5v1l-6 1-8-1c7 6 22 6 22 6l1 1c6 8 14 11 20 11 9 0 17-5 17-5l1-1v1c-1 8-9 9-14 9h-3c2 3 7 8 13 9l3 1c7 0 14-6 14-6l1-1v2c0 5-3 10-6 13 10-3 20-4 28-4 14 0 23 3 23 3v1c-5 0-8 4-10 9l-1 7c7-6 15-8 23-8 16 0 29 8 29 8v2h-1c-6 0-6 4-6 6v1h1c17 0 28 11 35 19z"/></g><g><path d="M109 667c-7-1-23-16-23-37 0-12 5-25 20-37-8 1-32 6-39 29h-1c0-4 0-45 32-59h-3c-6 0-14-1-20-7h1v-1c6 5 13 6 19 6h8l10-2v1s-4 2-10 2c-29 10-35 42-36 55 11-24 41-26 41-26l2-1-1 2c-16 13-21 26-21 38 0 20 16 35 21 35 7 1 13 7 17 11-8-20-12-38-12-54 0-69 57-108 66-113 12-6 57-37 86-47l15-3c21 0 38 13 42 16 4-13 19-17 24-18l-4-3c-3-3-7-5-11-5s-8 2-11 8l-1 1-1-1s-2-4-7-7-13-7-23-7c-5 0-12 1-20 5l-15 3c-20 0-36-15-36-31 0-4 1-9 3-13-5 5-10 13-10 23 0 9 5 22 20 36l-1 2-11-3a104 104 0 0 0-48-1l-1-1c-11 2-35 10-47 35 7-6 25-22 42-24h9c9 0 20 2 20 10 0 2 0 4-2 7l-30 8c-15 6-31 15-37 29-5 13-17 19-30 19-12 0-24-6-30-16v3c0 5 2 13 11 21v1h-1c-9-8-12-17-12-22l1-6 1-1 1 1c5 11 17 18 29 18s24-6 29-19c11-28 62-36 67-37l2-6c0-3-2-5-6-7l-13-1h-9c-20 2-43 26-43 26l-2-1c11-29 38-37 50-40l20-1c17 0 32 3 38 5-14-14-18-25-18-35 0-20 18-30 18-30l1 1c-7 6-10 12-10 19 0 15 16 29 35 29l15-3c7-3 14-4 20-4 18 0 28 10 31 13 4-6 8-8 12-8 10 0 17 10 17 10l1 1h-1s-21 3-25 19v1l-1-1-12-8c-8-4-18-9-30-9l-14 3c-29 11-74 41-86 47-9 5-65 44-65 112 0 17 4 37 13 58l-1 1s-10-13-19-14z"/></g><g><path d="M436 564h-1v-1l-1-2-2-7c-1-6-3-14-3-23v-5c0-20 14-38 16-39 2-2 5-3 7-3s4 1 5 3l1 5-3 6c-1 1-14 12-18 30l-2 18c0 9 1 16 2 17v2l-1-1zm0 0zm0 0zm0 0h-1 1zm10-76c-1 1-15 19-15 38v5c0 9 1 18 3 24v-9c0-5 0-12 2-19 3-18 17-29 18-30l3-5-1-4-4-2-6 2z"/><path d="M440 559l-1-1v-5c0-5 0-11 2-17 3-12 12-21 14-22l3-1c2 0 4 1 5 3v3c0 2 0 4-2 5-1 0-9 5-14 14s-6 19-6 20h-1v1zm16-43c-1 0-11 9-13 20l-3 15c1-4 3-9 6-13 5-10 14-15 14-16 1 0 2-1 2-3l-1-2-3-2-2 1z"/><path d="M448 555v-2l-1-2 3-9c3-6 10-9 11-9h1c2 0 3 2 3 3v1c0 2 0 4-2 4-1 0-6 0-9 4-4 3-5 8-5 9v1h-1zm0 0zm1-1zm0 0zm13-19h-1s-7 2-10 8l-2 5 4-4c4-4 10-4 10-4l1-3-2-2z"/></g><g><path d="M437 711l-1-4c0-3 3-8 6-11 2-2 17-11 33-11l12 2c19 4 32 19 33 20l-1 1h-1v-1l-2-1-7-3c-6-3-15-5-24-5l-2-1c-18 0-33 14-35 15-1 2-3 3-5 3s-5-2-6-4zm6-14c-3 3-5 7-5 10l1 3c1 2 2 3 4 3l4-2c2-1 17-15 36-15h2c12 0 23 4 29 7l-4-3c-6-4-14-9-23-12l-12-1c-15 0-31 9-32 10zm76 11zm0 0zm0 0zm0 0zm1-1zm0 0zm0 0zm-1 1zm0 0zm1-1zm0 0z"/><path d="M467 728c-2 0-3-1-4-3l-2-4 3-6c1-2 14-12 26-12h3c10 0 18 4 19 5h1v1h-6c-4 0-10 0-17 3-11 3-19 13-20 14l-3 2zm-2-12l-2 5 1 3 3 2 2-1c1-1 9-12 21-15l17-3h-1l-13-2h-3c-12 0-24 10-25 11zm47-7zm0 0zm0 0zm0 0zm0 0zm0-1zm0 1zm0 0zm0-1z"/><path d="M492 731l-2-1-2-3 1-3c0-1 5-9 13-12l5-1c4 0 6 2 7 2v1h1v2l-2-1h-1c-2 0-6 0-9 3-5 4-7 11-8 11l-3 2zm10-17c-6 2-12 10-12 11v2l1 2h3c0-1 3-8 8-13l8-3h-3l-5 1zm12 1zm0 0zm0-1zm0-1z"/></g><g><path d="M332 355v-1h-2l-5-4c-4-3-10-7-14-13-7-8-9-18-9-25l1-8c2-3 4-4 7-4h3c3 2 5 5 5 7l-1 2s-2 5-2 11l3 12c5 12 15 21 15 21v1-1 2h-1zm0 0zm0 0zm0 0zm1-1zm0 0zm0 0v-1 1zm0-1zm-28-49v1l-1 2v5c0 7 2 17 8 24l15 14-1-2-10-15-3-13c0-6 3-11 3-12v-1c0-1-1-4-4-5l-2-1c-2 0-4 1-5 3zm28 49z"/><path d="M333 348v-1h-1l-2-2-5-8c-2-2-2-5-2-8v-5l1-3 3-2 3 1 2 4v1c-1 0-3 4-3 8v3c1 5 4 10 5 10v3l-1-1zm0 0zm0 0zm1-2zm0 0zm-8-24l-1 1v1l-1 5 2 7c1 3 2 5 4 6l-2-6-1-3c0-5 2-8 3-9l-1-2-2-1-1 1z"/></g><g><path d="M159 594c0-2 1-37 25-58 21-17 45-18 51-19l2 1h1l-1 1h-1l-4 1-11 4c-10 4-21 10-29 20a65 65 0 0 0-12 41v10c0 6-4 11-10 12h-1c-6 0-10-6-10-13zm26-57c-24 21-24 55-25 58 0 6 5 10 9 10h1c5 0 9-5 9-10v-1l-1-9c0-10 2-28 13-42 8-10 19-16 29-20l10-4c-10 1-29 5-45 18z"/><path d="M204 586c-3 0-7-3-8-8v-7c0-10 2-27 15-38 14-12 31-13 37-13h3v1h-1v1h-3l-9 3c-7 2-15 7-21 14-6 8-8 16-8 23s2 12 2 13v2c0 4-2 7-5 8l-2 1zm8-51c-12 10-15 26-15 36l1 6v1c1 4 4 6 6 6h2c2-1 4-4 4-7l-1-1-1-14c0-7 1-16 8-24 7-9 18-14 25-16-7 1-19 4-29 13z"/><path d="M227 555v-3c0-5 1-15 9-22 5-5 11-6 15-6h5l1 1v1h-1c-1 0-11 0-15 9-3 3-3 7-3 10v7c0 3-1 6-4 7h-1c-3 0-5-2-6-4zm10-23c-7 6-8 16-8 20v2c0 2 2 4 4 4l1-1c2 0 3-2 3-5l-1-7c0-4 1-7 3-11 3-5 8-8 12-9-4 0-10 2-14 7zm19-7z"/></g><g><path d="M344 634c-4-1-7-5-7-10v-2c1-2 7-29 30-41 11-6 21-7 30-7 8 0 14 1 14 2h1l-1 1h-4l-10 1c-7 2-17 5-25 11-16 13-17 35-18 37-1 4-5 8-9 8h-1zm24-51c-22 11-29 38-29 39v2c0 4 2 8 5 8h1c4 0 7-3 8-7 0-1 2-24 18-37 11-9 24-11 33-12h-7c-8 0-19 1-29 7z"/><path d="M372 618c0-4 3-24 19-32 7-4 15-5 21-5l11 1h1v1l-1 1-3-1c-5 0-17 1-25 9-10 7-11 19-11 24v2c0 4-3 7-6 8h-1c-3 0-5-4-5-8zm5 6h1c2 0 4-3 4-6v-2c0-5 1-18 12-26 6-5 14-7 20-8h-2c-6 0-13 1-20 5-16 8-19 27-19 31s2 6 4 6zm46-42z"/><path d="M399 608v-1c0-1 3-12 11-17 3-2 7-3 10-3l7 2 1 1-1 1-3-1c-3 0-7 1-10 4-5 5-4 10-5 13s-2 5-5 5-5-2-5-4zm5 3c2 0 3-2 3-4 1-3 1-9 5-14 3-3 7-4 9-4h-1c-3 0-6 0-9 2-8 5-10 15-10 16v1c0 1 1 3 3 3zm23-21v-1 1z"/></g><g><path d="M312 574l-2-7c0-16 31-27 36-29-1-9-18-10-25-10h-11c-40 0-52-22-52-22v-1h6c87 0 161 64 161 64v1-1 1-1l-1 1a87 87 0 0 0-45-16c-9 0-17 3-22 8-5 3-18 21-31 21-5 0-10-2-14-9zm35-35h1l-1 1-18 7c-9 5-17 12-17 20l1 6c4 7 8 9 13 9 11 0 25-18 30-22 6-5 14-8 23-8 10 0 22 3 36 11-9-6-22-16-38-25-30-16-70-32-113-32h-4l10 10c8 5 20 10 40 10h11c7 0 25 1 26 13z"/></g><g><path d="M324 573l-3-6 2-5c1-1 15-15 32-18l10-1c12 0 21 4 22 5h1v3l-2-2-2-1h-8c-5 0-12 1-18 4-14 6-23 19-24 20l-5 2-5-1zm31-28c-16 4-30 17-31 18l-1 4 2 4 4 2 4-2c1-1 10-15 24-21 6-3 13-4 19-4h4l-15-2-10 1zm32 3zm1 0z"/></g><g><path d="M402 525c-3-1-16-6-28-14s-21-23-21-26l-1-3c0-3 2-6 5-6l3-1c2 0 5 1 6 4 2 4 5 18 14 26l22 18 1 1v1h-1zm0-1zm-45-47c-2 1-3 3-3 5v3c1 2 9 17 21 25 8 6 17 9 22 11l-3-2-15-13c-10-8-13-23-15-27l-4-2h-3z"/></g><g><path d="M345 495c-6-4-8-12-8-14v-1c0-2 2-5 6-6 3 1 5 3 5 6v5l2 6c3 5 9 8 9 8l-1 1v-1 1l1-1-1 2s-7-1-13-6zm1-1l8 4c-1-1-4-3-5-6-2-3-2-5-2-7v-5c0-2-2-4-4-4-3 0-4 3-4 4v1c-1 1 2 9 7 13z"/></g><g><path d="M294 485c0-1-9-4-20-4h-2c-11 0-22 2-22 3v-1l-1 1v-2h1l1-1 5-2 15-5 15-1 12 1c3 1 4 3 4 5v3l-6 3h-2zm1-2l1 1c2 0 3-1 4-3l1-2-3-4-12-1-14 2-15 5 15-2h2c11 0 20 4 21 4zm-45 0zm0 0z"/></g><g><path d="M329 416l-5 1c-2 2-4 2-6 2-9 0-15-7-15-14 0-2 1-5 4-7 4-3 8-5 12-5 19 1 30 37 30 37l-1 1s-9-15-19-15zm16 9l-5-12c-5-9-13-18-21-18-4 0-7 1-11 4l-3 6c0 6 5 12 13 12l6-1 5-2c7 0 13 6 16 11z"/></g><g><path d="M300 378c-26 0-44-45-44-45l-1-2 2 1c40 17 57 41 57 41v1c-5 3-9 4-14 4zm-31-23c8 11 19 22 31 22 4 0 8-1 12-4l-13-13c-9-7-22-17-41-26l11 21zm-13-21v-1 1z"/></g><g><path d="M525 698c0-9 5-17 15-23l2-3v-1l1-1 1 5c0 3-1 7-4 10l3-1v1l1 3c0 9-14 13-14 21v1h-1c-3-4-4-8-4-12zm16-22v1c-10 5-14 13-14 21 0 3 0 6 2 9 2-8 14-13 13-19v-2l-3 2-2-1v-1c4-3 6-8 6-11v-1l-2 2z"/></g></svg>