<svg xmlns="http://www.w3.org/2000/svg" viewBox="-150 0 780 700"><path d="M82 462l-1-3v-1c0-12 9-23 21-27l8-3c-10-4-19-11-22-22l-1-9c0-10 5-21 15-25 3-2 6-2 8-2 11 0 22 8 22 20 0 7-5 13-11 16l-6 1c-5 0-10-3-12-8l-2-5c0-6 4-12 10-12h2c5 0 9 5 9 9 0 3-1 5-3 7l-4 1c-4 0-7-3-7-5v-1c0-3 2-4 3-4v1l-1 2 1 1 3 3 3-1 2-4c0-2-3-6-6-6h-1c-4 1-7 5-7 9l1 3c2 4 5 6 9 6 6 0 13-5 13-12v-1c0-10-9-17-17-17l-8 2c-8 3-13 13-13 22l1 8c3 12 15 19 26 22h19l16-6c11-5 21-14 34-17 12-4 25-5 37-6h1v4c-13 1-25 2-37 5s-22 11-33 17l-18 6-11 2-8-1c-5 0-10 1-14 3-11 4-19 13-19 24l-2 4zm2-4c0-11 8-21 19-24l14-4 8 1 11-1 17-7c12-5 22-13 34-16l36-6v-2c-12 1-25 2-37 5-13 3-22 12-34 17-5 3-11 5-16 6h-8l-11 1c-12-4-23-11-26-23l-1-8c0-9 4-19 13-22 2-2 5-2 8-2 9 0 17 7 18 17v1c0 7-8 13-14 13-4 0-8-2-10-7l-1-3c0-5 4-9 8-9h1c3 0 6 3 6 6l-2 4-3 1c-2 0-3-1-4-3v-1l1-2c-1 0-2 1-2 3v1c0 2 2 5 6 5l3-2c3-1 4-3 4-6 0-4-4-9-9-9h-1c-6 1-10 6-10 12l1 4c2 5 7 8 12 8l5-1c7-2 11-8 11-15 0-12-10-20-21-20l-8 2c-10 4-15 15-15 25l1 9c3 11 13 18 23 22l1 1h-1l-9 2c-11 4-21 15-21 27v1l1 2 2-3zm139-60zm111-18c-15-3-27-14-33-27s-8-26-8-40v-13c0-10-2-20-4-31l-7-42 7 42 5 31-1 10v3c0 14 2 27 8 39 7 13 18 24 33 28l15 2c9 0 19-3 25-11 5-5 8-13 8-20 0-8-3-15-10-20-4-3-9-5-14-5-10 0-20 7-22 17l-1 4c0 7 4 12 9 15l7 2c6 0 11-3 13-8l-2-1c-2 4-6 6-11 6l-5-1c-5-2-8-7-8-13v-4c3-8 11-14 20-14 4 0 9 1 13 5 5 4 8 10 8 17 0 6-2 13-7 18-6 7-14 10-23 10-5 1-10 0-15-2-13-3-24-13-30-26a111 111 0 0 1-8-41v-9c0-11-2-22-4-33l-7-42-4-14-1-1v1l2 15-3-15 1-2 2 5 3 11 7 42 5 33-1 9v3c0 13 2 26 8 38s17 22 30 26l15 2c8 0 17-3 23-10 5-5 7-12 7-18 0-7-3-13-9-17-3-3-8-5-12-5-9 0-17 6-19 14l-1 4c0 5 3 10 8 12l5 2c5 0 9-3 11-6v-1l3 2c-3 5-8 8-14 8l-7-1c-5-3-9-9-9-16l1-4c2-11 12-17 22-17 5 0 10 1 14 5 7 5 10 12 10 20 0 7-2 15-7 20-7 8-17 11-26 12-6 0-11-1-15-3zM339 69c0-7 6-13 13-13s12 6 12 13-5 12-12 12-13-5-13-12zm13 11c6 0 11-5 11-11s-5-11-11-11-11 5-11 11 5 11 11 11zm-13 16c0-5 4-8 8-8 5 0 9 3 9 8s-4 9-9 9c-4 0-8-4-8-9zm8 7c4 0 8-3 8-7s-4-7-8-7c-3 0-7 3-7 7s4 7 7 7zm11-16c0-2 2-4 5-4 2 0 4 2 4 4 0 3-2 5-4 5-3 0-5-2-5-5zm5 4c1 0 3-2 3-4l-3-3c-2 0-4 2-4 3 0 2 2 4 4 4zM10 469l-1-4c0-4 3-9 8-10l3-1c5 0 9 3 11 8v3c0 5-2 9-7 11h-4c-4 0-9-3-10-7zm7-13c-4 1-6 5-6 9v3c1 5 5 7 9 7h4c4-2 6-6 6-10v-3c-2-4-5-7-10-7l-3 1zm9 37l-1-3c0-3 3-6 6-8h3c3 0 6 2 8 6v2c0 4-2 7-6 8l-2 1c-4 0-7-3-8-6zm5-10c-3 1-5 4-5 7l1 3c1 3 4 5 7 5l2-1c3-1 5-4 5-7v-2c-1-3-4-5-7-5h-3zm8-6c-2 0-4-2-5-4v-1c0-2 1-4 3-4l2-1 4 4v1c0 2-1 4-3 4l-1 1zm-2-8l-2 3v1c1 2 2 2 4 2h1l2-3v-1c-1-2-2-2-3-2h-2z"/><path d="M160 623c-15-3-22-19-23-35v-4c0-11 2-22 5-31a83 83 0 0 1-67 43l-8 1c-28 0-64-19-67-61v-5c0-36 28-53 28-53l1 1a57 57 0 0 0-24 48c0 29 19 57 59 57h8c55-5 62-47 62-68l-1-11c-12 27-31 34-46 34s-27-7-27-7v-1c8 3 15 4 21 4 25 0 39-19 47-37 7-15 9-29 10-35-13 29-28 36-39 36-8 0-14-4-14-4h1l9 1c11 0 19-6 27-18 6-8 13-25 24-37 31-35 78-41 78-41-26 10-82 20-82 92 0 18 9 35 22 47 14 12 32 19 52 19 30 0 61-18 79-67l1-1v1s5 13 5 27c0 11-4 22-16 26-18 5-21 24-21 35l1 10v-1 1h-1c-10-15-27-19-42-19-14 0-25 4-28 4 3 4 4 9 4 15 0 16-9 35-30 35l-8-1zm-22-39v4c1 16 8 32 22 35l8 1c20 0 29-19 29-35 0-6-1-11-4-15 0 0 13-4 29-4 15 0 32 3 42 17v-8c0-11 2-31 21-36 12-3 15-14 15-25s-3-22-4-26c-18 48-50 67-80 67-39 0-75-30-75-67 0-69 51-81 79-91l-23 7c-16 6-35 16-51 33-10 12-18 29-23 37-9 12-17 19-28 19l-6-1h1l9 2c11 0 27-6 39-38h1s-2 19-10 38-22 38-48 38l-15-2h2c5 2 12 4 19 4 15 0 34-7 46-35v-1 1l1 13c0 21-7 64-62 69h-8c-21 0-36-7-45-18a59 59 0 0 1-15-40c0-13 4-25 11-36v1c-7 8-14 21-14 39v5c3 41 38 60 66 60l8-1c18-2 52-10 68-46 2-9 5-14 5-14h1l-5 14c-3 9-6 23-6 35zM29 479z"/><path d="M189 589c1 23-23 30-37 16-17-17-1-68-1-68s-11 47 5 58c20 14 33-6 33-6z"/><path d="M164 591c-16-4-17-28-17-33v-1h1s0 6 3 12c2 7 6 13 12 14h2c11 0 13-9 13-10v-1l1 1 2 7c0 7-6 11-13 11h-4zm0-1h4c6 0 12-4 12-10l-2-5c-1 3-4 9-13 9h-2c-8-1-12-9-14-16 1 9 5 19 15 22z"/><path d="M172 564c5 9-3 15-11 13-14-4-13-27-13-27s1 20 12 22c10 1 12-8 12-8z"/><path d="M156 564c-5-4-6-12-6-18v-9h2c0 3 4 12 13 15 3 1 4 3 4 5 0 4-3 9-8 9l-5-2zm-5-18c0 6 1 14 6 17l4 1c4 0 7-3 7-7 0-2-1-3-4-4-7-3-11-9-13-13v6zm-1-9h1-1zm193-297c-3 0-5 0-8-2-2-1-17-6-29-19-13-13-22-34-26-55l-3-36c0-24 4-43 4-44h1v-1 1l2 1h-2v6c0 13 2 42 12 69 7 18 18 33 29 41s21 10 22 11c7 3 12 9 12 16v2c-1 6-7 10-14 10zM280 97l-2 31 3 36c4 20 13 41 25 54 13 13 27 18 29 19l8 2c6 0 12-4 12-9l1-2c0-7-5-12-11-15-2 0-11-3-22-11-12-8-23-23-30-42-10-27-12-56-12-69l-1 6z"/><path d="M343 181c-1-1-11-2-21-9-11-7-21-20-26-33-10-24-11-48-11-53v-1l1-1v1c1 1 5 28 19 49 7 11 17 20 25 24l17 4c5 1 10 5 10 10v1c0 4-5 8-11 8h-3zm-46-43c5 14 15 26 25 33 11 7 20 8 21 9h3c5 0 10-4 10-7v-1c-1-4-5-8-10-9-1 0-8 0-16-4-9-4-19-13-26-24-10-16-15-34-17-43 0 9 2 28 10 46zm-11-54zm0 1zm0 0z"/><path d="M327 135c-1 0-7-1-13-6-7-4-14-12-17-20-8-17-8-34-8-35v-1h1v1l1 3 2 7c1 7 4 15 9 22 4 7 10 13 16 16l11 3c4 0 7 3 7 6s-3 4-7 4h-2zm2-1l4-1 2-2c0-2-3-4-6-5-1 0-6 0-12-3-5-3-12-9-16-16-6-9-9-18-10-25v3c1 6 3 15 7 23 3 9 10 16 16 20 7 5 12 6 13 6h2zm-39-60zm0 0zm0-1zM154 517s11 12 26 18c7 3 14 4 20 3 5-1 8-3 9-4 3-1 6 0 8 2 2 3 0 7-4 8-1 1-6 3-13 3-8 0-16-3-23-8-14-9-23-22-23-22z"/><path d="M156 516s9 6 19 8h14l6-4h5c2 1 2 4-1 6l-8 3c-5 2-12 1-17-1-11-4-18-12-18-12z"/><path d="M154 512s5 4 12 5h9l4-2 4-1c1 1 0 3-1 4l-6 2c-3 1-7 0-10-1-7-2-12-7-12-7zm69-122s-8 0-15-5c-4-3-7-6-8-10l-1-6c-1-2-2-4-4-4-1 0-3 3-2 6l3 9c2 4 6 7 11 8 8 4 16 2 16 2z"/><path d="M223 389s-5-2-10-7l-4-8v-4c0-2-1-3-2-3-1-1-2 1-2 3l1 6 6 8c5 4 11 5 11 5z"/><path d="M226 388s-4-1-7-4l-3-5v-4l-1-2-1 3 1 4 4 5 7 3zm51-13c1 7 3 13 2 20a45 45 0 0 1-39 39c-13 2-25 10-30 22-5 11-3 26 7 34-10-8-11-23-6-34 5-12 17-20 29-22 13-2 27-8 34-20 3-6 6-13 7-19l-2-20"/><path d="M276 381s1 6-3 9c-3 2-10 1-10 1s5-18 13-10zm0 17s0 6-6 6c-3 0-8-3-8-3 0 1 10-11 14-3zm-6 15s-2 5-7 3c-3-1-5-6-6-6 0 1 12-5 13 3zm-11 12s-4 3-7 0c-2-2-3-7-3-7s12-1 10 7zm-13 5s-4 2-7-1c-2-2-1-7-1-7 1 0 12 2 8 8zm-14 4s-4 2-6 0c-2-1-3-5-3-5 0-1 13-1 9 5zm-11 6l-5 2-4-4c0-1 11-4 9 2zm-8 9l-4 2-4-2c0-1 8-6 8 0zm-5 9l-3 3c-1 1-4-1-4-1s5-7 7-2zm-2 10l-1 3h-4c0-1 3-7 5-3zm1 9v2l-3 1s0-5 3-3zm3 7v2l-2 2s-1-5 2-4zm4 5l1 2-1 2c-1 0-2-4 0-4zm67-109s0 6 5 8c3 1 8-3 8-3s-8-15-13-5zm0 19s-2 5 1 9c2 2 8 1 8 1 1 0-1-19-9-10zm-7 16s-3 4-2 8c1 3 6 4 6 4 1-1 6-17-4-12zm-12 12s-5 2-5 6c0 3 4 6 4 6 1 0 11-13 1-12zm-14 6s-5 1-6 4l2 6c1 0 12-7 4-10zm-14 4s-3 1-3 4c0 2 3 4 3 4-1 0 6-6 0-8zm-10 5s-3 1-2 4l4 3c-1 0 3-7-2-7zm-8 7s-2 2 0 4l3 2s2-7-3-6zm-5 8s-1 2 1 4h3s0-6-4-4zm-2 9l1 2h3s-1-5-4-2zm0 8s0 2 2 2l2-1s-2-3-4-1zm3 7l1 1 2-1s-3-3-3 0zm2 4l2 1 1-1s-3-2-3 0zm3 4l2 1 1-2c0 1-3-1-3 1zm1 3h2l1 2s-4 0-3-2zM296 18c-13 3-28 4-38 13-11 8-17 21-18 35-2 13-5 27-14 38-8 11-25 17-38 10 13 7 30 1 38-10 9-11 13-25 15-38 1-13 7-26 18-34 10-9 24-9 37-12m-6-3s-6 2-10-2c-2-3-2-10-2-10s19 3 12 12zm-19 5c0-1-5 2-10 0-3-2-4-8-4-8 1-2 22-2 14 8zm-16 8s-3 4-8 4c-3-1-6-6-6-6 0-1 18-8 14 2z"/><path d="M245 44s-2 5-6 6c-4 0-7-3-7-3-1-1 12-13 13-3zm-6 15s0 4-4 6c-2 1-6-1-6-1-1-1 7-13 10-5zm-2 15s0 4-4 5l-5-2s6-9 9-3zm-3 12s-1 3-4 4c-2 0-5-3-5-3 0 1 7-7 9-1zm-5 11s-2 3-4 2c-2 0-4-3-4-3 0 1 7-4 8 1zm-7 8s-1 2-4 1l-2-3c0 1 6-2 6 2zm-8 6c1 0-1 2-3 0l-1-2s6-1 4 2zm-8 4s-1 1-2-1l-1-2s5 0 3 3zm-8 0s-1 1-2-1l1-2s3 2 1 3zm-7-1l-1-1 1-2s3 3 0 3zm100-92s-7 0-8 5c0 3 4 8 4 8s15-9 4-13zm-19 4c1-1-5 1-4 6 0 3 4 6 4 6-1 0 10-9 0-12zm-13 7s-5 3-3 7l6 4s6-11-3-11zm-11 12s-3 4 0 7c2 2 7 2 7 2s1-12-7-9zm-5 14s-2 4 1 6h7c-1 0-2-11-8-6zm-3 14s0 4 2 6h5s-2-12-7-6zm-3 13s-1 3 1 5l4 1c0-1 0-11-5-6zm-5 11s-2 2 0 4c0 2 3 2 3 2 1 0 3-9-3-6zm-6 9l-2 4 3 2c0-1 4-8-1-6zm-8 7l-2 2 2 2s4-5 0-4zm-9 4s-2 0-2 2l1 2s5-3 1-4zm-8 2h-2v2c0 1 4-1 2-2zm-7-1h-2v2s4 0 2-2zm-6-2l-2-1-1 2s4 1 3-1zm-1-3l-2-1-1-2s3 1 3 3zM267 360s12-21 12-47l-2-15c-1 3-5 11-12 11l-4-1c-6-3-9-9-9-16 0-6 2-12 5-20 5-12 10-34 10-50 0-8-1-15-5-17-8-4-11-21-11-42 0-19 3-41 8-57v8c0 12 1 35 6 62 5 25 19 77 19 122 0 25-4 48-17 62zm11-63l2 16c0 20-7 37-11 44 11-15 14-36 14-59 0-45-14-97-19-122-5-27-6-50-6-62v-5c-4 15-6 36-6 54 0 21 3 38 10 42 4 2 6 9 6 17 0 16-5 38-10 50-4 8-5 15-5 20 0 7 3 12 8 15l4 2c4 0 7-3 9-6l3-6 1-1v1z"/><path d="M257 293c0-4 4-8 8-8 5 0 8 4 8 8 0 5-3 8-8 8-4 0-8-3-8-8zm8 7c4 0 8-3 8-7s-4-7-8-7-7 3-7 7 3 7 7 7zM264 275c0-4 3-6 6-6s5 2 5 6c0 3-2 5-5 5s-6-2-6-5zm6 4c2 0 5-2 5-4 0-3-3-5-5-5-3 0-5 2-5 5 0 2 2 4 5 4zM268 259c0-2 2-3 4-3s3 1 3 3-1 4-3 4-4-2-4-4zm4 3c1 0 3-1 3-3l-3-3c-2 0-3 2-3 3 0 2 1 3 3 3zM270 246l2-2 2 2-2 2-2-2zm2 2l1-2-1-1-1 1 1 2zM135 351v-1c0-17 9-25 15-28h-3c-17 0-29-16-30-37s-18-22-21-22v-1h3c22 0 24 23 24 23 6 21 17 26 27 26 8 0 15-4 17-5-9-5-11-12-11-18 0-7 3-13 3-13l1 1-1 6c0 13 11 16 19 16l8-1c4-8 5-15 5-20 0-23-22-31-22-31 29 6 33 34 33 45l-1 4c12-9 16-18 16-26 0-10-5-18-11-24l-10-10a50 50 0 0 1-20-39c0-20 14-38 35-38h5v1c-20 0-36 16-36 35 0 12 7 26 23 39 19 14 24 30 24 43 0 18-8 31-8 31l-1 1v-1l-1-1-3-2c-3-2-8-3-16-3h-4c-17 1-39 17-39 45l1 10c5 36 50 41 50 41v1h-6c-40 0-65-23-65-47zm1-1v1c0 23 25 46 64 46h3c-11-2-43-10-48-41l-1-10c0-29 22-45 40-46h4c14 0 19 5 20 6 2-2 9-14 9-30 0-13-6-29-24-43-16-12-23-27-23-39 0-17 11-31 27-35-18 2-30 18-30 37 0 13 6 27 20 38 0 0 20 15 20 35 0 8-4 18-16 27h-1 1v-5c0-10-3-35-28-43 7 3 19 12 19 29 0 5-2 12-5 20v1h-9c-4 0-9 0-13-3-4-2-7-6-7-13l1-4-2 10c0 6 2 13 11 18h1l-1 1s-8 5-18 5c-11 0-22-5-28-27 0 0-2-21-21-22 6 1 16 6 17 22 1 20 13 36 29 36h6l3-1v1l-3 1c-6 2-17 8-17 28zm82-43h1-1z"/><path d="M210 392s-8 0-19-5-24-16-28-33 4-35 16-43c13-8 25-5 27-4 8 4 11 11 8 13-2 1-6-2-11-4-1-1-9-4-20 2-10 5-18 20-16 35 3 15 14 28 25 33 10 6 18 6 18 6z"/><path d="M209 390s-10 0-18-7c-9-7-9-20-9-21 0-3 2-4 4-4 2 1 3 3 3 5 0 0-3 10 4 17 6 8 16 10 16 10zM184 377l-7-8c-4-5-4-12-3-13s2-2 3-1 2 2 1 3c0 0-1 4 1 10l5 9zM215 588c-3 3-6 3-9 1-2-2-2-6 0-8 2-3 6-4 9-1 2 2 2 6 0 8zm7 11c-2 2-5 1-7-1-1-2-1-5 2-7 2-2 5-2 7 1 2 2 1 6-2 7zm5 11c-2 1-5 0-6-2 0-2 1-5 3-6s5 0 6 2c1 3 0 5-3 6zm2 10c-2 1-4-1-4-2 0-2 1-4 3-5s4 1 5 3c0 2-1 4-4 4zm1 10c-2 0-3-2-3-3 0-2 1-3 3-3 2-1 3 1 3 3 0 1-1 3-3 3zm0 8c-1 0-3-1-2-3l2-2c2 0 3 1 3 3l-3 2zm-1 7c-2 0-2-1-2-2l2-2c2 0 3 1 2 3 0 1-1 2-2 1zm-2 7c-1 0-2-1-1-2 0-1 1-2 2-1l1 2-2 1zm-2 6v-2l1-1 1 2-2 1zm-1 4l-1-1 1-1 1 2h-1zm-2 4v-1h1v1h-1zm-1 3v-1l1 1h-1zM302 240c-4 1-8-1-9-5-2-5 1-9 5-9 5-1 9 1 10 5 0 3-2 7-6 9zm6 15c-3 1-7 0-9-3-1-4 1-8 4-9 4-1 7 0 9 3 1 3-1 7-4 9zm8 12c-3 2-7 1-8-1-2-3-1-7 2-8 3-2 6-1 8 2 1 2 0 5-2 7zm8 10c-2 2-6 2-7 0-2-2-1-5 1-7 2-1 5-1 6 1 2 2 2 5 0 6zm8 8c-1 2-4 2-6 1v-6c2-1 4-2 6 0v5zm8 6c-1 2-3 2-4 1-2-1-2-3-1-5h5v4zm8 5c0 1-2 2-3 1-2-1-2-3-1-4 0-1 2-2 3-1s2 2 1 4zm8 3c-1 1-2 2-3 1-1 0-2-1-1-3l3-1 1 3zm6 2c0 1-1 2-2 1l-1-2 2-1c1 0 2 1 1 2zm6 2h-1l-1-1 1-1 1 2zm5 0v1l-1-1h1s1 0 0 0zm4 1h-1l1-1v1zM268 322c-2-1-3-3-2-5s3-2 5-2c2 1 3 4 2 5-1 2-3 3-5 2zm-3 7c-2-1-3-3-2-4 1-2 3-2 4-2 2 1 3 3 2 5-1 1-3 2-4 1zm-4 6c-2-1-2-3-1-4 0-1 2-2 4-1 1 1 2 3 1 4s-3 2-4 1zm-4 5l-1-3c1-1 3-2 4-1l1 4h-4zm-3 4l-1-3h3l1 3h-3zm-4 4v-3l3 1v2h-3zm-3 2v-2l2 1v2l-2-1zm-3 2v-1h1v2l-1-1zm-4 2l1-1h1l-1 1h-1zm-2 0h1l-1 1v-1zm-3 0h1l-1 1v-1zm-2 0h1l-1 1v-1zM114 546c-3-3-3-6 0-9 2-2 6-2 8 0 3 2 3 6 1 9-3 3-7 3-9 0zm-11 9c-2-3-1-6 1-8 2-1 5-1 7 1s2 6-1 8c-2 2-6 1-7-1zm-11 6c-1-2 0-5 2-6s5-1 6 1c1 3 1 6-2 7-2 1-5 0-6-2zm-11 4c0-2 1-4 3-5s4 0 5 2 0 5-3 5c-2 1-4 0-5-2zm-9 1c0-1 1-3 3-3 1 0 3 1 3 3 0 1-1 3-3 3-2 1-3-1-3-3zm-9 0c0-2 2-3 3-2 1 0 2 1 2 3 0 1-1 2-3 2l-2-3zm-8-2c1-2 2-2 3-2l2 3-3 2-2-3zm-6-4h3v2l-2 1-1-3zm-5-3h2v2h-2v-2zm-4-4h2v2h-2v-2zm-3-3h1v1h-1v-1zm-2-2c1 0 1 0 0 0 0 1 0 0 0 0zM305 48c-3-1-6-3-5-7 0-3 3-5 7-4 3 1 5 3 5 6-1 3-4 5-7 5zm0 11c-3 1-5-1-5-4s2-5 5-5 5 2 5 5c0 2-2 4-5 4zm1 11c-2 0-4-1-5-3 0-3 2-5 4-5 3 0 5 1 5 4 0 2-1 4-4 4zm2 9c-2 1-4 0-4-2-1-2 1-4 3-4 2-1 4 0 4 2 1 2-1 4-3 4zm4 8c-2 1-4 0-4-1-1-2 0-3 1-4 2-1 4 0 4 1 1 2 0 3-1 4zm3 7l-3-1c-1-1 0-3 1-3h3c1 1 0 3-1 4zm4 5h-3c-1-1 0-2 1-3h2v3zm4 5h-3l1-3h2v3zm4 3h-2v-2h2v2zm3 3h-1v-1h1v1zm3 2v-1 1zm3 1h-1 1z"/><path fill="#010101" d="M166 96c-10-5-16-15-16-25l1-7c2-10 12-18 23-18h6c9 2 14 11 14 19 0 4-1 9-5 12-3 3-6 4-9 4s-5-1-5-2h1l3-1 8-3c3-3 4-6 4-10 0-7-5-14-12-15l-5-1c-9 0-18 7-20 16v6c0 9 5 18 13 22l15 3c6 0 12-1 18-4 10-6 14-17 15-29 2-12 6-23 11-34s13-22 23-29h7-1c-12 7-21 18-26 30-5 11-9 22-11 33 0 12-5 26-17 31-5 4-12 6-19 6-5 0-11-2-16-4zm-15-32v7c0 10 6 20 15 25 5 2 11 3 16 3 7 0 14-1 19-5 11-6 17-19 17-31 2-11 5-22 10-33 6-12 15-23 26-30h-5c-10 8-18 18-23 29s-9 22-11 34c0 12-5 23-15 29-5 3-12 5-18 5-5 0-10-1-15-4-8-4-14-13-14-22l1-6c2-10 11-16 20-16h5c8 2 12 9 12 16 0 4-1 7-4 10-5 5-11 4-12 4l2 1 3 1c2 0 6-1 9-4s5-8 5-12c0-8-6-17-14-18l-6-1c-11 0-21 8-23 18zm24 15zm74-79z"/><path d="M321 39c3-17 19-29 35-39h-14c-13 10-24 22-26 39-1 22 14 45 36 46-22-2-33-26-31-46z"/><g><path d="M339 0h-9c-24 17-43 41-52 69-11 29-11 60-8 90-2-14-3-28-3-43-2-43 16-88 49-116h-7c-31 30-48 74-46 116 0 55 20 107 25 161 2 26 2 55-12 78a83 83 0 0 1-67 39c-27-1-53-24-51-52 2-14 9-27 20-34 12-7 27-7 39 1-11-8-27-8-39-1s-19 20-20 34c-3 28 24 52 51 53 27-1 54-16 68-39 15-24 15-53 13-80a339 339 0 0 0 0-6c5 33 7 69-9 98-9 15-24 24-39 31-16 7-32 10-48 18-15 7-29 18-38 33-7 15-11 33-9 50 5 34 42 58 76 54 35-4 59-35 70-66-11 31-35 62-70 65-34 4-70-19-75-54-2-16 2-34 10-48 8-15 22-26 37-33 30-13 68-18 87-49 18-30 15-66 11-100-5-33-14-66-18-99-5-34-5-68 6-100 11-29 31-54 58-70z"/></g></svg>