<svg version="1.1" xmlns="http://www.w3.org/2000/svg"
     viewBox="0 0 1200.000000 467.000000">
    <g transform="translate(0.000000,467.000000) scale(0.100000,-0.100000)">
        <path d="M0 2665 l0 -2005 1665 0 1665 0 0 -330 0 -330 1335 0 1335 0 0 330 0
330 3000 0 3000 0 0 2005 0 2005 -6000 0 -6000 0 0 -2005z m3335 5 l0 -1335
-335 0 -335 0 -3 998 -2 997 -330 0 -330 0 0 -1000 0 -1000 -667 2 -668 3 -3
1325 c-1 729 0 1331 3 1338 3 10 276 12 1337 10 l1333 -3 0 -1335z m3333 -2
l2 -1338 -665 0 -665 0 -2 -332 -3 -333 -667 -3 -668 -2 0 1675 0 1675 1333
-2 1332 -3 3 -1337z m4667 2 l0 -1335 -335 0 -335 0 -3 998 -2 997 -330 0
-330 0 0 -1000 0 -1000 -335 0 -335 0 0 1000 0 1000 -330 0 -330 0 0 -1000 0
-1000 -670 0 -670 0 0 1333 c0 734 3 1337 7 1340 3 4 904 6 2002 5 l1996 -3 0
-1335z"/>
        <path d="M5340 2665 l0 -665 330 0 330 0 0 665 0 665 -330 0 -330 0 0 -665z"/>
    </g>
</svg>
