<svg version="1.1" xmlns="http://www.w3.org/2000/svg"
     viewBox="0 -50 740 800">
    <path d="M334 660h2s-1-6-6-3c-2 2 0 5 3 7h5s-4-1-4-4zM200 280s-8 8 0 16c0 0 5 6 13 1 0 0 4-4 1-8-3-5-5-1-5-1s-1 2 2 4c0 0 1 1-1 3-3 1-6 1-8-1-3-3-5-7-2-14zm12 12c0-3-3-2-1-3 1-2 3 1 3 3s-1 5-6 6c0 0 5-2 4-6zM8 580s-5 6 0 12c0 0 4 4 9 0 0 0 4-3 1-6-2-3-3 0-3 0s-1 1 1 2c0 0 1 2-1 3s-4 0-6-1c-1-2-3-5-1-10zm9 8c0-1-2-1-1-2s2 1 2 2c0 2-1 4-4 5 0 0 3-2 3-5zm228-383c-6-5-18-2-21 7s3 18 11 21c-8-3-13-13-10-21 2-8 13-12 20-7zm190 195zm1 0zm316 80c0-8-5-12-9-12l-3 1c-4 3-5 8-5 11v1c0 1-1 5-6 9-2 3-6 4-10 4-6 0-12-2-18-7-10-8-16-19-20-28-3-4-4-8-5-11l-2-3v-1l-1-1v-6c1 4 2 7 5 10 2 3 6 6 10 7l5 1 7-1c7-3 9-10 9-12v-1c0-4-3-6-5-6l-1 1c-3 1-3 4-4 5 0 1 0 3-3 5l-4 1c-3 0-7-1-10-4-5-5-7-11-9-16a76 76 0 0 1-2-7 13 13 0 0 0 8 3l5-1c3-3 4-6 4-7v-1c0-2-2-4-3-4l-2 1-1 3v1l-1 2-3 1-5-1c-3-2-5-5-6-8l-2-3v-1l-1-1h-1l-8-12a87 87 0 0 0-67-32c-19-1-38 4-55 13l18-14 7-4c15-9 37-18 62-18 16 0 33 4 52 14 18 10 29 14 36 14 12 0 13-9 15-18 2-10 4-19 17-20v-1c-13 2-16 11-18 21-2 9-3 17-14 17-7 0-18-3-36-13-18-11-36-15-52-15-28 0-51 11-67 21 13-12 23-26 32-41l3-7 2-3c5-6 13-10 21-8 12 0 20 15 14 26 6-11-1-26-14-28-8-1-15 2-20 8l4-13c9-15 26-25 43-22 22 1 36 29 27 48 10-19-4-48-27-49-11-2-23 1-32 9-4 3-7 8-10 13l3-16 3-4 1-2c5-8 11-15 18-21 15-11 34-15 52-13 37 3 61 49 44 82 17-32-6-80-44-83-18-3-37 2-52 13-7 6-13 13-18 21 3-19 16-29 27-34 8-3 12-8 12-12l-2-6c8-1 15-5 17-12v-1c0-3-2-7-5-11 10-2 16-11 16-20 0-5-2-9-5-13l3-8 1-2c0-7-6-13-6-19v-1c1-7 3-8 6-9s7-1 10-5l2-5c0-7-8-11-8-16v-2c1-3 4-4 7-4 3-1 7-1 7-5l-2-7-1 1 1 6c0 3-2 3-5 3-3 1-7 2-8 6l-1 2c1 6 9 11 8 16l-1 4c-3 3-6 3-10 4-3 1-6 4-6 11v1c0 7 5 13 5 19v2c0 2-1 5-3 7l-1-1c-2-3-5-4-8-4-4 0-8 2-8 6 0 2 2 4 4 5l5 2c3 0 6-3 9-6l3 12c0 9-6 17-15 19-4-7-11-12-16-12-3 0-5 1-6 3v1c4 3 9 7 14 8a21 21 0 0 0 8 1c2 4 4 8 4 11v1c-1 6-8 9-16 11-4-6-13-11-19-11-3 0-5 1-6 3h-1v1c4 6 12 8 21 8h5l1 6c0 3-2 7-10 11-13 5-26 17-29 38l-1 3a174 174 0 0 0-4-76l-1-2c-4-15-12-29-22-42-18-22-42-37-69-44h-1l-3-1-13-2c-8-3-16-7-24-14a55 55 0 0 1-19-43 50 50 0 0 1 51-47 40 40 0 0 1 38 41 32 32 0 0 1-32 30 25 25 0 0 1-25-26 20 20 0 0 1 21-19v-2h-1a21 21 0 0 0-21 22 27 27 0 0 0 27 27 33 33 0 0 0 33-34 41 41 0 0 0-42-41 51 51 0 0 0-51 51c0 25 19 45 39 54h-3c-8-5-14-7-20-7l-11 1h-4c-4 0-7 0-7-3 4-1 9-4 11-7v-2c0-2-2-3-4-3-3 0-7 2-8 6l-1 4v2a16 16 0 0 1-7 1c-3 0-4-1-4-3l3-10 2-10c0-4-2-7-9-8h-1l-2 1c-2-3-4-4-6-4l-5 1-12 3c-7 0-12-3-12-12v-1c0-3-3-5-5-4l-9 1c-3-1-4-1-5-5h-1c0 5 3 6 6 6l9-1c2 0 3 1 4 3v1c0 5 1 8 3 10 3 2 6 3 10 3l12-2 5-1c2 0 3 1 5 3-5 2-8 8-8 12 0 1 0 3 2 4h2c5 0 7-4 7-9v-5l-1-2a5 5 0 0 1 2 0c6 1 7 3 8 6l-3 9-2 11 1 3 4 1h4l3-1c1 3 5 4 9 4h4l11-1c5 0 10 1 17 5-17-1-34 0-50 5-23 8-45 23-58 43-6 3-12 5-19 5-6 0-12-2-17-7-5-4-8-10-8-17s3-15 8-21h-1c-5 6-8 13-8 21 0 7 3 13 9 18 4 5 11 7 17 7s13-2 19-5l-4 7c-12 24-15 53-6 79l10 19c4 8 10 15 17 19 9 7 20 12 31 15-11-3-20-8-29-14a46 46 0 0 0 40 1 37 37 0 0 0 19-48 29 29 0 0 0-39-14 24 24 0 0 0-12 31 19 19 0 0 0 25 9 15 15 0 0 0 8-20 12 12 0 0 0-16-6 10 10 0 0 0-5 13 8 8 0 0 0 10 4 7 7 0 0 0 4-9 6 6 0 0 0-8-3 5 5 0 0 0-2 7 4 4 0 0 0 5 1 3 3 0 0 0 2-4 3 3 0 0 0-4-1 2 2 0 0 0-1 3 2 2 0 0 0 3 1l-1-1-1-1 1-1 1 1h1l-1 2h-1l-2-1-1-1c0-2 1-3 2-3l2-1c1 0 3 1 3 3l1 2c0 2-1 4-3 5h-3c-3 0-5-1-6-4l-1-3c0-3 2-7 5-8a11 11 0 0 1 15 5l1 6c0 5-3 10-8 13l-8 1c-6 0-13-3-16-10a22 22 0 0 1 12-29 28 28 0 0 1 37 14 35 35 0 0 1-18 46 44 44 0 0 1-58-22l-2 1-8-18a99 99 0 0 1 10-86l11-7c29-18 63-30 96-30 16 0 33 3 48 9 28 11 53 32 67 59a168 168 0 0 1-3 123c-20 41-58 70-98 90-11 4-22 8-32 14l-15 6-18-2a425 425 0 0 0 52-21v-1c23-11 45-26 62-45l3 1a5 5 0 0 0 4-8l14-20h2c2 0 3-1 3-3l-1-3c7-13 12-27 15-41l2-2-1-1c2-13 3-25 1-37l3-3-3-3a113 113 0 0 0-28-60 2 2 0 0 0-3-2 91 91 0 0 0-56-25l-3-2c-1 0-2 0-3 2-9 0-19 2-29 5a2 2 0 0 0-3 2c-10 4-18 11-25 19-5-4-14 0-18 8-2 2-4 8-3 14 0 0 5-10 15-10 0 0 2 1-3 7 0 0 19-2 11-17l-2-2c7-8 15-15 25-19a2 2 0 0 0 4-1v-1c9-3 19-5 28-5a3 3 0 1 0 6 0l9 1c18 3 34 12 47 24l-1 1c0 2 1 2 2 2h2a112 112 0 0 1 27 60l-2 2 3 3c1 12 0 24-2 36l-2 2 1 2c-3 14-8 28-15 41h-1a3 3 0 0 0-3 5l-14 20a5 5 0 0 0-8 4l1 4c-17 18-39 33-61 44a3 3 0 0 0-5 2c-16 8-34 14-51 20l-22-1 37-14h1l7-4a176 176 0 0 0 13-6l2 1-1-1 14-9 2-1c26-16 51-37 62-66 7-17 10-36 4-53-5-16-17-29-32-34 0-4-3-9-8-11-2-1-8-2-12-1 0 0 9 3 10 10 0 0-1 2-6-1 0 0 3 14 14 6l2-3c15 5 27 18 32 34 5 17 2 36-4 53-10 24-29 42-50 57 5-4 10-10 14-17a43 43 0 0 0 6-22c0-8-5-16-10-21-6-7-15-8-20-8h-6c-6 2-9 7-9 11l2 4c2 2 5 2 7 2h5l4-1 8 3c4 3 7 9 7 17l-2 11c-5 12-14 21-21 28l-10 7-3 3-3 1c2-1 4-3 5-6a23 23 0 0 0 5-12c0-4-2-8-4-11-4-4-9-5-12-5h-1c-4 0-6 3-6 5l1 3 5 1h3l4 2c2 1 3 4 3 7l-2 8c-3 5-8 9-13 12l-5 4-2 1-3 2 1-1a13 13 0 0 0 3-9l-1-5c-2-3-6-4-7-4h-1c-2 0-4 2-4 3l1 2 4 1 2 1 2 4-2 4-8 7-3 1-1 1h-1v1l-24 8h-4l-21 2c30-23 42-47 42-68 0-13-5-24-12-32a40 40 0 0 0-38-12h1a38 38 0 0 1 36 12c8 8 12 19 12 32 0 21-11 45-42 68l-38 5c16-30 19-66 7-98-9-24-25-46-46-61-16-16-37-25-59-28l-5-3v-1l7 4c-15-6-24-23-18-38 4-15 25-22 37-13-12-10-34-4-39 12-4 13 2 27 13 35l-3-1a49 49 0 0 1-21-58c6-25 41-36 62-21-20-16-56-6-64 21-3 12-3 27 4 38 5 8 11 15 19 20-7-1-14-1-19-5-7-5-6-12-11-18-3-4-6-6-10-6l-7 2c-2-2-3-3-5-2-8 0-18 8-23 10l-4 1c-4 0-8-2-12-4l-4-6c4 0 7-1 10-3 2-2 3-5 3-7s-2-4-4-4l-5 2c-4 2-6 6-6 9v2l-6-3c-5-4-3-12-9-17-2-2-5-3-8-3-4 0-8 2-8 6l1 1c1-4 4-6 7-6s6 1 7 3c5 4 4 13 9 17 2 2 5 3 8 3 2 6 9 11 17 11l4-1c5-1 16-10 23-10l4 2c-5 2-8 7-8 11 0 3 1 5 3 6h1c6-1 8-5 8-8l-1-5-1-4 6-2c3 0 6 2 9 5 4 6 4 14 11 19s15 5 23 6l5 3c-30-5-61 2-85 21l-2-1c-2 0-3 2-3 4v1l-5 6a85 85 0 0 0-23 49h-1a5 5 0 0 0 0 10c-1 19 4 38 14 54a3 3 0 0 0 3 4l8 10-1 2a2 2 0 0 0 4 1v-1c0-2-1-2-2-2h-1l-8-10 1-2c0-2-1-3-2-3l-2 1a98 98 0 0 1-13-54 5 5 0 0 0 1-10 84 84 0 0 1 28-54l2 1c2 0 3-1 3-3v-2c40-32 104-30 143 5-11-8-23-14-37-18-19-5-39-6-59 0-19 6-35 20-45 37a78 78 0 0 0-6 58c6 19 20 36 39 42l12 3h4c14 0 29-5 40-14 14-14 24-34 20-54 4 20-6 40-20 53-10 8-23 13-35 14 18-3 27-14 28-14a27 27 0 0 0-6-38c-3-3-8-5-13-5-6 0-13 3-17 9a18 18 0 0 0 3 25c3 2 6 3 9 2 4 1 8-1 11-5a12 12 0 0 0-2-16c-2-2-4-2-6-2-3 0-5 1-7 3a8 8 0 0 0 1 11l4 1c2 0 4 0 5-2a5 5 0 0 0-1-7l-3-1c-1 0-2 0-3 2l-1 2 2 3a3 3 0 0 0 4-1v-2l-1-2h-1l-2 1v1a2 2 0 0 0 1 2v-1a2 2 0 0 1-1-3l2-1 2 1a4 4 0 0 1 1 5 5 5 0 0 1-7 1 6 6 0 0 1-1-9 8 8 0 0 1 11-1c3 2 4 5 4 8l-2 6a13 13 0 0 1-18 2 16 16 0 0 1-3-22 21 21 0 0 1 29-4 26 26 0 0 1 4 36l-8 7c-6 4-15 7-27 8l-12-2c-39-14-51-66-32-100 10-17 26-30 45-35 19-6 39-6 58-1 38 11 67 44 81 80 12 32 9 68-8 98l-17 3a88 88 0 0 0 17-52c0-25-10-50-26-69a90 90 0 0 0-93-29c-5 1-8 4-10 6l-2 7c-1 3 0 7 3 10 3 2 5 3 8 3s6-1 8-3c2-1 3-3 3-5l-1-6-4-2-4 1-2 3 1 2 2 2-2 1-3-1h-1c-2-2-3-4-2-7 0-3 2-6 3-7a14 14 0 0 1 6-4l21-3c28 0 52 13 68 32 17 19 26 44 26 69a88 88 0 0 1-17 53c-15 3-29 8-44 13-5-8-12-14-20-19 17-11 23-22 23-32 0-16-13-27-13-27l2 2c3 4 10 14 10 25 0 10-5 21-23 32-8-4-15-6-23-6-19 0-38 10-52 24h1c13-13 32-23 51-23 7 0 15 2 22 5l-20 10a97 97 0 0 0-54 51c-4 7-7 14-9 22-7-18-18-34-31-49-18-20-40-37-63-52l1-1c3-5-4-11-12-11-2 0-7 0-10 3 0 0 8-1 12 6 0 0 0 2-5 1 0 0 7 12 14 2 23 15 44 33 62 54 12 15 23 32 29 50l-12 13c-1-18-6-34-16-47-12-16-32-27-62-31v1c30 4 49 15 61 30 11 13 16 30 17 48l-5 5c-6-18-20-34-46-45 1-3-3-7-8-7-2 0-5 1-7 3 0 0 5-1 8 4l-4 1s6 8 10 0c27 11 40 27 46 44a402 402 0 0 0-43 58l-1-19c8-11 16-25 13-40-2-16-13-29-28-34-14-6-33-3-42 10h-1c-2 5-10 10-17 10a15 15 0 0 1-13-22 12 12 0 0 1 16-5 9 9 0 0 1 4 13 7 7 0 0 1-10 3 6 6 0 0 1-2-8h-2v3c0 2 1 5 3 6l4 1c4 0 7-2 8-4a11 11 0 0 0-4-15l-6-1c-5 0-10 2-12 7a16 16 0 0 0 7 22l7 1c7 0 13-3 16-7-6 12 0 30 14 34v1h2c12 3 24-9 24-21 4 5 7 10 9 16l-2 1c-2 1-3 3-3 5l1 2 2 1 4-1 1-1 5 18-3 6-1 1a13 13 0 0 0 0-4l-1-4c0-2-2-3-3-3a6 6 0 0 0-5 0h-1-1l-1 3 1 2h1l2-1 2-1v1l2 1 1 3-2 7a28 28 0 0 1-1 3v1l-4 3a8 8 0 0 0 1-3v-3l-2-2a4 4 0 0 0-3 0h-1v1l-1 1 1 2 2-1h1l1 1v1l-1 4-1 1v2c-3 2-6 5-8 9-9-9-21-15-33-16 1-4 4-8 6-11l5-4 1-1v-1s-10 7-12 17h-6c-5 0-10 0-14 2-4 0-7 3-8 4l-2 5c0 3 1 5 3 7l5 3 7-2 2-4-1-4-3-2-3 1-1 2v2l2 1-2 1-2-1h-1c-1-1-2-3-1-5l2-5a10 10 0 0 1 4-3 44 44 0 0 1 19-1l-1 3c0 5 3 11 9 17l12 13c-3 6-5 13-6 20-8-2-16-2-24 1-1-3-6-3-10 0-1 0-4 3-4 6 0 0 4-4 9-2 0 0 0 2-3 3 0 0 9 4 9-5l-1-2c8-2 17-1 24 2a47 47 0 0 0 2 17 39 39 0 0 0-22-2v1a41 41 0 0 1 22 2c3 6 6 12 11 18h5l-3-3 3-4 1 5-1 2 1-1v1h8l1-16 4-7-3 23h21l7-6-3 6 4-8h1l-2 8h1l2-9 10-10c9-6 19-11 30-11l9 2-36 28h1c11-8 24-17 36-28 7 3 14 9 20 20h1c-6-11-13-18-21-21 8-7 15-14 21-22l20 15c19 13 42 20 65 19 22-2 46-6 65 8-19-14-43-10-65-9-23 1-45-6-64-19l-21-15 5-6 9-13c13 3 26 8 38 12a567 567 0 0 0 70 22c18 11 32 17 58 17l41-3v-1c-17 3-30 4-41 4a91 91 0 0 1-61-20c15 3 31 5 46 1 21-3 29-25 46-33 18-7 38-4 57-1-19-3-39-7-57 0-18 8-26 30-46 33-18 3-35 0-53-4l-17-12c16 2 31 3 46 0 9-2 19-5 25-12 6-6 4-15 0-21 2-2 1-6-2-7l-5-1s3 2 4 5c0 0-1 1-3-1 0 0 1 7 6 4 4 6 5 15 0 21-6 7-16 9-25 11-16 3-32 2-48 0a562 562 0 0 0-61-34c10-9 20-14 29-14 11 0 20 5 28 17 6 8 11 11 16 11s9-3 12-6c4-4 8-7 12-7l7 3c-2-3-5-4-7-4-4 0-8 4-12 7s-8 7-12 7-9-3-15-11c-9-12-18-18-29-18-9 0-19 5-30 14a85 85 0 0 0-41-5l2-2c40-22 88-25 133-18v2c-1 6 7 9 14 6 2-1 7-4 8-8 0 0-7 4-13 0 0 0-1-2 5-4 0 0-11-7-14 4a209 209 0 0 0-141 20c2-6 3-13 3-20 18-9 34-14 48-18 13-4 25-8 35-16a160 160 0 0 1 44 4c26 5 46 7 61 7 31 0 41-8 50-8 7 0 13 4 27 17 3 4 6 5 9 5s5-2 7-5c3-2 5-5 8-5 2 0 6 2 10 7v-1c-4-5-7-6-10-6s-6 2-8 5c-2 2-5 5-7 5-3 0-5-2-9-5-13-14-20-18-27-18-9 0-19 8-50 8-15 0-35-2-61-7a178 178 0 0 0-43-4 71 71 0 0 0 23-38c8-6 17-11 25-18l27-4c1 1 5 2 8 6l1 2-1 2-1 1h-1l-2 1-1 1 3 2c1 0 4-1 5-3a6 6 0 0 0 1-4l-2-4-6-4 10-1v1h1c1 0 9 1 15 6l3 6-1 2c-1 2-2 2-3 2-1 1-3 1-3 3l-1 1c0 1 2 3 4 3h1c1 0 6-2 7-6a10 10 0 0 0 0-8l-5-6-10-4h5v1c2 0 17 0 29 8 4 3 6 7 6 11v3c-2 4-5 4-5 5-2 0-5 2-6 4v1c0 3 2 5 6 5h3c1-1 8-4 10-12a17 17 0 0 0-2-13c-2-4-5-7-9-9l-1-1a209 209 0 0 1 76 29l1 1 1 1 3 4c1 1 2 5 1 8 0 2-1 4-4 5l-1 1h-2c-1 0-2 0-2-2l2-1 1-2-1-3c0-1-1-2-3-2l-4 1c-2 1-3 3-3 5l1 6c2 2 4 4 8 5 2 0 5 0 8-2s5-5 6-8l-1-8c-2-2-4-7-10-9-5-4-33-23-79-30a53 53 0 0 0-22-3h-7v1h-9a191 191 0 0 0-3-1h-1v1h-13-1v1l-26 3 2-1 8-2c46-10 93-20 137-36 29 5 57 14 82 32h-1l5 3a40 40 0 0 1 12 33c-1 6-4 12-11 15a18 18 0 0 1-9 2c-2-1-5-2-6-5 1 0 4 0 7-3l3-6-3-9c-1-2-4-4-8-5-4 0-8 1-12 4s-6 8-7 13c-1 6 0 12 3 17 4 5 11 10 20 12 7 0 14-1 21-5 10-5 14-14 16-23 1-8 0-15-2-19-4-7-12-21-28-25v1c-24-18-52-28-81-33a467 467 0 0 0 51-22c10-3 20-5 30-5 13 0 27 4 40 11l7 5c-6 5-11 11-14 19a41 41 0 0 0 30 51 51 51 0 0 0 62-37 64 64 0 0 0-29-71c12 6 22 14 30 24a75 75 0 0 1 17 37c6 36-10 75-43 92 28-14 44-44 45-75l1 3v2l2 23-2 14v2c-3 3-5 7-6 11v3c0 4 2 8 6 10 5 3 13 4 12 9v1c0 7-5 14-5 20v2c1 6 4 7 9 10l1-2c-5-3-8-3-9-9v-1c0-5 5-13 6-20v-1c0-7-9-8-13-10-4-3-6-5-6-9l1-3c0-3 2-7 4-9l4 5h2c3 0 5-3 5-5s-1-4-5-4l-4 1v-1l1-14-2-20 2 5c3 10 7 23 18 34a43 43 0 0 0 27 13c6 0 11-2 15-4a28 28 0 0 0 15-23zm-98-317l-4-1-3-4c0-2 2-4 6-4 2 0 5 1 7 3l2 1c-2 3-5 6-8 5zm-5 27l-6-1c-4-1-8-5-12-8l4-2c3 0 9 4 13 9l2 2h-1zm-15 24c-8 0-16-3-19-8l5-2c4 0 9 2 13 6l5 4h-4zM417 75c0 4-2 7-6 7h-2l-1-2 4-8 3-3 1 2 1 4zm18 20v-1l1-4c1-3 4-5 7-5 2 0 2 1 3 2l-1 1c0 2-6 5-10 7zm88 31c-15-7-32-10-48-10-34 0-68 13-96 31l-10 6c13-20 34-35 56-42 17-5 35-6 52-5l1 1 1-1 6 1 16 3c28 7 53 22 71 44 6 7 11 15 15 24-14-24-38-42-64-52zm-31 225c2-4 2-8 2-12 0-8-3-15-8-18l-8-3h-3l-1 1h-5c-2 0-4 0-6-2l-2-3c0-3 3-7 9-9l5-1a29 29 0 0 1 28 29c0 7-2 15-5 21-8 12-19 20-28 26l-5 3c8-6 20-17 27-32zm-36 30l2-8c0-3-1-6-3-8s-4-2-5-2h-2-1l-4-1-1-2c0-1 2-3 5-4h1c3 0 8 1 11 5a15 15 0 0 1 3 11c0 4-1 8-4 11-4 5-9 9-14 11 4-3 9-7 12-13zm-25 16l2-5-2-5-3-1-3-1v-1l2-1h1c1 0 4 0 6 3a8 8 0 0 1 1 6l-3 6-5 3 4-4zM127 198c0-3 2-6 6-8l4-1 2 2-2 6a12 12 0 0 1-9 3l-1-2zm50 14c0 3-1 5-6 7-2-2-3-3-3-5s2-6 5-8l2-2 2 3v5zm31 135l1-1 1 1v1l-1-1h-1zm-4-69l-4 8c0 3 1 5 3 7l4 2 3-2c-1 0-2 0-3-2v-2l1-3 4-1 4 2 1 6c0 2-1 4-3 5-2 2-5 3-8 3l-7-4c-3-2-4-6-4-9l2-7c2-2 5-5 10-6h1l-4 3zM11 579l-3 5 2 5 3 1 2-1-2-1v-2l1-2h3l2 1 1 4c0 1 0 3-2 4l-6 2-5-3c-2-2-3-4-3-7l2-4 5-4v1l2-1-2 2zm320-112zm4-4l1 1-1 2c-1 2-3 2-4 2h-1l1-1h1l2-1 1-3-1-3 1 3zm22-4l4 6 1 3-1 3c-1 4-5 5-6 5h-1l-2-1 3-2 3-3 1-3c0-2-1-5-3-7l-7-4 8 3zm104 28c5 2 7 6 9 9v7c0 3-2 6-5 8l-8 2c-3-1-6-3-7-5-2-2-2-4-2-6l3-5 4-1 3 2 1 3-1 2-3 1c1 2 2 2 3 2h3c3-2 4-4 5-6l-2-9-3-3 1-1h-1zm-84-31l6 3c4 2 7 5 9 9a15 15 0 0 1 2 11c-2 8-9 11-10 11l-2 1c-3 0-5-2-5-4l5-4s4-1 6-5l1-4c0-4-3-9-8-13-4-3-10-5-15-6l11 1zm-37-3zm0 2zm-14-1zm70-39l22 1-26 8-81 23 1-1 16-7 68-24zm-83 30l4-2-4 2zm76-30h2l-49 17 24-15 23-2zm-60 8l36-6c-8 6-17 11-27 16l-22 9a104 104 0 0 0 13-19zm-22 5c-10 12-21 22-34 31-1-7-4-13-7-18 13-6 27-10 41-13zm-35 32l-1 1h-1l2-1zm-7-19c4 5 6 12 7 18l-6 4-32 17-2 1-39 17c-10 4-22 13-30 19l-3-10a273 273 0 0 1 105-66zm-10 32l-35 25h-1l-17 7c17-13 34-23 53-32zM83 627v-2-3l10-24h1l-1 3-7 21-3 5zm2-2l-1 2a369 369 0 0 0 1-2zm-2 24v0zm-2-33l-1-6 8-9-7 15zm1 12l-1 3v1l-4 6 5-14v4zm80-99v6l-15 17 3-15 12-8zm-11 3l1-5 2-1a121 121 0 0 1 6-6l1 5-10 7zm-4 25l7-5-8 10-1 1 1-4 1-2zm-2 7l-1 1v-1h1zm-1 0l-4 2 1-1a383 383 0 0 1 3-1zm-5 16l-2 1 1-5 5-8-2 10-2 2zm2-1zm-2 2l1-1v1h-1zm1 6l-1 1v-1h1zm-2-6zm-3 0h-7a360 360 0 0 1 11-13 268 268 0 0 1-4 13zm1-1v1h-1l1-1zm-12 7h4l-6 5h-1l3-5zm-4-5l12-12-8 11v1h-4zm9 5h3l-3 5h-6l6-5zm4 0h1a558 558 0 0 0-1 0zm4-18l2-3v1l-2 2zm2 5l1-7 4-2-1 2-4 7zm2-16v1l-6 8-16 15-10 1a311 311 0 0 1 20-29l12-11a83 83 0 0 1 0 15zm-23 30h2l-3 3-3 1 4-4zm-5 4h-2l3-3 3-1-4 4zm-5-8h-2a144 144 0 0 1 20-27l-18 27zm5 5l-3 3-6 1 1-2 8-2zm-3 5l-2 1 1-1h1zm-2 0l-2 3-2 2-7 7 6-11 5-1zm-12 14l8-8a342 342 0 0 0-8 8zm-3 7h-1v-2h1l2-3-2 5zm10-22h-2l3-2-1 2zm-1 2a255 255 0 0 0-9 15l7-14 2-1zm-11 23v1-1zm-4 13l3-9a279 279 0 0 1-3 11v-2zm4-12l2-4 13-17 5-4h5l-6 9a200 200 0 0 0-20 25l1-9zm28-24l2-1h7v1l-8 11c-11 13-21 27-29 43 8-19 17-37 28-54zm8 3l-1 2a212 212 0 0 0 1-2zm-3 8l5-6-12 25 7-19zm3-7l2-4v-1l2 1-4 4zm3-6l4-5v1l-2 4h-2zm4-4l1-2h4l-1 1-5 5 1-4zm3 3v2h-1l1-2zm0 4a76 76 0 0 1 10 3 145 145 0 0 1-22 31l1-1c5-10 8-22 11-33zm5-1l-4-1v-2l6-5 8 1-4 9-6-2zm8-13l6-5-2 6-4-1zm-4 0h-5v-2c5-3 11-6 17-7l-1 1-11 8zm-5-3v-1l21-24-4 18-17 7zm1-2a1125 1125 0 0 0 5-15l15-9-20 24zm6-16l1-2 5-6 2-2v-1l6-4v6c-5 2-9 5-14 9zm9-12l5-7v3l-5 4zm-2 1l-6 4 13-14v1l-7 9zm67-120c8-3 15-6 21-10 8 5 16 11 21 19l-19 8c-32 13-61 33-86 57 11-33 28-60 63-74zm-65 79l3 10-4 3-3 4a372 372 0 0 1 4-17zm-13 14l12-13-4 17-8 8a150 150 0 0 0 0-12zm0 13l2-2 6-6-1 4-7 5v-1zm5 1l-3 15-4 6 2-17 5-4zm-7 6l1-1-1 9v-3-5zm0-4l2-2-2 2zm2-16a137 137 0 0 1 0 13l-2 2-2-10 4-5zm-14 16l9-10 2 10-2 2a166 166 0 0 0-40 46c9-17 19-33 31-48zm-35 58l-1 2v-1l1-1zm-21-80c-4-6-10-11-16-15l-1 1c7 4 13 9 17 15 1 11-10 23-22 21 9-1 12-5 12-6a11 11 0 0 0-2-15c-2-2-4-2-6-2-3 0-5 1-7 3a7 7 0 0 0 1 11l4 1 5-2 1-3-2-4-3-1c-1 0-2 0-3 2l-1 1 2 3 1 1 3-1v-2l-1-2h-1l-1 1-1 1 1 1h2v-1l-1-1a1 1 0 0 0-1 1v-1a1 1 0 0 1 2 0v2a2 2 0 0 1-3 1 3 3 0 0 1 0-4 3 3 0 0 1 4-1l2 4-1 2c-1 2-3 2-4 2l-3-1a7 7 0 0 1-2-9 9 9 0 0 1 12-2 11 11 0 0 1 2 15s-2 5-12 5h-1c-15-5-21-25-12-37 9-13 27-16 41-10s25 18 26 33c2 10-1 19-6 27a18 18 0 0 0 0-7c-1-4-3-7-6-8a12 12 0 0 0-8-2c-3-6-6-12-11-17zm-19 8zm31 15l-1 1h-3-1l-1-1 3-4 2-1 2 5h-1zm2 0l-2-5h1l6 2c2 1 4 4 5 7a16 16 0 0 1-1 9l-1 4-3 3 3-8v-2c0-4-2-8-5-10h-3zm0 1l2 1c2 1 4 4 4 8v2l-1 6-5-17zm5 20l-1 1v-1h1zm-10-4h-1l-2 1h-3l1-2h1l2-1 2 1c1 0 3 1 3 3a8 8 0 0 1 1 4l-1 3 1-3-2-4-2-2zm-1 16v1-1zm-6-2h-1-1-1 1a3 3 0 0 1 2-1l2 2-2-1zm11 1a145 145 0 0 0 6-8 146 146 0 0 1 1 25c-7 4-13 8-17 14l-8-11 18-20zm-45 22c-6-6-8-11-8-16v-3c12 1 23 6 32 15a97 97 0 0 0-11 17l-13-13zm10 49l-1-10c4 2 6 4 8 8 3 4 5 8 6 13v3l-10-7-3-7zm11 21l-8-13 10 7 1 1-3 5zm2-22l-3-3c-3-5-6-8-11-9l5-19c5 5 8 11 10 16l-1 15zm1-16l-9-16a73 73 0 0 1 11-18c3 4 6 7 8 12l-5 9-5 13zm11-10l2-5 2 6c-4 8-7 17-9 26 0-9 1-19 5-27zm-3 49l-1-8 3-5-2 13zm2-15l-3 6v-1l3-14 4-6-4 15zm1-1l5-17 1-2v3l-2 9-4 7zm5 13a222 222 0 0 1 1-10l1 5-2 5zm1-31v-1l1-1-1 2zm1 14l2-11 2-3-4 17v-3zm0 5l5-20a223 223 0 0 1 19-24c-9 16-17 33-24 50v-6zm10 10l-6 4c8-20 20-40 35-56l-8 20-1 3-20 28v1zm2-2c5-7 12-16 18-27l-4 15-14 12zm15-13l5-17 14-29h1a432 432 0 0 1-20 46zm3-3a439 439 0 0 0 20-47l3 1-13 36-10 10zm44-4l-10-2c-10 0-20 5-28 10a210 210 0 0 0 32-45c9 4 18 9 26 15l-20 22zm25-30l-4 7c-8-6-17-12-26-16l5-11 34 8-9 12zm12-16l-3-1h3v1zm78 19l17 11a686 686 0 0 1-94-30v-1l15 3c18 4 35 12 54 16l8 1zm-62-35l9 4a560 560 0 0 1 45 28c-19-3-36-11-54-15l-13-3c4-6 8-10 13-14zm-44-5l12-1c10 0 20 2 31 6-4 4-9 8-13 14l-21-3c-5-2-11-3-16-3l3-11 4-2zm-4-53l30-20c4-2 18-6 34-14l-38 26-24 13-2-5zm3 12l-1-3 15-9-14 14v-2zm0 6l1-1-1 1zm0 1a220 220 0 0 1 26-24l20-9c-13 10-24 21-35 32l-10 6-1-5zm10 1l-9 9v-4l9-5zm38-7c-14 5-30 9-48 18l1-1 11-11c20-12 44-19 70-21-10 7-21 11-34 15zm57-51c-6 17-13 28-23 36-25 1-48 8-69 19a435 435 0 0 1 41-34 423 423 0 0 0 51-21zm1-7c-16 10-33 17-50 24a369 369 0 0 1 51-31v1l-1 6zm1-14c13-9 25-19 35-32l18-4a110 110 0 0 1-15 20l-35 16-3 1v-1zm0 14l1-6v-2l2-1h1l15-4-19 13zm21-14zm6-5c-6 1-13 3-19 6l2-1 19-7-2 2zm7-7l-4 2 4-2zm-1 1v1h-3l3-1zm2 4l-3 1 3-3 84-25 30-9 19 2c-43 15-88 25-133 34zm247 23c2 4 3 11 2 19-1 9-6 17-15 23-8 4-15 5-20 4-9-1-16-7-20-12-3-5-4-10-3-16 1-5 3-10 6-12 4-4 8-4 12-4 3 0 6 2 8 5s2 5 2 8l-3 5c-3 4-6 4-7 4 0 0 0-1 0 0v-1 1c1 4 4 5 7 5 5 1 10-2 10-2 6-3 10-9 11-15 1-8-2-17-4-23-3-6-8-10-11-12 14 4 22 16 25 23zm-90-66h-1a221 221 0 0 1 1 0zm189 15l-2 16a50 50 0 0 1-61 35 40 40 0 0 1-28-48c2-8 7-15 13-19 4 4 8 10 10 15l-4 7a17 17 0 0 0 9 19l-1 13 2-12 3 1h5c10 0 18-6 21-16a27 27 0 0 0-19-32 33 33 0 0 0-26 4l-7-6c-14-7-28-10-41-10l-27 3c11-6 21-12 31-20a110 110 0 0 1 76-11l-1 1c28 7 47 32 47 60zm-67 0a13 13 0 0 1 12-3 10 10 0 0 1 7 12 8 8 0 0 1-9 6 6 6 0 0 1-5-8 5 5 0 0 1 6-3 4 4 0 0 1 3 4 3 3 0 0 1-4 2 2 2 0 0 1-1-2l1-1a1 1 0 0 1 1 1h2l-2-3h-1l-3 2v1a4 4 0 0 0 4 4c2 0 3-1 4-3v-2c0-2-1-4-4-5h-1c-3 0-5 2-6 5v2c0 3 2 6 5 7h2c5 0 8-2 9-7l1-2c0-5-4-10-9-11l-3-1c-4 0-7 1-10 4-2-6-5-11-9-15a32 32 0 0 1 24-4 25 25 0 0 1 18 31 20 20 0 0 1-24 14l-3-1c-1-8-2-16-5-24zm4 23a16 16 0 0 1-7-17c0-2 1-4 3-5 2 7 4 15 4 22zm78-29zm-1-4l4 4 6 2 4-2 1-2v-1l1-3h1s2 0 2 2v1s-1 4-4 5a8 8 0 0 1-6 2l-5-3-4-5zm4 15l9 15c3 3 7 5 11 5l5-2 3-3a6 6 0 0 0 1-2l2-5h1c1 0 3 1 3 4v1c0 1-1 8-8 10a15 15 0 0 1-11 1c-3-2-7-4-9-7-4-6-6-12-7-17zm8 62c3 0 4 1 4 2 0 2-2 4-4 4l-1-1c-2-1-3-2-3-4l4-1zm56 11a29 29 0 0 1-21 2c-7-1-14-5-19-11a81 81 0 0 1-18-33 257 257 0 0 1 2 1c4 9 11 19 20 27 6 5 13 7 19 7 4 0 8-1 11-4 6-4 6-8 6-10v-1c1-3 1-8 5-10l2-1c3 0 7 4 7 11l1 1c0 3-3 15-15 21zM607 364zM0 533zm5-4l2 1c4 0 5-4 5-7l1-2c0 2 2 4 3 4h1l1-2c0-2-2-3-3-3h-1l2-2 3 2 3 3c1 0 2-1 2-3h1l2-4c1-2 2-5 6-7l-1-2c-4 3-5 6-6 9l-1 2-1-4h-1c-2 0-2 1-2 2l1 2 1 1v1l-1 1-2-2-4-2-3 2v1c-2 0-2 1-2 3-1 3-2 5-4 5H5v-1l-3 3-1 2-1 1h1c2 0 2-1 3-2l1-2zm18-12l-1-1v-1h1v2zm-6 6l-1 1-1-1-1-2c2 0 3 1 3 2zm446-16c-3 1-6 1-8-1s0-3 0-3c3-2 2-3 2-3s-1-5-5-1-1 8-1 8c6 7 13 3 13 3 9-7 3-16 3-16 2 7-2 11-4 13zm-11-5c0-2 2-4 3-2s-1 0-2 2c-1 4 2 7 2 7-3-2-4-5-3-7zm85 3c-8 5-16 4-22-1-5-6 1-9 1-9 8-4 6-9 6-9s-4-12-14-2c-11 10-1 23-1 23 15 18 33 6 33 6 23-17 8-41 8-41 5 18-4 28-11 33zm-30-12c1-5 8-11 10-6s-4 1-7 7c-3 9 7 18 7 18-10-5-10-14-10-19z"/>
</svg>