<?xml version="1.0" encoding="utf-8"?><svg xmlns="http://www.w3.org/2000/svg" xmlns:xlink="http://www.w3.org/1999/xlink"><symbol viewBox="-45.52 -45.52 576.53 576.53" id="book" xmlns="http://www.w3.org/2000/svg"><path d="M422.1 126.2H126.4c-27.4 0-49.8-22.3-49.8-49.8 0-27.4 22.3-49.8 49.8-49.8h295.8c7.4 0 13.3-6 13.3-13.3 0-7.4-6-13.3-13.3-13.3H126.4C84.3 0 50 34.3 50 76.4v332.7c0 42.1 34.3 76.4 76.4 76.4h295.8c7.4 0 13.3-6 13.3-13.3V139.5c-.1-7.3-6-13.3-13.4-13.3zm-13.3 332.7H126.4c-27.4 0-49.8-22.3-49.8-49.8V134.4c13.4 11.5 30.8 18.5 49.8 18.5h282.4v306z"/><path d="M130.6 64.3c-7.4 0-13.3 6-13.3 13.3s6 13.3 13.3 13.3h249.8c7.4 0 13.3-6 13.3-13.3s-6-13.3-13.3-13.3H130.6zm46.8 336.4c1.5.5 3 .8 4.5.8 5.5 0 10.6-3.4 12.5-8.8l16.2-45.3H273c.5 0 1.1 0 1.6-.1l16.2 45.4c1.9 5.4 7.1 8.8 12.5 8.8 1.5 0 3-.3 4.5-.8 6.9-2.5 10.5-10.1 8-17l-60.6-169.9c-.1-.4-.3-.8-.5-1.2l-.3-.6-.3-.6c-.1-.2-.3-.4-.4-.7-.1-.1-.2-.3-.3-.4-.1-.2-.3-.4-.5-.6-.1-.1-.2-.3-.4-.4-.1-.2-.3-.3-.5-.5l-.5-.5c-.1-.1-.3-.2-.4-.4-.2-.2-.4-.3-.6-.5-.1-.1-.3-.2-.4-.3-.2-.1-.4-.3-.6-.4l-.6-.3-.6-.3c-.4-.2-.8-.4-1.2-.5h-.1l-1.2-.3c-.2 0-.3-.1-.5-.1-.3-.1-.5-.1-.8-.2-.2 0-.4 0-.6-.1-.2 0-.5-.1-.7-.1h-1.3c-.2 0-.5 0-.7.1-.2 0-.4 0-.6.1-.3 0-.5.1-.8.2-.2 0-.3.1-.5.1-.4.1-.8.2-1.1.3h-.1c-.4.1-.8.3-1.2.5l-.6.3-.6.3c-.2.1-.4.3-.7.4-.1.1-.3.2-.4.3-.2.2-.4.3-.6.5-.1.1-.3.2-.4.4l-.5.5-.5.5c-.1.1-.2.3-.4.4-.2.2-.3.4-.5.6-.1.1-.2.3-.3.4-.1.2-.3.4-.4.6l-.3.6-.3.6c-.2.4-.4.8-.5 1.2l-60.8 169.9c-2.2 7 1.4 14.6 8.3 17.1zm65.3-142.9l22.5 63h-45.1l22.6-63z"/></symbol><symbol viewBox="-48 -48 608 608" id="open-book" xmlns="http://www.w3.org/2000/svg"><path d="M291.057 242.811a8.56 8.56 0 0 0 7.62 4.659 8.517 8.517 0 0 0 3.866-.93c.503-.256 50.731-25.771 75.503-33.596 4.489-1.425 6.98-6.221 5.555-10.709a8.528 8.528 0 0 0-10.709-5.572c-26.095 8.252-75.981 33.596-78.097 34.671-4.199 2.133-5.871 7.271-3.738 11.477zm7.62-97.74a8.517 8.517 0 0 0 3.866-.93c.503-.256 50.731-25.771 75.503-33.596 4.489-1.425 6.98-6.221 5.555-10.709a8.528 8.528 0 0 0-10.709-5.572c-26.095 8.252-75.981 33.596-78.097 34.671-4.198 2.133-5.871 7.27-3.738 11.477a8.562 8.562 0 0 0 7.62 4.659z"/><path d="M503.469 128.004a8.53 8.53 0 0 0-8.533 8.533v332.8c0 14.114-11.486 25.6-25.6 25.6h-204.8v-19.635c12.442-4.352 44.851-14.498 76.8-14.498 74.334 0 124.809 16.461 125.312 16.631a8.583 8.583 0 0 0 7.68-1.178 8.527 8.527 0 0 0 3.541-6.921V93.871a8.52 8.52 0 0 0-6.682-8.329s-6.69-1.493-18.125-3.593c-4.617-.853-9.079 2.219-9.933 6.844-.853 4.642 2.21 9.088 6.844 9.941a704.53 704.53 0 0 1 10.829 2.074v357.188c-19.337-5.069-62.276-14.259-119.467-14.259-37.18 0-73.702 12.211-85.001 16.35-10.044-4.437-40.405-16.35-77.133-16.35-58.778 0-107.196 9.694-128 14.618v-357.88c17.041-4.19 67.371-15.138 128-15.138 31.113 0 57.796 9.685 68.267 14.063v335.804a8.534 8.534 0 0 0 12.928 7.313c.845-.503 85.393-51.004 160.435-76.015a8.534 8.534 0 0 0 5.837-8.098V8.537a8.53 8.53 0 0 0-3.678-7.014 8.525 8.525 0 0 0-7.859-.981c-68.275 25.608-137.36 68.599-138.052 69.026-3.994 2.5-5.214 7.765-2.714 11.759 2.492 3.994 7.757 5.214 11.759 2.714.631-.401 60.732-37.794 123.477-63.027v331.281c-58.249 20.241-119.066 53.291-145.067 68.087V93.871a8.541 8.541 0 0 0-4.719-7.637c-1.468-.725-36.437-17.963-80.614-17.963-77.107 0-136.388 16.683-138.88 17.399a8.528 8.528 0 0 0-6.187 8.201v375.467a8.57 8.57 0 0 0 3.388 6.81 8.527 8.527 0 0 0 5.146 1.724c.785 0 1.57-.111 2.338-.333.589-.162 59.597-16.734 134.195-16.734 31.198 0 57.856 9.711 68.267 14.071v20.062h-204.8c-14.114 0-25.6-11.486-25.6-25.6v-332.8c0-4.71-3.823-8.533-8.533-8.533s-8.533 3.823-8.533 8.533v332.8c0 23.526 19.14 42.667 42.667 42.667h426.667c23.526 0 42.667-19.14 42.667-42.667v-332.8a8.532 8.532 0 0 0-8.534-8.534z"/><path d="M291.057 191.611a8.56 8.56 0 0 0 7.62 4.659 8.517 8.517 0 0 0 3.866-.93c.503-.256 50.731-25.771 75.503-33.596 4.489-1.425 6.98-6.221 5.555-10.709a8.528 8.528 0 0 0-10.709-5.572c-26.095 8.252-75.981 33.596-78.097 34.671-4.199 2.133-5.871 7.271-3.738 11.477zm0 102.4a8.56 8.56 0 0 0 7.62 4.659 8.517 8.517 0 0 0 3.866-.93c.503-.256 50.731-25.771 75.503-33.596 4.489-1.425 6.98-6.221 5.555-10.709a8.528 8.528 0 0 0-10.709-5.572c-26.095 8.252-75.981 33.596-78.097 34.671-4.199 2.133-5.871 7.271-3.738 11.477zm-84.309-135.645c-52.693-12.365-112.572 3.388-115.089 4.062a8.535 8.535 0 1 0 4.421 16.486c.572-.162 58.223-15.326 106.778-3.934 4.565 1.067 9.182-1.775 10.257-6.366 1.074-4.582-1.776-9.173-6.367-10.248zm0 51.2c-52.693-12.356-112.572 3.388-115.089 4.062a8.535 8.535 0 1 0 4.421 16.486c.572-.162 58.223-15.326 106.778-3.934 4.565 1.067 9.182-1.775 10.257-6.366 1.074-4.582-1.776-9.173-6.367-10.248zm84.309 135.645a8.56 8.56 0 0 0 7.62 4.659 8.517 8.517 0 0 0 3.866-.93c.503-.256 50.731-25.771 75.503-33.596 4.489-1.425 6.98-6.221 5.555-10.709a8.528 8.528 0 0 0-10.709-5.572c-26.095 8.252-75.981 33.596-78.097 34.671-4.199 2.133-5.871 7.271-3.738 11.477zm-84.309-84.445c-52.693-12.356-112.572 3.379-115.089 4.062a8.536 8.536 0 0 0-6.033 10.453 8.543 8.543 0 0 0 8.235 6.332c.734 0 1.476-.102 2.219-.299.572-.162 58.223-15.326 106.778-3.934 4.565 1.067 9.182-1.775 10.257-6.366 1.074-4.582-1.776-9.173-6.367-10.248zm0 102.4c-52.693-12.365-112.572 3.388-115.089 4.062a8.536 8.536 0 0 0-6.033 10.453 8.543 8.543 0 0 0 8.235 6.332c.734 0 1.476-.102 2.219-.299.572-.162 58.223-15.326 106.778-3.934 4.565 1.058 9.182-1.775 10.257-6.366 1.074-4.582-1.776-9.173-6.367-10.248zm0-51.2c-52.693-12.365-112.572 3.379-115.089 4.062a8.536 8.536 0 0 0-6.033 10.453 8.543 8.543 0 0 0 8.235 6.332c.734 0 1.476-.102 2.219-.299.572-.162 58.223-15.326 106.778-3.934 4.565 1.067 9.182-1.775 10.257-6.366 1.074-4.582-1.776-9.173-6.367-10.248z"/></symbol></svg>