<?xml version="1.0" encoding="utf-8"?><svg xmlns="http://www.w3.org/2000/svg" xmlns:xlink="http://www.w3.org/1999/xlink"><symbol viewBox="-11.37 -11.37 369.75 386.75" id="border-b-left" xmlns="http://www.w3.org/2000/svg"><path d="M31.2 176.7L31 339l127.8-.1 127.7-.2-56.5-1.2c-96.3-2.1-182.4-4.7-184.8-5.6-5-1.9-4.9-.9-8.7-96.9-2.1-52.2-3.6-109.7-4.4-169-.6-38.3-.8-10-.9 110.7z"/></symbol><symbol viewBox="-11.37 -11.37 369.75 386.75" id="border-b-right" xmlns="http://www.w3.org/2000/svg"><path d="M344.7 230.7c-2.7 57.4-6.8 119.6-8.1 122.3-.6 1.4-2.2 3-3.6 3.6-2.6 1.2-72.4 3.4-182.5 5.9l-56 1.2 126.3.2 126.2.1v-84.5c0-46.5-.1-84.5-.3-84.5-.1 0-1 16.1-2 35.7z"/></symbol><symbol viewBox="-11.37 -11.37 369.75 386.75" id="border-t-left" xmlns="http://www.w3.org/2000/svg"><path d="M.2 163.7c.1 120.4.3 150.3.9 112.8 1.1-77.9 2.8-136 7-233 .6-14.3 1.6-27.3 2.1-28.8.6-1.5 2-3.3 3.1-3.9C17 8.9 131.5 4 233.5 1.6l53-1.3L143.3.1 0 0l.2 163.7z"/></symbol><symbol viewBox="-11.37 -11.37 369.75 386.75" id="border-t-right" xmlns="http://www.w3.org/2000/svg"><path d="M102 22.5c63.4 1.6 134.6 4.1 183.2 6.4 39.3 1.9 41.2 2.3 42.2 7.4.8 3.7 4.9 68.9 8.5 135.7.6 10.8.9-9.8 1-67.8L337 21l-143.2.1-143.3.2 51.5 1.2z"/></symbol><symbol viewBox="-3.39 -3.39 115.39 115.39" id="icon-About" xmlns="http://www.w3.org/2000/svg"><path d="M78.119 73.246c-6.566-3.363-13.357-6.156-20.227-8.791-.513-.193-1.123-.588-1.336-1.035-.562-1.24-.947-2.555-1.354-3.85-.248-.836-.471-1.615-1.379-2.021-.248-.106-.471-.584-.471-.895.055-3.016-.648-6.182 1.592-8.813.068-.082.098-.197.145-.295 1.209-2.639 1.414-5.66 3.104-8.121.043-.053.053-.135.061-.205.197-1.883.396-3.748.559-5.623.017-.23-.186-.645-.387-.717-.928-.324-.879-1.076-.873-1.82 0-3.664 0-4.195-.006-7.859 0-2.131-.627-4.021-2.234-5.473-1.835-1.646-3.718-3.24-5.604-4.83-.904-.77-.99-1.363-.135-2.207.379-.375.857-.645 1.297-.957a26.912 26.912 0 0 1-.287-.432c-.57 0-1.143-.074-1.693.008-2.086.338-4.18.633-6.223 1.113-3.908.922-7.703 2.143-10.871 4.76-2.164 1.785-3.895 3.867-4.115 6.813-.109 1.543-.096 3.098-.109 4.637-.012 2.521.023 1.908-.031 4.418-.014.41-.238 1.084-.525 1.174-1.016.332-1.049.982-.908 1.83.1.584.025 1.191.152 1.762.35 1.574.725 3.148 1.178 4.695.334 1.154.988 2.244 1.176 3.416.359 2.344 1.234 4.381 2.818 6.152.256.295.453.783.424 1.174a82.523 82.523 0 0 1-.555 5.396c-.051.348-.416.871-.713.938-1.201.244-1.383 1.166-1.672 2.104a44.523 44.523 0 0 1-1.254 3.652c-.148.373-.521.758-.889.926-2.127.922-4.299 1.777-6.445 2.679-2.281.959-4.588 1.877-6.818 2.936-2.299 1.103-4.531 2.337-6.779 3.546-1.326.707-2.563 1.493-3.598 2.467L0 89.236c15.256 0 23.221 11.031 39.098 12.391l-5.85-8.072 9.07-24.811-2.805-6.025h5.619l-2.814 6.025 9.072 24.811-5.695 7.877c11.559-1.936 30.006-12.195 38.956-12.195L81.52 75.73a13.013 13.013 0 0 0-3.401-2.484z"/><path d="M89.391 6.955c-10.582 0-19.19 8.609-19.19 19.191 0 .418.016.84.045 1.273l-8.81 5.725a1.572 1.572 0 0 0-.692 1.586 1.57 1.57 0 0 0 1.182 1.266l13.445 3.246a19.211 19.211 0 0 0 14.021 6.094c10.582 0 19.191-8.607 19.191-19.189S99.973 6.955 89.391 6.955zm0 35.232a16.061 16.061 0 0 1-12.004-5.406 1.582 1.582 0 0 0-.809-.486l-10.361-2.502 6.541-4.25c.502-.326.775-.908.707-1.502a16.26 16.26 0 0 1-.117-1.895c0-8.846 7.197-16.043 16.043-16.043s16.043 7.197 16.043 16.043-7.198 16.041-16.043 16.041z"/><path d="M83.561 25.6h-2.664a.335.335 0 0 0-.334.334v8.883c0 .184.15.332.334.332h2.664a.331.331 0 0 0 .334-.332v-8.883a.334.334 0 0 0-.334-.334zm6.912-3.664h-2.664a.333.333 0 0 0-.334.334v12.547c0 .184.148.332.334.332h2.664a.332.332 0 0 0 .334-.332V22.27a.335.335 0 0 0-.334-.334zm6.607-7.12h-2.666a.331.331 0 0 0-.332.332v19.668c0 .184.148.332.332.332h2.666a.331.331 0 0 0 .332-.332V15.148a.332.332 0 0 0-.332-.332z"/></symbol><symbol viewBox="-6.95 -6.95 236.41 236.41" id="icon-Accomplishments" xmlns="http://www.w3.org/2000/svg"><path d="M210.064 33.64H161.74v-9.353c0-2.579-2.094-4.677-4.676-4.677s-4.677 2.098-4.677 4.677v9.353h-48.32c-6.878 0-12.471 5.596-12.471 12.471V62.53l-6.491-2.165c-1.696-.603-16.824-5.873-30.759-6.558l-1.857 3.708h-.052l5.252 40.879-6.235 10.897-6.235-10.897 5.249-40.879h-.055L48.559 53.8c-14.453.709-30.233 6.373-30.939 6.628-.256.092-.423.286-.661.405a7.68 7.68 0 0 0-1.428.864c-.38.296-.697.606-1.004.962a7.33 7.33 0 0 0-.898 1.221 7.85 7.85 0 0 0-.627 1.409c-.095.274-.277.487-.344.779L.188 122.186a7.798 7.798 0 0 0 7.612 9.486 7.813 7.813 0 0 0 7.608-6.107l11.511-51.782c.804-.25 1.714-.518 2.704-.794v53.203l-6.202 77.138c-.411 5.146 3.422 9.657 8.574 10.065a9.352 9.352 0 0 0 10.069-8.573l5.605-69.715a9.314 9.314 0 0 0 3.772.804 9.264 9.264 0 0 0 3.772-.804l5.608 69.715a9.352 9.352 0 0 0 10.069 8.573c5.151-.408 8.984-4.926 8.573-10.065l-6.205-77.138V72.991c3.961 1.123 6.634 2.076 6.705 2.098.03.012.061.006.1.012.031.013.055.037.085.049l11.429 3.809v41.976c0 6.881 5.593 12.471 12.471 12.471h22.7l-19.905 74.324a4.674 4.674 0 1 0 9.031 2.411l20.563-76.741h15.941v54.382a4.678 4.678 0 0 0 4.676 4.677 4.678 4.678 0 0 0 4.677-4.677V133.4h15.941l20.557 76.741a4.688 4.688 0 0 0 5.736 3.313c2.484-.663 3.977-3.232 3.301-5.724l-19.906-74.324h22.701c6.874 0 12.47-5.59 12.47-12.471V46.11c.004-6.875-5.599-12.47-12.467-12.47zm6.235 87.294a6.243 6.243 0 0 1-6.235 6.235H104.067a6.241 6.241 0 0 1-6.235-6.235V81.041l19.744 6.585c.822.268 1.65.399 2.472.399 3.258 0 6.309-2.07 7.393-5.331.183-.548.146-1.097.201-1.653l46.855-21.681a1.556 1.556 0 0 0 .756-2.07 1.553 1.553 0 0 0-2.07-.758L127.3 77.762c-.749-2.226-2.388-4.128-4.786-4.932l-24.677-8.223V46.11a6.24 6.24 0 0 1 6.235-6.235H210.07a6.243 6.243 0 0 1 6.235 6.235v74.823h-.006z"/><path d="M51.454 52.129c10.872 0 19.701-12.62 19.701-23.501 0-10.887-8.829-19.71-19.701-19.71-10.888 0-19.717 8.829-19.717 19.71s8.829 23.501 19.717 23.501zm114.883 36.968l3.228-2.013-3.16-5.062-3.222 2.012a16.004 16.004 0 0 0-5.121-3.666l.853-3.696-5.814-1.343-.847 3.705a15.477 15.477 0 0 0-6.211 1.042l-2.021-3.23-5.061 3.16 2.021 3.23a15.688 15.688 0 0 0-3.665 5.127l-3.702-.855-1.34 5.812 3.702.853a15.702 15.702 0 0 0 1.047 6.211l-3.233 2.016 3.167 5.063 3.233-2.022a15.278 15.278 0 0 0 5.121 3.657l-.853 3.702 5.809 1.346.858-3.702a15.616 15.616 0 0 0 6.211-1.041l2.01 3.227 5.054-3.16-2.003-3.224a15.798 15.798 0 0 0 3.659-5.118l3.702.853 1.334-5.815-3.708-.861a15.632 15.632 0 0 0-1.048-6.208zm-8.987 14.736c-5.018 3.13-11.624 1.607-14.767-3.413-3.13-5.011-1.607-11.627 3.404-14.763 5.023-3.13 11.636-1.61 14.778 3.41 3.131 5.014 1.596 11.636-3.415 14.766z"/><path d="M198.64 79.613l-2.867.974a12.605 12.605 0 0 0-3.301-3.778l1.34-2.712-4.269-2.107-1.334 2.719a12.46 12.46 0 0 0-5.005-.326l-.98-2.874-4.5 1.528.969 2.874a12.481 12.481 0 0 0-3.775 3.303l-2.723-1.339-2.106 4.265 2.722 1.34a12.473 12.473 0 0 0-.328 5.015l-2.868.971 1.522 4.503 2.88-.974a12.403 12.403 0 0 0 3.3 3.778l-1.339 2.712 4.262 2.11 1.34-2.713c1.607.441 3.301.561 5.012.323l.968 2.874 4.506-1.525-.974-2.868a12.51 12.51 0 0 0 3.781-3.307l2.716 1.34 2.101-4.263-2.71-1.343c.438-1.601.561-3.303.329-5.005l2.868-.975-1.537-4.52zm-11.009 15.265c-4.47 1.516-9.311-.88-10.833-5.343-1.51-4.466.883-9.322 5.347-10.839 4.47-1.507 9.316.886 10.833 5.35 1.516 4.466-.884 9.316-5.347 10.832z"/></symbol><symbol viewBox="-9.21 -9.21 313.23 313.23" id="icon-Close" xmlns="http://www.w3.org/2000/svg"><path d="M147.421 0C66.133 0 0 66.133 0 147.421s66.133 147.421 147.421 147.421c38.287 0 74.567-14.609 102.159-41.136a6 6 0 1 0-8.316-8.65c-25.345 24.367-58.672 37.786-93.842 37.786C72.75 282.843 12 222.093 12 147.421S72.75 12 147.421 12s135.421 60.75 135.421 135.421c0 16.842-3.052 33.273-9.071 48.835a6 6 0 0 0 11.193 4.329c6.555-16.949 9.879-34.836 9.879-53.165C294.843 66.133 228.71 0 147.421 0z"/><path d="M167.619 160.134a6 6 0 0 0-8.395 8.575l47.236 46.236a5.981 5.981 0 0 0 4.197 1.712 6.001 6.001 0 0 0 4.198-10.288l-47.236-46.235zm-42.441-26.471c1.171 1.171 2.707 1.757 4.243 1.757s3.071-.586 4.243-1.757a6 6 0 0 0 0-8.485L88.428 79.942a6 6 0 0 0-8.485 8.485l45.235 45.236zM214.9 79.942a6 6 0 0 0-8.485 0L79.942 206.415a6 6 0 1 0 8.486 8.485L214.9 88.428a6.001 6.001 0 0 0 0-8.486z"/></symbol><symbol viewBox="-1.02 -1.02 34.74 34.74" id="icon-Contact" xmlns="http://www.w3.org/2000/svg"><path d="M28.189 16.504h-1.666c0-5.437-4.422-9.858-9.856-9.858l-.001-1.664c6.355-.003 11.523 5.167 11.523 11.522zM16.666 7.856l-.001 1.664a6.987 6.987 0 0 1 6.981 6.983l1.666-.001c0-4.767-3.876-8.646-8.646-8.646zM16.333 0C7.326 0 0 7.326 0 16.334c0 9.006 7.326 16.332 16.333 16.332a1.007 1.007 0 1 0 0-2.016c-7.896 0-14.318-6.424-14.318-14.316 0-7.896 6.422-14.319 14.318-14.319S30.65 8.439 30.65 16.334c0 3.299-1.756 6.568-4.269 7.954a6.172 6.172 0 0 1-2.959.761 4.733 4.733 0 0 0 1.591-1.529c.08-.121.186-.228.238-.359.328-.789.357-1.684.555-2.518.243-1.064-4.658-3.143-5.084-1.814-.154.492-.39 2.048-.699 2.458-.275.366-.953.192-1.377-.168-1.117-.952-2.364-2.351-3.458-3.457l.002-.001-.092-.092c-.031-.029-.062-.062-.093-.092v.002c-1.106-1.096-2.506-2.34-3.457-3.459-.36-.424-.534-1.102-.168-1.377.41-.311 1.966-.543 2.458-.699 1.326-.424-.75-5.328-1.816-5.084-.832.195-1.727.227-2.516.553-.134.057-.238.16-.359.24-2.799 1.774-3.16 6.082-.428 9.292a75.688 75.688 0 0 0 3.245 3.576l-.006.004c.031.031.063.06.095.09.03.031.059.062.088.095l.006-.006c1.16 1.118 2.535 2.765 4.769 4.255 4.703 3.141 8.312 2.264 10.438 1.098 3.67-2.021 5.312-6.338 5.312-9.719C32.666 7.326 25.339 0 16.333 0z"/></symbol><symbol viewBox="-1 -1 32.5 32.5" id="icon-Education" xmlns="http://www.w3.org/2000/svg"><path d="M18.502 22.654c-.814-.546-7.785-5.294-9.664-8.617l-.103-.183-.212-.008c-1.618-.066-2.876.87-3.415 1.354-.22-.223-.444-.452-.673-.688l-.273-.28-.271.282c-1.061 1.101-1.53 2.125-1.396 3.048.109.749.621 1.401 1.481 1.888.155.088 1.95 1.309 3.901 2.867-.337.344-1.562 1.137-2.006 1.453-.499.354-2.578 2.241-2.578 2.241l1.343.317.465.908s.638-1.562 1.338-2.333 1.923-1.387 1.923-1.387-.661.944-1.135 1.86c-.473.916-.594 2.504-.594 2.504l.821-.26.566 1.234s.151-1.744.499-2.88c.281-.919.97-1.79 1.226-2.095 2.474 2.178 5.059 4.808 5.576 5.339.312.358.716.622 1.242.739.188.041.379.061.565.061 1.07 0 2.086-.667 2.74-1.835.764-1.359.979-3.449-.347-4.822-.363-.379-.707-.594-1.019-.707zm-10.49-1.197c-1.79-1.408-3.423-2.529-3.661-2.664-.659-.373-1.031-.824-1.106-1.34-.088-.606.224-1.32.928-2.126a90.286 90.286 0 0 0 4.519 4.345c-.575.933-.676 1.434-.68 1.785zm1.112-2.416a81.026 81.026 0 0 1-3.48-3.302c.447-.391 1.43-1.11 2.647-1.139.636 1.043 1.69 2.188 2.878 3.296-.618.063-1.39.333-2.045 1.145zm.769 3.963a5.988 5.988 0 0 1 .552-1.838c2.226 1.813 3.49 2.476 4.043 2.709-.086.638-.231 2.108.021 3.452-1.195-1.182-2.952-2.88-4.616-4.323zm9.319 4.812c-.471.839-1.37 1.65-2.483 1.404-1.911-.422-1.692-4.135-1.446-5.53l.062-.353-.351-.082c-.015-.004-1.204-.338-4.142-2.737.552-.642 1.436-.929 2.108-1.056a66.793 66.793 0 0 0 4.298 3.256c-.03.015-.058.029-.083.045-1.138.646-1.613 2.515-1.366 3.41.29 1.053.993 1.729 1.733 1.715.316-.012 1.086-.19 1.367-1.596l.044-.219-.169-.143c-1.068-.909-1.646-1.446-1.922-1.715.176-.342.408-.639.687-.797.423-.238.904-.082 1.433.467 1.055 1.098.859 2.808.23 3.931zm-1.096-1.458c-.132.479-.353.767-.604.774H17.5c-.314 0-.755-.401-.964-1.159-.067-.242-.048-.603.042-.979.313.293.802.735 1.538 1.364zM5.959 8.611l-1.196 3.831s4.888.475 8.958 1.744c4.072 1.272 8.361 3.663 8.361 3.663l1.216-3.899s-3.653-3.682-8.004-5.04c-4.349-1.357-9.335-.299-9.335-.299z"/><path d="M30.504 14.008l-1.423-1.493.14-.453s1.254-2.306-1.904-1.88c-.164.032-.262.085-.317.151L17.603.482 0 4.367l4.841 4.324.26-.833s5.561-1.179 10.41.334c4.85 1.515 8.924 5.62 8.924 5.62l-.453 1.453 3.636-.702c-.606 1.938-1.302 4.171-1.519 4.862l-1.035-.324-.752 2.406 1.676-.522 1.232 1.431.75-2.406-1.119-.351 1.644-5.266 2.009-.385zm-2.084-.539a.763.763 0 1 1-1.456-.455.763.763 0 0 1 1.456.455zm-.71-2.392c.397-.118 1.071-.24.892.334-.018.056-.067.218-.143.453l-.749-.787z"/></symbol><symbol viewBox="-15.5 -15.5 527 527" id="icon-Experience" xmlns="http://www.w3.org/2000/svg"><path d="M400.008 96.004c26.472 0 48-21.531 48-48 0-26.473-21.528-48-48-48-26.473 0-48 21.527-48 48 0 26.469 21.527 48 48 48zm0-80c17.648 0 32 14.351 32 32 0 17.644-14.352 32-32 32-17.649 0-32-14.356-32-32 0-17.649 14.351-32 32-32zm79.942 127.062a7.937 7.937 0 0 0-2.286-4.718l-24-24a7.985 7.985 0 0 0-5.656-2.344h-96c-2.121 0-4.16.84-5.656 2.344l-24 24a7.963 7.963 0 0 0-2.29 4.718l-16 136a7.98 7.98 0 0 0 1.97 6.247 7.96 7.96 0 0 0 5.976 2.69h39.023l-22.976 199.079a8.02 8.02 0 0 0 1.976 6.242 8.014 8.014 0 0 0 5.977 2.68h48a8.007 8.007 0 0 0 7.976-7.336l8.024-96.328 8.023 96.336a8.003 8.003 0 0 0 7.977 7.328h48a8.048 8.048 0 0 0 5.976-2.672 8.008 8.008 0 0 0 1.973-6.242l-22.973-199.086h39.024a7.996 7.996 0 0 0 5.976-2.68 8 8 0 0 0 1.965-6.25zm-31.942 128.938v-112h-16v120c0 .3.015.613.047.918l22.976 199.082h-31.664L407.984 295.34a8.004 8.004 0 1 0-15.953 0l-15.383 184.664h-31.664l22.973-199.082c.035-.305.05-.617.05-.918v-120h-16v112h-31L335.63 147.69l19.691-19.687h89.375l19.688 19.687 14.625 124.313zm-170.344-21.656l-16-16a7.985 7.985 0 0 0-5.656-2.344h-80c-2.121 0-4.16.84-5.656 2.344l-16 16a7.913 7.913 0 0 0-2.184 4.086l-16 80a7.983 7.983 0 0 0 1.656 6.64 7.98 7.98 0 0 0 6.184 2.93h32v7.07l-31.793 135.098a8.007 8.007 0 0 0 7.793 9.832h40a8.007 8.007 0 0 0 7.863-6.531l16.137-86.063 16.137 86.063a8.007 8.007 0 0 0 7.863 6.53h40a8.005 8.005 0 0 0 6.27-3.034c1.519-1.918 2.081-4.422 1.519-6.797l-31.79-135.098v-7.07h32a7.986 7.986 0 0 0 6.184-2.93 7.983 7.983 0 0 0 1.657-6.64l-16-80a7.941 7.941 0 0 0-2.184-4.086zm-21.656 77.656v-56h-16v80c0 .613.07 1.23.207 1.832l29.687 126.168h-23.254L223.871 358.53a8.003 8.003 0 0 0-7.863-6.527 8.003 8.003 0 0 0-7.863 6.527l-22.778 121.473H162.11l29.688-126.168a8.29 8.29 0 0 0 .21-1.832v-80h-16v56h-22.241l13.617-68.059 11.937-11.941h73.375l11.946 11.941 13.605 68.059zm-139.563 25.344l-24-16a8.008 8.008 0 0 0-4.437-1.344h-48a8.02 8.02 0 0 0-4.442 1.344l-24 16a8.002 8.002 0 0 0-3.504 5.664l-8 64a7.978 7.978 0 0 0 1.946 6.285 7.996 7.996 0 0 0 6 2.707h20.285l-4.262 55.383a7.995 7.995 0 0 0 2.106 6.047 8 8 0 0 0 5.87 2.57h64a8.03 8.03 0 0 0 5.872-2.563 8.001 8.001 0 0 0 2.105-6.046l-4.265-55.391h20.289a8.004 8.004 0 0 0 7.941-8.992l-8-64a8.014 8.014 0 0 0-3.504-5.664zm-17.949 62.656l-2.512-32.617-15.953 1.222 7.336 95.395h-15.36v-48h-16v48H40.649l7.336-95.387-15.953-1.222-2.511 32.609H17.07l6.426-51.379 18.934-12.621h43.16l18.937 12.621 6.414 51.379zm77.512-240c0 22.055 17.941 40 40 40 22.054 0 40-17.945 40-40 0-22.059-17.945-40-40-40-22.059 0-40 17.941-40 40zm64 0c0 13.23-10.77 24-24 24-13.235 0-24-10.77-24-24 0-13.234 10.765-24 24-24 13.23 0 24 10.766 24 24zm-208 112c0 17.644 14.351 32 32 32 17.648 0 32-14.356 32-32 0-17.649-14.352-32-32-32-17.649 0-32 14.351-32 32zm48 0c0 8.824-7.176 16-16 16s-16-7.176-16-16 7.176-16 16-16 16 7.176 16 16zM197.664 58.348a7.99 7.99 0 0 0-11.312 0l-184 184 11.312 11.312L192.008 75.313l18.344 18.347a8.017 8.017 0 0 0 8.718 1.735 8.012 8.012 0 0 0 4.938-7.391v-80c0-4.418-3.586-8-8-8h-80a8.013 8.013 0 0 0-7.395 4.934 8.006 8.006 0 0 0 1.739 8.722l18.343 18.344L2.352 178.348l11.312 11.312 152-152a7.997 7.997 0 0 0 0-11.312L155.32 16.004h52.688V68.69zm0 0"/></symbol><symbol viewBox="-5.33 -5.33 138.67 138.67" id="icon-GB" xmlns="http://www.w3.org/2000/svg"><path d="M42 14.1c-1.4.5-5 3.5-8.1 6.7-3 3.1-7.2 6.8-9.2 8.2-4.3 3-6.7 8.2-6.7 14.9 0 4-.4 5.1-2.4 6.4C12.5 52.3 9 59.7 9 64c0 4.3 3.5 11.7 6.6 13.7 2 1.3 2.4 2.4 2.4 6.4 0 6.7 2.4 11.9 6.7 14.9 2 1.4 6.2 5.1 9.2 8.2 6.4 6.5 9.1 7.8 16.5 7.8 6.6 0 11-2.7 14.3-8.9 1.9-3.7 2.3-5.9 2.3-14.2 0-11.3-.7-13.5-6-19.9-2.7-3.2-4-5.8-4-7.7 0-3.5-3.3-7.3-6.3-7.3-4.1 0-6.7 2.7-6.7 7 0 4 2.6 7 6 7 .8 0 3.5 2.6 6 5.7l4.5 5.8v8.6c0 12.1-3.5 17.9-10.8 17.9-3.8 0-9.1-3.5-11.3-7.5-1.4-2.4-4-4.7-7-6.4-3.9-2.1-5.2-3.4-6.2-6.6-2-5.9-.6-9.9 3.6-10.3 2.7-.3 3.8.3 6.5 3.3 2 2.3 3.2 4.8 3.3 6.8.2 3.4 3.4 6.7 6.6 6.7 2.5 0 6.8-4.4 6.8-7 0-2.4-4.2-7-6.3-7-.8 0-3.4-2-5.9-4.4-5.2-5.3-8.6-6.3-14.7-4.7-4.1 1.1-4.6 1-6.5-.9-2.9-2.9-2.9-11.1 0-14 1.9-1.9 2.4-2 6.5-.9 6.1 1.6 9.5.6 14.7-4.7 2.5-2.4 5.1-4.4 5.9-4.4 2.1 0 6.3-4.6 6.3-7 0-2.6-4.3-7-6.8-7-3.2 0-6.4 3.3-6.6 6.7-.1 2-1.3 4.5-3.3 6.7-6 6.8-12.4 3.7-10.7-5.1.8-4.3 2.9-6.8 7.7-9.1 2.3-1.1 4.7-3.4 6-5.7 2.8-4.9 8-7.8 12.9-7.2 3.6.5 4.7-.7 4.8-5.1 0-1.5-10.2-1.6-14-.1z"/><path d="M69 15.2c-1.9 1.3-4.4 4.3-5.7 6.7-1.9 3.7-2.3 5.9-2.3 14.2 0 11.3.7 13.5 6 19.9 2.7 3.2 4 5.8 4 7.7 0 5.9 6 9.1 10.8 5.7 3.1-2.1 3.1-8.7 0-10.8-1.2-.9-2.9-1.6-3.8-1.6-.8 0-3.5-2.6-6-5.7l-4.5-5.8v-8.6C67.5 24.8 71 19 78.3 19c3.8 0 9.1 3.5 11.3 7.5 1.4 2.4 4 4.7 7 6.4 3.9 2.1 5.2 3.4 6.2 6.6 2 5.9.6 9.9-3.6 10.3-2.7.3-3.8-.3-6.5-3.3-2-2.3-3.2-4.8-3.3-6.8-.2-3.4-3.4-6.7-6.6-6.7-2.5 0-6.8 4.4-6.8 7 0 2.4 4.2 7 6.3 7 .8 0 3.4 2 5.9 4.4 5.2 5.3 8.6 6.3 14.7 4.7 4.1-1.1 4.6-1 6.5.9 2.9 2.9 2.9 11.1 0 14-1.9 1.9-2.4 2-6.5.9-6.1-1.6-9.5-.6-14.7 4.7-2.5 2.4-5.1 4.4-5.9 4.4-2.1 0-6.3 4.6-6.3 7 0 2.6 4.3 7 6.8 7 3.2 0 6.4-3.3 6.6-6.7.1-2 1.3-4.5 3.3-6.7 6-6.8 12.4-3.7 10.7 5.1-.8 4.3-2.9 6.8-7.7 9.1-2.3 1.1-4.7 3.4-6 5.7-2.8 4.9-8 7.8-12.9 7.2-3.1-.4-3.7-.2-4.2 1.7-1.2 4.3-.8 4.6 4.8 4.6 7.6 0 10.3-1.2 16.7-7.8 3-3.1 7.2-6.8 9.2-8.2 4.3-3 6.7-8.2 6.7-14.9 0-4 .4-5.1 2.4-6.4 3.1-2 6.6-9.4 6.6-13.7 0-4.3-3.5-11.7-6.6-13.7-2-1.3-2.4-2.4-2.4-6.4 0-6.7-2.4-11.9-6.7-14.9-2-1.4-6.2-5.1-9.2-8.2C87.7 14.3 85 13 77.6 13c-3.8 0-6.2.6-8.6 2.2z"/></symbol><symbol viewBox="-12.5 -12.5 425 425" id="icon-HeartsMinds" xmlns="http://www.w3.org/2000/svg"><g fill-rule="evenodd"><path d="M196.2 10.951c-3.215 1.516-5.036 4.135-5.819 8.366-.775 4.197-.315 44.106.534 46.256 3.816 9.658 15.932 8.703 18.497-1.458.539-2.136.61-5.511.507-24.01l-.119-21.524-1.324-2.688c-2.566-5.211-7.497-7.196-12.276-4.942m-143 56.683c-5.795 2.627-7.189 8.834-3.313 14.748 2.945 4.494 34.309 35.293 37.679 37.001 8.901 4.51 17.428-3.837 13.058-12.783-2.176-4.455-34.644-36.497-39.135-38.622-3.014-1.426-5.661-1.536-8.289-.344m286.305-.228c-3.075 1.129-5.709 3.5-21.936 19.745-18.595 18.614-19.169 19.337-19.169 24.126 0 7.366 7.283 11.638 13.944 8.178 2.693-1.398 35.236-33.181 37.665-36.785 5.864-8.7-1.044-18.739-10.504-15.264m-148.446 25.84c-43.948 3.374-81.586 36.666-90.238 79.821-7.683 38.32 6.707 76.04 38.375 100.593 8.048 6.239 8.39 7.076 8.408 20.54.014 10.526.826 13.89 4.844 20.069 3.094 4.757 3.23 5.431 3.554 17.531.328 12.251.556 13.41 3.489 17.7l3.42 5c.94 1.375 2.316 4.21 3.057 6.3 7.168 20.226 25.789 29.889 45.43 23.577 11.368-3.654 17.861-10.763 23.542-25.777.629-1.663 2.048-4.1 3.493-6 5.046-6.635 5.501-8.341 5.716-21.4.186-11.367.318-11.952 4.008-17.8 3.601-5.707 3.89-7.01 4.266-19.2.441-14.323.475-14.408 8.315-20.467 32.83-25.371 47.24-65.342 37.66-104.464-11.813-48.237-56.549-79.922-107.339-76.023m23.741 2.156c87.268 12.916 115.302 122.438 45.291 176.939-8.772 6.829-8.562 6.361-8.931 19.859-.351 12.84-1.004 15.714-4.842 21.313-3.114 4.543-3.261 5.23-3.559 16.687-.352 13.571-.69 14.959-5.083 20.872-2.898 3.901-3.72 5.449-5.333 10.048-5.246 14.952-16.912 23.389-32.343 23.389-15.639 0-26.606-8.023-32.407-23.709-1.566-4.232-2.774-6.382-6.578-11.704-2.837-3.97-3.106-5.309-3.435-17.096-.342-12.262-.47-12.85-4.092-18.837-3.942-6.515-4.667-10.173-4.681-23.59-.011-9.866-.525-10.848-9.13-17.448-34.217-26.244-47.723-69.877-34.211-110.525 14.961-45.01 61.62-73.26 109.334-66.198m-24.8 15.01c-57.669 7.903-90.949 68.286-65.802 119.388 6.783 13.784 16.297 24.505 29.984 33.786 9.996 6.779 9.921 6.612 10.232 22.814.362 18.84-.097 18.333 17.186 18.962 13.651.497 21.923.518 35.8.089 18.177-.561 17.818-.189 18.183-18.851.322-16.44.227-16.227 10.235-23.014 45.321-30.734 51.746-90.781 13.78-128.78-18.019-18.036-45.561-27.689-69.598-24.394m-5.487 57.166c3.529.902 4.433 1.329 9.263 4.37 4.651 2.929 7.467 3.154 11.059.884 8.418-5.318 9.991-5.839 17.565-5.814 16.224.052 28.236 12.43 28.125 28.982-.07 10.523-4.129 18.442-15.604 30.441-16.252 16.994-22.918 24.455-24.231 27.121l-1.29 2.619-.2 21.209c-.22 23.345-.176 22.941-2.734 25.093-2.785 2.343-9.845 2.465-12.7.219-2.527-1.988-2.547-2.169-2.56-23.102-.013-20.796-.182-22.917-2.114-26.542-1.276-2.395-8.982-10.968-22.702-25.258-12.641-13.166-16.832-21.098-16.907-32-.129-18.817 17.204-32.781 35.03-28.222m-10.447 17.161c-5.584 1.992-8.725 8.508-7.121 14.769 1.355 5.291 3.652 8.529 12.806 18.054 3.107 3.233 7.899 8.228 10.649 11.099 9.642 10.067 9.343 10.149 26.055-7.175 14.603-15.138 16.837-18.479 16.91-25.286.077-7.095-4.46-11.966-11.165-11.987-5.047-.017-8.38 2.024-13.466 8.244-6.565 8.029-10.116 8.216-16.576.875-7.327-8.326-12.266-10.672-18.092-8.593M10.892 203.412c-10.853 2.963-12.05 13.614-2.01 17.887L11 222.2h56.8l2.115-.956c8.22-3.714 7.779-14.145-.742-17.533-2.468-.981-54.8-1.249-58.281-.299m321.145.022c-9.496 2.554-10.652 13.783-1.837 17.845l2 .921 27 .126c19.502.091 27.611-.004 29.2-.342 13.139-2.79 12.672-16.297-.649-18.759-3.823-.707-52.994-.522-55.714.209m-225.445 90.981c-4.119 1.585-42.563 39.455-44.811 44.142-4.206 8.767 4.042 17.189 12.616 12.882 2.934-1.474 2.973-1.509 18.203-16.637 22.713-22.56 24.433-24.376 25.794-27.254 3.979-8.411-3.229-16.433-11.802-13.133m179.808-.29c-5.104 1.618-7.387 8.131-4.737 13.511 2.328 4.725 40.383 42.393 44.737 44.281 8.142 3.531 15.777-5.097 11.822-13.36-1.748-3.65-40.025-41.851-43.786-43.698-2.768-1.359-5.326-1.593-8.036-.734m-108.518 27.96c-7.662 2.033-6.856 16.599 1.013 18.314 4.389.957 42.592.368 44.565-.687 5.897-3.153 5.067-15.655-1.163-17.505-2.451-.728-41.723-.836-44.415-.122m12.637 34.311c-10.15 2.146-2.034 13.694 9.681 13.775 10.237.071 18.558-10.257 10.8-13.405-1.468-.595-18-.894-20.481-.37" fill="#f6b81c"/><path d="M190 94.807c-89.887 9.312-121.972 122.364-50.323 177.318 8.605 6.6 9.119 7.582 9.13 17.448.014 13.417.739 17.075 4.681 23.59 3.622 5.987 3.75 6.575 4.092 18.837.329 11.787.598 13.126 3.435 17.096 3.804 5.322 5.012 7.472 6.578 11.704 11.828 31.98 53.57 32.187 64.75.32 1.613-4.599 2.435-6.147 5.333-10.048 4.393-5.913 4.731-7.301 5.083-20.872.298-11.457.445-12.144 3.559-16.687 3.838-5.599 4.491-8.473 4.842-21.313.369-13.498.159-13.03 8.931-19.859 30.153-23.473 44.472-59.104 38.315-95.341-8.763-51.572-56.273-87.594-108.406-82.193m23.725 16.167c58.79 11.031 88.709 74.311 58.956 124.693-6.495 10.998-15.102 19.943-26.863 27.919-10.008 6.787-9.913 6.574-10.235 23.014-.365 18.662-.006 18.29-18.183 18.851-13.877.429-22.149.408-35.8-.089-17.283-.629-16.824-.122-17.186-18.962-.311-16.202-.236-16.035-10.232-22.814-13.687-9.281-23.201-20.002-29.984-33.786-25.147-51.102 8.133-111.485 65.802-119.388 4.171-.572 19.634-.205 23.725.562m8.572 211.233c6.23 1.85 7.06 14.352 1.163 17.505-1.973 1.055-40.176 1.644-44.565.687-7.869-1.715-8.675-16.281-1.013-18.314 2.692-.714 41.964-.606 44.415.122M211 356.766c7.758 3.148-.563 13.476-10.8 13.405-11.715-.081-19.831-11.629-9.681-13.775 2.481-.524 19.013-.225 20.481.37" fill="#27201e"/></g></symbol><symbol viewBox="38.13 3.13 13.75 43.75" id="icon-JSinfo" xmlns="http://www.w3.org/2000/svg"><path d="M41.487 31.932l.714 1.446 5.395-2.662-.713-1.446-5.393 2.662zM42.67 28.1l3.746 1.85.714-1.446-3.746-1.85-.714 1.447z"/><path d="M41.126 33.49l7.486 2.18.45-1.546-7.484-2.183-.452 1.55zm3.842-16.796a3.13 3.13 0 1 0 0 6.26 3.13 3.13 0 0 0 0-6.26zm0 4.113a.983.983 0 1 1 0-1.966.983.983 0 0 1 0 1.966z"/><path d="M46.87 22.393c-.19-.593-.864-1.073-1.5-1.073h-.743c-.637 0-1.307.483-1.496 1.073l-4.68 14.625c-.19.594.17 1.074.815 1.074h.923c.32 0 .648-.24.737-.545l2.395-8.186c.572-1.944.963-3.583 1.588-5.504h.105c.6 1.92.99 3.56 1.563 5.506l2.42 8.187c.088.3.416.544.733.544h1.033c.638 0 1-.483.81-1.074l-4.705-14.625zm4.632-3.399l-.545-.39 2.488-.962-.422-.596 5.555-.482.043.13-2.26.89.262.486-2.996.735.46.578-4.145.56-.057-.113 1.62-.836m-.208-5.906l.456.367-3.898 2.74-.09-.094 1.39-1.893-.726.043 1.545-1.78-.4-.486 4.782-3.617.092.094-1.86 2.555.586-.002-1.88 2.076m-12.581-.003l-.456.367 3.898 2.74.09-.094-1.39-1.893.726.043-1.545-1.78.4-.486-4.783-3.617-.09.094 1.86 2.555-.587-.002 1.88 2.076m-.206 5.903l.544-.39-2.488-.962.422-.596-5.555-.482-.043.13 2.263.89-.263.486 2.997.735-.46.578 4.145.56.057-.113-1.62-.836"/></symbol><symbol viewBox="-23.33 -23.33 606.67 577.67" id="icon-LPNU" xmlns="http://www.w3.org/2000/svg"><path d="M270.3 7.4c2.3 1.8 2.6 16.6.2 16.6-.8 0-1.5.3-1.5.8 0 .4 2.3.7 5 .7 5 0 6.4-.8 3.4-1.9-1.3-.5-.8-1.5 2.6-5.6 2.3-2.8 4.6-5 5.1-5 1.6 0 1.1 10-.6 10.6-2.9 1.2-1.4 2 3.5 2 2.8 0 5-.3 5-.8 0-.4-.7-.8-1.5-.8-1.2 0-1.5-1.6-1.5-8s.3-8 1.5-8c.8 0 1.5-.4 1.5-.9 0-.4-2.2-.9-5-1-4.9-.1-6.6 1.1-3.4 2.3 1.2.5.7 1.6-2.8 5.6-2.4 2.7-4.6 5-5 5-.5 0-.8-2.3-.8-5 0-3.6.4-5.2 1.5-5.6 3.1-1.2 1.3-2.4-3.7-2.4-4.6.1-5.1.2-3.5 1.4zM242.5 9c-1.6.4-2.2.8-1.3.9 3.1.2 2.9 2-.9 7.7l-3.8 5.7-.6-2.9c-1.1-5-1-9.2.4-9.7.6-.3.1-.5-1.3-.5-3.1 0-9.1 1.5-6.9 1.7 1.9.1 2.5 2.1 3.5 10.5.5 4.4.4 6-.7 6.8-1 .7-.4.8 2 .4 1.8-.3 4.3-.6 5.5-.6 1.9-.1 1.9-.2.4-1.1-1-.5-1.8-1.4-1.8-2 0-1.2 6.3-10.8 7.1-10.8.3-.1.9 2.3 1.3 5.1.5 4.3.3 5.5-1.1 6.5-1.5 1.2-1.5 1.3.3 1.2 1 0 3.7-.4 5.9-.8 3.3-.6 3.6-.8 1.9-1.4-1.7-.6-2.3-2.1-3.2-8-1-6.4-.9-7.3.5-8.5 1.5-1 1.3-1.2-1.3-1.1-1.6.1-4.2.5-5.9.9zm-39 8.1c-2.9 1-4.1 1.8-2.9 1.8 1.4.1 2.4.9 2.8 2.3 1 4 .7 4.6-3 5.8-3 1-3.8 1-4.5-.1-1.3-2-1.1-5.3.4-6.8 1-1.2.8-1.3-.8-.6-1.1.4-3.6 1.2-5.5 1.7-2.9.9-3.2 1.2-1.6 1.7C191.3 24 195.6 39 193 39c-.5 0-1 .4-1 .9s2.3.2 5-.7c2.8-.9 5-1.9 5-2.4 0-.4-.6-.5-1.4-.2-.9.4-1.8-.7-2.6-3.1-.7-2-1-3.7-.8-3.9.1-.1 2-.7 4-1.3 3.7-1.1 3.7-1.1 4.9 2.5.9 2.7.9 3.7 0 4-.6.2-1.1.7-1.1 1.1 0 .4 2.3.1 5-.8 4-1.2 4.7-1.7 3.2-2.2-2.7-1-7-14.8-5.1-16 2.7-1.6.2-1.6-4.6.2zm164.4 4.3c.9 1 .5 3-1.5 8.5-2.1 5.7-3.1 7.1-4.8 7.2-1.4 0-.4.8 2.9 2.3 5.3 2.4 6.5 2.5 4.6.3-.8-1-.8-2.2 0-4.6.6-1.7 1.2-3.1 1.4-3.1 1.4 0 7.5 3.2 7.5 4 0 2.3-2.5 6-3.7 5.6-.7-.3-1.3-.2-1.3.2 0 .7 4.2 2.5 9 3.9 1.1.4 1.1.1-.2-.9-1.6-1.4-1.5-1.9 1-8.6 1.9-5.2 3.2-7.2 4.7-7.5 2-.3 2-.4 0-1.1-1.1-.4-3.5-1.4-5.2-2.2-1.9-.8-3.3-.9-3.3-.4 0 .6.5 1 1 1 1.3 0 1.3 2.3-.1 5.4-1.1 2.3-1.2 2.4-4.8.9-2-.8-3.7-1.6-3.9-1.7-.1-.2.3-1.7.9-3.4.8-2.2 1.8-3.2 3.2-3.2 1.3-.1.2-.9-2.8-2-6-2.4-6.1-2.4-4.6-.6zM158 34.5c-2.5 1.3-3.8 2.4-2.9 2.5 1 0 2.8 2.7 4.8 7 2.7 5.7 3.1 7.4 2.1 8.5-.7.8-1 1.5-.8 1.5 1.1 0 11.5-5.4 13.1-6.8 2.5-2.2 2.1-5.9-.8-7.8-2-1.3-3-1.4-6.1-.4-3.3 1.1-3.9 1.1-5.1-.6-1.6-2.2-1.7-4.1 0-4.7.6-.2 1-.7.7-1-.3-.3-2.5.6-5 1.8zm120.9 6.9c-.2.2-8.5.9-18.4 1.6-9.9.7-18.4 1.6-19 2.1-.5.5-.1.9 1.2.9 3.4 0 4.1 1.9 5.1 14.5 1.1 12.2.7 14.5-2.4 14.5-.8 0-1.4.4-1.4.9 0 1.1 16.1.2 17.4-1 .6-.5.2-.9-1.1-.9-3.5 0-4.2-2.2-4.9-15.2l-.7-12.5 3.3-.6c4.5-.9 9.8-.9 10.4.1.3.5.8 6.6 1.2 13.6.7 12.4.7 12.7-1.5 13.3-1.1.3-2.1 1-2.1 1.6 0 .6 1.9.7 5.3.3 2.8-.3 6.7-.6 8.5-.6 3.6 0 4.4-1.7 1-2.2-2.5-.3-2.8-1.9-4.2-19.1-.6-7.6-.5-7.8 1.9-8.9 1.4-.6 2.5-1.5 2.5-2 0-.8-1.3-1.1-2.1-.4zm20.7 4.9c-5.5 3.1-7.8 7.8-7.4 14.8.7 9.8 7.6 15.9 18.3 15.9 9.5 0 16.5-5.3 18.1-13.7 1.2-6.6-3.6-15.1-10.3-17.9-5.1-2.2-14.1-1.8-18.7.9zm17.5 2.6c2.6 2.6 2.9 3.6 2.9 9 0 10.4-4.1 17.1-10.5 17.1-7.8 0-11.3-8.2-8.4-19.5 2.3-9.3 10.1-12.5 16-6.6zm-186.5.7c-7.9 5-8.7 5.7-6.6 5.4 3.3-.5 4.2.2 6 4.2 2.4 5.2 2.6 9.8.6 9.8-2.1 0-3.1 2.1-1.5 3.1.9.5 2 .2 3.2-.9 2.4-2.1 1.9-7.1-1.3-13.7-2.2-4.5-2-6.5.4-6.5 1.8 0 9.8 12.8 8.5 13.5-.5.4-.9 1-.9 1.5 0 1 8.9-4.1 9-5.2 0-.3-.8-.4-1.8-.1-2.5.6-10.6-11.9-8.9-13.6 2.7-2.7-.5-1.6-6.7 2.5zm298.4.3c0 .5.4 1.3 1 1.6.5.3-.9 3.5-3.3 7.1-3 4.6-4.7 6.3-5.9 6-3.2-.8-1.9.8 3.9 4.6 8.3 5.5 13.3 4.6 11.9-2.2-.5-2.5-.2-3 1.4-3 2.3 0 4.3-3.2 3.4-5.5-.8-1.9-12.4-10-12.4-8.6zm-80 2.5c0 .3.9 1.5 2 2.6 2.3 2.3 2 4.9-1.3 11.5-4.7 9.6-9.2 13.1-12.7 10-2.3-2-5-1.3-5 1.3 0 4.1 4.7 5.4 10 2.7 3.9-2 7.1-6.4 11.5-15.8 2.1-4.2 3.8-7.7 4-7.7 1.2 0 6.5 2.3 6.4 2.8 0 .4-1.9 6.1-4.2 12.7-3.9 11.1-4.4 12-7 12.3-1.5.2-2.7.7-2.7 1.1 0 1.1 15.9 6 16.5 5.1.3-.5-.4-1.1-1.5-1.5-2.7-.9-2.6-2.4 1.7-14.5 4.1-12 5-13.3 7.5-12.7 1 .3 2 .2 2.2-.2.3-.4-5.2-2.7-12.2-5.1-7-2.3-13.3-4.5-13.9-4.8-.7-.2-1.3-.1-1.3.2zm-152.4 5.8c-.3 1.3-.7 8.4-1.1 15.7-.4 9.4-1 14.2-2 15.8-.8 1.2-1.5 2.4-1.5 2.7 0 .3 2.3-.3 5.2-1.3 5.5-1.9 7.4-3.8 3.6-3.7-1.9.1-2.3-.5-2.6-3.6-.3-3.5-.2-3.6 4.8-5.3 3.9-1.3 5.4-1.4 6.5-.5 2.5 2 2.9 5 .8 6.5-3.3 2.5-.7 2.5 5.3.1 3.2-1.2 6.8-2.6 7.9-3 1.8-.7 1.7-.9-1.1-1.9-1.9-.8-6.9-5.5-12.9-12.2-5.3-6.1-10.3-11.1-11.1-11.3-.7-.2-1.5.7-1.8 2zM387.5 69c2.3 2.5 1.7 4.3-4.7 16-4.9 8.7-5.6 9.5-8.1 9.2-4.5-.5-3.1 1.1 4.8 5.2 7 3.7 10.5 4.5 7 1.6-2.4-2-1.8-3.8 4.3-15 5.3-9.5 6-10.5 8.5-10.3 1.5.1 2.7-.1 2.7-.5 0-.9-13.5-8.2-15.1-8.2-.7 0-.5.8.6 2zm-221.6 1.1c-1.9 1.9-2.1 2.9-1.5 9 .5 6.1.4 7.1-1.4 8.9-1.1 1.1-2.3 2-2.8 2-.8 0-5.2-7.9-5.2-9.4 0-.5.7-1.8 1.7-2.8.9-1 1.1-1.8.6-1.8-1.5 0-15.3 8.1-15.3 9 0 .4 1.4.7 3.2.6 3-.1 3.5.4 9.5 10.8 5.9 10.3 6.2 11.1 4.6 12.8-3 3.3-.7 2.9 6.5-1.3 7.5-4.4 9.1-6.2 4.5-5.3-2.5.5-3.1 0-6-4.8-2.2-3.7-2.8-5.5-2-6 2.3-1.5 4.9-.7 9.4 2.7 2.6 2 5.8 3.8 7.2 4.2 3 .8 7.1-1.4 8.8-4.7 1.5-3.1.6-4.6-1.7-2.5-1.7 1.5-2.2 1.4-7.5-1.4-3.2-1.7-7-3.1-8.4-3.1-2.5 0-2.6-.2-2.6-6.3 0-5.6.2-6.2 2.2-6.5 2.8-.4 4.5-2.5 3.7-4.6-.9-2.3-5-2-7.5.5zm293 2.2c1.6 2.1-8.4 13-11.3 12.3-1.3-.3.4 1.8 4.4 5.4 3.6 3.3 6.7 6 7 6 .3 0 1.1-.9 1.8-2.1 1.2-1.9 1.1-2-.7-1.4-2.3.7-6.1-1.3-6.1-3.3 0-.7.7-2.4 1.6-3.8 1.3-1.9 1.9-2.2 3-1.3.9.7 1.2 2 .8 3.3-.4 1.7-.1 1.5 2-.9 3.2-3.8 3.2-4.3.1-3.7-3.2.6-3.2-.8 0-3.8 2-1.9 2.7-2.1 4-1 .8.7 1.5 2.6 1.5 4.2 0 2.6.2 2.9 1.5 1.8 2.5-2 1.8-3.5-3.9-8.4-5.2-4.4-8.1-6.1-5.7-3.3zm-49.4 11.3c-2.9 3.9-2.8 5.2.3 3.5 3-1.6 5.7-1.4 8.2.7l2.1 1.7-7.4 10.1c-4.1 5.6-8 10.4-8.6 10.8-.6.4-1.9.2-2.9-.3-1.1-.6-2.2-.8-2.5-.4-.9.8 13.5 11.3 14.5 10.6.5-.3.2-1.3-.6-2.2-.9-1-1.6-2.1-1.6-2.5 0-.4 3.4-5.5 7.6-11.2 6.6-9.1 7.8-10.3 9.5-9.4 2.7 1.5 4.2 4.8 3.5 8.1-.3 1.6-.1 2.9.3 2.9 1 0 5.6-6.9 5-7.4-.2-.2-5.9-4.4-12.6-9.4l-12.2-9.1-2.6 3.5z"/><path d="M256.3 82.1c-74.1 8.6-139.6 58.8-166.6 127.6-9.7 24.6-13.6 43.4-14.4 69.6-1 30.3 3.3 55 14.6 84.2 1.5 4 2.1 4.6 2.7 3.1 1.3-3.3.7-7-2.5-16.1-3.9-10.9-7.6-25.9-9.3-38-1.6-11.7-1.6-41.4.1-53.5 10.9-78.5 67.7-144.1 144-166 19.8-5.7 31.3-7.3 54.6-7.3 27.6-.1 47 3.2 70.5 12 67.5 25.2 115.3 83.1 128.6 155.8 2.6 14 2.6 50.8.1 64.5-2.3 12.5-5.2 23.6-8.8 34-2.1 6-2.7 9.4-2.3 11.8.8 4.3 1.5 3.5 5.2-6.8 15.1-41.3 16.7-86.4 4.6-128.3C454.8 150.9 387.2 93 306.7 82.5c-12.6-1.6-38.2-1.8-50.4-.4zm-180.8 13c-2.4 2.5-3.3 3.9-2.2 3.5 1.2-.4 3 .2 4.9 1.5l3 2.1-3.3 3.4-3.3 3.4-2.3-2.2c-1.6-1.5-2.1-2.8-1.7-4.2.5-1.7-.1-1.4-3 1.3-3.8 3.6-4.6 5.4-2.1 4.5 2.1-.9 12.7 8.6 12.1 10.8-.7 2.8.6 2.1 4.2-2.3 3.2-3.8 3.3-4 1-3.4-1.7.4-3-.1-4.6-1.8l-2.2-2.3 3-2.9 3-2.9 2.5 2.4c1.4 1.3 2.3 3 2.1 3.7-.9 2.1.2 1.5 3.4-2 3-3.2 4.1-5.9 1.7-3.8-1.9 1.5-13.1-8.4-12.4-11 .3-1.1.4-1.9.3-1.9-.1 0-2 1.9-4.1 4.1zm408.8 1.1c.9 2.5-9.8 12.1-12.6 11.2-1.6-.5-1.4.1 1.4 3.5 3.5 4.2 5.3 5.3 4.2 2.5-.3-.8.4-2.5 1.7-3.9l2.3-2.4 2.9 2.4c3.4 2.9 6 3.2 8.2.9 2.2-2.2 2-3.5-1.3-8-3.6-5-7.7-8.7-6.8-6.2z"/><path d="M115.3 106.2c-3.4 2.8-6 5.6-5.6 6.1.3.5 1 .4 1.6-.2 2.1-2.1 3.4-1.1 11.6 8.3 7.8 9 9.3 11.8 7.1 13.1-.6.4-.8 1.1-.4 1.6.6 1.1 14.7-10.3 17.5-14.2 3.7-5.2 2.2-11.7-3.2-13.9-3.7-1.6-8-.5-12.5 3.1-2 1.6-4 2.9-4.4 2.9-1.1 0-6-6.7-6-8.2 0-.8.5-1.9 1.2-2.6.7-.7.8-1.2.2-1.2-.5 0-3.7 2.3-7.1 5.2zm329.7 1.3c0 .3.6 1.4 1.2 2.5 1.1 1.7.7 2.6-3.7 7.1-2.8 2.8-7.2 6.9-9.9 9.2-4.2 3.6-5 3.9-6.8 2.8-4.6-2.9-2.4.4 6.8 10.4l9.8 10.5 3.3-3.2c1.8-1.8 3.3-3.3 3.3-3.5 0-.2-1.8 0-4.1.3-3.5.6-4.4.3-7-2.2-1.6-1.5-2.9-3.6-2.9-4.6 0-2.1 5.7-8.8 7.6-8.8 1.7 0 2.8 4.1 1.9 6.9-1 3.2.7 2.5 5.5-2.4 4.4-4.5 4.9-6.6 1.1-4.5-1.5.8-2.7.8-4.1 0-2.8-1.5-2.6-2 2.1-6.5l4-4 3.1 3.4c2.6 2.9 2.9 3.9 2.4 7.2-.7 4.6.1 4.8 3.2.8 2.8-3.4 3.4-2.3-7.6-14-6.6-7-9.2-9.1-9.2-7.4zM248 110c-2.6 2.6-2.5 5.4.1 7.9 2 1.8 2 2.1.5 3.6-3.4 3.5-.6 7.5 5.3 7.5 6.6 0 9.6-6.6 4.9-11-1.7-1.6-1.9-2.3-1-3.2 1.6-1.6 1.5-3.4-.4-5.2-2.2-2.2-7-2-9.4.4zM98.6 121.7c-.3.3-.1 1.2.4 1.8.8.9.2 1.6-2 2.5-5.6 2.3-9.3 8.9-9.2 16.1.2 10.1 10.9 18.5 20.5 15.8 6.4-1.7 12.7-8.6 12.7-13.9 0-1.3.7-2 2-2 3 0 2.4-1.3-2.1-4.9-4.7-3.8-6.1-3.4-3.5 1 4.8 8.2-3.4 16.5-12.8 12.9-4-1.5-10.4-7.8-11.6-11.6-1.3-3.9-.8-6.2 2.1-9.3 1.7-1.8 3-2.2 7-2 2.7.2 5.1 0 5.4-.3.3-.3-.9-1.6-2.7-3-4.6-3.4-5.4-3.8-6.2-3.1zm254.8 5.3c-2.8 1.1-6 5.3-7.5 9.7-1 3.1-.9 3.9.8 6.2 1.1 1.4 3.1 2.7 4.5 2.9 3.5.4 7.8-3.3 7.8-6.7 0-2.8-2.6-6.1-4.8-6.1-1.7 0-1.5-1.5.6-3.3 2.6-2.4 4.1-2.1 5.2.9.6 1.4 1.4 2.2 2 1.9 1.7-1 1.1-3.3-1.2-4.9-2.5-1.8-4.2-1.9-7.4-.6zm-303.2 1.3c-8.1 4.7-8 17 .2 19.7 9.8 3.2 18.6-10.4 11.4-17.6-2.9-3-8.4-3.9-11.6-2.1zm6.8 4.4c3.7 2.5 4.9 4.5 5 7.6 0 3.2-3.4 5.3-7.3 4.3-3.4-.8-8.7-6-8.7-8.4 0-4.8 6.3-6.8 11-3.5zm415.2 5.6c.1 1.3-1.1 6.3-2.7 11.1l-3 8.6-6-.6c-3.3-.4-7.5-1.3-9.4-2-1.9-.8-3.6-1.2-3.8-1-.6.6 6 10.6 7 10.6.4 0 .5-1.1.1-2.4-.7-2.8 1.8-3.8 7.2-2.9 3.7.6 4 1.3 2.3 6.4-1.6 4.6-2.5 5.5-4.4 3.9-3.3-2.7-2.5.1 2.1 6.9 4.4 6.7 6.8 8.4 5.7 4.1-.3-1.1.9-6.1 2.7-11l3.3-9 6.6.6c3.6.3 7.7 1.3 8.9 2.1 3.7 2.3 3.8.8.1-4.6-3.7-5.5-5.3-6.5-4.3-2.7.7 2.8-1.8 3.8-7.2 2.9-3-.5-3.4-.9-2.8-2.7 2.2-6.9 3.6-8.5 5.8-6.7 3 2.5 2.1-.5-2.3-6.9-4.9-7.4-6.2-8.4-5.9-4.7zM526 155c0 1.4-1.7 2.8-6 5-6.3 3.2-9 3.7-9 1.8 0-.6-.3-.9-.6-.5-.7.7 3.2 9.7 4.2 9.7.3 0 .4-.7.1-1.5-.4-.8-.2-1.7.3-2 1.1-.7 13 2.4 13 3.4 0 .3-2.2 1.6-4.9 2.7-3.6 1.6-5.2 1.9-6 1.1-1.7-1.7-1.3-.1.9 4.3 2 3.9 3.8 5.6 2.6 2.4-.8-2 13.2-8.7 15.2-7.2 1.7 1.5 1.5.3-.9-4.5-2-3.9-2.2-4-3-1.9-.5 1.2-1 2.2-1.2 2.2-.4 0-7.5-2.4-10.7-3.6-1-.4.1-1.4 3.3-3 3.8-2 5.2-2.3 6.3-1.3 1.9 1.5 1.8 1-.6-4.5-2.3-5-3-5.7-3-2.6zm-249.6 5.5c-.4.8-.4 2.2 0 3 .7 1.9.1 1.9-2.9-.1-2.2-1.4-2.4-1.4-3.5.5-1 1.9-.8 5 .6 11.9.4 2 .3 2.1-1.6 1-1.6-1-1.9-2-1.4-4.1.4-2 .1-2.9-1.2-3.4-2.1-.8-4.4 2-3.7 4.6.3 1.2-.4 2.1-2.4 3-2.6 1.2-2.9 1.1-5.6-2.3-1.6-2-3.2-3.6-3.7-3.6-.4 0-1.3 2-1.9 4.4-.9 3.6-1.6 4.6-4.2 5.5-1.8.6-4.3 1.1-5.5 1.1-1.9 0-2.4.5-2.4 2.6v2.6l-11.5-.4c-6.4-.1-11.9-.8-12.3-1.3-1.1-1.6-4.4-1.8-5.3-.3-1.2 1.9-39.6 1.9-40.8 0-.7-1.2-2.3-1.1-6.8.3-2.3.7-3.3 4.5-1.3 4.5.6 0 1 2.8 1 6.3 0 8.3-1.4 9.6-10.7 9.5l-6.8-.1-.3 4.1c-.2 3.2 0 4.2 1.2 4.2s14.6 20.5 14.6 22.4c0 .3-.9.6-2 .6-2.9 0-2.6 4.6.5 9.2 1.4 2 2.5 4.6 2.5 5.7 0 2.1-.4 2.1-33 2.1-21.3 0-33 .4-33 1s11.7 1 33.1 1c32.9 0 33 0 32.7 2.1-.3 2.1-.6 2.1-33.4 2l-33.2-.1-.4 3-.5 3h33.9c22.4 0 33.7.3 33.3 1-.4.6-12.8 1-34.1 1-21.6 0-33.4.4-33.4 1s11.8 1 33.5 1H158l-.1 15.2c-.1 8.4-.4 26.2-.7 39.5l-.7 24.1-2.7 2.4c-1.5 1.2-3.8 3.1-5.2 4.1-2.9 2-3.4 3.7-1.1 3.7 1.2 0 1.5 1.4 1.5 6.5v6.5h9c5.3 0 9 .4 9 1s-4.2 1-10.5 1H146v2.5c0 2.3-.4 2.5-4.5 2.5H137v-16c0-10 .4-16 1-16s1-1.8 1-3.9c0-3.3.4-4 2.2-4.3 1.8-.2 1-1.2-5-6.1l-7.1-5.7-8.1 5.7c-7.2 5.1-7.8 5.8-5.6 6.1 2.3.3 2.6.8 2.6 4.3 0 2.1.5 3.9 1 3.9.6 0 1 6.7 1 18v18h26v10h-8.5c-8.3 0-8.5.1-7.5 2 .9 1.7 2.1 2 8.6 2 6.6 0 7.5.2 7.2 1.7-.2 1.4-1.3 1.7-5.6 1.4-3.2-.1-5.2.2-5.2.8 0 .7 2.2 1.1 5.5 1.1h5.5v4c0 3-.4 4-1.6 4-.8 0-1.2.5-.9 1 .4.6 1.1.8 1.6.5.5-.4.9.2.9 1.3 0 1 .9 2.7 2 3.7s2 1.3 2 .7c0-.8 2.9-1.2 9-1.2h9v6c0 6.2-.4 6.7-4.9 6.1-.7-.2-1 .2-.6.8.3.6 1.7 1.1 3.1 1.1 2.3 0 2.4.2 2.4 7.5v7.5l7.1 4.6c48.8 31.6 109.6 39.5 165.4 21.4 11.8-3.9 33.5-13.9 42.8-19.9l4.7-3.1v-18h5c2.8 0 5-.4 5-.9s-2.1-.8-4.7-.8h-4.8l-.3-6.1-.3-6.2h10.7c9 0 10.5.2 10 1.5-.9 2.5.6 1.7 5.1-2.7 3.9-3.8 5.8-6.8 3.3-5.3-.6.4-1-1-1-3.4V402h4.4c2.5 0 4.8-.5 5.1-1 .4-.6-1.3-1-4.4-1-3.9 0-5.1-.4-5.1-1.5 0-1.2 1.4-1.5 6.3-1.5 5.8 0 8.7-1.1 8.7-3.2 0-.4-3.4-.8-7.5-.8s-7.5-.2-7.5-.4.9-2.5 2-5l1.9-4.6h9.3c8.2 0 9.5-.2 10.6-2 1.1-1.8 1-2-.8-2-1.9 0-2-.6-2-16 0-10 .4-16 1-16s1-1.8 1-4c0-3.7.2-4 2.6-4 2.3 0 1.7-.8-5-6l-7.6-6.1-5.3 3.9c-2.8 2.1-5.8 4.2-6.4 4.6-1 .6-1.3-6.2-1.3-32.3V270h26.5c17 0 26.5-.4 26.5-1s-12-1-33.9-1c-21.6 0-34.2-.4-34.6-1-.4-.7 11.2-1 33.9-1 36.2 0 35.5.1 33.8-4.2-.7-1.6-2.5-1.8-20.5-1.5-10.8.1-19.7-.1-19.7-.4 0-.3.8-1.3 1.8-2.2 1.6-1.5 4.5-1.7 19.5-1.7 11.1 0 17.7-.4 17.7-1s-11.2-1-31.6-1h-31.6l.7-4.3c.3-2.3.9-5 1.1-6 .4-1.2 0-1.7-1.4-1.7-1.5 0-2.1-.9-2.4-3.2-.7-4.5 8.7-24.8 11.4-24.8 1.6 0 1.9-.6 1.6-4.3l-.3-4.2-7.2.3-7.3.4v-7.9c0-4.5.5-8.4 1.1-9 1.3-1.3.4-3.3-1.7-3.3-.8 0-1.4-.4-1.4-.9 0-1.2-4.3-.8-5.2.4-1.1 1.6-40 1.3-40.5-.3-.6-1.6-3.4-1.5-6.9.3-2 1-5.9 1.5-12.5 1.5h-9.6l-.6-2.9c-.6-2.6-.9-2.8-4.8-2.7-2.3 0-4.4-.4-4.6-.9-1.1-3.3-4.5-7.5-6.1-7.5-1.1 0-3.3.7-5 1.6-4.9 2.4-6.8 1.6-6.4-2.9.3-2.7-.1-3.9-1.2-4.3-2-.8-4.6 1.3-4.6 3.6 0 1-.6 2.3-1.4 2.9-1.2 1-1.6.8-2.1-1.1-.4-1.3-1.8-3.5-3.2-4.9-1.4-1.5-2.3-3.5-2.2-4.5.7-3.8-3.5-6.2-4.7-2.9zm-24.5 29.4c1 .6 1.2 2.7.9 7.9-.2 4.5 0 6.8.7 6.6.6-.3.9-3.2.7-7.4-.4-6.9-.3-7 2.2-7 2.6 0 2.6.1 2.6 7.1 0 5.9-.3 7-1.5 6.5-.8-.3-1.5-.1-1.5.3 0 .5 9.3 1 20.7 1 15.2.1 20.5-.1 19.7-.9-.8-.8-6.6-1-18.3-.8l-17.1.3v-6.6c0-5.2.4-6.8 1.6-7.3 2.4-.9 33.7-.7 35.3.3 1 .6 1.2 2.7.9 7.9-.2 4.5 0 6.8.7 6.6.6-.3.9-3.2.7-7.4l-.4-7h6.3l-.3 6.7c-.3 5.8-.6 6.8-2 6.7-1-.1-1.8.2-1.8.7 0 .5 1.2.8 2.8.7l2.7-.2-.3-6.9c-.3-5.1-.1-7.2.9-7.8 1.6-1 32.9-1.2 35.3-.3 1.2.5 1.6 2.1 1.6 7.5 0 3.9.4 6.9 1 6.9s1-3 1-7c0-6.8.1-7 2.5-7s2.5.2 2.5 7c0 5.5-.3 6.8-1.4 6.4-.8-.3-1.7 0-2.2.7-.5.9.1 1 2.6.6 1.8-.4 6.8-.7 11.1-.7h7.9v-7c0-6.8.1-7 2.5-7s2.5.2 2.5 7v7h18v-7c0-6.8.1-7 2.5-7 2.5 0 2.5.1 2.5 8v8H278.5c-79 0-119.5-.3-119.5-1 0-.6.6-1 1.3-1 .9 0 1.1-1.9.9-7l-.4-7h6.3l-.3 6.7c-.3 5.8-.6 6.8-2 6.7-1-.1-1.8.1-1.8.5 0 .3 5.8.6 12.9.6 7.1 0 12.7-.3 12.4-.8-.2-.4-1.2-.7-2.1-.7-1.5 0-1.7-.9-1.4-6.5.4-6.1.5-6.5 2.8-6.5s2.4.3 2.4 7c0 6 .3 7 1.8 7 .9 0 14.8.3 30.7.6 21.4.4 28.5.2 27.3-.6-1.2-.7-7.5-1-18.3-.8l-16.5.3v-6.6c0-3.6.3-6.9.7-7.2 1-1 34.6-.8 36.2.2zM413 209.5v2.5H143v-5h270v2.5zM400 232v5H159v-10h241v5zm1 7.5c0 1.3-14.3 1.5-122.5 1.5s-122.5-.2-122.5-1.5 14.3-1.5 122.5-1.5 122.5.2 122.5 1.5zm-234.2 65.2l.2 45.3h-9.3l.6-22.3c.4-12.2 1-32.7 1.3-45.5l.7-23.3 3.1.3 3.1.3.3 45.2zm37.9-36c-.4 5.4-.7 12.6-.7 16v6.3h-11.1c-9.8 0-11-.2-9.9-1.5.9-1.1 3.4-1.5 9.4-1.5h8.1v-13c0-11.7-.2-13-1.7-13-1.8 0-2.3-1.1-1.1-2.3.3-.4 2.2-.7 4.1-.7h3.5l-.6 9.7zm8.3 35.8V350h-9.3l.6-21.8c.4-11.9 1-32.4 1.3-45.5l.7-23.7h6.7v45.5zm38-41.2c0 2.4-.3 9.7-.6 16.3l-.7 11.9h-10.8c-6 0-10.9-.2-10.9-.5 0-2.1 3.2-3 10.7-3h8.3v-13c0-12.3-.1-13-2-13-2.2 0-2.7-1.5-.7-2.3.6-.3 2.4-.6 4-.6 2.5-.1 2.7.2 2.7 4.2zm8 41.2V350h-9.3l.6-18.3c.4-10 .9-29.9 1.3-44.2.3-14.3.7-26.6.9-27.3.3-.6 1.8-1.2 3.5-1.2h3v45.5zm38-38.7c0 3.8-.3 11-.6 16l-.7 9.1-10.8.3c-6 .2-10.9.1-10.9-.2 0-2.1 3.2-3 10.7-3h8.3v-13c0-12.3-.1-13-2-13-2.2 0-2.7-1.5-.7-2.3.6-.3 2.4-.6 4-.6 2.7-.1 2.7-.1 2.7 6.7zm8 38.7V350h-9.3l.6-14.8c.4-8.1 1-28.2 1.3-44.7.4-16.5.8-30.3 1.1-30.8.2-.4 1.7-.7 3.4-.7h2.9v45.5zm38-36.3c0 5.1-.3 12.3-.6 16l-.7 6.7-10.8.3c-6 .2-10.9.1-10.9-.2 0-2.1 3.2-3 10.7-3h8.3v-13c0-12.3-.1-13-2-13-2.2 0-2.7-1.5-.7-2.3.6-.3 2.4-.6 4-.6l2.7-.1v9.2zm8 36.3V350h-4.5c-3.6 0-4.5-.3-4.5-1.8 0-.9.5-14.5 1-30.2s1-35 1.1-43c0-8 .3-14.8.6-15.3.2-.4 1.7-.7 3.4-.7h2.9v45.5zm38.7-34.8c-.4 5.8-.7 13-.7 16v5.3h-11.6c-10.2 0-11.5-.2-10.4-1.5.9-1.1 3.4-1.5 9.6-1.5h8.4v-13c0-12.6-.1-13-2.1-13-1.8 0-1.9-.2-.9-1.5.7-.8 2.8-1.5 4.8-1.5h3.5l-.6 10.7zm5.3 34.8V350h-6.3l.6-20.3c.4-11.1 1-31.6 1.3-45.5.7-23.6.8-25.2 2.5-25.2 1.8 0 1.9 1.9 1.9 45.5zm-198.2-29.3l-.3 9.3h-12l-.3-9.3-.3-9.2h13.2l-.3 9.2zm46 0l-.3 9.3h-12l-.3-9.3-.3-9.2h13.2l-.3 9.2zm46 0l-.3 9.3-5.7.3-5.8.3V266h12.1l-.3 9.2zm46.2.3v9.5l-6-.1-6-.2V266h12v9.5zm46 0v9.5h-12v-19h12v9.5zm-177.3 29.2c-.4 5.8-.7 13.2-.7 16.5 0 5.1-.2 5.8-1.9 5.8-1.1 0-2.2-.9-2.6-1.9-.3-1-1.7-3.1-3.2-4.5-3-3.1-9.5-3.6-13.1-1l-2.2 1.5v-12.3c0-8.3.4-12.8 1.2-13.6.8-.8 5-1.2 12.2-1.2h10.9l-.6 10.7zm46.3-3.4c0 4.1-.3 11.5-.6 16.5-.6 7.8-1 9.2-2.4 9.2-1 0-2.3-1.3-3-3-2.3-5.7-10.2-7.9-15.5-4.4l-2.5 1.6v-12.4c0-8.3.4-12.8 1.2-13.6.8-.8 4.9-1.2 12-1.2H250v7.3zm46 2.4c0 15.9-1 23.3-3 23.3-1 0-2.3-1.3-3-3-.7-1.7-2.2-3.7-3.4-4.5-2.7-2-9.1-1.9-12.1.1l-2.5 1.6v-12.4c0-8.3.4-12.8 1.2-13.6.8-.8 4.9-1.2 12-1.2H296v9.7zm46 2.2c0 16.1-.7 21.1-3.1 21.1-1.1 0-1.9-.6-1.9-1.4 0-.8-1.3-2.8-2.9-4.5-2.4-2.6-3.7-3.1-7.3-3.1-3.1 0-5.1.6-6.6 2l-2.2 2.1v-12.9c0-8.6.4-13.2 1.2-14 .8-.8 4.9-1.2 12-1.2H342v11.9zm46.7.3c-.4 6.6-.7 14.1-.7 16.5 0 3.9-.2 4.3-2.5 4.3-1.6 0-2.5-.6-2.5-1.6 0-.8-1.3-2.9-2.9-4.5-3.8-3.7-10.2-4.1-13.8-.7l-2.3 2.1v-12.9c0-8.8.4-13.4 1.2-14.2.8-.8 5.1-1.2 12.7-1.2h11.4l-.6 12.2zM135 363v16h-6v-32h6v16zm300 .1v16l-2.7-.3-2.8-.3-.3-14.5c-.1-7.9 0-15 .2-15.7.3-.7 1.7-1.3 3.1-1.3h2.5v16.1zM167 365v5h-16v-10h16v5zm46 0v5h-16v-4.3c0-2.4.3-4.7.7-5 .3-.4 3.9-.7 8-.7h7.3v5zm192.5 0v4.5l-11.2.3-11.3.3v-10.2l11.3.3 11.2.3v4.5zm-180.4 20l1.6 7-3.9 1.8-3.8 1.9-3.1-4.8-3.1-4.9h-22.4l-1.4 3.7c-3.3 9.3-4 10.5-5.5 9.3-.8-.7-3.3-1-5.7-.8l-4.2.3-2.4-6.3-2.4-6.2H150v-8h73.5l1.6 7zm48.3-5.3c.2 1 .7 3.4 1.1 5.3.4 1.9.8 4.2 1.1 5.1.3 1-.8 2.1-3.1 3.2l-3.4 1.6-3.7-4.4-3.6-4.5h-7.3c-7 0-7.4.1-11.7 4-4.3 3.7-4.7 3.9-7.7 2.7-1.7-.6-3-1.6-2.7-2.2.2-.6.9-3.6 1.6-6.8l1.1-5.7H254c17.1 0 18.9.2 19.4 1.7zm49.9 2c.4 2.1.9 5.2 1.3 6.8.5 2.8.3 3.1-3.2 4.4l-3.8 1.4-3.5-4.2c-3.6-4.1-3.6-4.1-10.7-4.1-6.9 0-7.3.1-11.7 4-4 3.6-4.8 3.9-7.2 3-2.4-.9-2.7-1.4-2.1-4.3.4-1.7.9-4.9 1.3-7l.6-3.7h38.4l.6 3.7zm85-1c0 1.3-.1 3-.2 3.8-.1 1.2-1.9 1.5-9.9 1.5h-9.8l-2.3 6.3-2.2 6.3-6.2-.2-6.2-.1-2.3-6.2-2.4-6.1H345l-3.5 4.9-3.6 5-3.2-1.7c-1.8-.9-3.3-1.8-3.5-1.8-.2-.1.7-4.9 2.3-12.2l.5-2.2 37.2.2 37.2.3-.1 2.2zm-39.7 13.7c2.3 5.7 2.3 5.9.5 8.1l-1.8 2.3-2.9-2.3c-4.3-3.6-13.2-3.5-18 .1-1.9 1.5-3.4 2.1-3.4 1.4 0-.6-.9-2.5-2.1-4.1l-2-2.9 2.2-3.3c4.5-6.5 3.9-6.2 14.9-5.7l10.2.5 2.4 5.9zm-198 .1c2.1 5.1 2.2 6.1 1 7.3-1.2 1.2-1.7 1.2-3.7-.2-1.7-1.1-4.6-1.6-10.1-1.6H150v-12.1l9.1.3 9.1.3 2.4 6zm44.7-1.8l2.9 4.1-2.8 3.5-2.8 3.5-2.4-1.9c-3.8-3-12.8-2.6-17.2.6l-3.5 2.5-1.6-2.1c-1.5-2-1.5-2.6.9-8.6l2.6-6.4 10.5.3 10.5.3 2.9 4.2zm49.4-.9l3 3.7-3.2 3.8-3.2 3.7-3.7-1.5c-3.2-1.4-3.9-1.4-6.6 0-4 2-4 2-7.9-2.6l-3.3-4.1 3.3-3.4c3.2-3.3 3.5-3.4 10.9-3.4 7.7 0 7.7 0 10.7 3.8zm48.8-.2l3.1 3.6-3.7 4c-3.6 4-3.6 4-6.7 2.4-2.9-1.5-3.5-1.5-7.2 0-2.2.9-4.2 1.5-4.3 1.3-.2-.2-1.6-2.1-3.1-4.2l-2.8-3.9 3.3-3.4c3.2-3.3 3.6-3.4 10.8-3.4 7.5 0 7.6 0 10.6 3.6zm95.1-2c-.3.9-.6 3.6-.6 6v4.4h-8.2c-7 0-8.5.3-10.5 2.2-2.2 2.1-2.4 2.1-3.7.3-1.1-1.5-.9-2.7 1.2-8.2l2.5-6.3h10c8.6 0 9.8.2 9.3 1.6zm-241.8 13.1c1.8 1.5 2 2.6 1.5 6.5l-.6 4.8H150v-13h7.4c5.6 0 7.9.4 9.4 1.7zm43.1.9c2.5 2.1 3.1 3.3 3.1 6.5v3.9h-23v-3.8c0-3.3.5-4.3 3.7-6.5 5.2-3.7 11.9-3.7 16.2-.1zm153.5-.2c2.8 2.1 3.1 2.8 2.8 6.5l-.4 4.1H343v-3.4c0-2.8.7-4.1 3.7-6.5 4.9-4.1 12-4.4 16.7-.7zm45 4.3l.1 6.3H388v-4.2c0-2.9.7-4.9 2.2-6.5 2-2.2 2.9-2.3 10.2-2.1l8 .3v6.2zm-150-4.2c3.4 1.4 3.6 1.8 3.6 6v4.5h-16v-4.3c0-3.9.3-4.5 3.3-6 4.1-2 4.7-2 9.1-.2zm48.6 0c2.6 1.4 3 2.1 3 6v4.5h-15v-4.5c0-4.2.3-4.7 3.3-6 4.1-1.8 5.2-1.8 8.7 0zM213 422v6h-23v-12h23v6zm49 0v6h-16v-12h16v6zm48 0v6h-15v-12h15v6zm56 0v6h-23v-12h23v6zm-137 19.5c0 27.2.2 26.3-6.5 25.1l-3.5-.7v-16.8l3.6-.3 3.6-.3.1-9.3.2-9.2h-3.7c-2.7 0-3.8-.4-3.8-1.5s1.1-1.5 3.8-1.5c3.5 0 3.7-.2 3.7-3s-.2-3-3.9-3c-3.8 0-3.9 0-2.1-2 1.1-1.2 3.1-2 5.2-2h3.3v24.5zm14 .5v25h-11v-17.9l3.7-.3 3.7-.3.1-9.2V430h-3.7c-2.7 0-3.8-.4-3.8-1.5s1.1-1.5 3.8-1.5c3.4 0 3.7-.2 3.7-3 .1-2.8-.2-3-3.7-3-3.1 0-3.8-.4-3.8-2 0-1.8.7-2 5.5-2h5.5v25zm34 0v25h-10v-18h8v-19h-4c-2.9 0-4-.4-4-1.5s1.1-1.5 4-1.5c3.8 0 4-.2 4-3s-.3-3-3.5-3c-1.9 0-3.5-.4-3.5-.8 0-1.8 2.6-3.2 5.7-3.2h3.3v25zm15 0v25.1l-5.6-.3-5.6-.3-.1-8.8-.2-8.7h7.5v-18.9l-3.5-.3c-2-.2-3.5-.8-3.5-1.3 0-.6 1.5-1.1 3.5-1.3 3.1-.3 3.5-.6 3.5-3.3 0-2.6-.3-2.9-3.4-2.9-2.5 0-3.5-.5-3.9-2-.5-1.8 0-2 5.4-2h5.9v25zm33 0v25h-9v-18h7v-18.9l-3.7-.3c-2.1-.2-3.8-.8-3.8-1.3 0-.6 1.7-1.1 3.8-1.3 3.4-.3 3.7-.6 3.7-3.3 0-2.7-.3-2.9-3.7-2.9-3.5 0-3.6 0-1.8-2 1-1.1 3.1-2 4.7-2h2.8v25zm14.8-.3l-.3 24.8-5.2.3-5.3.3V449h7v-19h-3.5c-2.4 0-3.5-.5-3.5-1.5s1.1-1.5 3.5-1.5c3.2 0 3.5-.2 3.5-3s-.3-3-3.5-3c-2.8 0-3.5-.4-3.5-2 0-1.8.7-2 5.5-2h5.5l-.2 24.7zM213 436.4v6.5l-11.2-.2-11.3-.2-.3-6.3-.3-6.2H213v6.4zm48.8-.2l-.3 6.3h-15l-.3-6.3-.3-6.2h16.2l-.3 6.2zm48 0l-.3 6.3-7.2.3-7.3.3V430h15.1l-.3 6.2zm56.2.3v6.5h-23v-13h23v6.5zM213 450v6h-8.5c-5.8 0-9.6-.5-11.5-1.5-2.6-1.4-3-2.1-3-6V444h23v6zm48.8-.3l-.3 5.8h-15l-.3-5.8-.3-5.7h16.2l-.3 5.7zm48.2.3v6h-15v-12h15v6zm56 0v6h-23v-12h23v6zm-34.2 18.5c-1.3 1.4-24.7 5.5-37.1 6.6-10.6 1-17 1-28 .1-12.6-1.1-37.1-5.3-38.5-6.7-.3-.3 23-.5 51.8-.5 28.8 0 52.1.2 51.8.5zM71.1 161.7c-2.1 1.9-12.2 19.5-11.5 20.2.2.2 1.3-.4 2.3-1.3 1.9-1.8 2.3-1.7 10.8 2.9 13.1 7.1 14.6 8.3 13.9 11.1-1.3 5.1 1.5 2 6.5-7.2 5.9-11.1 6.7-16 3.2-19.6-2.8-2.7-7.5-2.8-11.1-.1l-2.7 2-.1-3.5c-.1-5.8-6.6-8.3-11.3-4.5zM497 177.4c0 3.1-.6 3.5-13.3 8.7l-10.9 4.4-1.8-2.2c-3-3.7-2.8-1.7.4 6.7 3.3 8.4 4.6 9.9 4.6 5.2 0-2.5.7-3.1 5.6-5.1 3-1.3 5.6-2.2 5.8-2 .7 1.1 4.6 11.3 4.6 12.3 0 .7-2.4 2.2-5.2 3.4l-5.3 2.3-1.8-2.2c-1-1.2-2-1.9-2.3-1.6-.8.8 5.8 16.7 6.7 16.1.4-.2.5-1.2.2-2.2-.6-2.6 1-3.7 13.3-8.7l10.9-4.5 1.8 2.2c3.2 3.8 3 1-.3-7.2-3.3-7.8-4.4-9-4.5-4.8 0 2.2-3.6 4.9-8.2 6.3-2 .5-2.6-.1-4.8-5.1-1.4-3.1-2.5-6.2-2.5-6.8 0-.7 2.3-2 5-3 4.9-1.8 5.2-1.8 7-.1 1.1 1 2.2 1.6 2.4 1.4.6-.6-5.8-15.9-6.6-15.9-.5 0-.8 1.1-.8 2.4zM17.8 188c-.9 2.8-1.2 5-.8 5 .5 0 1-.5 1.2-1.2.3-.9 2.7-.4 8.1 1.6 4.2 1.5 7.7 2.9 7.7 3.1 0 .1-.7 1.9-1.6 4-1.1 2.8-1.9 3.5-3.2 3-.9-.4-4.3-1.6-7.4-2.7-4.6-1.6-5.8-2.4-5.9-4.1 0-1.3-.8-.2-1.8 2.8-1.7 4.8-1.9 7.3-.2 4.7.6-.9 2-.8 6.2.7 8.4 2.9 8.9 3.2 8.9 4.7 0 3.6 1.8.7 4.5-7.4 2.7-7.9 3.3-8.8 6.2-9.7l3.2-1.1-3.1-1.2c-2.6-1-3.4-.9-4 .2-1.2 2-15.4-3.3-15.2-5.7.3-3.3-1.1-1.6-2.8 3.3zm33.9 12.1c-3 8.4-3 10.7 0 7l1.8-2.2 12.2 4.7c11.7 4.5 12.2 4.8 12.5 7.8.4 3.5.2 3.9 4.5-7.2 2.7-6.8 2.5-8.9-.4-5.3l-1.8 2.2-7-2.6c-3.8-1.5-9.4-3.6-12.2-4.7-4.7-1.7-5.3-2.3-5.3-4.9 0-4.9-1.4-3.3-4.3 5.2zm-4.9 24c-1 .5-2.3 1.9-2.9 3.1-1.4 2.6-5.9 22.1-5.2 22.8.2.3 1.3-.6 2.3-2l1.9-2.5 11.2 2.3c13.2 2.7 15.3 3.6 14.6 6.3-.3 1.2-.1 1.9.6 1.6 1.4-.4 4.6-14.7 4.6-21 .1-5.9-1-8.1-4.7-9.6-3.8-1.6-7.6-.1-10.2 4.1-1.8 3-2 3.1-2 1 0-2.7-4.2-7.2-6.7-7.2-1 0-2.6.5-3.5 1.1zm467.9.7c.7 2.8-1.2 3.6-14.1 6.7l-11.9 2.7-1.8-2.3c-1-1.3-1.9-2.2-2.1-1.9-.7.8 3.4 17 4.2 17 .5 0 1-1.2 1.2-2.7.3-2.6.8-2.9 12.7-5.6l12.5-3 1.8 2.3c3.2 3.9 3.1 2.7-.3-11.3-.6-2-1.4-3.7-1.8-3.7-.5 0-.7.8-.4 1.8zm5.9 28.5c-.7 2.9-1.8 3.1-18.3 4.2l-9.2.6-.7-2.5c-1.2-4.8-2.7-2.9-2 2.6.3 2.9.6 7 .6 9 0 2.1.5 3.8 1 3.8.6 0 1-.8 1-1.8s.5-2.3 1.2-3c1.5-1.5 12.8-1.6 12.8-.1 0 2.6-2.4 5-7 7-2.7 1.1-5.6 2.9-6.5 3.9-2.3 2.6-2.3 8.4 0 11 2.4 2.7 3.7 2.5 2.9-.4-.5-1.9.3-3 4.5-6.2 2.8-2.2 5.6-5 6.2-6.4l1.2-2.5 5.8 2.8c5.6 2.7 5.8 2.8 5.2 6.2-.6 3.9 1.6 5.7 4.2 3.5 3.8-3.2.7-9-6.2-11.6-6.1-2.2-8.5-4.2-8.1-6.8.3-1.8 1.1-2.1 5.5-2.4 4.8-.3 5.3-.1 6.7 2.5 1.8 3.2 1.8 3.1 1.6-6.2-.2-7.8-1.3-11.3-2.4-7.2zM1.1 263.2c0 2.9.3 4.7.6 4 .2-.7 2.2-1.2 4.4-1.2H10l-.6 4.2c-.4 2.4-.7 4.4-.8 4.4-.1.1-1.6-.1-3.3-.3-2.1-.3-3.3-1.1-3.4-2.2-.2-2.3-1.6 3.9-1.8 7.4 0 2.5.1 2.7 1 1.2.8-1.4 2.4-1.7 8.5-1.7 6.8 0 7.5.2 8.4 2.2.8 2.1.9 2.1.9.3.1-1.1.4-3.8.7-6 .5-3.6.4-3.8-.9-2.3-.8 1-2.8 1.8-4.6 1.8-3 0-3.1-.1-3.1-4.5 0-4.5 0-4.5 3.5-4.5 2.8 0 3.8.5 4.5 2.2.7 1.9.9 1.6.9-1.9.1-2.3.4-4.8.7-5.7.3-.9.1-1.6-.5-1.6s-1.1.7-1.1 1.5c0 1.7-2.4 1.9-10.7.9-3.5-.5-5.3-1.1-5.3-2 0-.8-.4-1.4-1-1.4-.5 0-1 2.4-.9 5.2zm53.6.9c-2.6 1.5-4.7 7-4.7 11.9v4.1l-5.2-.3c-4.4-.2-5.5-.7-6.3-2.6-1.8-4.1-2.5-2.3-2.5 6.3 0 5 .4 8.5 1 8.5s1-.9 1-2c0-2.4-.4-2.3 13.5-2.1 13 .3 14.5.6 14.5 3.2 0 1 .4 1.9.9 1.9s1.2-4.7 1.6-10.4c.8-11.3-.3-16.9-3.5-18.6-2.4-1.3-8-1.2-10.3.1z"/><path d="M90.7 286.7c-1.3 1.3-.7 3.5.8 2.9 1.2-.4 1.5 1.8 1.7 15.2l.3 15.7 4.3.3 4.2.3V286h-5.3c-3 0-5.7.3-6 .7zm9.3 16.8V319h-5v-31h5v15.5zm20 0V321h16v-35h-16v17.5zm14 0V319h-5v-31h5v15.5zm286 0V321h16v-35h-16v17.5zm14 .4v15.8l-2.5-.5-2.5-.4v-14.7c0-8.1.3-15.1.7-15.4.3-.4 1.5-.7 2.5-.7 1.7 0 1.8 1.1 1.8 15.9zm20-.4V321h6.5c3.7 0 6.5-.4 6.5-1s-.9-1-2-1c-2 0-2-.5-1.8-15.3l.3-15.2h2.5c2.4 0 2.5.4 3.1 7l.5 7 .2-8.1.2-8.2-8-.1-8-.1v17.5zm37.6-5.9c-.8 6.6-.3 7.5 2.1 4.5 1.7-2 2.1-2.1 4.7-1 2.7 1.3 2.8 1.5 2.3 6.7-.3 3-.8 5.6-1 5.8-.2.2-1.8.7-3.6 1-2.7.6-3.3.4-3.8-1.5-1-4-2-2.1-2.9 5.9-.6 4.4-.6 8-.2 8 .5 0 1.1-.6 1.4-1.4.8-2 4.8-3.4 28.2-9.6 2.4-.6 4.2-1.7 4.2-2.5 0-.7-5.5-4.4-12.2-8.1-12.9-7-16.8-9.9-16.8-12.1 0-.7-.4-1.3-.9-1.3-.4 0-1.1 2.5-1.5 5.6zM67 300.8c0 3.1-1.8 3.8-14.4 5.6-12.1 1.7-14.6 1.4-14.6-2 0-.8-.4-1.4-1-1.4-1.2 0-1.3-1.5 1 13.6 1.1 7.1 2 13.5 2 14.1 0 .7.5 1.3 1 1.3.6 0 1-.8 1-1.9 0-1 .7-2.4 1.5-3.1 2.2-1.8 12.7-2.4 18.2-1.1 6.1 1.6 7.4 2.7 6.4 5.4-1.1 3.1-.3 4.7 2.4 4.7 3.1 0 4-3.1 2.1-6.8-2.4-4.7-8.2-6.5-20.7-6.4l-10.7.1-.5-3.2c-.2-1.8-.3-3.4-.1-3.6.2-.2 6.1-1.3 13-2.3 13-1.9 15.4-1.6 15.4 1.8 0 .8.5 1.4 1.1 1.4.7 0 .9-1 .5-2.5-.3-1.3-.9-5.2-1.3-8.5-.5-5.6-2.3-9.5-2.3-5.2zM459.2 349c-.5 1.4-1.9 4.8-3.1 7.7-3.6 9.2-11.7 24.6-17.8 33.8-8.2 12.4-14.8 20.2-27.6 32.8l-11 10.7 4.3 5.2 4.4 5.1-3.5 2.9c-6.7 5.7-22.6 15.7-34.4 21.6-29.7 14.9-63.3 22.1-97 20.9-31.6-1.2-59-8.1-85.8-21.9-9.6-4.9-26.8-15.9-33-21l-2.8-2.3 4.5-5.5 4.5-5.4-5.7-5c-20.9-18.4-39.4-44.1-49.8-69.3-2.8-6.7-5-10.9-5.4-10.1-.4.7-2.4 7.1-4.5 14.3-2.1 7.1-4 13.2-4.1 13.3-.1.2-6.7-3.2-14.6-7.6-7.9-4.4-14.4-7.9-14.5-7.8-.2.1 1.3 4.3 3.3 9.2C70.8 383.4 80 401 87.2 412c3.5 5.2 6.6 10 7 10.6.4.7-1.5 2.7-4.7 5-3 2.1-5.5 4.2-5.5 4.6 0 1.5 15.9 19.8 25.5 29.3 31.3 30.9 71 52.7 114.5 62.9 45.2 10.7 97 7.7 139.6-7.9 15.3-5.6 38.6-17.4 52-26.4 13.8-9.2 30.5-23.2 41.4-34.7 8.1-8.5 19-21.8 19-23.1 0-.5-2.4-2.6-5.3-4.7l-5.3-3.8 7.3-11c8.4-12.8 16.9-29 21.9-41.9 1.9-5 3.4-9.2 3.2-9.4-.2-.1-6.4 3.3-13.8 7.6s-13.7 7.8-14 7.9c-.3 0-1.4-3-2.4-6.6-1.1-3.7-3.2-10.6-4.7-15.3-2.4-7.8-2.8-8.4-3.7-6.1zm3.9 23.2c1.7 5.7 3.5 10.7 3.9 11.1.4.4 4.7-1.5 9.6-4.4 4.9-2.8 9.7-5.5 10.6-6 1.5-.8 1.4-.1-.8 4.8-6 13.7-21.4 40-24.6 41.9-.5.3-4.1-1.9-8.1-4.8-4-3-7.7-5.7-8.4-6.1-.7-.4-3.4.9-6.4 3.2-4.9 3.7-17.6 11.3-21 12.6-.8.3.9-2 3.9-5.2 12.6-13.3 24.4-30.5 33.3-48.6 2.4-4.8 4.5-8.7 4.6-8.7.1 0 1.7 4.6 3.4 10.2zm-358.6-3c7.6 16.5 19.8 34.6 32 47.7 4.3 4.4 7.3 8.1 6.8 8.1-1.4 0-19-10.6-23.3-14-2.1-1.6-4-3-4.3-3-.2 0-4 2.7-8.3 6-4.3 3.3-8.1 6-8.5 6-.9 0-10.5-14.6-15.6-23.5-4.8-8.6-11.8-23.4-11.2-23.9.2-.2 5.1 2.3 10.9 5.5 5.8 3.2 10.7 5.9 11 5.9.3 0 1.9-4.7 3.5-10.5 1.7-5.8 3.3-10.5 3.6-10.5.3 0 1.8 2.8 3.4 6.2zm31.9 67.9C190.9 490 272 508.4 345 484.4c35.8-11.8 67.8-32.9 91.5-60.3 4.3-5 8.3-9.1 8.7-9.1.5 0 6.3 4.1 12.8 9.1l11.9 9.2-7.5 8.7c-37.8 44.3-87.4 71.8-146.9 81.7-15.3 2.5-54.2 2.5-70 0-51.4-8-96.8-30.6-132.5-65.7-11-10.8-22.3-23.7-21.8-25 .2-.5 5.7-4.9 12.2-9.8l11.9-8.9 5.9 6.9c3.3 3.8 10.1 11 15.2 15.9z"/><path d="M401.1 465.6c-3.6 2.2-4.1 2.8-2.8 3.6 2.4 1.3 7.9 9.6 7.2 10.8-1.2 2 1.1.9 4.8-2.1 2.9-2.4 3.7-3.7 3.5-5.8-.2-2-.9-2.7-3-2.9-1.9-.2-2.5-.8-2.1-1.8.5-1.4-1.3-4.4-2.6-4.4-.3 0-2.6 1.2-5 2.6z"/></symbol><symbol viewBox="-16.67 -16.67 433.33 433.33" id="icon-MPoint" xmlns="http://www.w3.org/2000/svg"><path d="M97.1 13.6c-39.3 5.7-70.5 32.6-81.3 70.1l-2.3 7.8v218l2.3 7.8c11 38.1 42.1 64.5 82.6 70.2 7.8 1.1 19.5 1.5 40.8 1.5H169V12l-31.2.1c-20.6.1-34.5.6-40.7 1.5zm130.2-.3c.4 1.2 11.4 16.9 44 63.2 6.6 9.3 14.1 20 16.6 23.6 16.8 23.9 19.7 27.8 20.6 27.6.5-.2 5-6.2 10-13.3 5-7.1 15.2-21.5 22.5-31.9 24.9-35.3 23.5-33 21.7-35.8-1.9-2.9-12.6-12.5-18-16.1-13.3-9-27.8-14.6-44.6-17.1-13.6-2-73.6-2.2-72.8-.2z"/><path d="M228 252.4V389h30.3c31.1 0 46.8-1.3 56.4-4.5 2.4-.8 4.9-1.5 5.5-1.5 1.9 0 17.9-8 23.3-11.7 16.6-11.3 31.5-30.5 37.1-48 4.9-15.3 4.7-10.8 5.1-109.8.3-84.7.2-92.9-1.2-91.4-.9.8-4.4 5.6-7.8 10.5-33.5 48.6-67.4 96.3-68.4 96.4-.6 0-4.9-5.4-9.5-12.1-4.5-6.6-11-15.8-14.3-20.4-3.3-4.6-13-18.4-21.5-30.6-8.5-12.2-18.4-26.3-21.9-31.3s-7.9-11.3-9.7-14l-3.4-4.8v136.6zm96.4 19.1c7.8 3.9 13.8 10 17.8 18.3 3 6.1 3.3 7.4 3.3 16.2 0 8.7-.3 10.1-3.3 16.1-5 10.4-14.1 18-24.2 20.7-8.7 2.2-10.8 2.3-17.5.7-16.8-3.9-28.3-15.8-30.5-31.7-2.6-18.3 6.9-34.6 24.5-42 3-1.3 6.5-1.6 14-1.5 8.9.2 10.7.6 15.9 3.2z"/></symbol><symbol viewBox="-10.47 -10.47 356.04 356.04" id="icon-Skills" xmlns="http://www.w3.org/2000/svg"><path d="M311.175 115.775c-1.355-10.186-1.546-27.73 7.915-33.621.169-.108.295-.264.443-.398 7.735-2.474 13.088-5.946 8.886-10.618l-114.102-34.38L29.56 62.445S8.403 65.469 10.293 98.339c1.026 17.89 6.637 26.676 11.544 31l-15.161 4.569c-4.208 4.672 1.144 8.145 8.88 10.615.147.138.271.293.443.401 9.455 5.896 9.273 23.438 7.913 33.626-33.967 9.645-21.774 12.788-21.774 12.788l7.451 1.803c-5.241 4.736-10.446 13.717-9.471 30.75 1.891 32.864 19.269 35.132 19.269 35.132l120.904 39.298 182.49-44.202s12.197-3.148-21.779-12.794c-1.366-10.172-1.556-27.712 7.921-33.623.174-.105.301-.264.442-.396 7.736-2.474 13.084-5.943 8.881-10.615l-7.932-2.395c5.29-3.19 13.236-11.527 14.481-33.183.859-14.896-3.027-23.62-7.525-28.756l15.678-3.794c.001.006 12.198-3.142-21.773-12.788zm-152.642-.421l30.688-6.307 103.708-21.312 15.451-3.178c-4.937 9.036-4.73 21.402-3.913 29.35.179 1.798.385 3.44.585 4.688L288.14 122.8l-130.897 32.563 1.29-40.009zM26.71 147.337l15.449 3.178 99.597 20.474 8.701 1.782 26.093 5.363 1.287 40.01-134.534-33.471-13.263-3.296c.195-1.25.401-2.89.588-4.693.812-7.942 1.023-20.311-3.918-29.347zm-6.002-50.58c-.187-8.743 1.371-15.066 4.52-18.28 2.004-2.052 4.369-2.479 5.991-2.479.857 0 1.474.119 1.516.119l79.607 25.953 39.717 12.949-1.303 40.289L39.334 124.07l-5.88-1.647a3.56 3.56 0 0 0-.735-.113c-.459-.033-11.475-1.047-12.011-25.553zm119.871 184.109L23.28 247.98a3.489 3.489 0 0 0-.733-.116c-.467-.031-11.488-1.044-12.021-25.544-.19-8.754 1.376-15.071 4.519-18.288 2.009-2.052 4.375-2.479 5.994-2.479.859 0 1.474.115 1.519.115 0 0 .005 0 0 0l119.316 38.908-1.295 40.29zm153.705-41.407c.185 1.804.391 3.443.591 4.693l-147.812 36.771 1.292-40.01 31.601-6.497 4.667 1.129 17.492-5.685 80.631-16.569 15.457-3.18c-4.942 9.035-4.737 21.406-3.919 29.348zm8.142-54.375a2.84 2.84 0 0 0-.791.122l-11.148 3.121-106.148 29.764-1.298-40.289 34.826-11.359 84.327-27.501c.011-.005 4.436-.988 7.684 2.315 3.144 3.214 4.704 9.537 4.52 18.28-.55 24.498-11.571 25.516-11.972 25.547z"/></symbol><symbol viewBox="-6.56 -6.56 53.13 53.13" id="icon-Udacity" xmlns="http://www.w3.org/2000/svg"><path d="M13.3 0L0 7.7v17.6C0 33.4 6.5 40 14.6 40c2.7 0 5.2-.7 7.4-1.9l10.8-6.2C37.1 29.6 40 25.2 40 20V1.6L37.4.1 26 6.2v19.2c0 .8-.1 1.6-.2 2.4-.2.8-.4 1.5-.7 2.2l-.3.6c-.4 0-2.9-.9-4.2-1.8-.6-.4-1.1-.8-1.6-1.3s-.9-1-1.3-1.6c-.4-.6-.7-1.2-1-1.8-.3-.6-.5-1.3-.6-2-.1-.7-.1-1.4-.1-2.1V1.6L13.3 0zm6.5 36.2c-.7.3-1.7.7-2.5.9-.8.2-1.5.2-2.3.2-.8 0-1.6-.1-2.4-.3-.8-.2-1.5-.4-2.2-.7-.7-.3-1.4-.7-2-1.1C6.6 34.1 5.7 33.1 5 32c-.4-.6-.8-1.3-1.1-2-.3-.7-.5-1.5-.7-2.3-.2-.8-.2-1.6-.2-2.4V9.2l10-6.1V20c0 6.4 4.7 11.8 10.7 13.1-.2.3-.4.6-.7.8-1.1 1.1-2 1.8-3.2 2.3zm17-14c-.1.7-.4 1.4-.6 2-.3.6-.6 1.2-1 1.8-.4.6-1.6 2.1-3.2 3-1.6.9-3.1 1.2-4 1.4.6-1.6 1-3.2 1-5V7.7l8-4.6V20c0 .8 0 1.5-.2 2.2z"/></symbol></svg>