<svg version="1.1" xmlns="http://www.w3.org/2000/svg"
 width="560.000000pt" height="531.000000pt" viewBox="0 0 560.000000 531.000000"
 preserveAspectRatio="xMidYMid meet">
<g transform="translate(0.000000,531.000000) scale(0.100000,-0.100000)"
fill="#000000" stroke="none">
<path d="M2703 5236 c23 -18 26 -166 2 -166 -8 0 -15 -3 -15 -8 0 -4 23 -7 50
-7 50 0 64 8 34 19 -13 5 -8 15 26 56 23 28 46 50 51 50 16 0 11 -100 -6 -106
-29 -12 -14 -20 35 -20 28 0 50 3 50 8 0 4 -7 8 -15 8 -12 0 -15 16 -15 80 0
64 3 80 15 80 8 0 15 4 15 9 0 4 -22 9 -50 10 -49 1 -66 -11 -34 -23 12 -5 7
-16 -28 -56 -24 -27 -46 -50 -50 -50 -5 0 -8 23 -8 50 0 36 4 52 15 56 31 12
13 24 -37 24 -46 -1 -51 -2 -35 -14z"/>
<path d="M2425 5220 c-16 -4 -22 -8 -13 -9 31 -2 29 -20 -9 -77 l-38 -57 -6
29 c-11 50 -10 92 4 97 6 3 1 5 -13 5 -31 0 -91 -15 -69 -17 19 -1 25 -21 35
-105 5 -44 4 -60 -7 -68 -10 -7 -4 -8 20 -4 18 3 43 6 55 6 19 1 19 2 4 11
-10 5 -18 14 -18 20 0 12 63 108 71 108 3 1 9 -23 13 -51 5 -43 3 -55 -11 -65
-15 -12 -15 -13 3 -12 10 0 37 4 59 8 33 6 36 8 19 14 -17 6 -23 21 -32 80
-10 64 -9 73 5 85 15 10 13 12 -13 11 -16 -1 -42 -5 -59 -9z"/>
<path d="M2035 5139 c-29 -10 -41 -18 -29 -18 14 -1 24 -9 28 -23 10 -40 7
-46 -30 -58 -30 -10 -38 -10 -45 1 -13 20 -11 53 4 68 10 12 8 13 -8 6 -11 -4
-36 -12 -55 -17 -29 -9 -32 -12 -16 -17 29 -11 72 -161 46 -161 -5 0 -10 -4
-10 -9 0 -5 23 -2 50 7 28 9 50 19 50 24 0 4 -6 5 -14 2 -9 -4 -18 7 -26 31
-7 20 -10 37 -8 39 1 1 20 7 40 13 37 11 37 11 49 -25 9 -27 9 -37 0 -40 -6
-2 -11 -7 -11 -11 0 -4 23 -1 50 8 40 12 47 17 32 22 -27 10 -70 148 -51 160
27 16 2 16 -46 -2z"/>
<path d="M3679 5096 c9 -10 5 -30 -15 -85 -21 -57 -31 -71 -48 -72 -14 0 -4
-8 29 -23 53 -24 65 -25 46 -3 -8 10 -8 22 0 46 6 17 12 31 14 31 14 0 75 -32
75 -40 0 -23 -25 -60 -37 -56 -7 3 -13 2 -13 -2 0 -7 42 -25 90 -39 11 -4 11
-1 -2 9 -16 14 -15 19 10 86 19 52 32 72 47 75 20 3 20 4 0 11 -11 4 -35 14
-52 22 -19 8 -33 9 -33 4 0 -6 5 -10 10 -10 13 0 13 -23 -1 -54 -11 -23 -12
-24 -48 -9 -20 8 -37 16 -39 17 -1 2 3 17 9 34 8 22 18 32 32 32 13 1 2 9 -28
20 -60 24 -61 24 -46 6z"/>
<path d="M1580 4965 c-25 -13 -38 -24 -29 -25 10 0 28 -27 48 -70 27 -57 31
-74 21 -85 -7 -8 -10 -15 -8 -15 11 0 115 54 131 68 25 22 21 59 -8 78 -20 13
-30 14 -61 4 -33 -11 -39 -11 -51 6 -16 22 -17 41 0 47 6 2 10 7 7 10 -3 3
-25 -6 -50 -18z"/>
<path d="M2789 4896 c-2 -2 -85 -9 -184 -16 -99 -7 -184 -16 -190 -21 -5 -5
-1 -9 12 -9 34 0 41 -19 51 -145 11 -122 7 -145 -24 -145 -8 0 -14 -4 -14 -9
0 -11 161 -2 174 10 6 5 2 9 -11 9 -35 0 -42 22 -49 152 l-7 125 33 6 c45 9
98 9 104 -1 3 -5 8 -66 12 -136 7 -124 7 -127 -15 -133 -11 -3 -21 -10 -21
-16 0 -6 19 -7 53 -3 28 3 67 6 85 6 36 0 44 17 10 22 -25 3 -28 19 -42 191
-6 76 -5 78 19 89 14 6 25 15 25 20 0 8 -13 11 -21 4z"/>
<path d="M2996 4847 c-55 -31 -78 -78 -74 -148 7 -98 76 -159 183 -159 95 0
165 53 181 137 12 66 -36 151 -103 179 -51 22 -141 18 -187 -9z m175 -26 c26
-26 29 -36 29 -90 0 -104 -41 -171 -105 -171 -78 0 -113 82 -84 195 23 93 101
125 160 66z"/>
<path d="M1306 4814 c-79 -50 -87 -57 -66 -54 33 5 42 -2 60 -42 24 -52 26
-98 6 -98 -21 0 -31 -21 -15 -31 9 -5 20 -2 32 9 24 21 19 71 -13 137 -22 45
-20 65 4 65 18 0 98 -128 85 -135 -5 -4 -9 -10 -9 -15 0 -10 89 41 90 52 0 3
-8 4 -18 1 -25 -6 -106 119 -89 136 27 27 -5 16 -67 -25z"/>
<path d="M4290 4811 c0 -5 4 -13 10 -16 5 -3 -9 -35 -33 -71 -30 -46 -47 -63
-59 -60 -32 8 -19 -8 39 -46 83 -55 133 -46 119 22 -5 25 -2 30 14 30 23 0 43
32 34 55 -8 19 -124 100 -124 86z"/>
<path d="M3490 4786 c0 -3 9 -15 20 -26 23 -23 20 -49 -13 -115 -47 -96 -92
-131 -127 -100 -23 20 -50 13 -50 -13 0 -41 47 -54 100 -27 39 20 71 64 115
158 21 42 38 77 40 77 12 0 65 -23 64 -28 0 -4 -19 -61 -42 -127 -39 -111 -44
-120 -70 -123 -15 -2 -27 -7 -27 -11 0 -11 159 -60 165 -51 3 5 -4 11 -15 15
-27 9 -26 24 17 145 41 120 50 133 75 127 10 -3 20 -2 22 2 3 4 -52 27 -122
51 -70 23 -133 45 -139 48 -7 2 -13 1 -13 -2z"/>
<path d="M1966 4728 c-3 -13 -7 -84 -11 -157 -4 -94 -10 -142 -20 -158 -8 -12
-15 -24 -15 -27 0 -3 23 3 52 13 55 19 74 38 36 37 -19 -1 -23 5 -26 36 -3 35
-2 36 48 53 39 13 54 14 65 5 25 -20 29 -50 8 -65 -33 -25 -7 -25 53 -1 32 12
68 26 79 30 18 7 17 9 -11 19 -19 8 -69 55 -129 122 -53 61 -103 111 -111 113
-7 2 -15 -7 -18 -20z"/>
<path d="M3875 4620 c23 -25 17 -43 -47 -160 -49 -87 -56 -95 -81 -92 -45 5
-31 -11 48 -52 70 -37 105 -45 70 -16 -24 20 -18 38 43 150 53 95 60 105 85
103 15 -1 27 1 27 5 0 9 -135 82 -151 82 -7 0 -5 -8 6 -20z"/>
<path d="M1659 4609 c-19 -19 -21 -29 -15 -90 5 -61 4 -71 -14 -89 -11 -11
-23 -20 -28 -20 -8 0 -52 79 -52 94 0 5 7 18 17 28 9 10 11 18 6 18 -15 0
-153 -81 -153 -90 0 -4 14 -7 32 -6 30 1 35 -4 95 -108 59 -103 62 -111 46
-128 -30 -33 -7 -29 65 13 75 44 91 62 45 53 -25 -5 -31 0 -60 48 -22 37 -28
55 -20 60 23 15 49 7 94 -27 26 -20 58 -38 72 -42 30 -8 71 14 88 47 15 31 6
46 -17 25 -17 -15 -22 -14 -75 14 -32 17 -70 31 -84 31 -25 0 -26 2 -26 63 0
56 2 62 22 65 28 4 45 25 37 46 -9 23 -50 20 -75 -5z"/>
<path d="M4589 4587 c16 -21 -84 -130 -113 -123 -13 3 4 -18 44 -54 36 -33 67
-60 70 -60 3 0 11 9 18 21 12 19 11 20 -7 14 -23 -7 -61 13 -61 33 0 7 7 24
16 38 13 19 19 22 30 13 9 -7 12 -20 8 -33 -4 -17 -1 -15 20 9 32 38 32 43 1
37 -32 -6 -32 8 0 38 20 19 27 21 40 10 8 -7 15 -26 15 -42 0 -26 2 -29 15
-18 25 20 18 35 -39 84 -52 44 -81 61 -57 33z"/>
<path d="M4095 4474 c-29 -39 -28 -52 3 -35 30 16 57 14 82 -7 l21 -17 -74
-101 c-41 -56 -80 -104 -86 -108 -6 -4 -19 -2 -29 3 -11 6 -22 8 -25 4 -9 -8
135 -113 145 -106 5 3 2 13 -6 22 -9 10 -16 21 -16 25 0 4 34 55 76 112 66 91
78 103 95 94 27 -15 42 -48 35 -81 -3 -16 -1 -29 3 -29 10 0 56 69 50 74 -2 2
-59 44 -126 94 l-122 91 -26 -35z"/>
<path d="M2563 4489 c-741 -86 -1396 -588 -1666 -1276 -97 -246 -136 -434
-144 -696 -10 -303 33 -550 146 -842 15 -40 21 -46 27 -31 13 33 7 70 -25 161
-39 109 -76 259 -93 380 -16 117 -16 414 1 535 109 785 677 1441 1440 1660
198 57 313 73 546 73 276 1 470 -32 705 -120 675 -252 1153 -831 1286 -1558
26 -140 26 -508 1 -645 -23 -125 -52 -236 -88 -340 -21 -60 -27 -94 -23 -118
8 -43 15 -35 52 68 151 413 167 864 46 1283 -226 778 -902 1357 -1707 1462
-126 16 -382 18 -504 4z"/>
<path d="M755 4359 c-24 -25 -33 -39 -22 -35 12 4 30 -2 49 -15 l30 -21 -33
-34 -33 -34 -23 22 c-16 15 -21 28 -17 42 5 17 -1 14 -30 -13 -38 -36 -46 -54
-21 -45 21 9 127 -86 121 -108 -7 -28 6 -21 42 23 32 38 33 40 10 34 -17 -4
-30 1 -46 18 l-22 23 30 29 30 29 25 -24 c14 -13 23 -30 21 -37 -9 -21 2 -15
34 20 30 32 41 59 17 38 -19 -15 -131 84 -124 110 3 11 4 19 3 19 -1 0 -20
-19 -41 -41z"/>
<path d="M4843 4348 c9 -25 -98 -121 -126 -112 -16 5 -14 -1 14 -35 35 -42 53
-53 42 -25 -3 8 4 25 17 39 l23 24 29 -24 c34 -29 60 -32 82 -9 22 22 20 35
-13 80 -36 50 -77 87 -68 62z"/>
<path d="M1153 4248 c-34 -28 -60 -56 -56 -61 3 -5 10 -4 16 2 21 21 34 11
116 -83 78 -90 93 -118 71 -131 -6 -4 -8 -11 -4 -16 6 -11 147 103 175 142 37
52 22 117 -32 139 -37 16 -80 5 -125 -31 -20 -16 -40 -29 -44 -29 -11 0 -60
67 -60 82 0 8 5 19 12 26 7 7 8 12 2 12 -5 0 -37 -23 -71 -52z"/>
<path d="M4450 4235 c0 -3 6 -14 12 -25 11 -17 7 -26 -37 -71 -28 -28 -72 -69
-99 -92 -42 -36 -50 -39 -68 -28 -46 29 -24 -4 68 -104 l98 -105 33 32 c18 18
33 33 33 35 0 2 -18 0 -41 -3 -35 -6 -44 -3 -70 22 -16 15 -29 36 -29 46 0 21
57 88 76 88 17 0 28 -41 19 -69 -10 -32 7 -25 55 24 44 45 49 66 11 45 -15 -8
-27 -8 -41 0 -28 15 -26 20 21 65 l40 40 31 -34 c26 -29 29 -39 24 -72 -7 -46
1 -48 32 -8 28 34 34 23 -76 140 -66 70 -92 91 -92 74z"/>
<path d="M2480 4210 c-26 -26 -25 -54 1 -79 20 -18 20 -21 5 -36 -34 -35 -6
-75 53 -75 66 0 96 66 49 110 -17 16 -19 23 -10 32 16 16 15 34 -4 52 -22 22
-70 20 -94 -4z"/>
<path d="M986 4093 c-3 -3 -1 -12 4 -18 8 -9 2 -16 -20 -25 -56 -23 -93 -89
-92 -161 2 -101 109 -185 205 -158 64 17 127 86 127 139 0 13 7 20 20 20 30 0
24 13 -21 49 -47 38 -61 34 -35 -10 48 -82 -34 -165 -128 -129 -40 15 -104 78
-116 116 -13 39 -8 62 21 93 17 18 30 22 70 20 27 -2 51 0 54 3 3 3 -9 16 -27
30 -46 34 -54 38 -62 31z"/>
<path d="M3534 4040 c-28 -11 -60 -53 -75 -97 -10 -31 -9 -39 8 -62 11 -14 31
-27 45 -29 35 -4 78 33 78 67 0 28 -26 61 -48 61 -17 0 -15 15 6 33 26 24 41
21 52 -9 6 -14 14 -22 20 -19 17 10 11 33 -12 49 -25 18 -42 19 -74 6z"/>
<path d="M502 4027 c-81 -47 -80 -170 2 -197 98 -32 186 104 114 176 -29 30
-84 39 -116 21z m68 -44 c37 -25 49 -45 50 -76 0 -32 -34 -53 -73 -43 -34 8
-87 60 -87 84 0 48 63 68 110 35z"/>
<path d="M4722 3927 c1 -13 -11 -63 -27 -111 l-30 -86 -60 6 c-33 4 -75 13
-94 20 -19 8 -36 12 -38 10 -6 -6 60 -106 70 -106 4 0 5 11 1 24 -7 28 18 38
72 29 37 -6 40 -13 23 -64 -16 -46 -25 -55 -44 -39 -33 27 -25 -1 21 -69 44
-67 68 -84 57 -41 -3 11 9 61 27 110 l33 90 66 -6 c36 -3 77 -13 89 -21 37
-23 38 -8 1 46 -37 55 -53 65 -43 27 7 -28 -18 -38 -72 -29 -30 5 -34 9 -28
27 22 69 36 85 58 67 30 -25 21 5 -23 69 -49 74 -62 84 -59 47z"/>
<path d="M5260 3760 c0 -14 -17 -28 -60 -50 -63 -32 -90 -37 -90 -18 0 6 -3 9
-6 5 -7 -7 32 -97 42 -97 3 0 4 7 1 15 -4 8 -2 17 3 20 11 7 130 -24 130 -34
0 -3 -22 -16 -49 -27 -36 -16 -52 -19 -60 -11 -17 17 -13 1 9 -43 20 -39 38
-56 26 -24 -8 20 132 87 152 72 17 -15 15 -3 -9 45 -20 39 -22 40 -30 19 -5
-12 -10 -22 -12 -22 -4 0 -75 24 -107 36 -10 4 1 14 33 30 38 20 52 23 63 13
19 -15 18 -10 -6 45 -23 50 -30 57 -30 26z"/>
<path d="M2764 3705 c-4 -8 -4 -22 0 -30 7 -19 1 -19 -29 1 -22 14 -24 14 -35
-5 -10 -19 -8 -50 6 -119 4 -20 3 -21 -16 -10 -16 10 -19 20 -14 41 4 20 1 29
-12 34 -21 8 -44 -20 -37 -46 3 -12 -4 -21 -24 -30 -26 -12 -29 -11 -56 23
-16 20 -32 36 -37 36 -4 0 -13 -20 -19 -44 -9 -36 -16 -46 -42 -55 -18 -6 -43
-11 -55 -11 -19 0 -24 -5 -24 -26 l0 -26 -115 4 c-64 1 -119 8 -123 13 -11 16
-44 18 -53 3 -12 -19 -396 -19 -408 0 -7 12 -23 11 -68 -3 -23 -7 -33 -45 -13
-45 6 0 10 -28 10 -63 0 -83 -14 -96 -107 -95 l-68 1 -3 -41 c-2 -32 0 -42 12
-42 12 0 146 -205 146 -224 0 -3 -9 -6 -20 -6 -29 0 -26 -46 5 -92 14 -20 25
-46 25 -57 0 -21 -4 -21 -330 -21 -213 0 -330 -4 -330 -10 0 -6 117 -10 331
-10 329 0 330 0 327 -21 -3 -21 -6 -21 -334 -20 l-332 1 -4 -30 -5 -30 339 0
c224 0 337 -3 333 -10 -4 -6 -128 -10 -341 -10 -216 0 -334 -4 -334 -10 0 -6
118 -10 335 -10 l335 0 -1 -152 c-1 -84 -4 -262 -7 -395 l-7 -241 -27 -24
c-15 -12 -38 -31 -52 -41 -29 -20 -34 -37 -11 -37 12 0 15 -14 15 -65 l0 -65
90 0 c53 0 90 -4 90 -10 0 -6 -42 -10 -105 -10 l-105 0 0 -25 c0 -23 -4 -25
-45 -25 l-45 0 0 160 c0 100 4 160 10 160 6 0 10 18 10 39 0 33 4 40 22 43 18
2 10 12 -50 61 l-71 57 -81 -57 c-72 -51 -78 -58 -56 -61 23 -3 26 -8 26 -43
0 -21 5 -39 10 -39 6 0 10 -67 10 -180 l0 -180 130 0 130 0 0 -50 0 -50 -85 0
c-83 0 -85 -1 -75 -20 9 -17 21 -20 86 -20 66 0 75 -2 72 -17 -2 -14 -13 -17
-56 -14 -32 1 -52 -2 -52 -8 0 -7 22 -11 55 -11 l55 0 0 -40 c0 -30 -4 -40
-16 -40 -8 0 -12 -5 -9 -10 4 -6 11 -8 16 -5 5 4 9 -2 9 -13 0 -10 9 -27 20
-37 11 -10 20 -13 20 -7 0 8 29 12 90 12 l90 0 0 -60 c0 -62 -4 -67 -49 -61
-7 2 -10 -2 -6 -8 3 -6 17 -11 31 -11 23 0 24 -2 24 -75 l0 -75 71 -46 c488
-316 1096 -395 1654 -214 118 39 335 139 428 199 l47 31 0 90 0 90 50 0 c28 0
50 4 50 9 0 5 -21 8 -47 8 l-48 0 -3 61 -3 62 107 0 c90 0 105 -2 100 -15 -9
-25 6 -17 51 27 39 38 58 68 33 53 -6 -4 -10 10 -10 34 l0 41 44 0 c25 0 48 5
51 10 4 6 -13 10 -44 10 -39 0 -51 4 -51 15 0 12 14 15 63 15 58 0 87 11 87
32 0 4 -34 8 -75 8 -41 0 -75 2 -75 4 0 2 9 25 20 50 l19 46 93 0 c82 0 95 2
106 20 11 18 10 20 -8 20 -19 0 -20 6 -20 160 0 100 4 160 10 160 6 0 10 18
10 40 0 37 2 40 26 40 23 0 17 8 -50 60 l-76 61 -53 -39 c-28 -21 -58 -42 -64
-46 -10 -6 -13 62 -13 323 l0 331 265 0 c170 0 265 4 265 10 0 6 -120 10 -339
10 -216 0 -342 4 -346 10 -4 7 112 10 339 10 362 0 355 -1 338 42 -7 16 -25
18 -205 15 -108 -1 -197 1 -197 4 0 3 8 13 18 22 16 15 45 17 195 17 111 0
177 4 177 10 0 6 -112 10 -316 10 l-316 0 7 43 c3 23 9 50 11 60 4 12 0 17
-14 17 -15 0 -21 9 -24 32 -7 45 87 248 114 248 16 0 19 6 16 43 l-3 42 -72
-3 -73 -4 0 79 c0 45 5 84 11 90 13 13 4 33 -17 33 -8 0 -14 4 -14 9 0 12 -43
8 -52 -4 -11 -16 -400 -13 -405 3 -6 16 -34 15 -69 -3 -20 -10 -59 -15 -125
-15 l-96 0 -6 29 c-6 26 -9 28 -48 27 -23 0 -44 4 -46 9 -11 33 -45 75 -61 75
-11 0 -33 -7 -50 -16 -49 -24 -68 -16 -64 29 3 27 -1 39 -12 43 -20 8 -46 -13
-46 -36 0 -10 -6 -23 -14 -29 -12 -10 -16 -8 -21 11 -4 13 -18 35 -32 49 -14
15 -23 35 -22 45 7 38 -35 62 -47 29z m-245 -294 c10 -6 12 -27 9 -79 -2 -45
0 -68 7 -66 6 3 9 32 7 74 -4 69 -3 70 22 70 26 0 26 -1 26 -71 0 -59 -3 -70
-15 -65 -8 3 -15 1 -15 -3 0 -5 93 -10 207 -10 152 -1 205 1 197 9 -8 8 -66
10 -183 8 l-171 -3 0 66 c0 52 4 68 16 73 24 9 337 7 353 -3 10 -6 12 -27 9
-79 -2 -45 0 -68 7 -66 6 3 9 32 7 74 l-4 70 32 0 31 0 -3 -67 c-3 -58 -6 -68
-20 -67 -10 1 -18 -2 -18 -7 0 -5 12 -8 28 -7 l27 2 -3 69 c-3 51 -1 72 9 78
16 10 329 12 353 3 12 -5 16 -21 16 -75 0 -39 4 -69 10 -69 6 0 10 30 10 70 0
68 1 70 25 70 24 0 25 -2 25 -70 0 -55 -3 -68 -14 -64 -8 3 -17 0 -22 -7 -5
-9 1 -10 26 -6 18 4 68 7 111 7 l79 0 0 70 c0 68 1 70 25 70 24 0 25 -2 25
-70 l0 -70 90 0 90 0 0 70 c0 68 1 70 25 70 25 0 25 -1 25 -80 l0 -80 -1195 0
c-790 0 -1195 3 -1195 10 0 6 6 10 13 10 9 0 11 19 9 70 l-4 70 32 0 31 0 -3
-67 c-3 -58 -6 -68 -20 -67 -10 1 -18 -1 -18 -5 0 -3 58 -6 129 -6 71 0 127 3
124 8 -2 4 -12 7 -21 7 -15 0 -17 9 -14 65 4 61 5 65 28 65 23 0 24 -3 24 -70
0 -60 3 -70 18 -70 9 0 148 -3 307 -6 214 -4 285 -2 273 6 -12 7 -75 10 -183
8 l-165 -3 0 66 c0 36 3 69 7 72 10 10 346 8 362 -2z m1611 -196 l0 -25 -1350
0 -1350 0 0 25 0 25 1350 0 1350 0 0 -25z m-130 -225 l0 -50 -1205 0 -1205 0
0 50 0 50 1205 0 1205 0 0 -50z m10 -75 c0 -13 -143 -15 -1225 -15 -1082 0
-1225 2 -1225 15 0 13 143 15 1225 15 1082 0 1225 -2 1225 -15z m-2342 -652
l2 -453 -46 0 -47 0 6 223 c4 122 10 327 13 455 l7 233 31 -3 31 -3 3 -452z
m379 360 c-4 -54 -7 -126 -7 -160 l0 -63 -111 0 c-98 0 -110 2 -99 15 9 11 34
15 94 15 l81 0 0 130 c0 117 -2 130 -17 130 -18 0 -23 11 -11 23 3 4 22 7 41
7 l35 0 -6 -97z m83 -358 l0 -455 -46 0 -47 0 6 218 c4 119 10 324 13 455 l7
237 34 0 33 0 0 -455z m380 412 c0 -24 -3 -97 -6 -163 l-7 -119 -108 0 c-60 0
-109 2 -109 5 0 21 32 30 107 30 l83 0 0 130 c0 123 -1 130 -20 130 -22 0 -27
15 -7 23 6 3 24 6 40 6 25 1 27 -2 27 -42z m80 -412 l0 -455 -46 0 -47 0 6
183 c4 100 9 299 13 442 3 143 7 266 9 273 3 6 18 12 35 12 l30 0 0 -455z
m380 387 c0 -38 -3 -110 -6 -160 l-7 -91 -108 -3 c-60 -2 -109 -1 -109 2 0 21
32 30 107 30 l83 0 0 130 c0 123 -1 130 -20 130 -22 0 -27 15 -7 23 6 3 24 6
40 6 27 1 27 1 27 -67z m80 -387 l0 -455 -46 0 -47 0 6 148 c4 81 10 282 13
447 4 165 8 303 11 308 2 4 17 7 34 7 l29 0 0 -455z m380 363 c0 -51 -3 -123
-6 -160 l-7 -67 -108 -3 c-60 -2 -109 -1 -109 2 0 21 32 30 107 30 l83 0 0
130 c0 123 -1 130 -20 130 -22 0 -27 15 -7 23 6 3 24 6 40 6 l27 1 0 -92z m80
-363 l0 -455 -45 0 c-36 0 -45 3 -45 18 0 9 5 145 10 302 5 157 10 350 11 430
0 80 3 148 6 153 2 4 17 7 34 7 l29 0 0 -455z m387 348 c-4 -58 -7 -130 -7
-160 l0 -53 -116 0 c-102 0 -115 2 -104 15 9 11 34 15 96 15 l84 0 0 130 c0
126 -1 130 -21 130 -18 0 -19 2 -9 15 7 8 28 15 48 15 l35 0 -6 -107z m53
-348 l0 -455 -31 0 -32 0 6 203 c4 111 10 316 13 455 7 236 8 252 25 252 18 0
19 -19 19 -455z m-1982 293 l-3 -93 -60 0 -60 0 -3 93 -3 92 66 0 66 0 -3 -92z
m460 0 l-3 -93 -60 0 -60 0 -3 93 -3 92 66 0 66 0 -3 -92z m460 0 l-3 -93 -57
-3 -58 -3 0 96 0 95 60 0 61 0 -3 -92z m462 -3 l0 -95 -60 1 -60 2 0 93 0 94
60 0 60 0 0 -95z m460 0 l0 -95 -60 0 -60 0 0 95 0 95 60 0 60 0 0 -95z
m-1773 -292 c-4 -58 -7 -132 -7 -165 0 -51 -2 -58 -19 -58 -11 0 -22 9 -26 19
-3 10 -17 31 -32 45 -30 31 -95 36 -131 10 l-22 -15 0 123 c0 83 4 128 12 136
8 8 50 12 122 12 l109 0 -6 -107z m463 34 c0 -41 -3 -115 -6 -165 -6 -78 -10
-92 -24 -92 -10 0 -23 13 -30 30 -23 57 -102 79 -155 44 l-25 -16 0 124 c0 83
4 128 12 136 8 8 49 12 120 12 l108 0 0 -73z m460 -24 c0 -159 -10 -233 -30
-233 -10 0 -23 13 -30 30 -7 17 -22 37 -34 45 -27 20 -91 19 -121 -1 l-25 -16
0 124 c0 83 4 128 12 136 8 8 49 12 120 12 l108 0 0 -97z m460 -22 c0 -161 -7
-211 -31 -211 -11 0 -19 6 -19 14 0 8 -13 28 -29 45 -24 26 -37 31 -73 31 -31
0 -51 -6 -66 -20 l-22 -21 0 129 c0 86 4 132 12 140 8 8 49 12 120 12 l108 0
0 -119z m467 -3 c-4 -66 -7 -141 -7 -165 0 -39 -2 -43 -25 -43 -16 0 -25 6
-25 16 0 8 -13 29 -29 45 -38 37 -102 41 -138 7 l-23 -21 0 129 c0 88 4 134
12 142 8 8 51 12 127 12 l114 0 -6 -122z m-2537 -568 l0 -160 -30 0 -30 0 0
160 0 160 30 0 30 0 0 -160z m3000 -1 l0 -160 -27 3 -28 3 -3 145 c-1 79 0
150 2 157 3 7 17 13 31 13 l25 0 0 -161z m-2680 -19 l0 -50 -80 0 -80 0 0 50
0 50 80 0 80 0 0 -50z m460 0 l0 -50 -80 0 -80 0 0 43 c0 24 3 47 7 50 3 4 39
7 80 7 l73 0 0 -50z m1925 0 l0 -45 -112 -3 -113 -3 0 51 0 51 113 -3 112 -3
0 -45z m-1804 -200 l16 -70 -39 -18 -38 -19 -31 48 -31 49 -112 0 -112 0 -14
-37 c-33 -93 -40 -105 -55 -93 -8 7 -33 10 -57 8 l-42 -3 -24 63 -24 62 -94 0
-94 0 0 40 0 40 368 0 367 0 16 -70z m483 53 c2 -10 7 -34 11 -53 4 -19 8 -42
11 -51 3 -10 -8 -21 -31 -32 l-34 -16 -37 44 -36 45 -73 0 c-70 0 -74 -1 -117
-40 -43 -37 -47 -39 -77 -27 -17 6 -30 16 -27 22 2 6 9 36 16 68 l11 57 189 0
c171 0 189 -2 194 -17z m499 -20 c4 -21 9 -52 13 -68 5 -28 3 -31 -32 -44
l-38 -14 -35 42 c-36 41 -36 41 -107 41 -69 0 -73 -1 -117 -40 -40 -36 -48
-39 -72 -30 -24 9 -27 14 -21 43 4 17 9 49 13 70 l6 37 192 0 192 0 6 -37z
m850 10 c0 -13 -1 -30 -2 -38 -1 -12 -19 -15 -99 -15 l-98 0 -23 -63 -22 -63
-62 2 -62 1 -23 62 -24 61 -109 0 -109 0 -35 -49 -36 -50 -32 17 c-18 9 -33
18 -35 18 -2 1 7 49 23 122 l5 22 372 -2 372 -3 -1 -22z m-397 -137 c23 -57
23 -59 5 -81 l-18 -23 -29 23 c-43 36 -132 35 -180 -1 -19 -15 -34 -21 -34
-14 0 6 -9 25 -21 41 l-20 29 22 33 c45 65 39 62 149 57 l102 -5 24 -59z
m-1980 -1 c21 -51 22 -61 10 -73 -12 -12 -17 -12 -37 2 -17 11 -46 16 -101 16
l-78 0 0 60 0 61 91 -3 91 -3 24 -60z m447 18 l29 -41 -28 -35 -28 -35 -24 19
c-38 30 -128 26 -172 -6 l-35 -25 -16 21 c-15 20 -15 26 9 86 l26 64 105 -3
105 -3 29 -42z m494 9 l30 -37 -32 -38 -32 -37 -37 15 c-32 14 -39 14 -66 0
-40 -20 -40 -20 -79 26 l-33 41 33 34 c32 33 35 34 109 34 77 0 77 0 107 -38z
m488 2 l31 -36 -37 -40 c-36 -40 -36 -40 -67 -24 -29 15 -35 15 -72 0 -22 -9
-42 -15 -43 -13 -2 2 -16 21 -31 42 l-28 39 33 34 c32 33 36 34 108 34 75 0
76 0 106 -36z m951 20 c-3 -9 -6 -36 -6 -60 l0 -44 -82 0 c-70 0 -85 -3 -105
-22 -22 -21 -24 -21 -37 -3 -11 15 -9 27 12 82 l25 63 100 0 c86 0 98 -2 93
-16z m-2418 -131 c18 -15 20 -26 15 -65 l-6 -48 -88 0 -89 0 0 65 0 65 74 0
c56 0 79 -4 94 -17z m431 -9 c25 -21 31 -33 31 -65 l0 -39 -115 0 -115 0 0 38
c0 33 5 43 37 65 52 37 119 37 162 1z m1535 2 c28 -21 31 -28 28 -65 l-4 -41
-114 0 -114 0 0 34 c0 28 7 41 37 65 49 41 120 44 167 7z m450 -43 l1 -63
-102 0 -103 0 0 42 c0 29 7 49 22 65 20 22 29 23 102 21 l80 -3 0 -62z m-1500
42 c34 -14 36 -18 36 -60 l0 -45 -80 0 -80 0 0 43 c0 39 3 45 33 60 41 20 47
20 91 2z m486 0 c26 -14 30 -21 30 -60 l0 -45 -75 0 -75 0 0 45 c0 42 3 47 33
60 41 18 52 18 87 0z m-940 -185 l0 -60 -115 0 -115 0 0 60 0 60 115 0 115 0
0 -60z m490 0 l0 -60 -80 0 -80 0 0 60 0 60 80 0 80 0 0 -60z m480 0 l0 -60
-75 0 -75 0 0 60 0 60 75 0 75 0 0 -60z m560 0 l0 -60 -115 0 -115 0 0 60 0
60 115 0 115 0 0 -60z m-1370 -195 c0 -272 2 -263 -65 -251 l-35 7 0 84 0 84
36 3 36 3 1 93 2 92 -37 0 c-27 0 -38 4 -38 15 0 11 11 15 38 15 35 0 37 2 37
30 0 28 -2 30 -39 30 -38 0 -39 0 -21 20 11 12 31 20 52 20 l33 0 0 -245z
m140 -5 l0 -250 -55 0 -55 0 0 89 0 90 37 3 37 3 1 92 0 93 -37 0 c-27 0 -38
4 -38 15 0 11 11 15 38 15 34 0 37 2 37 30 1 28 -2 30 -37 30 -31 0 -38 4 -38
20 0 18 7 20 55 20 l55 0 0 -250z m340 0 l0 -250 -50 0 -50 0 0 90 0 90 40 0
40 0 0 95 0 95 -40 0 c-29 0 -40 4 -40 15 0 11 11 15 40 15 38 0 40 2 40 30 0
28 -3 30 -35 30 -19 0 -35 4 -35 8 0 18 26 32 57 32 l33 0 0 -250z m150 0 l0
-251 -56 3 -56 3 -1 88 -2 87 38 0 37 0 0 94 0 95 -35 3 c-20 2 -35 8 -35 13
0 6 15 11 35 13 31 3 35 6 35 33 0 26 -3 29 -34 29 -25 0 -35 5 -39 20 -5 18
0 20 54 20 l59 0 0 -250z m330 0 l0 -250 -45 0 -45 0 0 90 0 90 35 0 35 0 0
94 0 95 -37 3 c-21 2 -38 8 -38 13 0 6 17 11 38 13 34 3 37 6 37 33 0 27 -3
29 -37 29 -35 0 -36 0 -18 20 10 11 31 20 47 20 l28 0 0 -250z m148 3 l-3
-248 -52 -3 -53 -3 0 90 0 91 35 0 35 0 0 95 0 95 -35 0 c-24 0 -35 5 -35 15
0 10 11 15 35 15 32 0 35 2 35 30 0 28 -3 30 -35 30 -28 0 -35 4 -35 20 0 18
7 20 55 20 l55 0 -2 -247z m-1268 53 l0 -65 -112 2 -113 2 -3 63 -3 62 116 0
115 0 0 -64z m488 2 l-3 -63 -75 0 -75 0 -3 63 -3 62 81 0 81 0 -3 -62z m480
0 l-3 -63 -72 -3 -73 -3 0 66 0 65 75 0 76 0 -3 -62z m562 -3 l0 -65 -115 0
-115 0 0 65 0 65 115 0 115 0 0 -65z m-1530 -135 l0 -60 -85 0 c-58 0 -96 5
-115 15 -26 14 -30 21 -30 60 l0 45 115 0 115 0 0 -60z m488 3 l-3 -58 -75 0
-75 0 -3 58 -3 57 81 0 81 0 -3 -57z m482 -3 l0 -60 -75 0 -75 0 0 60 0 60 75
0 75 0 0 -60z m560 0 l0 -60 -115 0 -115 0 0 60 0 60 115 0 115 0 0 -60z
m-342 -185 c-13 -14 -247 -55 -371 -66 -106 -10 -170 -10 -280 -1 -126 11
-371 53 -385 67 -3 3 230 5 518 5 288 0 521 -2 518 -5z"/>
<path d="M711 3693 c-21 -19 -122 -195 -115 -202 2 -2 13 4 23 13 19 18 23 17
108 -29 131 -71 146 -83 139 -111 -13 -51 15 -20 65 72 59 111 67 160 32 196
-28 27 -75 28 -111 1 l-27 -20 -1 35 c-1 58 -66 83 -113 45z"/>
<path d="M4970 3536 c0 -31 -6 -35 -133 -87 l-109 -44 -18 22 c-30 37 -28 17
4 -67 33 -84 46 -99 46 -52 0 25 7 31 56 51 30 13 56 22 58 20 7 -11 46 -113
46 -123 0 -7 -24 -22 -52 -34 l-53 -23 -18 22 c-10 12 -20 19 -23 16 -8 -8 58
-167 67 -161 4 2 5 12 2 22 -6 26 10 37 133 87 l109 45 18 -22 c32 -38 30 -10
-3 72 -33 78 -44 90 -45 48 0 -22 -36 -49 -82 -63 -20 -5 -26 1 -48 51 -14 31
-25 62 -25 68 0 7 23 20 50 30 49 18 52 18 70 1 11 -10 22 -16 24 -14 6 6 -58
159 -66 159 -5 0 -8 -11 -8 -24z"/>
<path d="M178 3430 c-9 -28 -12 -50 -8 -50 5 0 10 5 12 12 3 9 27 4 81 -16 42
-15 77 -29 77 -31 0 -1 -7 -19 -16 -40 -11 -28 -19 -35 -32 -30 -9 4 -43 16
-74 27 -46 16 -58 24 -59 41 0 13 -8 2 -18 -28 -17 -48 -19 -73 -2 -47 6 9 20
8 62 -7 84 -29 89 -32 89 -47 0 -36 18 -7 45 74 27 79 33 88 62 97 l32 11 -31
12 c-26 10 -34 9 -40 -2 -12 -20 -154 33 -152 57 3 33 -11 16 -28 -33z"/>
<path d="M517 3309 c-30 -84 -30 -107 0 -70 l18 22 122 -47 c117 -45 122 -48
125 -78 4 -35 2 -39 45 72 27 68 25 89 -4 53 l-18 -22 -70 26 c-38 15 -94 36
-122 47 -47 17 -53 23 -53 49 0 49 -14 33 -43 -52z"/>
<path d="M468 3069 c-10 -5 -23 -19 -29 -31 -14 -26 -59 -221 -52 -228 2 -3
13 6 23 20 l19 25 112 -23 c132 -27 153 -36 146 -63 -3 -12 -1 -19 6 -16 14 4
46 147 46 210 1 59 -10 81 -47 96 -38 16 -76 1 -102 -41 -18 -30 -20 -31 -20
-10 0 27 -42 72 -67 72 -10 0 -26 -5 -35 -11z"/>
<path d="M5147 3062 c7 -28 -12 -36 -141 -67 l-119 -27 -18 23 c-10 13 -19 22
-21 19 -7 -8 34 -170 42 -170 5 0 10 12 12 27 3 26 8 29 127 56 l125 30 18
-23 c32 -39 31 -27 -3 113 -6 20 -14 37 -18 37 -5 0 -7 -8 -4 -18z"/>
<path d="M5206 2777 c-7 -29 -18 -31 -183 -42 l-92 -6 -7 25 c-12 48 -27 29
-20 -26 3 -29 6 -70 6 -90 0 -21 5 -38 10 -38 6 0 10 8 10 18 0 10 5 23 12 30
15 15 128 16 128 1 0 -26 -24 -50 -70 -70 -27 -11 -56 -29 -65 -39 -23 -26
-23 -84 0 -110 24 -27 37 -25 29 4 -5 19 3 30 45 62 28 22 56 50 62 64 l12 25
58 -28 c56 -27 58 -28 52 -62 -6 -39 16 -57 42 -35 38 32 7 90 -62 116 -61 22
-85 42 -81 68 3 18 11 21 55 24 48 3 53 1 67 -25 18 -32 18 -31 16 62 -2 78
-13 113 -24 72z"/>
<path d="M11 2678 c0 -29 3 -47 6 -40 2 7 22 12 44 12 l39 0 -6 -42 c-4 -24
-7 -44 -8 -44 -1 -1 -16 1 -33 3 -21 3 -33 11 -34 22 -2 23 -16 -39 -18 -74 0
-25 1 -27 10 -12 8 14 24 17 85 17 68 0 75 -2 84 -22 8 -21 9 -21 9 -3 1 11 4
38 7 60 5 36 4 38 -9 23 -8 -10 -28 -18 -46 -18 -30 0 -31 1 -31 45 0 45 0 45
35 45 28 0 38 -5 45 -22 7 -19 9 -16 9 19 1 23 4 48 7 57 3 9 1 16 -5 16 -6 0
-11 -7 -11 -15 0 -17 -24 -19 -107 -9 -35 5 -53 11 -53 20 0 8 -4 14 -10 14
-5 0 -10 -24 -9 -52z"/>
<path d="M547 2669 c-26 -15 -47 -70 -47 -119 l0 -41 -52 3 c-44 2 -55 7 -63
26 -18 41 -25 23 -25 -63 0 -50 4 -85 10 -85 6 0 10 9 10 20 0 24 -4 23 135
21 130 -3 145 -6 145 -32 0 -10 4 -19 9 -19 5 0 12 47 16 104 8 113 -3 169
-35 186 -24 13 -80 12 -103 -1z"/>
<path d="M907 2443 c-13 -13 -7 -35 8 -29 12 4 15 -18 17 -152 l3 -157 43 -3
42 -3 0 175 0 176 -53 0 c-30 0 -57 -3 -60 -7z m93 -168 l0 -155 -25 0 -25 0
0 155 0 155 25 0 25 0 0 -155z"/>
<path d="M1200 2275 l0 -175 80 0 80 0 0 175 0 175 -80 0 -80 0 0 -175z m140
0 l0 -155 -25 0 -25 0 0 155 0 155 25 0 25 0 0 -155z"/>
<path d="M4200 2275 l0 -175 80 0 80 0 0 175 0 175 -80 0 -80 0 0 -175z m140
-4 l0 -158 -25 5 -25 4 0 147 c0 81 3 151 7 154 3 4 15 7 25 7 17 0 18 -11 18
-159z"/>
<path d="M4540 2275 l0 -175 65 0 c37 0 65 4 65 10 0 6 -9 10 -20 10 -20 0
-20 5 -18 153 l3 152 25 0 c24 0 25 -4 31 -70 l5 -70 2 81 2 82 -80 1 -80 1 0
-175z"/>
<path d="M4916 2334 c-8 -66 -3 -75 21 -45 17 20 21 21 47 10 27 -13 28 -15
23 -67 -3 -30 -8 -56 -10 -58 -2 -2 -18 -7 -36 -10 -27 -6 -33 -4 -38 15 -10
40 -20 21 -29 -59 -6 -44 -6 -80 -2 -80 5 0 11 6 14 14 8 20 48 34 282 96 24
6 42 17 42 25 0 7 -55 44 -122 81 -129 70 -168 99 -168 121 0 7 -4 13 -9 13
-4 0 -11 -25 -15 -56z"/>
<path d="M670 2302 c0 -31 -18 -38 -144 -56 -121 -17 -146 -14 -146 20 0 8 -4
14 -10 14 -12 0 -13 15 10 -136 11 -71 20 -135 20 -141 0 -7 5 -13 10 -13 6 0
10 8 10 19 0 10 7 24 15 31 22 18 127 24 182 11 61 -16 74 -27 64 -54 -11 -31
-3 -47 24 -47 31 0 40 31 21 68 -24 47 -82 65 -207 64 l-107 -1 -5 32 c-2 18
-3 34 -1 36 2 2 61 13 130 23 130 19 154 16 154 -18 0 -8 5 -14 11 -14 7 0 9
10 5 25 -3 13 -9 52 -13 85 -5 56 -23 95 -23 52z"/>
<path d="M4592 1820 c-5 -14 -19 -48 -31 -77 -36 -92 -117 -246 -178 -338 -82
-124 -148 -202 -276 -328 l-110 -107 43 -52 44 -51 -35 -29 c-67 -57 -226
-157 -344 -216 -297 -149 -633 -221 -970 -209 -316 12 -590 81 -858 219 -96
49 -268 159 -330 210 l-28 23 45 55 45 54 -57 50 c-209 184 -394 441 -498 693
-28 67 -50 109 -54 101 -4 -7 -24 -71 -45 -143 -21 -71 -40 -132 -41 -133 -1
-2 -67 32 -146 76 -79 44 -144 79 -145 78 -2 -1 13 -43 33 -92 52 -128 144
-304 216 -414 35 -52 66 -100 70 -106 4 -7 -15 -27 -47 -50 -30 -21 -55 -42
-55 -46 0 -15 159 -198 255 -293 313 -309 710 -527 1145 -629 452 -107 970
-77 1396 79 153 56 386 174 520 264 138 92 305 232 414 347 81 85 190 218 190
231 0 5 -24 26 -53 47 l-53 38 73 110 c84 128 169 290 219 419 19 50 34 92 32
94 -2 1 -64 -33 -138 -76 -74 -43 -137 -78 -140 -79 -3 0 -14 30 -24 66 -11
37 -32 106 -47 153 -24 78 -28 84 -37 61z m39 -232 c17 -57 35 -107 39 -111 4
-4 47 15 96 44 49 28 97 55 106 60 15 8 14 1 -8 -48 -60 -137 -214 -400 -246
-419 -5 -3 -41 19 -81 48 -40 30 -77 57 -84 61 -7 4 -34 -9 -64 -32 -49 -37
-176 -113 -210 -126 -8 -3 9 20 39 52 126 133 244 305 333 486 24 48 45 87 46
87 1 0 17 -46 34 -102z m-3586 30 c76 -165 198 -346 320 -477 43 -44 73 -81
68 -81 -14 0 -190 106 -233 140 -21 16 -40 30 -43 30 -2 0 -40 -27 -83 -60
-43 -33 -81 -60 -85 -60 -9 0 -105 146 -156 235 -48 86 -118 234 -112 239 2 2
51 -23 109 -55 58 -32 107 -59 110 -59 3 0 19 47 35 105 17 58 33 105 36 105
3 0 18 -28 34 -62z m319 -679 c545 -529 1356 -713 2086 -473 358 118 678 329
915 603 43 50 83 91 87 91 5 0 63 -41 128 -91 l119 -92 -75 -87 c-378 -443
-874 -718 -1469 -817 -153 -25 -542 -25 -700 0 -514 80 -968 306 -1325 657
-110 108 -223 237 -218 250 2 5 57 49 122 98 l119 89 59 -69 c33 -38 101 -110
152 -159z"/>
<path d="M4011 654 c-36 -22 -41 -28 -28 -36 24 -13 79 -96 72 -108 -12 -20
11 -9 48 21 29 24 37 37 35 58 -2 20 -9 27 -30 29 -19 2 -25 8 -21 18 5 14
-13 44 -26 44 -3 0 -26 -12 -50 -26z"/>
</g>
</svg>
