<svg id="svg" xmlns="http://www.w3.org/2000/svg" width="400" height="400" viewBox="0, 0, 400,400">
    <g>
        <path
              d="M196.200 10.951 C 192.985 12.467,191.164 15.086,190.381 19.317 C 189.606 23.514,190.066 63.423,190.915 65.573 C 194.731 75.231,206.847 74.276,209.412 64.115 C 209.951 61.979,210.022 58.604,209.919 40.105 L 209.800 18.581 208.476 15.893 C 205.910 10.682,200.979 8.697,196.200 10.951 M53.200 67.634 C 47.405 70.261,46.011 76.468,49.887 82.382 C 52.832 86.876,84.196 117.675,87.566 119.383 C 96.467 123.893,104.994 115.546,100.624 106.600 C 98.448 102.145,65.980 70.103,61.489 67.978 C 58.475 66.552,55.828 66.442,53.200 67.634 M339.505 67.406 C 336.430 68.535,333.796 70.906,317.569 87.151 C 298.974 105.765,298.400 106.488,298.400 111.277 C 298.400 118.643,305.683 122.915,312.344 119.455 C 315.037 118.057,347.580 86.274,350.009 82.670 C 355.873 73.970,348.965 63.931,339.505 67.406 M191.059 93.246 C 147.111 96.620,109.473 129.912,100.821 173.067 C 93.138 211.387,107.528 249.107,139.196 273.660 C 147.244 279.899,147.586 280.736,147.604 294.200 C 147.618 304.726,148.430 308.090,152.448 314.269 C 155.542 319.026,155.678 319.700,156.002 331.800 C 156.330 344.051,156.558 345.210,159.491 349.500 C 160.431 350.875,161.970 353.125,162.911 354.500 C 163.851 355.875,165.227 358.710,165.968 360.800 C 173.136 381.026,191.757 390.689,211.398 384.377 C 222.766 380.723,229.259 373.614,234.940 358.600 C 235.569 356.937,236.988 354.500,238.433 352.600 C 243.479 345.965,243.934 344.259,244.149 331.200 C 244.335 319.833,244.467 319.248,248.157 313.400 C 251.758 307.693,252.047 306.390,252.423 294.200 C 252.864 279.877,252.898 279.792,260.738 273.733 C 293.568 248.362,307.978 208.391,298.398 169.269 C 286.585 121.032,241.849 89.347,191.059 93.246 M214.800 95.402 C 302.068 108.318,330.102 217.840,260.091 272.341 C 251.319 279.170,251.529 278.702,251.160 292.200 C 250.809 305.040,250.156 307.914,246.318 313.513 C 243.204 318.056,243.057 318.743,242.759 330.200 C 242.407 343.771,242.069 345.159,237.676 351.072 C 234.778 354.973,233.956 356.521,232.343 361.120 C 227.097 376.072,215.431 384.509,200.000 384.509 C 184.361 384.509,173.394 376.486,167.593 360.800 C 166.027 356.568,164.819 354.418,161.015 349.096 C 158.178 345.126,157.909 343.787,157.580 332.000 C 157.238 319.738,157.110 319.150,153.488 313.163 C 149.546 306.648,148.821 302.990,148.807 289.573 C 148.796 279.707,148.282 278.725,139.677 272.125 C 105.460 245.881,91.954 202.248,105.466 161.600 C 120.427 116.590,167.086 88.340,214.800 95.402 M190.000 110.412 C 132.331 118.315,99.051 178.698,124.198 229.800 C 130.981 243.584,140.495 254.305,154.182 263.586 C 164.178 270.365,164.103 270.198,164.414 286.400 C 164.776 305.240,164.317 304.733,181.600 305.362 C 195.251 305.859,203.523 305.880,217.400 305.451 C 235.577 304.890,235.218 305.262,235.583 286.600 C 235.905 270.160,235.810 270.373,245.818 263.586 C 291.139 232.852,297.564 172.805,259.598 134.806 C 241.579 116.770,214.037 107.117,190.000 110.412 M184.513 167.578 C 188.042 168.480,188.946 168.907,193.776 171.948 C 198.427 174.877,201.243 175.102,204.835 172.832 C 213.253 167.514,214.826 166.993,222.400 167.018 C 238.624 167.070,250.636 179.448,250.525 196.000 C 250.455 206.523,246.396 214.442,234.921 226.441 C 218.669 243.435,212.003 250.896,210.690 253.562 L 209.400 256.181 209.200 277.390 C 208.980 300.735,209.024 300.331,206.466 302.483 C 203.681 304.826,196.621 304.948,193.766 302.702 C 191.239 300.714,191.219 300.533,191.206 279.600 C 191.193 258.804,191.024 256.683,189.092 253.058 C 187.816 250.663,180.110 242.090,166.390 227.800 C 153.749 214.634,149.558 206.702,149.483 195.800 C 149.354 176.983,166.687 163.019,184.513 167.578 M174.066 184.739 C 168.482 186.731,165.341 193.247,166.945 199.508 C 168.300 204.799,170.597 208.037,179.751 217.562 C 182.858 220.795,187.650 225.790,190.400 228.661 C 200.042 238.728,199.743 238.810,216.455 221.486 C 231.058 206.348,233.292 203.007,233.365 196.200 C 233.442 189.105,228.905 184.234,222.200 184.213 C 217.153 184.196,213.820 186.237,208.734 192.457 C 202.169 200.486,198.618 200.673,192.158 193.332 C 184.831 185.006,179.892 182.660,174.066 184.739 M10.892 203.412 C 0.039 206.375,-1.158 217.026,8.882 221.299 L 11.000 222.200 39.400 222.200 L 67.800 222.200 69.915 221.244 C 78.135 217.530,77.694 207.099,69.173 203.711 C 66.705 202.730,14.373 202.462,10.892 203.412 M332.037 203.434 C 322.541 205.988,321.385 217.217,330.200 221.279 L 332.200 222.200 359.200 222.326 C 378.702 222.417,386.811 222.322,388.400 221.984 C 401.539 219.194,401.072 205.687,387.751 203.225 C 383.928 202.518,334.757 202.703,332.037 203.434 M106.592 294.415 C 102.473 296.000,64.029 333.870,61.781 338.557 C 57.575 347.324,65.823 355.746,74.397 351.439 C 77.331 349.965,77.370 349.930,92.600 334.802 C 115.313 312.242,117.033 310.426,118.394 307.548 C 122.373 299.137,115.165 291.115,106.592 294.415 M286.400 294.125 C 281.296 295.743,279.013 302.256,281.663 307.636 C 283.991 312.361,322.046 350.029,326.400 351.917 C 334.542 355.448,342.177 346.820,338.222 338.557 C 336.474 334.907,298.197 296.706,294.436 294.859 C 291.668 293.500,289.110 293.266,286.400 294.125 M177.882 322.085 C 170.220 324.118,171.026 338.684,178.895 340.399 C 183.284 341.356,221.487 340.767,223.460 339.712 C 229.357 336.559,228.527 324.057,222.297 322.207 C 219.846 321.479,180.574 321.371,177.882 322.085 M190.519 356.396 C 180.369 358.542,188.485 370.090,200.200 370.171 C 210.437 370.242,218.758 359.914,211.000 356.766 C 209.532 356.171,193.000 355.872,190.519 356.396 "
              stroke="none" fill="#f6b81c" fill-rule="evenodd"/>
        <path
              d="M190.000 94.807 C 100.113 104.119,68.028 217.171,139.677 272.125 C 148.282 278.725,148.796 279.707,148.807 289.573 C 148.821 302.990,149.546 306.648,153.488 313.163 C 157.110 319.150,157.238 319.738,157.580 332.000 C 157.909 343.787,158.178 345.126,161.015 349.096 C 164.819 354.418,166.027 356.568,167.593 360.800 C 179.421 392.780,221.163 392.987,232.343 361.120 C 233.956 356.521,234.778 354.973,237.676 351.072 C 242.069 345.159,242.407 343.771,242.759 330.200 C 243.057 318.743,243.204 318.056,246.318 313.513 C 250.156 307.914,250.809 305.040,251.160 292.200 C 251.529 278.702,251.319 279.170,260.091 272.341 C 290.244 248.868,304.563 213.237,298.406 177.000 C 289.643 125.428,242.133 89.406,190.000 94.807 M213.725 110.974 C 272.515 122.005,302.434 185.285,272.681 235.667 C 266.186 246.665,257.579 255.610,245.818 263.586 C 235.810 270.373,235.905 270.160,235.583 286.600 C 235.218 305.262,235.577 304.890,217.400 305.451 C 203.523 305.880,195.251 305.859,181.600 305.362 C 164.317 304.733,164.776 305.240,164.414 286.400 C 164.103 270.198,164.178 270.365,154.182 263.586 C 140.495 254.305,130.981 243.584,124.198 229.800 C 99.051 178.698,132.331 118.315,190.000 110.412 C 194.171 109.840,209.634 110.207,213.725 110.974 M222.297 322.207 C 228.527 324.057,229.357 336.559,223.460 339.712 C 221.487 340.767,183.284 341.356,178.895 340.399 C 171.026 338.684,170.220 324.118,177.882 322.085 C 180.574 321.371,219.846 321.479,222.297 322.207 M211.000 356.766 C 218.758 359.914,210.437 370.242,200.200 370.171 C 188.485 370.090,180.369 358.542,190.519 356.396 C 193.000 355.872,209.532 356.171,211.000 356.766 "
              stroke="none" fill="#27201e" fill-rule="evenodd"/>
    </g>
</svg>