<svg version="1.1" xmlns="http://www.w3.org/2000/svg"
     viewBox="0 0 400.000000 400.000000">
    <g transform="translate(0.000000,400.000000) scale(0.100000,-0.100000)">
        <path d="M971 3864 c-393 -57 -705 -326 -813 -701 l-23 -78 0 -1090 0 -1090
23 -78 c110 -381 421 -645 826 -702 78 -11 195 -15 408 -15 l298 0 0 1885 0
1885 -312 -1 c-206 -1 -345 -6 -407 -15z"/>
        <path d="M2273 3867 c4 -12 114 -169 440 -632 66 -93 141 -200 166 -236 168
-239 197 -278 206 -276 5 2 50 62 100 133 50 71 152 215 225 319 249 353 235
330 217 358 -19 29 -126 125 -180 161 -133 90 -278 146 -446 171 -136 20 -736
22 -728 2z"/>
        <path d="M2280 1476 l0 -1366 303 0 c311 0 468 13 564 45 24 8 49 15 55 15 19
0 179 80 233 117 166 113 315 305 371 480 49 153 47 108 51 1098 3 847 2 929
-12 914 -9 -8 -44 -56 -78 -105 -335 -486 -674 -963 -684 -964 -6 0 -49 54
-95 121 -45 66 -110 158 -143 204 -33 46 -130 184 -215 306 -85 122 -184 263
-219 313 -35 50 -79 113 -97 140 l-34 48 0 -1366z m964 -191 c78 -39 138 -100
178 -183 30 -61 33 -74 33 -162 0 -87 -3 -101 -33 -161 -50 -104 -141 -180
-242 -207 -87 -22 -108 -23 -175 -7 -168 39 -283 158 -305 317 -26 183 69 346
245 420 30 13 65 16 140 15 89 -2 107 -6 159 -32z"/>
    </g>
</svg>
