<svg version="1.1" xmlns="http://www.w3.org/2000/svg"
     viewBox="40 5 10 40">
    <path d="M41.487 31.932l.714 1.446 5.395-2.662-.713-1.446-5.393 2.662zM42.67 28.1l3.746 1.85.714-1.446-3.746-1.85-.714 1.447z"/>
    <path d="M41.126 33.49l7.486 2.18.45-1.546-7.484-2.183-.452 1.55z"/>
    <path d="M44.968 16.694c-1.73 0-3.13 1.402-3.13 3.13 0 1.73 1.4 3.13 3.13 3.13 1.728 0 3.13-1.4 3.13-3.13 0-1.728-1.402-3.13-3.13-3.13zm0 4.113c-.543 0-.983-.44-.983-.983 0-.543.44-.982.983-.982.543 0 .982.44.982.982 0 .543-.44.983-.982.983z"/>
    <path d="M46.87 22.393c-.19-.593-.864-1.073-1.5-1.073h-.743c-.637 0-1.307.483-1.496 1.073l-4.68 14.625c-.19.594.17 1.074.815 1.074h.923c.32 0 .648-.24.737-.545l2.395-8.186c.572-1.944.963-3.583 1.588-5.504h.105c.6 1.92.99 3.56 1.563 5.506l2.42 8.187c.088.3.416.544.733.544h1.033c.638 0 1-.483.81-1.074l-4.705-14.625z"/>
    <path d="M51.502 18.994l-.545-.39 2.488-.962-.422-.596 5.555-.482.043.13-2.26.89.262.486-2.996.735.46.578-4.145.56-.057-.113 1.62-.836"/>
    <path d="M51.297 13.088l.456.367-3.898 2.74-.09-.094 1.39-1.893-.726.043 1.545-1.78-.4-.486 4.782-3.617.092.094-1.86 2.555.586-.002-1.88 2.076"/>
    <path d="M38.713 13.088l-.456.367 3.898 2.74.09-.094-1.39-1.893.726.043-1.545-1.78.4-.486-4.783-3.617-.09.094 1.86 2.555-.587-.002 1.88 2.076"/>
    <path d="M38.51 18.994l.544-.39-2.488-.962.422-.596-5.555-.482-.043.13 2.263.89-.263.486 2.997.735-.46.578 4.145.56.057-.113-1.62-.836"/>
</svg>
