
<svg version="1.1" xmlns="http://www.w3.org/2000/svg"
 width="128.000000pt" height="128.000000pt" viewBox="0 0 128.000000 128.000000"
 preserveAspectRatio="xMidYMid meet">
<g transform="translate(0.000000,128.000000) scale(0.100000,-0.100000)"
fill="#000000" stroke="none">
<path d="M420 1139 c-14 -5 -50 -35 -81 -67 -30 -31 -72 -68 -92 -82 -43 -30
-67 -82 -67 -149 0 -40 -4 -51 -24 -64 -31 -20 -66 -94 -66 -137 0 -43 35
-117 66 -137 20 -13 24 -24 24 -64 0 -67 24 -119 67 -149 20 -14 62 -51 92
-82 64 -65 91 -78 165 -78 66 0 110 27 143 89 19 37 23 59 23 142 0 113 -7
135 -60 199 -27 32 -40 58 -40 77 0 35 -33 73 -63 73 -41 0 -67 -27 -67 -70 0
-40 26 -70 60 -70 8 0 35 -26 60 -57 l45 -58 0 -86 c0 -121 -35 -179 -108
-179 -38 0 -91 35 -113 75 -14 24 -40 47 -70 64 -39 21 -52 34 -62 66 -20 59
-6 99 36 103 27 3 38 -3 65 -33 20 -23 32 -48 33 -68 2 -34 34 -67 66 -67 25
0 68 44 68 70 0 24 -42 70 -63 70 -8 0 -34 20 -59 44 -52 53 -86 63 -147 47
-41 -11 -46 -10 -65 9 -29 29 -29 111 0 140 19 19 24 20 65 9 61 -16 95 -6
147 47 25 24 51 44 59 44 21 0 63 46 63 70 0 26 -43 70 -68 70 -32 0 -64 -33
-66 -67 -1 -20 -13 -45 -33 -67 -60 -68 -124 -37 -107 51 8 43 29 68 77 91 23
11 47 34 60 57 28 49 80 78 129 72 36 -5 47 7 48 51 0 15 -102 16 -140 1z"/>
<path d="M690 1128 c-19 -13 -44 -43 -57 -67 -19 -37 -23 -59 -23 -142 0 -113
7 -135 60 -199 27 -32 40 -58 40 -77 0 -59 60 -91 108 -57 31 21 31 87 0 108
-12 9 -29 16 -38 16 -8 0 -35 26 -60 57 l-45 58 0 86 c0 121 35 179 108 179
38 0 91 -35 113 -75 14 -24 40 -47 70 -64 39 -21 52 -34 62 -66 20 -59 6 -99
-36 -103 -27 -3 -38 3 -65 33 -20 23 -32 48 -33 68 -2 34 -34 67 -66 67 -25 0
-68 -44 -68 -70 0 -24 42 -70 63 -70 8 0 34 -20 59 -44 52 -53 86 -63 147 -47
41 11 46 10 65 -9 29 -29 29 -111 0 -140 -19 -19 -24 -20 -65 -9 -61 16 -95 6
-147 -47 -25 -24 -51 -44 -59 -44 -21 0 -63 -46 -63 -70 0 -26 43 -70 68 -70
32 0 64 33 66 67 1 20 13 45 33 67 60 68 124 37 107 -51 -8 -43 -29 -68 -77
-91 -23 -11 -47 -34 -60 -57 -28 -49 -80 -78 -129 -72 -31 4 -37 2 -42 -17
-12 -43 -8 -46 48 -46 76 0 103 12 167 78 30 31 72 68 92 82 43 30 67 82 67
149 0 40 4 51 24 64 31 20 66 94 66 137 0 43 -35 117 -66 137 -20 13 -24 24
-24 64 0 67 -24 119 -67 149 -20 14 -62 51 -92 82 -64 65 -91 78 -165 78 -38
0 -62 -6 -86 -22z"/>
</g>
</svg>
