<svg version="1.1" xmlns="http://www.w3.org/2000/svg"
     viewBox="0 -100 780 700">
    <path d="M98 105l-1 2 1 2 2-2-2-2zm-7-1c-1 0-2 1-2 3l2 2 1-3-1-2zm15 1l-2 2 2 3 1-2c1-1 0-2-1-3zm-23 0l-2 2 2 2c1 0 2-1 1-2l-1-2zm-16 4v2c0 1 1 2 2 1l1-2c-1-1-2-2-3-1zm8-3c-1 0-2 1-1 2 0 2 1 2 2 2l1-2-2-2zm39 1l-2 1 1 3 2-2-1-2zm9 118l4 4 1-1-5-4v1zm7-112l-1-3-2 2c-1 1 0 2 1 2 1 1 2 0 2-1zm-9-5l-2 2 1 2c1 1 2 0 2-1 1-1 0-2-1-3zm-2 113l1 1h1l-2-2v1zM60 113v2c1 1 2 2 3 1v-2c-1-1-2-2-3-1zm638-54l-5-1h-1l6 2v-1zm51 26l-5-3 5 4v-1zm-8-5l-1-1-4-2 4 3h1zm-52-23l-6-2v1l6 1zM130 231l5 4v-1l-5-3zM680 54l-6-1v1l6 1v-1zM415 371l2 5-1-5h-1zm361-268h-1l5 4v-1l-4-3zm-19-13l-5-3v1l5 3v-1zm16 11l-5-3 4 3h1zm-8-5l-5-4v1l5 3zM412 342l-1 1 1 5v-6zM671 52l-6-1v1l6 1v-1zM416 276l-2 6h1l1-5v-1zm-2 10l-2 6h1l1-6zm0 75l1 6-1-6zm-3-60h1v-6l-1 6zm-273-64l5 3-5-4v1zm273 96h-1l1 6v-6zm-1-9v5h1l-1-5zm0-14h1v-5l-1 5zm-172-57l6-1v-1l-6 2zm174 99l1 6h1l-1-6h-1zm-2-32l1-6h-1v6zm-247-70l5 2 1-1-6-1zM324 80l-3 6h1l2-6zM146 242l5 3v-1l-5-2zm8 4l5 3 1-1-6-2zm27 9l6 1v-1h-6zm-9-2l6 1-6-2v1zm47 3h6v-1l-6 1zm-9 0v1h6v-1h-6zm-19 0l6 1v-1h-6zm15 0a142 142 0 0 1-6 0v1a141 141 0 0 0 6 0v-1zm22-2l1 1 5-1v-1l-6 1zm131-66v-1l-5 4h1l4-3zm-12 1l-4-4-1 1 5 4v-1zm0 8l5-3 2 2v-1l-2-2-2-1h-1l2 2-4 3zm-7 6l4-3v-1l-5 4h1zm0-20l-4-5v1l4 4zm17 15l5 3-5-4v1zm8 5l5 3 1-1-6-2zm4-24l5-4h-1l-4 3v1zm10 31v-1l-5-2h-1l6 3zm38 63l2-5v-1l-2 6zM333 68l-1-1-1 2v1l2-2zm33 113l-4 4 4-4zm-50-45l2 6v-1l-1-5h-1zm2 9l2 6 1-1-2-5h-1zm4 9l2 5h1l-3-5zm-4-56h-1l-1 6 2-6zm2-9l-2 5 1 1 1-6zm-5 37l1 6-1-6zm14-54l-3 5 3-5zm0 96l-3-6v1l3 5zm-13-61h-1v6l1-6zm18 68l-3-4h-1l4 5v-1zm-19-52a89 89 0 0 1 0-6 90 90 0 0 0 0 6zm289-72h-6l1 1 5-1zM53 139l-1 3h3l1-3h-3zm1-12l-2-2h-2l1 3 3-1zm-1 6l-2-1-2 2c0 1 1 2 2 1l2-2zm194-58l1-4-3 1-1 2 3 1zM54 118l1 3h2v-3h-3zm560-68h-6v1l6-1zm28-1h-6l6 1v-1zm10 1l-6-1v1h6zm-29 0v-1h-6v1h6zm10-1h-6 6zM248 75l3-1 1-3-3 1-1 3zm139 87l-4 4 5-4h-1zm144-91v-1l-5 3 5-2zm-8 4l-1-1-5 2v1l6-2zm17-8l-6 2 1 1 5-3zM388 212l-5-2-1 1 6 2v-1zm-7-43l-1-1-4 4v1l5-4zM237 90c9-1 13-7 13-7-3 6-14 8-14 8 3 1 8-1 8-1 7-3 9-11 9-11h-5c-1 8-11 11-11 11zm15-15h-4v3h3l1-3zm297-11l-6 2 6-2zm112-13l-6-1v1h6zM558 61l-6 2 6-2zm9-2v-1l-6 2h1l5-1zM305 225l-5 3v1l5-3v-1zm-9 5l-5 3 6-2-1-1zm309-28l3-2-2-2-3 2 2 2zm-317 32l-5 3 5-2v-1zm25-13l-5 3 5-3zm97-76v-1l-5 4 5-3zm-3-11c-1 0-2 1-1 2 0 2 1 2 2 2 1-1 2-2 1-3 0-1-1-2-2-1zm-3-19l-3-2c-1 0-2 1-1 3 0 1 1 2 2 1l2-2zm-267 0c1-1 0-2-1-2-1-1-2 0-2 1l1 2c1 1 2 0 2-1zm267 13l2-3c-1-1-2-2-3-1-1 0-2 1-1 2l2 2zm-9 28l-5 4 5-4zm-124 86l-6 2v1l6-2v-1zm338-12c0-1-1-2-2-1l-2 2 3 2c1-1 2-2 1-3zm1 8c-1 1-2 2-1 3 0 1 1 2 2 1 1 0 2-1 1-2l-2-2zm-2-18c0-1-1-2-3-2-1 1-2 2-1 3l2 2 2-3zm5-47l3-1v-3c-1-1-3 0-3 1v3zm-8 39l2-2-2-2-2 2 2 2zm-162 15l-4 4v1l4-5zm-6 7l-4 5h1l3-5zm190 10v-1l-3 6h1l2-5zm-365 2l-6 1v1l6-2zm169-4l-3 5h1l3-5h-1zm327-127l-4-1-6-3c-12-8-21-22-17-37l2 1-2-1 1-3-1 2-3-1 2 2c-3 9-2 19 3 27l1 2-5-4-2-3c-4-8-5-17-3-26v1l1-1h-1l3-13-4 12-4-1 4 2c-2 7-3 15 0 23l-4-4a49 49 0 0 1-5-23l2 1v-1l-2-1c0-10 3-20 9-28-6 7-10 17-11 27h-2l2 1v16l-2-4c-3-4-5-10-6-15l3 1-3-2c-2-13 2-28 14-37-12 8-16 23-14 37h-1c-3-17 6-36 23-42-22 7-32 36-22 56 4 9 9 17 16 24l6 8-19-3c-25-3-50-3-75 1-10 1-21 1-29-4-7-4-9-12-8-19l9 1c6-1 9-9 5-14s-12 0-13 5l-3 6c-5-2-11-7-14-12-3-3-4-7-5-11l2-1h-2a27 27 0 0 1 5-21l1 2 5 6c3 1 6 0 7-2 3-4 3-13-4-12-4 0-7 3-9 5-2-3-2-8-1-12 2-9 8-21 18-22-10 1-16 13-18 22-1 4-1 9 1 13l-3 4c-3 5-4 11-3 18h-2v1l2-1c1 4 2 8 5 11 4 6 9 11 15 13-1 8 2 17 9 21 6 4 13 6 20 6a219 219 0 0 0-53 18c-20-11-40-26-58-44v-2l3-2-4 1c-2-11-9-22-19-29l-10-5a264 264 0 0 1-8-13l-9-16 1-2a2 2 0 0 0-3-1l-5-13h-1a306 306 0 0 0 5 14 2 2 0 0 0 3 2 281 281 0 0 0 8 17l1 2 1-1 7 11c-14-5-31-4-44 4-6 4-12 10-16 16 0-8-3-17-10-21-5-4-13-5-19-3s-11 11-5 15c-5-5 0-13 6-14 5-2 12-1 17 3 8 6 10 17 7 26l-3 5v1c-3 6-5 12-5 19-2 18 5 38 19 51 17 18 44 26 68 22-26 17-51 32-80 40-7 3-15 4-23 5l-1-1-1 1c-18 1-37-2-55-8l1-1h-1l-1 1-13-5c-31-13-58-35-87-53l-7-4c-3-5-5-9-6-15-3-13 1-28 12-38-11 10-15 25-12 39 0 4 2 9 4 13l-1-1-5-15c-1-14 4-29 15-37v-1h1v-1h1l-1 1s8-4 9-9c0 0 0 4-8 10 0 0 12-4 11-15l-7 1c-3 1-7 7-6 13l-1 1c-3-12 6-16 6-16-8 5-6 15-6 15 0-13 10-15 10-15v-4l-8 4c-7 9-3 16-2 16-12 8-18 23-17 37l3 12c-25-15-51-28-77-37a167 167 0 0 1 0 1c27 10 52 23 77 39l3 5-31-17c-32-17-66-32-102-37-18-2-36-1-52 5-16 5-31 17-38 31 7-14 22-25 38-30 17-5 34-5 52-2 20 3 39 10 58 18l-8 3c-7 4-11 11-11 18 0-7 4-14 11-17 3-2 6-3 10-3l-11 4c-7 4-11 12-10 19 0-7 4-15 11-18 6-3 14-3 21 0a492 492 0 0 1 83 52c-5 0-9 3-12 7-3-1-7 0-11 1a16 16 0 0 0-11 16l-5 5c-3 5-4 12 1 16-5-4-3-11-1-16l5-5c0 2 0 4 2 5 2 3 6-1 6-3 0-4-5-5-7-3h-1v-2c1-6 6-11 11-12l11-1-1 3c-1 3 1 8 5 7 3 0 5-5 2-8l-4-2c2-4 6-6 10-6l5 1 30 22c12 8 24 15 37 21l26 10c-17 4-34 12-47 25-14 0-28-2-42-5l-2-1c-22-6-44-18-59-34v-1a2 2 0 0 0-3-2l-7-8a4 4 0 0 0-4-6c-7-11-11-22-13-34a2 2 0 0 0-1-4 88 88 0 0 1-1-18 89 89 0 0 0 1 18 2 2 0 0 0 0 4c2 12 7 23 14 34a4 4 0 0 0 4 6l6 8a2 2 0 1 0 3 3c16 16 38 28 60 34l1 1-5 1v1l6-2c14 3 28 5 42 5l-11 14c-14 24-9 54 1 79-9-25-14-55 1-78 3-6 7-11 12-15h7c-17 18-17 45-11 66-6-22-4-49 14-65l2-1 8-1a47 47 0 0 0-11 44c-4-17 5-35 19-45l5-1c-4 4-7 7-9 12-12 20-7 44 1 64-8-20-12-45 0-64l11-12 6-1-1 1c-15 14-15 36-9 54-5-18-3-40 11-52l7-5 4-1c-10 10-16 26-12 40-3-15 5-28 16-36l12-8a404 404 0 0 0 25-6v-1c40-1 75-19 106-37 32-18 63-38 95-49l6-2-5 3c-23 14-44 35-55 60-6 3-11 3-17-1 4 4 10 5 15 4l-1 2h-1c-7 4-15 0-21-5 5 5 12 9 19 8l-2 2-5 1c-9 2-18-2-24-10 5 8 13 13 23 13l-3 1-21-2c-3-2-6-6-7-10 1 4 4 8 7 10h-1c-4-3-7-9-8-16 0 7 3 12 7 16a115 115 0 0 0-111 81 2 2 0 0 0-1 4l-2 10a2 2 0 0 0 0 4l-1 10v1l-1 1 1 1 2 11a4 4 0 0 0 2 7l3 8h1l-4-8a4 4 0 0 0-2-7l-1-11 1-1-1-1v-1-10a2 2 0 0 0 1-4l2-10a2 2 0 0 0 1-3 114 114 0 0 1 36-55l-2 4v1l3-6c18-15 43-25 73-25 6 5 14 8 21 5l8-3 4 1-1 5c-5 17-3 35-7 50s-10 29-21 40h-7c-8-2-13-11-9-18 3-8 17-8 18 1 2 3-1 8-5 9s-8-4-7-8c-1 4 3 9 7 8s7-5 6-10c-2-9-16-9-20-1s1 19 10 20l5 1-1 1c-12 12-27 20-41 30a67 67 0 0 0-28 41c3-17 15-31 29-41 13-10 29-18 41-29l2-2 3-1c-6 7-14 13-22 18-15 10-31 19-42 34a75 75 0 0 0-11 48c0 4 0 13 4 17 0 0-5-3-5-17 0 0-5 16 8 24l5-8c1-5-2-15-12-20l6 8c2 3 5 8 3 13 1-2 1-9-8-19l5 12c-2-1-4-6-6-11 0-16 3-33 13-46 10-14 27-22 42-32 16-9 31-23 40-40 9-18 11-38 13-55l1-7c2 8 6 14 12 19 11 11 32 10 41-4 3-3 4-7 4-12l15 3v2l3 1 1-2 27 2 8 5a53 53 0 0 0 68-18c24-9 45-22 60-35v-1c-15 13-35 26-60 36 6-9 9-19 8-29a39 39 0 0 0-39-35h1v-1l-3 2c-11 1-20 8-25 18v1l4-4c-3 5-5 11-4 17 1 8 8 15 15 17-7-3-13-9-14-17s3-16 9-21c12-11 32-7 42 6 10 12 8 31-2 43l-10 9c-10 3-21 5-33 6a52 52 0 0 1-32-75c3-8 9-14 15-20 21 4 42 7 61 7l-3 1v1l4-1a441 441 0 0 0 56-2l10 5v-31c-26-11-54-19-82-22a225 225 0 0 0-118 18l-4-3a237 237 0 0 1 170-9l3 1h1l30 11v-9l-22-7v-1zm-51-41c-2-4-4-8-4-13l1 1c0 5 2 11 5 15l4 6 1 2-7-11zm17 23l-3-3 2 2 1 1zM597 74c2-4 7-8 11-4 3 4 1 11-4 12l-9-1 2-7zm-9-45c6-1 7 8 4 11-2 2-4 4-7 3l-5-6-1-2c3-3 5-5 9-6zM238 87l-1 1 4-6-3 5zm-1-3c1-2 2-6 6-7-2 0-5 3-7 11l-1 1 2-5zm-26 112c3-1 7-1 6 3 0 2-3 5-5 3l-2-5 1-1zm26-12c2 2 1 6-2 6-2 0-4-3-3-5l1-3 4 2zm286 42c-7 4-15 3-21-1l21 1zm-2 2c-7 3-14 1-20-3h1c6 4 14 5 21 2l1-1h1l-4 2zm4-2l2-1h1l-3 1zm11-7l-2 1 2-1zm-7 8l5-3-1 4-4-1zm4 22c-2 18-3 36-11 53-3 7-7 13-12 18l-4 2c10-10 17-24 20-38 5-16 3-34 8-51l1-5 2 1-4 20zm4-21h-2a100 100 0 0 1 2-6l3-2-3 8zm159-88c18 3 35 7 53 14h-2v1l3-1 19 8a460 460 0 0 1-54 1h1v-1l-3 1c-19-1-39-3-60-7 12-10 27-16 43-16zm-155 73v-1h1l-1 1zm53 45c-9 13-29 14-41 4-6-5-10-13-11-21v-1c1 10 6 18 14 23 13 11 35 5 40-11l2-6c0 5-2 9-4 12zm-31-22c-1 3 0 7 2 10 4 7 15 7 18 0-3 7-14 6-18 0-2-3-2-7-1-10l1 1 31 9-1 5c-6 15-25 20-37 10-10-7-14-19-13-30l18 5c-2 7 3 15 10 16-7-1-12-9-10-16zm1 0c1-4 3-7 7-9 6-4 15-2 20 4 3 4 5 9 5 15l-31-10h-1zm34 10c0-6-2-12-6-16-6-6-15-8-22-4-3 2-6 6-7 10v-1c2-7 9-12 17-12 11 1 18 12 18 23zm118-7c11-14 12-35 0-49-8-10-23-15-35-11-4 1-7 4-10 7l-5 5v-1l-3 4c4-9 13-16 23-18l-2 1 1 1 3-2h5c17 2 32 16 34 34 1 10-3 21-9 29l-3 2 1-2zm-15 6c-9 6-20 8-31 6 11-1 22-3 31-6zm-33 13c17 4 36-4 47-17l3-1a51 51 0 0 1-65 15l-5-3h4c5 3 10 5 16 6zm-28-109l4-2-5 6-2-1 3-3zm-2 4l-11 18c-9 17-9 38-1 54 5 12 14 21 25 27h-4c-6-4-12-9-16-16v-1l-1 1c-4-6-8-13-10-21-4-17 0-36 9-51l7-12 2 1zm-4-2h-1 1zm-1 1l-7 10c-9 16-13 36-8 54 2 8 6 16 11 22l-1 2h1v-1l14 13a224 224 0 0 1-26-3c-1-1-2-2-3-1l-1 1-15-3c1-11-7-22-18-23-8 0-15 5-17 12v1l-18-6 1-3c10-24 28-45 51-59l35-17 1 1zm-18-9l9-2-9 5-3-1 3-2zm-1 3l-23 13c-15 10-28 23-38 38l-1-1v2l-4 6-5 4a142 142 0 0 1 69-63l2 1zM508 99c-6 18-27 30-44 22-5-2-8-4-12-8h1c9 10 24 13 36 7 14-7 22-24 20-39 1 6 1 12-1 18zm1-18zm-19-29c10 6 17 17 19 28l-1-3c-3-13-13-23-25-28v-1l7 4zm1 6l-1 1-3-5c7 4 12 10 14 18a244 244 0 0 1-8-11c0-2-1-3-2-3zm-6-7l-1-1a43 43 0 0 1 24 30l-6-7c-2-9-8-17-17-22zm-1 0l-2-1a42 42 0 0 0-10-4l11 3 1 2zm-2-3l1 1a47 47 0 0 0-24-4l-11 2c11-4 24-4 34 1zm-63 24v0zm9-10l2-3a47 47 0 0 1 56-5l4 5a2 2 0 1 0 3 3l8 10a31 31 0 0 1 2 11l-2 1-1 1 2-1h1l-4 12c-4 5-11 7-17 4 6 3 13 1 17-4 3-4 4-8 4-12l2-1v-1l-2 1a31 31 0 0 0 0-9l5 6v1h1c2 15-6 31-20 39-12 6-27 3-36-7l3-2v-1l-3 2-1 1-6-12c-2-9 2-19 9-25a26 26 0 0 0-3 37l-1 1 1-1a32 32 0 0 0 39 7c8-4 14-12 18-21 2-5 2-11 2-16 18 18 37 32 58 43-15 7-29 15-42 23a61 61 0 0 1-10 7 73 73 0 0 1-94-22l2-1v-1l-2 2a58 58 0 0 1 5-72zm-16 34c0-6 2-12 4-18v1l1-1a58 58 0 0 0 5 56v1c-8-12-12-25-10-39zm18 49l-8-10h1a74 74 0 0 0 87 26l-3 1c-26 9-57 3-77-17zm-199 8l-4-8 1 1 5 8-2-1zm75 100l-1 1h-7c14-12 32-20 50-23l-2 1c-15 3-29 10-40 21zm17-4l-4 4h-8c6-5 12-8 19-11l-7 7zm8 2l-4 1c5-5 11-8 17-11l-13 10zm22-4l-4 1 7-5-3 4zm-12 2l-6 1c8-7 18-11 29-14-9 3-17 7-23 13zm29-7l13-5h3l-16 5zm210-110c-33 14-61 33-90 51-23 15-48 28-74 35v-1h-6l4 1a152 152 0 0 1-86-7h1v-1l-1 1c-15-6-29-14-43-22l-47-32-8-9 4 2c29 18 55 40 86 53l12 5v0c23 9 48 12 71 8l4 1v-1h-2l12-3c35-9 66-29 97-49l17-10h-1l45-24 5 2zM279 238l-5 3 6-2-1-1zM580 55l6-1-6 1zm9-1l6-1v-1l-6 1v1zM458 176c0-2-1-3-2-3-1-1-2 0-3 1l2 3 3-1zm243-7l6-3-6 2v1zm-233 10l-2-3-3 1c0 2 1 3 2 3l3-1zm181 30l4-5h-1l-3 4v1zm-11 15l3-5-4 5h1zm55-51l5-3-5 2v1zm-50 43l4-5h-1l-3 5zm-195-44l-1-3c-2-1-3 0-3 1-1 1 0 2 1 3l3-1zm207 30l5-5h-1l-4 4v1zM399 94l2 2 2-2-2-2-2 2zm11-30l-1-3-3 1 1 3c1 1 2 0 3-1zm-9 43l2-2c0-2-1-3-2-3s-2 1-2 3l2 2zm-1-24l2 3 2-2c1-1 0-2-1-3l-3 2zm3-10c-1 1 0 2 1 2 1 1 2 0 3-1l-2-3c-1 0-2 0-2 2zm35 94c1-1 0-2-1-3s-2 0-3 1l1 3 3-1zm-40-13l4-4-5 4h1zm31 7v-3l-3 1v3l3-1zm-17-18c-1 1-2 2-1 3l3 1v-3l-2-1zm2-3l-2 2h1l2-1 2-2v-1l-3 2zm6 124h1l2-5h-1l-2 5zm1-109v-3l-3-1v3l3 1zm65 194v3l2 1 1-3-3-1zm-13 8v3l3 1v-3l-3-1zm7-4v3l2 1v-3l-2-1zm-13 9v2c1 1 2 2 3 1v-2c-1-1-2-2-3-1zm-6 4v3l3 1v-3l-3-1zm38-24v2l2 1 1-2c-1-1-2-2-3-1zm109-29h1l1-6h-1l-1 6zm-1 10h1v-6l-1 6zm-101 15l-1 2c1 1 2 2 3 1v-2l-2-1zm103-34h1l1-6h-1l-1 6zm-116 42v2c0 1 1 2 2 1v-2c0-1-1-2-2-1zm-38 25v3h3v-2l-3-1zm-5 6v3h3l-1-3h-2zm-10 71l3 4 2-5-2-2-3 3zm-6-29c15 7 13 21 13 21 0-14-12-19-12-19 15 11 8 23 8 23 4 5 6 4 6 4 2-6 1-13 1-13-4-16-16-16-16-16zm1 27l-1 3 3 4 2-4-4-3zm-5-23c-5 11-2 20-2 20-4-8 2-22 2-22-4 3-5 11-5 11-2 11 6 19 6 19l3-6c-7-8-4-22-4-22zm10 26l-2 4 2 3s3-3 2-4l-2-3zm-2-35l2-1-2-2-2 2 2 1zm-2-9l2 2 2-2-1-1c-1-1-2 0-3 1zm2-8c0 1 0 2 2 2 1 1 2 0 2-1l-1-2-3 1zm6-8l-3 1 1 2h3l-1-3zm2-3l2-1v-2h-3l1 3zm34-290v-1l-5 3v1l5-3zm127 96a2 2 0 0 0 1-4c-1-1-3 0-3 1 0 2 1 3 2 3zm-135-91v-1l-5 3v1l5-3zm-8 5v-1l-5 3v1l5-3zm261 54v-1l-6 2v1l6-2zM497 87v-1l-6 3 1 1 5-3zm-9 4l-5 3 5-3zm123 203h1l1-5h-1l-1 5zm11-131v-3l-3 1v3l3-1zm-182-41v-1l-5 4 5-3zm-7 5h-1l-5 3 1 1 5-4zm15-11l-5 3v1l5-4zm161 66l3-1-1-3-3 1 1 3zm10 79l-1 6 2-6h-1zm4-9l-2 5h-2v3h3a2 2 0 0 0 0-3l1-5zm-10 33l2-6h-1l-1 6zm2-9h1l1-6-2 6zm119-118v-1l-6 1v1l6-1zM625 265v3h3v-3h-3zm118-110l-6 1v1l6-2zm-90 126c-1 0-2 0-3 2l2 2c1 1 2 0 2-1 1-1 0-2-1-3zm-20-9v3h3v-3h-3zm11 5l-3 1 1 3 3-1-1-3z"/>
</svg>