<?xml version="1.0" encoding="utf-8"?><svg width="166" height="102" viewBox="0 0 166 102" xmlns="http://www.w3.org/2000/svg" xmlns:xlink="http://www.w3.org/1999/xlink"><view id="border-b-left" viewBox="34 0 32.51 34"/><svg viewBox="-11.37 -11.37 369.75 386.75" width="32.51" height="34" x="34" xmlns="http://www.w3.org/2000/svg"><path d="M31.2 176.7L31 339l127.8-.1 127.7-.2-56.5-1.2c-96.3-2.1-182.4-4.7-184.8-5.6-5-1.9-4.9-.9-8.7-96.9-2.1-52.2-3.6-109.7-4.4-169-.6-38.3-.8-10-.9 110.7z"/></svg><view id="border-b-right" viewBox="99.01999999999998 0 32.51 34"/><svg viewBox="-11.37 -11.37 369.75 386.75" width="32.51" height="34" x="99.01999999999998" xmlns="http://www.w3.org/2000/svg"><path d="M344.7 230.7c-2.7 57.4-6.8 119.6-8.1 122.3-.6 1.4-2.2 3-3.6 3.6-2.6 1.2-72.4 3.4-182.5 5.9l-56 1.2 126.3.2 126.2.1v-84.5c0-46.5-.1-84.5-.3-84.5-.1 0-1 16.1-2 35.7z"/></svg><view id="border-t-left" viewBox="66.50999999999999 0 32.51 34"/><svg viewBox="-11.37 -11.37 369.75 386.75" width="32.51" height="34" x="66.50999999999999" xmlns="http://www.w3.org/2000/svg"><path d="M.2 163.7c.1 120.4.3 150.3.9 112.8 1.1-77.9 2.8-136 7-233 .6-14.3 1.6-27.3 2.1-28.8.6-1.5 2-3.3 3.1-3.9C17 8.9 131.5 4 233.5 1.6l53-1.3L143.3.1 0 0l.2 163.7z"/></svg><view id="border-t-right" viewBox="0 34 32.51 34"/><svg viewBox="-11.37 -11.37 369.75 386.75" width="32.51" height="34" y="34" xmlns="http://www.w3.org/2000/svg"><path d="M102 22.5c63.4 1.6 134.6 4.1 183.2 6.4 39.3 1.9 41.2 2.3 42.2 7.4.8 3.7 4.9 68.9 8.5 135.7.6 10.8.9-9.8 1-67.8L337 21l-143.2.1-143.3.2 51.5 1.2z"/></svg><view id="icon-About" viewBox="32.51 34 34 34"/><svg viewBox="-3.39 -3.39 115.39 115.39" width="34" height="34" x="32.51" y="34" xmlns="http://www.w3.org/2000/svg"><path d="M78.119 73.246c-6.566-3.363-13.357-6.156-20.227-8.791-.513-.193-1.123-.588-1.336-1.035-.562-1.24-.947-2.555-1.354-3.85-.248-.836-.471-1.615-1.379-2.021-.248-.106-.471-.584-.471-.895.055-3.016-.648-6.182 1.592-8.813.068-.082.098-.197.145-.295 1.209-2.639 1.414-5.66 3.104-8.121.043-.053.053-.135.061-.205.197-1.883.396-3.748.559-5.623.017-.23-.186-.645-.387-.717-.928-.324-.879-1.076-.873-1.82 0-3.664 0-4.195-.006-7.859 0-2.131-.627-4.021-2.234-5.473-1.835-1.646-3.718-3.24-5.604-4.83-.904-.77-.99-1.363-.135-2.207.379-.375.857-.645 1.297-.957a26.912 26.912 0 0 1-.287-.432c-.57 0-1.143-.074-1.693.008-2.086.338-4.18.633-6.223 1.113-3.908.922-7.703 2.143-10.871 4.76-2.164 1.785-3.895 3.867-4.115 6.813-.109 1.543-.096 3.098-.109 4.637-.012 2.521.023 1.908-.031 4.418-.014.41-.238 1.084-.525 1.174-1.016.332-1.049.982-.908 1.83.1.584.025 1.191.152 1.762.35 1.574.725 3.148 1.178 4.695.334 1.154.988 2.244 1.176 3.416.359 2.344 1.234 4.381 2.818 6.152.256.295.453.783.424 1.174a82.523 82.523 0 0 1-.555 5.396c-.051.348-.416.871-.713.938-1.201.244-1.383 1.166-1.672 2.104a44.523 44.523 0 0 1-1.254 3.652c-.148.373-.521.758-.889.926-2.127.922-4.299 1.777-6.445 2.679-2.281.959-4.588 1.877-6.818 2.936-2.299 1.103-4.531 2.337-6.779 3.546-1.326.707-2.563 1.493-3.598 2.467L0 89.236c15.256 0 23.221 11.031 39.098 12.391l-5.85-8.072 9.07-24.811-2.805-6.025h5.619l-2.814 6.025 9.072 24.811-5.695 7.877c11.559-1.936 30.006-12.195 38.956-12.195L81.52 75.73a13.013 13.013 0 0 0-3.401-2.484z"/><path d="M89.391 6.955c-10.582 0-19.19 8.609-19.19 19.191 0 .418.016.84.045 1.273l-8.81 5.725a1.572 1.572 0 0 0-.692 1.586 1.57 1.57 0 0 0 1.182 1.266l13.445 3.246a19.211 19.211 0 0 0 14.021 6.094c10.582 0 19.191-8.607 19.191-19.189S99.973 6.955 89.391 6.955zm0 35.232a16.061 16.061 0 0 1-12.004-5.406 1.582 1.582 0 0 0-.809-.486l-10.361-2.502 6.541-4.25c.502-.326.775-.908.707-1.502a16.26 16.26 0 0 1-.117-1.895c0-8.846 7.197-16.043 16.043-16.043s16.043 7.197 16.043 16.043-7.198 16.041-16.043 16.041z"/><path d="M83.561 25.6h-2.664a.335.335 0 0 0-.334.334v8.883c0 .184.15.332.334.332h2.664a.331.331 0 0 0 .334-.332v-8.883a.334.334 0 0 0-.334-.334zm6.912-3.664h-2.664a.333.333 0 0 0-.334.334v12.547c0 .184.148.332.334.332h2.664a.332.332 0 0 0 .334-.332V22.27a.335.335 0 0 0-.334-.334zm6.607-7.12h-2.666a.331.331 0 0 0-.332.332v19.668c0 .184.148.332.332.332h2.666a.331.331 0 0 0 .332-.332V15.148a.332.332 0 0 0-.332-.332z"/></svg><view id="icon-Accomplishments" viewBox="0 0 34 34"/><svg viewBox="-6.95 -6.95 236.41 236.41" width="34" height="34" xmlns="http://www.w3.org/2000/svg"><path d="M210.064 33.64H161.74v-9.353c0-2.579-2.094-4.677-4.676-4.677s-4.677 2.098-4.677 4.677v9.353h-48.32c-6.878 0-12.471 5.596-12.471 12.471V62.53l-6.491-2.165c-1.696-.603-16.824-5.873-30.759-6.558l-1.857 3.708h-.052l5.252 40.879-6.235 10.897-6.235-10.897 5.249-40.879h-.055L48.559 53.8c-14.453.709-30.233 6.373-30.939 6.628-.256.092-.423.286-.661.405a7.68 7.68 0 0 0-1.428.864c-.38.296-.697.606-1.004.962a7.33 7.33 0 0 0-.898 1.221 7.85 7.85 0 0 0-.627 1.409c-.095.274-.277.487-.344.779L.188 122.186a7.798 7.798 0 0 0 7.612 9.486 7.813 7.813 0 0 0 7.608-6.107l11.511-51.782c.804-.25 1.714-.518 2.704-.794v53.203l-6.202 77.138c-.411 5.146 3.422 9.657 8.574 10.065a9.352 9.352 0 0 0 10.069-8.573l5.605-69.715a9.314 9.314 0 0 0 3.772.804 9.264 9.264 0 0 0 3.772-.804l5.608 69.715a9.352 9.352 0 0 0 10.069 8.573c5.151-.408 8.984-4.926 8.573-10.065l-6.205-77.138V72.991c3.961 1.123 6.634 2.076 6.705 2.098.03.012.061.006.1.012.031.013.055.037.085.049l11.429 3.809v41.976c0 6.881 5.593 12.471 12.471 12.471h22.7l-19.905 74.324a4.674 4.674 0 1 0 9.031 2.411l20.563-76.741h15.941v54.382a4.678 4.678 0 0 0 4.676 4.677 4.678 4.678 0 0 0 4.677-4.677V133.4h15.941l20.557 76.741a4.688 4.688 0 0 0 5.736 3.313c2.484-.663 3.977-3.232 3.301-5.724l-19.906-74.324h22.701c6.874 0 12.47-5.59 12.47-12.471V46.11c.004-6.875-5.599-12.47-12.467-12.47zm6.235 87.294a6.243 6.243 0 0 1-6.235 6.235H104.067a6.241 6.241 0 0 1-6.235-6.235V81.041l19.744 6.585c.822.268 1.65.399 2.472.399 3.258 0 6.309-2.07 7.393-5.331.183-.548.146-1.097.201-1.653l46.855-21.681a1.556 1.556 0 0 0 .756-2.07 1.553 1.553 0 0 0-2.07-.758L127.3 77.762c-.749-2.226-2.388-4.128-4.786-4.932l-24.677-8.223V46.11a6.24 6.24 0 0 1 6.235-6.235H210.07a6.243 6.243 0 0 1 6.235 6.235v74.823h-.006z"/><path d="M51.454 52.129c10.872 0 19.701-12.62 19.701-23.501 0-10.887-8.829-19.71-19.701-19.71-10.888 0-19.717 8.829-19.717 19.71s8.829 23.501 19.717 23.501zm114.883 36.968l3.228-2.013-3.16-5.062-3.222 2.012a16.004 16.004 0 0 0-5.121-3.666l.853-3.696-5.814-1.343-.847 3.705a15.477 15.477 0 0 0-6.211 1.042l-2.021-3.23-5.061 3.16 2.021 3.23a15.688 15.688 0 0 0-3.665 5.127l-3.702-.855-1.34 5.812 3.702.853a15.702 15.702 0 0 0 1.047 6.211l-3.233 2.016 3.167 5.063 3.233-2.022a15.278 15.278 0 0 0 5.121 3.657l-.853 3.702 5.809 1.346.858-3.702a15.616 15.616 0 0 0 6.211-1.041l2.01 3.227 5.054-3.16-2.003-3.224a15.798 15.798 0 0 0 3.659-5.118l3.702.853 1.334-5.815-3.708-.861a15.632 15.632 0 0 0-1.048-6.208zm-8.987 14.736c-5.018 3.13-11.624 1.607-14.767-3.413-3.13-5.011-1.607-11.627 3.404-14.763 5.023-3.13 11.636-1.61 14.778 3.41 3.131 5.014 1.596 11.636-3.415 14.766z"/><path d="M198.64 79.613l-2.867.974a12.605 12.605 0 0 0-3.301-3.778l1.34-2.712-4.269-2.107-1.334 2.719a12.46 12.46 0 0 0-5.005-.326l-.98-2.874-4.5 1.528.969 2.874a12.481 12.481 0 0 0-3.775 3.303l-2.723-1.339-2.106 4.265 2.722 1.34a12.473 12.473 0 0 0-.328 5.015l-2.868.971 1.522 4.503 2.88-.974a12.403 12.403 0 0 0 3.3 3.778l-1.339 2.712 4.262 2.11 1.34-2.713c1.607.441 3.301.561 5.012.323l.968 2.874 4.506-1.525-.974-2.868a12.51 12.51 0 0 0 3.781-3.307l2.716 1.34 2.101-4.263-2.71-1.343c.438-1.601.561-3.303.329-5.005l2.868-.975-1.537-4.52zm-11.009 15.265c-4.47 1.516-9.311-.88-10.833-5.343-1.51-4.466.883-9.322 5.347-10.839 4.47-1.507 9.316.886 10.833 5.35 1.516 4.466-.884 9.316-5.347 10.832z"/></svg><view id="icon-Close" viewBox="0 68 34 34"/><svg viewBox="-9.21 -9.21 313.23 313.23" width="34" height="34" y="68" xmlns="http://www.w3.org/2000/svg"><path d="M147.421 0C66.133 0 0 66.133 0 147.421s66.133 147.421 147.421 147.421c38.287 0 74.567-14.609 102.159-41.136a6 6 0 1 0-8.316-8.65c-25.345 24.367-58.672 37.786-93.842 37.786C72.75 282.843 12 222.093 12 147.421S72.75 12 147.421 12s135.421 60.75 135.421 135.421c0 16.842-3.052 33.273-9.071 48.835a6 6 0 0 0 11.193 4.329c6.555-16.949 9.879-34.836 9.879-53.165C294.843 66.133 228.71 0 147.421 0z"/><path d="M167.619 160.134a6 6 0 0 0-8.395 8.575l47.236 46.236a5.981 5.981 0 0 0 4.197 1.712 6.001 6.001 0 0 0 4.198-10.288l-47.236-46.235zm-42.441-26.471c1.171 1.171 2.707 1.757 4.243 1.757s3.071-.586 4.243-1.757a6 6 0 0 0 0-8.485L88.428 79.942a6 6 0 0 0-8.485 8.485l45.235 45.236zM214.9 79.942a6 6 0 0 0-8.485 0L79.942 206.415a6 6 0 1 0 8.486 8.485L214.9 88.428a6.001 6.001 0 0 0 0-8.486z"/></svg><view id="icon-Contact" viewBox="34 68 34 34"/><svg viewBox="-1.02 -1.02 34.74 34.74" width="34" height="34" x="34" y="68" xmlns="http://www.w3.org/2000/svg"><path d="M28.189 16.504h-1.666c0-5.437-4.422-9.858-9.856-9.858l-.001-1.664c6.355-.003 11.523 5.167 11.523 11.522zM16.666 7.856l-.001 1.664a6.987 6.987 0 0 1 6.981 6.983l1.666-.001c0-4.767-3.876-8.646-8.646-8.646zM16.333 0C7.326 0 0 7.326 0 16.334c0 9.006 7.326 16.332 16.333 16.332a1.007 1.007 0 1 0 0-2.016c-7.896 0-14.318-6.424-14.318-14.316 0-7.896 6.422-14.319 14.318-14.319S30.65 8.439 30.65 16.334c0 3.299-1.756 6.568-4.269 7.954a6.172 6.172 0 0 1-2.959.761 4.733 4.733 0 0 0 1.591-1.529c.08-.121.186-.228.238-.359.328-.789.357-1.684.555-2.518.243-1.064-4.658-3.143-5.084-1.814-.154.492-.39 2.048-.699 2.458-.275.366-.953.192-1.377-.168-1.117-.952-2.364-2.351-3.458-3.457l.002-.001-.092-.092c-.031-.029-.062-.062-.093-.092v.002c-1.106-1.096-2.506-2.34-3.457-3.459-.36-.424-.534-1.102-.168-1.377.41-.311 1.966-.543 2.458-.699 1.326-.424-.75-5.328-1.816-5.084-.832.195-1.727.227-2.516.553-.134.057-.238.16-.359.24-2.799 1.774-3.16 6.082-.428 9.292a75.688 75.688 0 0 0 3.245 3.576l-.006.004c.031.031.063.06.095.09.03.031.059.062.088.095l.006-.006c1.16 1.118 2.535 2.765 4.769 4.255 4.703 3.141 8.312 2.264 10.438 1.098 3.67-2.021 5.312-6.338 5.312-9.719C32.666 7.326 25.339 0 16.333 0z"/></svg><view id="icon-Education" viewBox="131.52999999999997 34 32.5 32.5"/><svg viewBox="-1 -1 32.5 32.5" width="32.5" height="32.5" x="131.52999999999997" y="34" xmlns="http://www.w3.org/2000/svg"><path d="M18.502 22.654c-.814-.546-7.785-5.294-9.664-8.617l-.103-.183-.212-.008c-1.618-.066-2.876.87-3.415 1.354-.22-.223-.444-.452-.673-.688l-.273-.28-.271.282c-1.061 1.101-1.53 2.125-1.396 3.048.109.749.621 1.401 1.481 1.888.155.088 1.95 1.309 3.901 2.867-.337.344-1.562 1.137-2.006 1.453-.499.354-2.578 2.241-2.578 2.241l1.343.317.465.908s.638-1.562 1.338-2.333 1.923-1.387 1.923-1.387-.661.944-1.135 1.86c-.473.916-.594 2.504-.594 2.504l.821-.26.566 1.234s.151-1.744.499-2.88c.281-.919.97-1.79 1.226-2.095 2.474 2.178 5.059 4.808 5.576 5.339.312.358.716.622 1.242.739.188.041.379.061.565.061 1.07 0 2.086-.667 2.74-1.835.764-1.359.979-3.449-.347-4.822-.363-.379-.707-.594-1.019-.707zm-10.49-1.197c-1.79-1.408-3.423-2.529-3.661-2.664-.659-.373-1.031-.824-1.106-1.34-.088-.606.224-1.32.928-2.126a90.286 90.286 0 0 0 4.519 4.345c-.575.933-.676 1.434-.68 1.785zm1.112-2.416a81.026 81.026 0 0 1-3.48-3.302c.447-.391 1.43-1.11 2.647-1.139.636 1.043 1.69 2.188 2.878 3.296-.618.063-1.39.333-2.045 1.145zm.769 3.963a5.988 5.988 0 0 1 .552-1.838c2.226 1.813 3.49 2.476 4.043 2.709-.086.638-.231 2.108.021 3.452-1.195-1.182-2.952-2.88-4.616-4.323zm9.319 4.812c-.471.839-1.37 1.65-2.483 1.404-1.911-.422-1.692-4.135-1.446-5.53l.062-.353-.351-.082c-.015-.004-1.204-.338-4.142-2.737.552-.642 1.436-.929 2.108-1.056a66.793 66.793 0 0 0 4.298 3.256c-.03.015-.058.029-.083.045-1.138.646-1.613 2.515-1.366 3.41.29 1.053.993 1.729 1.733 1.715.316-.012 1.086-.19 1.367-1.596l.044-.219-.169-.143c-1.068-.909-1.646-1.446-1.922-1.715.176-.342.408-.639.687-.797.423-.238.904-.082 1.433.467 1.055 1.098.859 2.808.23 3.931zm-1.096-1.458c-.132.479-.353.767-.604.774H17.5c-.314 0-.755-.401-.964-1.159-.067-.242-.048-.603.042-.979.313.293.802.735 1.538 1.364zM5.959 8.611l-1.196 3.831s4.888.475 8.958 1.744c4.072 1.272 8.361 3.663 8.361 3.663l1.216-3.899s-3.653-3.682-8.004-5.04c-4.349-1.357-9.335-.299-9.335-.299z"/><path d="M30.504 14.008l-1.423-1.493.14-.453s1.254-2.306-1.904-1.88c-.164.032-.262.085-.317.151L17.603.482 0 4.367l4.841 4.324.26-.833s5.561-1.179 10.41.334c4.85 1.515 8.924 5.62 8.924 5.62l-.453 1.453 3.636-.702c-.606 1.938-1.302 4.171-1.519 4.862l-1.035-.324-.752 2.406 1.676-.522 1.232 1.431.75-2.406-1.119-.351 1.644-5.266 2.009-.385zm-2.084-.539a.763.763 0 1 1-1.456-.455.763.763 0 0 1 1.456.455zm-.71-2.392c.397-.118 1.071-.24.892.334-.018.056-.067.218-.143.453l-.749-.787z"/></svg><view id="icon-Experience" viewBox="68 68 34 34"/><svg viewBox="-15.5 -15.5 527 527" width="34" height="34" x="68" y="68" xmlns="http://www.w3.org/2000/svg"><path d="M400.008 96.004c26.472 0 48-21.531 48-48 0-26.473-21.528-48-48-48-26.473 0-48 21.527-48 48 0 26.469 21.527 48 48 48zm0-80c17.648 0 32 14.351 32 32 0 17.644-14.352 32-32 32-17.649 0-32-14.356-32-32 0-17.649 14.351-32 32-32zm79.942 127.062a7.937 7.937 0 0 0-2.286-4.718l-24-24a7.985 7.985 0 0 0-5.656-2.344h-96c-2.121 0-4.16.84-5.656 2.344l-24 24a7.963 7.963 0 0 0-2.29 4.718l-16 136a7.98 7.98 0 0 0 1.97 6.247 7.96 7.96 0 0 0 5.976 2.69h39.023l-22.976 199.079a8.02 8.02 0 0 0 1.976 6.242 8.014 8.014 0 0 0 5.977 2.68h48a8.007 8.007 0 0 0 7.976-7.336l8.024-96.328 8.023 96.336a8.003 8.003 0 0 0 7.977 7.328h48a8.048 8.048 0 0 0 5.976-2.672 8.008 8.008 0 0 0 1.973-6.242l-22.973-199.086h39.024a7.996 7.996 0 0 0 5.976-2.68 8 8 0 0 0 1.965-6.25zm-31.942 128.938v-112h-16v120c0 .3.015.613.047.918l22.976 199.082h-31.664L407.984 295.34a8.004 8.004 0 1 0-15.953 0l-15.383 184.664h-31.664l22.973-199.082c.035-.305.05-.617.05-.918v-120h-16v112h-31L335.63 147.69l19.691-19.687h89.375l19.688 19.687 14.625 124.313zm-170.344-21.656l-16-16a7.985 7.985 0 0 0-5.656-2.344h-80c-2.121 0-4.16.84-5.656 2.344l-16 16a7.913 7.913 0 0 0-2.184 4.086l-16 80a7.983 7.983 0 0 0 1.656 6.64 7.98 7.98 0 0 0 6.184 2.93h32v7.07l-31.793 135.098a8.007 8.007 0 0 0 7.793 9.832h40a8.007 8.007 0 0 0 7.863-6.531l16.137-86.063 16.137 86.063a8.007 8.007 0 0 0 7.863 6.53h40a8.005 8.005 0 0 0 6.27-3.034c1.519-1.918 2.081-4.422 1.519-6.797l-31.79-135.098v-7.07h32a7.986 7.986 0 0 0 6.184-2.93 7.983 7.983 0 0 0 1.657-6.64l-16-80a7.941 7.941 0 0 0-2.184-4.086zm-21.656 77.656v-56h-16v80c0 .613.07 1.23.207 1.832l29.687 126.168h-23.254L223.871 358.53a8.003 8.003 0 0 0-7.863-6.527 8.003 8.003 0 0 0-7.863 6.527l-22.778 121.473H162.11l29.688-126.168a8.29 8.29 0 0 0 .21-1.832v-80h-16v56h-22.241l13.617-68.059 11.937-11.941h73.375l11.946 11.941 13.605 68.059zm-139.563 25.344l-24-16a8.008 8.008 0 0 0-4.437-1.344h-48a8.02 8.02 0 0 0-4.442 1.344l-24 16a8.002 8.002 0 0 0-3.504 5.664l-8 64a7.978 7.978 0 0 0 1.946 6.285 7.996 7.996 0 0 0 6 2.707h20.285l-4.262 55.383a7.995 7.995 0 0 0 2.106 6.047 8 8 0 0 0 5.87 2.57h64a8.03 8.03 0 0 0 5.872-2.563 8.001 8.001 0 0 0 2.105-6.046l-4.265-55.391h20.289a8.004 8.004 0 0 0 7.941-8.992l-8-64a8.014 8.014 0 0 0-3.504-5.664zm-17.949 62.656l-2.512-32.617-15.953 1.222 7.336 95.395h-15.36v-48h-16v48H40.649l7.336-95.387-15.953-1.222-2.511 32.609H17.07l6.426-51.379 18.934-12.621h43.16l18.937 12.621 6.414 51.379zm77.512-240c0 22.055 17.941 40 40 40 22.054 0 40-17.945 40-40 0-22.059-17.945-40-40-40-22.059 0-40 17.941-40 40zm64 0c0 13.23-10.77 24-24 24-13.235 0-24-10.77-24-24 0-13.234 10.765-24 24-24 13.23 0 24 10.766 24 24zm-208 112c0 17.644 14.351 32 32 32 17.648 0 32-14.356 32-32 0-17.649-14.352-32-32-32-17.649 0-32 14.351-32 32zm48 0c0 8.824-7.176 16-16 16s-16-7.176-16-16 7.176-16 16-16 16 7.176 16 16zM197.664 58.348a7.99 7.99 0 0 0-11.312 0l-184 184 11.312 11.312L192.008 75.313l18.344 18.347a8.017 8.017 0 0 0 8.718 1.735 8.012 8.012 0 0 0 4.938-7.391v-80c0-4.418-3.586-8-8-8h-80a8.013 8.013 0 0 0-7.395 4.934 8.006 8.006 0 0 0 1.739 8.722l18.343 18.344L2.352 178.348l11.312 11.312 152-152a7.997 7.997 0 0 0 0-11.312L155.32 16.004h52.688V68.69zm0 0"/></svg><view id="icon-Skills" viewBox="131.52999999999997 0 34 34"/><svg viewBox="-10.47 -10.47 356.04 356.04" width="34" height="34" x="131.52999999999997" xmlns="http://www.w3.org/2000/svg"><path d="M311.175 115.775c-1.355-10.186-1.546-27.73 7.915-33.621.169-.108.295-.264.443-.398 7.735-2.474 13.088-5.946 8.886-10.618l-114.102-34.38L29.56 62.445S8.403 65.469 10.293 98.339c1.026 17.89 6.637 26.676 11.544 31l-15.161 4.569c-4.208 4.672 1.144 8.145 8.88 10.615.147.138.271.293.443.401 9.455 5.896 9.273 23.438 7.913 33.626-33.967 9.645-21.774 12.788-21.774 12.788l7.451 1.803c-5.241 4.736-10.446 13.717-9.471 30.75 1.891 32.864 19.269 35.132 19.269 35.132l120.904 39.298 182.49-44.202s12.197-3.148-21.779-12.794c-1.366-10.172-1.556-27.712 7.921-33.623.174-.105.301-.264.442-.396 7.736-2.474 13.084-5.943 8.881-10.615l-7.932-2.395c5.29-3.19 13.236-11.527 14.481-33.183.859-14.896-3.027-23.62-7.525-28.756l15.678-3.794c.001.006 12.198-3.142-21.773-12.788zm-152.642-.421l30.688-6.307 103.708-21.312 15.451-3.178c-4.937 9.036-4.73 21.402-3.913 29.35.179 1.798.385 3.44.585 4.688L288.14 122.8l-130.897 32.563 1.29-40.009zM26.71 147.337l15.449 3.178 99.597 20.474 8.701 1.782 26.093 5.363 1.287 40.01-134.534-33.471-13.263-3.296c.195-1.25.401-2.89.588-4.693.812-7.942 1.023-20.311-3.918-29.347zm-6.002-50.58c-.187-8.743 1.371-15.066 4.52-18.28 2.004-2.052 4.369-2.479 5.991-2.479.857 0 1.474.119 1.516.119l79.607 25.953 39.717 12.949-1.303 40.289L39.334 124.07l-5.88-1.647a3.56 3.56 0 0 0-.735-.113c-.459-.033-11.475-1.047-12.011-25.553zm119.871 184.109L23.28 247.98a3.489 3.489 0 0 0-.733-.116c-.467-.031-11.488-1.044-12.021-25.544-.19-8.754 1.376-15.071 4.519-18.288 2.009-2.052 4.375-2.479 5.994-2.479.859 0 1.474.115 1.519.115 0 0 .005 0 0 0l119.316 38.908-1.295 40.29zm153.705-41.407c.185 1.804.391 3.443.591 4.693l-147.812 36.771 1.292-40.01 31.601-6.497 4.667 1.129 17.492-5.685 80.631-16.569 15.457-3.18c-4.942 9.035-4.737 21.406-3.919 29.348zm8.142-54.375a2.84 2.84 0 0 0-.791.122l-11.148 3.121-106.148 29.764-1.298-40.289 34.826-11.359 84.327-27.501c.011-.005 4.436-.988 7.684 2.315 3.144 3.214 4.704 9.537 4.52 18.28-.55 24.498-11.571 25.516-11.972 25.547z"/></svg></svg>