<svg viewBox="0 0 496 496" xmlns="http://www.w3.org/2000/svg"><path d="M400.008 96.004c26.472 0 48-21.531 48-48 0-26.473-21.528-48-48-48-26.473 0-48 21.527-48 48 0 26.469 21.527 48 48 48zm0-80c17.648 0 32 14.351 32 32 0 17.644-14.352 32-32 32-17.649 0-32-14.356-32-32 0-17.649 14.351-32 32-32zm0 0M479.95 143.066a7.937 7.937 0 0 0-2.286-4.718l-24-24a7.985 7.985 0 0 0-5.656-2.344h-96c-2.121 0-4.16.84-5.656 2.344l-24 24a7.963 7.963 0 0 0-2.29 4.718l-16 136a7.98 7.98 0 0 0 1.97 6.247 7.96 7.96 0 0 0 5.976 2.69h39.023l-22.976 199.079a8.02 8.02 0 0 0 1.976 6.242 8.014 8.014 0 0 0 5.977 2.68h48a8.007 8.007 0 0 0 7.976-7.336l8.024-96.328 8.023 96.336a8.003 8.003 0 0 0 7.977 7.328h48a8.048 8.048 0 0 0 5.976-2.672 8.008 8.008 0 0 0 1.973-6.242l-22.973-199.086h39.024a7.996 7.996 0 0 0 5.976-2.68 8 8 0 0 0 1.965-6.25zm-31.942 128.938v-112h-16v120c0 .3.015.613.047.918l22.976 199.082h-31.664L407.984 295.34a8.004 8.004 0 1 0-15.953 0l-15.383 184.664h-31.664l22.973-199.082c.035-.305.05-.617.05-.918v-120h-16v112h-31L335.63 147.69l19.691-19.687h89.375l19.688 19.687 14.625 124.313zm0 0M277.664 250.348l-16-16a7.985 7.985 0 0 0-5.656-2.344h-80c-2.121 0-4.16.84-5.656 2.344l-16 16a7.913 7.913 0 0 0-2.184 4.086l-16 80a7.983 7.983 0 0 0 1.656 6.64 7.98 7.98 0 0 0 6.184 2.93h32v7.07l-31.793 135.098a8.007 8.007 0 0 0 7.793 9.832h40a8.007 8.007 0 0 0 7.863-6.531l16.137-86.063 16.137 86.063a8.007 8.007 0 0 0 7.863 6.53h40a8.005 8.005 0 0 0 6.27-3.034c1.519-1.918 2.081-4.422 1.519-6.797l-31.79-135.098v-7.07h32a7.986 7.986 0 0 0 6.184-2.93 7.983 7.983 0 0 0 1.657-6.64l-16-80a7.941 7.941 0 0 0-2.184-4.086zm-21.656 77.656v-56h-16v80c0 .613.07 1.23.207 1.832l29.687 126.168h-23.254L223.871 358.53a8.003 8.003 0 0 0-7.863-6.527 8.003 8.003 0 0 0-7.863 6.527l-22.778 121.473H162.11l29.688-126.168a8.29 8.29 0 0 0 .21-1.832v-80h-16v56h-22.241l13.617-68.059 11.937-11.941h73.375l11.946 11.941 13.605 68.059zm0 0M116.445 353.348l-24-16a8.008 8.008 0 0 0-4.437-1.344h-48a8.02 8.02 0 0 0-4.442 1.344l-24 16a8.002 8.002 0 0 0-3.504 5.664l-8 64a7.978 7.978 0 0 0 1.946 6.285 7.996 7.996 0 0 0 6 2.707h20.285l-4.262 55.383a7.995 7.995 0 0 0 2.106 6.047 8 8 0 0 0 5.87 2.57h64c2.223 0 4.352-.93 5.872-2.563a8.001 8.001 0 0 0 2.105-6.046l-4.265-55.391h20.289a8.004 8.004 0 0 0 7.941-8.992l-8-64a8.014 8.014 0 0 0-3.504-5.664zm-17.949 62.656l-2.512-32.617-15.953 1.222 7.336 95.395h-15.36v-48h-16v48H40.649l7.336-95.387-15.953-1.222-2.511 32.609H17.07l6.426-51.379 18.934-12.621h43.16l18.937 12.621 6.414 51.379zm0 0M176.008 176.004c0 22.055 17.941 40 40 40 22.054 0 40-17.945 40-40 0-22.059-17.945-40-40-40-22.059 0-40 17.941-40 40zm64 0c0 13.23-10.77 24-24 24-13.235 0-24-10.77-24-24 0-13.234 10.765-24 24-24 13.23 0 24 10.766 24 24zm0 0M32.008 288.004c0 17.644 14.351 32 32 32 17.648 0 32-14.356 32-32 0-17.649-14.352-32-32-32-17.649 0-32 14.351-32 32zm48 0c0 8.824-7.176 16-16 16s-16-7.176-16-16 7.176-16 16-16 16 7.176 16 16zm0 0M197.664 58.348a7.99 7.99 0 0 0-11.312 0l-184 184 11.312 11.312L192.008 75.313l18.344 18.347a8.017 8.017 0 0 0 8.718 1.735 8.012 8.012 0 0 0 4.938-7.391v-80c0-4.418-3.586-8-8-8h-80a8.013 8.013 0 0 0-7.395 4.934 8.006 8.006 0 0 0 1.739 8.722l18.343 18.344L2.352 178.348l11.312 11.312 152-152a7.997 7.997 0 0 0 0-11.312L155.32 16.004h52.688V68.69zm0 0"/></svg>