<svg xmlns="http://www.w3.org/2000/svg" viewBox="0 0 35 35"><path d="M17.662.744V0l-1.465 1.062 1.465 1.062v-.58c8.932.089 16.17 7.373 16.17 16.324 0 9.005-7.326 16.332-16.332 16.332S1.168 26.873 1.168 17.868H.369C.369 27.314 8.053 35 17.5 35s17.131-7.686 17.131-17.132c0-9.391-7.598-17.034-16.969-17.124z"/><path d="M17.441 32.789v.73l1.469-1.062-1.469-1.062v.595c-7.76-.031-14.064-6.354-14.064-14.12 0-7.787 6.334-14.123 14.123-14.123 7.787 0 14.121 6.336 14.121 14.123h.801c0-8.229-6.691-14.923-14.922-14.923-8.231 0-14.922 6.695-14.922 14.923 0 8.208 6.664 14.887 14.863 14.919z"/><path d="M14.355 21.012l.065.07.004-.005c.853.821 1.861 2.03 3.502 3.127 3.457 2.306 6.111 1.663 7.673.806 2.693-1.484 3.9-4.656 3.9-7.141 0-6.618-5.383-12.002-12-12.002-6.619 0-12.002 5.384-12.002 12.002 0 6.617 5.383 12 12.002 12a.74.74 0 0 0 0-1.478c-5.803 0-10.522-4.721-10.522-10.521 0-5.802 4.721-10.522 10.522-10.522s10.52 4.72 10.52 10.522c0 2.424-1.291 4.828-3.137 5.844a4.539 4.539 0 0 1-2.174.561 3.489 3.489 0 0 0 1.17-1.127c.061-.088.135-.166.176-.264.24-.58.264-1.236.404-1.849.182-.784-3.42-2.31-3.732-1.334-.115.362-.287 1.504-.516 1.806-.199.27-.697.141-1.012-.124-.822-.698-1.736-1.728-2.541-2.54l.002-.001c-.022-.021-.048-.044-.068-.065l-.067-.068v.001c-.812-.802-1.84-1.718-2.541-2.541-.264-.312-.394-.809-.121-1.012.301-.228 1.441-.4 1.805-.512.975-.313-.549-3.916-1.334-3.736-.613.144-1.27.165-1.848.406-.101.041-.178.118-.266.176-2.058 1.305-2.322 4.47-.314 6.827.768.9 1.564 1.774 2.385 2.625l-.006.004c.024.022.05.042.071.065z"/></svg>