<svg xmlns="http://www.w3.org/2000/svg" viewBox="0 0 820 620"><path d="M714 303s0-17 8-33c8-17 28-25 30-25 4-1 8 2 8 5 0 4-2 8-5 8-2 0-17 3-27 16-11 12-14 29-14 29z"/><path d="M716 309c-1 0 0-10 6-19 5-9 16-15 17-15 2-1 5 0 5 2 1 1 0 3-2 4-1 1-11 4-17 11-7 7-10 17-9 17z"/><path d="M718 317a27 27 0 0 1 16-25l4 2c0 2 0 4-2 5 0 0-7 1-11 6-5 5-7 12-7 12zm-184 63s-14-9-30-8c-16 0-27 11-28 11-2 2-6 2-9-1-3-2-2-7 1-9 1-2 19-12 37-8 17 3 29 15 29 15z"/><path d="M538 385s-10-5-20-4c-10 0-19 5-20 6s-4 0-5-1c-1-2 0-4 2-5 1-1 13-5 24-4 11 2 19 8 19 8z"/><path d="M541 392s-6-3-13-2c-7 0-12 4-13 4-1 1-3 0-4-2-1-1 0-3 1-4 1 0 9-3 16-2 8 1 13 6 13 6zm35-222s10-12 13-26c4-15-9-25-9-25-3-2-4-6-2-8 1-2 5-2 8 0 2 0 16 18 8 34-6 16-18 25-18 25z"/><path d="M589 156s8-6 12-15-2-15-3-16 0-4 2-6c3-2 6-2 7 1 1 0 6 15-2 24-6 8-16 12-16 12z"/><path d="M602 148s6-3 9-8c4-5 1-10 1-11l2-3c2-1 4 0 5 1 0 1 1 11-5 15-6 5-12 6-12 6zm-5 9s2-6 9-9c6-2 13 1 14 1v4c-1 2-2 3-3 2-1 0-5-4-10-3-6 0-10 5-10 5zm70 278s8 14 10 31c3 19-13 36-15 36-4 2-8 1-9-2-2-4-1-8 2-9 1-1 14-8 15-25 2-15-3-31-3-31z"/><path d="M653 422s10 10 13 24c4 16-9 31-10 32-3 2-7 1-9-2s-2-7 0-9c1 0 11-7 12-20s-6-25-6-25zm-11-12c1 0 9 15 6 33-2 19-15 34-16 35-3 3-7 3-10 0-2-3-2-7 0-9 1-1 14-12 19-27 6-15 2-32 1-32zm-8-7c1-1 5 9 2 20-2 10-8 20-9 21-1 2-4 2-5 1s-2-4 0-5c1-1 7-9 11-18s2-20 1-19zm-5-9s3 7 1 14c-1 7-5 14-5 15h-5c-1-1-2-3-1-4s6-6 8-12c3-6 2-13 2-13zm35 39s15 6 30 6c16 0 24-12 25-13 1-2 5-3 9-1 3 2 4 6 2 10-1 0-5 5-12 8-7 4-16 4-25 2-16-3-29-12-29-12z"/><path d="M651 419s12 7 24 7c13 1 20-8 21-9s5-1 8 1 4 6 2 9c-1 2-17 12-32 6-14-4-23-14-23-14zm-12-12s14 5 28 2c15-3 24-14 25-15 2-2 6-2 9 1 3 2 3 7 0 9-1 1-16 12-33 12s-29-9-29-9z"/><path d="M633 400c-1 0 8 4 17 1 9-2 16-8 16-9 2-1 4-1 5 1 2 1 1 4-1 5-1 1-10 6-19 6-10 1-19-4-18-4zm-7-7s6 2 12 0 10-6 11-7c1 0 3 0 4 2 1 1 1 3-1 4 0 0-7 4-13 4-7 1-13-3-13-3zm45 44s10 12 24 18c15 6 26-5 27-6 2-2 5-2 7 0s2 6-1 8c0 2-20 13-35 2-14-8-22-22-22-22z"/><path d="M683 453s5 9 13 14 16 0 16 0c2-1 4 1 6 3 1 2 0 5-2 6-1 1-16 4-23-6-8-8-10-17-10-17z"/><path d="M689 467s2 6 6 10c5 5 10 3 11 3l3 3-2 4c-1 0-11-1-14-8-4-6-4-12-4-12zm-8-6c0-1 6 3 7 9 1 7-3 13-3 14h-4c-2-1-2-3-2-4 1-1 5-4 5-9 1-6-3-11-3-10zM414 254c2-9-7-15-7-15s6 7-2 12c-8 4-4 10-3 12 4-3 10-10 9-17 0 0 3 8-7 18 2 0 9-1 10-10zm-23-36c1-11-8-17-8-17s6 8-3 14c-8 5-3 11-2 13 4-4 10-12 9-20 0 0 4 10-7 21 3 0 10-2 11-11zm144 45c10 2 13 12 13 12s-5-8-14-1c-7 6-12 0-14-2 5-2 15-6 23-2 0 0-8-7-23 0 1-2 4-9 15-7zm22-25c9 2 12 11 12 11s-5-7-12-1c-7 5-11 0-12-2 4-2 12-5 19-2 0 0-7-5-19 0 0-2 3-7 12-6zm12-22c7 1 9 8 9 8s-4-5-9-1c-5 3-7 0-8-1 3-2 9-4 13-2 0 0-5-4-13 0 0-1 2-5 8-4zm-223-24c-10-4-19 3-19 3s9-4 13 7c3 9 10 6 12 5-3-5-9-13-17-14 0 0 10-1 18 12 1-2 2-10-7-13zm16 50c-10 1-15 12-15 12s7-8 14 0c7 6 12 1 14-1-5-3-14-8-22-5 0 0 9-6 22 3-1-3-3-10-13-9zm14 42c-7-1-12 6-12 6s6-5 10 2c3 6 8 3 9 2-3-3-8-8-14-7 0 0 7-3 15 5 0-1-1-7-8-8zm18-122c2-16-14-26-14-26s11 12-4 22c-12 8-5 18-3 21 6-6 16-19 14-32 0 0 7 15-10 33 4 0 16-2 17-18zm164-28c-5-13-18-22-31-24 9 3 17 9 21 16 0 0-3 3-4 7s-1 7 5 17c10 22 8 36 8 35l4-15c2-11 2-24-3-36zm-9 6c-2-2-2-5 0-6 1-2 4-2 6 0a4 4 0 1 1-6 6zm6 7v-3h3a2 2 0 1 1-3 3zm3 15a1 1 0 0 1-1-2h1v2zm1-8h-2v-1h2v1zm-36 39c-5 37-23 54-23 54 11-13 2-20 0-22-3-2-18-3-19 17-2 19-14 25-14 12 0-14-19-14-21 3-1 12-25 24-25 24 19-9 57-9 57-9 52-22 45-79 45-79zm-79 79a2 2 0 1 1 0-3 2 2 0 0 1 0 3zm8-4a3 3 0 1 1 0-6 3 3 0 0 1 0 6zm6-9a5 5 0 1 1 0-10 5 5 0 0 1 0 10zm19 7a1 1 0 1 1 0-2 1 1 0 0 1 0 2zm7-7a2 2 0 1 1 0-3 2 2 0 0 1 0 3zm6-8a3 3 0 1 1 0-6 3 3 0 0 1 0 6zm4-10a6 6 0 1 1 0-12 6 6 0 0 1 0 12zm94 126c-8-29-39-66-99-73-56-6-107 31-107 31s45-26 54-7c12 23 32 17 35 11s1-13-10-17c-8-3 3-13 37-9 34 5 32 37 41 36 10-1 7-14 7-14 27 9 42 42 42 42zm-157-59l-1-2a1 1 0 1 1 1 2zm9 2a2 2 0 1 1 0-3 2 2 0 0 1 0 3zm10 7a3 3 0 1 1 0-6 3 3 0 0 1 0 6zm9 1a5 5 0 1 1 0 10 5 5 0 0 1 0-10zm69-5a1 1 0 1 1 0-3 1 1 0 0 1 0 3zm7 7a2 2 0 1 1 3 0 2 2 0 0 1-3 0zm5 13a3 3 0 1 1 0-7 3 3 0 0 1 0 7zM496 58c2-3 5-4 8-2 2 1 3 5 2 8a6 6 0 1 1-10-6zm-11-10h6c2 2 2 4 0 6-1 2-4 2-6 1-2-2-2-5 0-7zm-8-11c1-1 3 0 4 1l-1 4a3 3 0 1 1-3-5zm-4-8l2 1-1 2h-2c-1-1 0-2 1-3zm-3-7c1-1 2 0 2 1l-1 2-2-1 1-2zm-1-8l2 1-2 2-2-2 2-1zm0-8l1 2-1 1-1-1 1-2zm1-6l1 1-1 1-1-1 1-1zm136 330c-3 3-8 3-11 0s-3-8 1-11 8-2 10 1c3 2 3 7 0 10zm15 12c-2 3-5 3-8 1s-3-5-1-8c2-2 5-2 8-1 2 2 3 5 1 8zm17 9c-1 2-3 3-5 2s-3-3-2-5 3-3 5-2 3 3 2 5zm11 3c0 1-1 2-3 2-1-1-2-2-1-3l2-2c2 0 2 2 2 3zm11 1l-2 2-2-2c0-2 1-2 2-2l2 2zm11-2l-2 3-2-2 1-2 3 1zm9-3l-1 2c-1 1-2 0-2-1l1-2 2 1zm7-4v2l-2-1 1-2 1 1zm-233 48c-3-2-3-6 0-9s7-3 9 0 2 6-1 8c-2 2-5 3-8 1zm125-205c2 3 2 6 0 7-2 2-5 2-7 0s-2-5 0-7 6-2 7 0zm10-7c2 2 1 4-1 5-1 1-3 1-5-1-1-1-1-4 1-5s4-1 5 1zm12-5l-2 3-3-1 1-4c2 0 3 0 4 2zm7-3l-1 2-2-1 1-2 2 1zm7-1l-1 2-2-1 1-2 2 1zm7 0l-2 2-1-2 2-1 1 1zm6 2h-1l-1-1 1-1 1 2zm5 1l-1 1v-1l1-1v1zM298 380s4-10 4-21c1-11-2-21-3-22 0-2 1-5 3-5 2-1 4 1 5 3a66 66 0 0 1-9 45zm12-19c1 0 6-24 5-25 0-2 2-3 4-2 2 0 4 1 3 3 1 2-11 25-12 24zm185-244c-7-2-12 6-8 14 3 6-1 9-3 10a3 3 0 1 0-5-1c-1 6 11 10 19 1 10-11 5-23-3-24zm3 15l-1 2-5 3v-5l6-3v3zm0-5l-6 3v-1l-1-3 7-3v4zm-4-8s2 0 3 2l-6 3c1-4 3-5 3-5zm-6 23l4-3 4-2c-3 5-8 5-8 5zm187 167c-3 2-5 1-6-1h2a1 1 0 0 0-2-2c-3 0-4 7 2 10 7 5 13 0 13-4s-5-6-9-3zm4 2l2 3-2 1-3-3 1-1h2zm-10 0l3 1 1 2-4-3zm7 4h-1l-2-2 3-1 2 3h-2zm6-2l-2-2c2-1 3 1 3 1l-1 1zm-351-59a7 7 0 0 1-12 6 7 7 0 1 1 12-6h1a8 8 0 1 0-16 0 8 8 0 0 0 16 0h-1zm-20-23a2 2 0 1 1-5 0 2 2 0 0 1 5 0 3 3 0 1 0-6 0 3 3 0 0 0 6 0zm21-4a4 4 0 1 0 9 0 4 4 0 0 0-9 0h1a4 4 0 1 1 7 0 4 4 0 0 1-7 0h-1z"/><path d="M318 250a1 1 0 1 1-3 0 1 1 0 0 1 3 0 2 2 0 1 0-4 0 2 2 0 0 0 4 0zm-1-41a2 2 0 1 0 3 0 2 2 0 0 0-3 0h1a1 1 0 0 1 2 0l-1 1-1-1h-1zm-18-12h-1a2 2 0 1 1-4 0 2 2 0 0 1 4 0h1a3 3 0 1 0-5 0 3 3 0 0 0 5 0zm26-22a2 2 0 1 0 4 0 2 2 0 0 0-4 0h1a1 1 0 1 1 2 0 1 1 0 0 1-2 0h-1zm-3 10h-1a5 5 0 0 1-5 6 5 5 0 0 1-6-6 5 5 0 0 1 6-5 5 5 0 0 1 5 5h1a6 6 0 1 0-12 0 6 6 0 0 0 12 0zm-16-19h-1v1a1 1 0 1 1 0-1h1a1 1 0 1 0-2 0 1 1 0 0 0 2 0zm47 65h-1a2 2 0 1 0 5 0 2 2 0 0 0-5 0h1a1 1 0 1 1 3 0 1 1 0 0 1-3 0zm-69 0a1 1 0 1 1-3 0 1 1 0 0 1 3 0h1a2 2 0 1 0-4 0 2 2 0 0 0 4 0h-1zm18 26a3 3 0 1 0-6 0 3 3 0 0 0 6 0 3 3 0 1 1-6 0 3 3 0 0 1 6 0zm60 12h-1a6 6 0 0 1-6 6 6 6 0 0 1-4-11 6 6 0 0 1 8 0c2 1 2 3 2 5h1a7 7 0 1 0-14 0 7 7 0 0 0 14 0zm-21 1a3 3 0 1 1-7 0 3 3 0 0 1 7 0h1a4 4 0 1 0-8 0 4 4 0 0 0 8 0h-1zm-41-55a5 5 0 0 1-9 3 5 5 0 0 1 4-9 5 5 0 0 1 5 6h1a6 6 0 1 0-12 0 6 6 0 0 0 12 0h-1zm-23-20a1 1 0 1 1-3 0 1 1 0 0 1 3 0h1a2 2 0 1 0-5 0 2 2 0 0 0 5 0h-1zm20-52a1 1 0 1 1-3 0 1 1 0 0 1 3 0 2 2 0 1 0-4 0 2 2 0 0 0 4 0zm60 230h-1a3 3 0 1 0 6 0 3 3 0 0 0-6 0h1a2 2 0 1 1 4 0 2 2 0 0 1-4 0zm29-24h-1a3 3 0 1 0 5 0 3 3 0 0 0-5 0h1a2 2 0 1 1 4 0 2 2 0 0 1-4 0zm-130 29a4 4 0 1 1-9 0 4 4 0 0 1 9 0 5 5 0 1 0-9 0 5 5 0 0 0 9 0zm20 8h-1a3 3 0 0 1-6 0 3 3 0 0 1 6 0h1a4 4 0 1 0-8 0 4 4 0 0 0 8 0zm24-8h-1a2 2 0 1 1-4 0 2 2 0 0 1 4 0h1a3 3 0 1 0-5 0 3 3 0 0 0 5 0zm-31-24a2 2 0 1 1-4 0 2 2 0 0 1 4 0h1a3 3 0 1 0-5 0 3 3 0 0 0 5 0h-1zm-10-20a1 1 0 1 1-2 0 1 1 0 0 1 2 0h1a2 2 0 1 0-4 0 2 2 0 0 0 4 0h-1zm161 36h-1a1 1 0 1 1-2 0 1 1 0 0 1 2 0h1a2 2 0 1 0-3 0 2 2 0 0 0 3 0zm-125-33h-1v-1l1 1a1 1 0 1 0-2 0 1 1 0 0 0 2 0zm-17-31a1 1 0 1 1-3 0 1 1 0 0 1 3 0h1a2 2 0 1 0-5 0 2 2 0 0 0 5 0h-1zm307-14a4 4 0 1 1-8 0 4 4 0 0 1 8 0 4 4 0 1 0-8 0 4 4 0 0 0 8 0zm39 2h-1a10 10 0 0 1-16 7 10 10 0 0 1 0-14 10 10 0 0 1 16 7h1a10 10 0 1 0-21 0 10 10 0 0 0 21 0z"/><path d="M624 282h-1a6 6 0 0 1-6 7 6 6 0 0 1-6-7 6 6 0 0 1 10-4c2 1 2 3 2 4h1a7 7 0 1 0-14 0 7 7 0 0 0 14 0zm36 131h-1a6 6 0 0 1-6 6 6 6 0 1 1 6-6h1a7 7 0 1 0-14 0 7 7 0 0 0 14 0zm-22-95a2 2 0 1 1-5 0 2 2 0 0 1 5 0h1a3 3 0 1 0-6 0 3 3 0 0 0 6 0h-1zm6-31h-1a2 2 0 1 1-3 0 2 2 0 0 1 3 0h1a2 2 0 1 0-5 0 2 2 0 0 0 5 0zm-52-17h-1a1 1 0 1 1-2 0 1 1 0 0 1 2 0h1a2 2 0 1 0-3 0 2 2 0 0 0 3 0zm-18 41a8 8 0 1 0 15 0 8 8 0 0 0-15 0h1a7 7 0 0 1 7-7 7 7 0 0 1 7 7 7 7 0 0 1-7 7 7 7 0 0 1-7-7h-1zm-10-27h-1a6 6 0 0 1-6 6 6 6 0 0 1-4-11 6 6 0 0 1 10 5h1a7 7 0 1 0-14 0 7 7 0 0 0 14 0zm76-30h-1a2 2 0 0 1-4 0 2 2 0 0 1 4 0h1a3 3 0 1 0-6 0 3 3 0 0 0 6 0zm26 90a8 8 0 0 1-14 6 8 8 0 0 1 6-14 8 8 0 0 1 8 8h1a9 9 0 1 0-18 0 9 9 0 0 0 18 0h-1zm19-47a5 5 0 0 1-5 5 5 5 0 0 1-5-5 5 5 0 0 1 10 0 6 6 0 1 0-11 0 6 6 0 0 0 11 0zm5-35a2 2 0 0 1-5 0c0-1 1-2 3-2l2 2h1a3 3 0 1 0-6 0 3 3 0 0 0 6 0h-1zm-17-25a1 1 0 0 1-3 0 1 1 0 1 1 3 0h1a2 2 0 1 0-4 0 2 2 0 0 0 4 0h-1zm-52 168a1 1 0 1 1-3 0 1 1 0 0 1 3 0h1a2 2 0 1 0-4 0 2 2 0 0 0 4 0h-1zm119 3a1 1 0 0 1-3 0l2-2 1 2h1a2 2 0 1 0-4 0 2 2 0 0 0 4 0h-1zm-35-73a4 4 0 1 1-9 0 4 4 0 0 1 9 0 5 5 0 1 0-10 0 5 5 0 0 0 10 0zm7-101h-1a2 2 0 1 0 5 0 2 2 0 0 0-5 0h1l2-2a2 2 0 0 1 0 4l-2-2zm-90 141a3 3 0 1 1-6 0 3 3 0 0 1 6 0h1a4 4 0 1 0-8 0 4 4 0 0 0 8 0h-1zm46 8h-1a7 7 0 0 1-7 7 7 7 0 0 1-7-7 7 7 0 0 1 7-7 7 7 0 0 1 7 7h1a8 8 0 1 0-15 0 8 8 0 0 0 15 0zm34-17a2 2 0 1 1-3 0 2 2 0 0 1 3 0h1a2 2 0 1 0-5 0 2 2 0 0 0 5 0h-1zm30-36h-1a2 2 0 1 1-4 0 2 2 0 0 1 4 0h1a3 3 0 1 0-6 0 3 3 0 0 0 6 0zm38-24a1 1 0 1 1-2 0 1 1 0 0 1 2 0h1a2 2 0 1 0-4 0 2 2 0 0 0 4 0h-1zm-30 62h-1a2 2 0 1 1-3 0 2 2 0 0 1 3 0h1a2 2 0 1 0-5 0 2 2 0 0 0 5 0zm-34 34a8 8 0 0 1-8 8 8 8 0 0 1-9-8 8 8 0 1 1 17 0h1a9 9 0 1 0-18 0 9 9 0 0 0 18 0h-1zm38-104h-1a6 6 0 0 1-6 7 6 6 0 0 1-6-7 6 6 0 0 1 10-4l2 4h1a7 7 0 1 0-14 0 7 7 0 0 0 14 0zm-19-32a4 4 0 1 1-8 0 4 4 0 0 1 8 0 4 4 0 1 0-8 0 4 4 0 0 0 8 0zm-47 12a8 8 0 0 1-8 8 8 8 0 0 1-7-8 8 8 0 0 1 13-5l2 5h1a8 8 0 1 0-17 0 8 8 0 0 0 17 0h-1zm10-76l-1 1a1 1 0 0 1 0-2l1 1h1a2 2 0 1 0-4 0 2 2 0 0 0 4 0h-1zm44-6h-1l-1 1a1 1 0 1 1 1-1h1a2 2 0 1 0-3 0 2 2 0 0 0 3 0zM66 336c1 3 3 7 6 9l5 1c2 0 3-1 4-3 3-3-1-9-5-7-2 1-2 4-1 5 1 2 4 1 4-1 0 2-3 2-4 1s0-4 1-4c3-2 7 3 5 6s-6 3-9 0c-2-1-4-5-5-8m-35 55c0 1 0-9-5-18-4-10-15-15-16-15-3 0-5 1-5 3s1 5 3 5c1 0 9 1 15 9 6 7 8 17 8 16z"/><path d="M31 394s0-6-4-11c-3-5-9-8-9-9l-3 1c-1 1 0 3 1 3s6 2 10 6 5 10 5 10zm-2 4s0-4-2-7c-2-4-6-6-6-7l-2 2v2c1 0 4 1 7 4l3 6zm104 37s8-5 17-5c8 0 15 6 15 7 2 1 4 1 5-1 2-1 2-4 0-5-1-1-11-7-21-5s-16 9-16 9z"/><path d="M131 438s5-3 11-3c5 0 10 3 11 4l3-1c0-1 0-2-2-3 0 0-6-3-13-2-6 1-10 5-10 5z"/><path d="M129 442s3-2 7-2 7 3 7 3l3-1-1-3s-5-2-9-1-7 4-7 4zm-20-128s-6-6-7-15c-2-9 5-14 5-14 2-1 2-3 1-5h-5s-8 10-4 20c3 9 10 14 10 14z"/><path d="M102 306s-5-3-7-8c-2-6 1-9 2-10 0 0 0-2-2-3h-3c-1 1-4 9 1 14 4 5 9 7 9 7z"/><path d="M95 302s-4-2-6-5 0-6 0-6l-1-2c-1-1-2 0-3 1 0 0-1 6 3 8 3 3 7 4 7 4zm2 4c0 1-1-3-5-4-3-2-7 0-7 0l-1 2 2 2c1 0 3-3 6-2 3 0 5 3 5 2zM58 466s-5 8-6 18c-1 11 8 21 9 21 2 1 4 1 5-1s1-5-1-6c-1 0-8-4-9-14-1-9 2-18 2-18z"/><path d="M66 459s-5 5-7 14 4 18 5 18c2 1 4 1 5-1v-5s-6-4-6-12c-1-7 3-14 3-14zm6-7s-5 9-3 19c1 11 8 19 9 20 1 2 4 2 5 0 2-1 2-4 0-5 0-1-8-7-11-16s0-18 0-18z"/><path d="M76 448s-2 5-1 11 5 12 5 12l3 1v-3l-6-10c-2-6-1-11-1-11zm4-5s-2 4-1 8c0 4 3 8 3 8h2l1-2-5-7v-7zm-20 22s-8 4-17 3c-9 1-14-6-14-7h-5c-2 0-2 3-1 5l6 5c4 2 10 2 14 1 10-1 17-7 17-7z"/><path d="M67 457s-7 4-14 4c-7 1-11-4-11-5-1-1-3-1-5 1-2 1-2 3-1 5 1 1 10 7 18 3 8-2 13-8 13-8zm7-7s-8 3-16 1c-8-1-13-8-14-8h-5c-2 2-2 4 0 6 1 0 9 7 19 6 9 0 16-5 16-5z"/><path d="M77 446c1 1-5 2-9 1-5-1-9-5-10-5h-2v3l11 4c6 0 11-3 10-3zm4-4h-7l-6-4-2 1v3l8 2c4 0 7-2 7-2zm-25 26s-6 7-14 10-14-3-14-3c-2-2-4-2-5-1-1 2-1 4 1 5 0 1 11 7 20 1 8-5 12-12 12-12z"/><path d="M49 477s-3 5-7 7c-5 3-9 1-9 1-1-1-3 0-3 1-1 2-1 3 1 4 0 1 8 2 13-3 4-5 5-10 5-10z"/><path d="M46 485l-4 6c-2 2-5 1-6 1l-1 2c-1 1 0 2 1 2 0 0 6 0 8-4l2-7zm4-4s-3 2-4 6c0 4 2 7 2 7h2l1-2-3-5 2-6zm150-118c-1-6 4-9 4-9s-3 4 1 7c4 2 2 5 2 6-2-1-6-5-5-9 0 0-2 5 4 10-2 0-5 0-6-5zm13-22c-1-5 5-9 5-9s-4 4 1 8c4 3 2 6 1 7-2-2-5-6-5-11 0 0-2 5 4 12-1 0-6-1-6-7zm-81 27c-6 1-7 7-7 7s3-5 8-1c4 3 7 0 7-1-2-1-8-3-12-2 0 0 4-3 13 1-1-2-3-5-9-4zm-12-15c-5 1-7 7-7 7s3-4 7-1 6 0 7-1c-3-1-7-3-11-1 0 0 4-3 11 0-1-1-2-4-7-4zm-7-12c-4 0-5 4-5 4s2-3 5 0c3 1 4 0 5-1-2-1-5-2-8-1 0 0 3-2 8 0 0-1-2-3-5-2zm126-14c5-3 10 2 10 2s-5-3-7 3c-2 5-6 4-7 4 1-3 5-8 9-9 0 0-5 0-10 8 0-2-1-6 5-8zm-10 29c6 0 9 6 9 6s-4-4-8 0-7 1-8 0c3-2 8-4 12-3 0 0-5-3-12 2 0-2 2-6 7-5zm-8 24c5-1 7 3 7 3s-3-3-5 1-5 2-6 1c2-1 5-4 8-4 0 0-4-1-8 3 0-1 0-4 4-4zm-10-70c-1-10 8-15 8-15s-6 7 2 12c7 5 3 10 2 12-3-3-9-10-8-18 0 0-3 9 6 19-2 0-9-1-10-10zm-86-21c2-4 7-7 12-9-7 1-15 6-18 13s-2 15-1 21l2 9s-1-8 4-20c3-6 4-7 3-10l-2-4zm-6 15h1v1h-1v-1zm1 5h-1 1zm1-8h-2v-2h2v2zm4-4h-4v-3c1-1 2-2 3-1l1 4zm57 67c-1-9-12-10-12-2s-6 4-7-7-9-10-11-9-6 5 0 12c0 0-10-10-13-31 0 0-4 33 25 46 0 0 21 0 32 5 0 0-13-7-14-14zm-30-13c0-1 1-3 3-3s4 2 4 3c0 2-2 4-4 4s-3-2-3-4zm5 10l-1-2 1-2 2 2-2 2zm4 5l-1-1 1-1v2zm4 3h-1l1-1v1zm8-7c0-1 1-3 3-3l3 3c0 2-2 4-3 4-2 0-3-2-3-4zm6 8l-2-1 2-2 2 2-2 1zm4 3l-1-1 1-1 1 1-1 1zm-25 12c-34 4-51 26-56 42 0 0 9-19 24-24 0 0-2 7 4 8 5 1 4-17 23-20s25 3 20 5c-6 2-7 6-5 10 2 3 13 6 19-7 6-11 31 4 31 4s-28-21-60-18zm-28 23c-2 0-2-1-2-2l2-2 1 2-1 2zm2-7l-1-1 1-1v2zm4-5l-1-1h2l-1 1zm39 9c-2 0-3-1-3-3s1-3 3-3 3 1 3 3-1 3-3 3zm5-6l-1-2 1-2 2 2-2 2zm5-4l-1-1 1-1 1 1-1 1zm5-2v-1l1 1h-1zm-36-143c-1-2-3-2-4-1-2 0-2 2-1 4 0 2 3 3 4 2 2-1 2-4 1-5zm6-6h-3v4h3v-4zm5-6h-2v3l3-1-1-2zm2-5l-1 1v1h2l-1-2zm2-4l-2 1 1 1 1-1v-1zm0-5l-1 1 1 1 1-1-1-1zm0-4l-1 1 1 1a1 1 0 1 0 0-2zm0-3h-1l1 1v-1zM92 406c2 2 5 2 7 0 1-2 1-5-1-6-2-2-4-2-6 0v6zm-8 7c1 2 3 2 4 1 2-1 2-3 1-5s-3-1-4 0c-2 1-2 3-1 4zm-10 5c1 1 2 2 3 1 1 0 2-2 1-3l-2-1-2 3zm-6 2l2 1 1-2-2-1-1 2zm-6 0l1 1 1-1-1-1-1 1zm-6-1l1 2 1-1-1-1h-1zm-5-1v1l2-1-1-1-1 1zm-4-3v1h1v-1h-1zm131 28v-6c-2-1-4-1-5 1-2 1-1 3 0 4 1 2 3 2 5 1zm-71-118v4h4c2-1 2-3 0-4h-4zm-5-4v3h3v-3h-3zm-7-3l1 2 2-1-1-2-2 1zm-4-1l1 1 1-1-1-1-1 1zm-4-1l1 1 1-1-1-1-1 1zm-4 0l1 1 1-1-1-1-1 1zm-3 1h1l-1-1v1zm-3 1h1l-1-1v1zm188 117l-2-12c-1-6 1-12 1-13 1-1 0-3-1-3l-3 2a39 39 0 0 0 5 26zm-7-11s-3-14-2-15l-3-1c-1 0-2 1-1 2-1 1 6 14 6 14zm-94-127v-1h-3v2c-1-1-3-3-2-6 2-5 0-9-5-8-4 0-7 7-1 14 5 5 11 2 11-1zm-8-7v1l-3-1v-3l4 2-1 1zm-3 2v-1l3 1v3l-2-1-1-2zm2-7s2 0 2 3l-3-2 1-1zm-1 10l3 1 2 2s-3 0-5-3zm-97 97h-1v1l1 1h-4c-2-2-4-1-5 2 0 2 4 5 8 2 3-2 3-6 1-6zm-4 4l-1 1h-2l1-2h1l1 1zm-2-1l-1 2-1-1 2-1zm2 2h-1l1-1h2l-1 1h-1zm2 0v-1l2-1-2 2zm191-34h1l1 3a4 4 0 0 0 6 0l1-3-1-3a4 4 0 0 0-6 0l-1 3h-1c0-3 2-5 5-5 2 0 4 2 4 5 0 2-2 4-4 4-3 0-5-2-5-4zm12-14l1 2 2-2-2-1-1 1 1-2 2 2-2 2-1-2zm-12-2l-2 2c-2 0-3-1-3-2s1-3 3-3l2 3-2-2-2 2 2 2 2-2z"/><path d="M254 360l1 1 1-1h-2l1-1 1 1-1 2-1-2zm0-23h1l-1 1-1-1 1-1 1 1h-1v-1l-1 1h1zm11-7l1 1 1-1-1-2-1 2 1-2 2 2-2 1-1-1zm-15-13l-1 1-1-1 1-1 1 1-1-1-1 1 1 1 1-1zm2 6l1 2a3 3 0 0 0 4 0 3 3 0 0 0 0-4 3 3 0 0 0-4 0l-1 2c0-2 1-4 3-4s4 2 4 4-2 3-4 3-3-1-3-3zm9-11v-1l1 1-1 1v-1zm-27 37h1l-2 1-1-1 1-1 2 1h-1l-1-1v2l1-1zm39 0l1 1 1-1-1-1-1 1 1-1 1 1-1 1-1-1zm-10 15l2-2 2 2-2 2-2-2 2 2 1-2-1-1-2 1zm-34 7h1l1 2a4 4 0 0 0 5 0 4 4 0 0 0 0-5 4 4 0 0 0-5 0l-1 3h-1c0-2 2-4 4-4s4 2 4 4-2 4-4 4-4-2-4-4zm12 1l2 1 2-1-2-2-2 2c0-2 1-3 2-3s2 1 2 3l-2 2-2-2zm23-32l1 2a3 3 0 0 0 4 0 3 3 0 0 0 0-4 3 3 0 0 0-4 0l-1 2c0-2 1-4 3-4s4 2 4 4-2 3-4 3-3-1-3-3zm13-12l1 1 1-1-1-1-1 1 1-1 1 1-1 2-1-2zm-11-29l1 1 1-1-1-1-1 1 1-1 1 1-1 1-1-1zm-34 132l-1 1-1-1 1-2 1 2-1-1-1 1 1 1 1-1zm-16-14l-1 1-2-1 2-1 1 1-1-1-1 1 1 1 1-1zm73 17l2 2c2 0 3-1 3-2s-1-3-3-3l-2 3c0-2 1-3 2-3 2 0 3 1 3 3 0 1-1 3-3 3l-2-3zm-11 4l2 2 2-2-2-1-2 1 2-2 2 2c0 2-1 3-2 3s-2-1-2-3zm-14-4l2 1 1-1-1-2-2 2 2-2 1 2-1 1-2-1zm17-14l2 1 1-1-1-1-2 1 2-2 1 2-1 1-2-1zm6-12l1 1v-1h-1l1-1 1 1-1 1-1-1zm-90 21l1 1v-1h-1l1-1 1 1-1 1-1-1zm70-19v-1l1 1-1 1v-1zm9-17h2l-1-1v1h-1l1-2 2 2-2 1-1-1zm-172-9l2 2 2-2-2-2-2 2 2-2c2 0 3 1 3 2l-3 3-2-3zm-22 1h1l1 4a5 5 0 0 0 8 0 6 6 0 0 0 0-8 5 5 0 0 0-8 0l-1 4h-1c0-3 3-6 6-6s6 3 6 6c0 4-3 6-6 6s-6-2-6-6z"/><path d="M82 379h1l1 2a3 3 0 0 0 5 0 4 4 0 0 0 0-5 4 4 0 0 0-5 0l-1 3h-1c0-2 2-4 4-4s4 2 4 4-2 4-4 4-4-2-4-4zm-20 75l1 2a3 3 0 0 0 5 0 4 4 0 0 0-2-6l-3 1-1 3c0-2 2-4 4-4s4 2 4 4-2 4-4 4-4-2-4-4zm12-55l2 2 1-2-1-1-2 1 2-1 1 1-1 2-2-2zm-3-18l1 1 1-1-1-1-1 1 1-1 2 1-2 2-1-2zm29-9h2l-1-1v1h-1l1-1 1 1-1 1-1-1zm10 23c0 3-2 5-4 5s-4-2-4-5c0-2 2-4 4-4s4 2 4 4l-1-3a4 4 0 0 0-6 0 4 4 0 0 0 0 6 4 4 0 0 0 6 0l1-3zm6-15l1 2a3 3 0 0 0 5 0 4 4 0 0 0 0-5 3 3 0 0 0-5 0l-1 3c0-3 2-4 4-4s4 1 4 4c0 2-2 4-4 4s-4-2-4-4zm-43-17h1l1 1 1-1-1-2-1 2h-1l2-2 2 2-2 1-2-1zm-14 51l1 4a5 5 0 0 0 7 0 5 5 0 0 0 0-7 5 5 0 0 0-7 0l-1 3h-1c0-3 3-5 5-5 3 0 5 2 5 5s-2 5-5 5c-2 0-5-2-5-5h1zm-11-27l1 2a3 3 0 0 0 4 0 3 3 0 0 0-2-5c-2 0-3 2-3 3 0-2 1-3 3-3s3 1 3 3-1 3-3 3-3-1-3-3zm-3-20l2 2 1-2-1-1-2 1 2-1 1 1-1 2-2-2zm10-14l1 1v-2l-1 1h-1l2-1 1 1-1 1-2-1h1zm29 96l1 1v-2l-1 1h-1l2-1 1 1-1 1-2-1h1zm-67 2h2l-1-1-1 1 1-2 1 2-1 1-1-1zm20-42l2 2c2 0 3-1 3-2s-1-3-3-3l-2 3c0-2 1-3 2-3 2 0 3 1 3 3s-1 3-3 3c-1 0-2-1-2-3zm-4-58l-1 1-1-1 1-1 1 1-1-1-1 1 1 1 1-1zm50 81l2 2 2-2-2-2-2 2 2-2 2 2-2 2-2-2zm-25 5l1 2a4 4 0 0 0 6 0 4 4 0 0 0 0-5 4 4 0 0 0-6 0l-1 3c0-3 1-5 4-5 2 0 4 2 4 5s-2 4-4 4c-3 0-4-2-4-4zm-20-10h1v1l1-1-1-1v1h-1l1-2 2 2-2 1-1-1zm-16-21l1 2 2-2-2-1-1 1 1-1 2 1-2 2-1-2zM0 393h1v-1l-1 1 1-1 1 1H0zm17 35h1l1 1v-2l-1 1h-1l2-1 1 1-1 1-2-1zm19 19l2 4a5 5 0 0 0 6 0 5 5 0 0 0 0-7 5 5 0 0 0-6 0l-2 3c0-3 2-5 5-5s5 2 5 5-2 5-5 5-5-2-5-5zm-21-59l1 3a3 3 0 0 0 5 0l1-3-1-3a4 4 0 0 0-5 0l-1 3c0-2 2-4 4-4s4 2 4 4-2 4-4 4-4-2-4-4zm11-18l2 2 2-2c0-2-1-3-2-3s-2 1-2 3h-1c0-2 2-3 3-3s2 1 2 3l-2 2-3-2h1zm26 6l1 4a4 4 0 0 0 6 0 4 4 0 0 0-3-8l-3 1-1 3c0-2 2-4 4-4 3 0 5 2 5 4 0 3-2 5-5 5-2 0-4-2-4-5zm-6-43h1v-1l-1 1 1-1 1 1h-2zm-24-4l1 1v-2l-1 1 1-1 1 1-1 1-1-1z"/><path d="M330 485a3 3 0 1 0 0 5 3 3 0 0 0 0-5zm0 4a2 2 0 1 1 0-4 2 2 0 0 1 0 4zm20-36a6 6 0 1 0-12 0 6 6 0 0 0 12 0zm-11 0a5 5 0 1 1 10 0 5 5 0 0 1-10 0zm-30 13c9-5 19-4 20-4 2 0 4-2 4-4s-2-3-5-3c-1 0-13 1-21 8-9 7-12 17-12 17s5-9 14-14zm-82 14l-2 1 2 2 1-2-1-1zm0 2l-1-1 1-1 1 1-1 1zm-7 11l-3 2c0 2 2 3 3 3s3-1 3-3l-3-2zm0 5c-1 0-2-1-2-3l2-2 2 2c0 2-1 3-2 3zm-8-51l-1 1 1 1 1-1-1-1zm0 1h-1l1-1v1zm72-100l5 24c0 17-5 35-5 35s8-16 10-35c1-9 1-19-2-27-2-8-7-13-8-13-3-4-8-4-9-1-2 3-1 6 2 8l7 9zm32 126c-1 0-9 1-15 6s-8 12-8 12 4-6 10-9 13-2 13-2c2 0 3-2 3-4s-2-3-3-3zm-95-8l1-1-1-1-1 1 1 1zm0-2l1 1-1 1-1-1 1-1zm51-90c2-1 9 9 8 22 0 13-3 26-3 26s5-12 7-25c1-7 1-14-1-20s-6-9-6-9c-3-3-7-2-7 0-1 2 1 4 2 6zm37 124c-5 0-9 4-9 9v1h1v-1a9 9 0 1 1 17 0c0-5-4-9-9-9zm-70-18c2 0 4-2 4-3 0-2-2-4-4-4-1 0-3 2-3 4l3 3zm0-6c2 0 3 1 3 3l-1 2a3 3 0 0 1-4 0v-2c0-2 1-3 2-3zm0 30l-1 1-2-1a3 3 0 0 0-3 4v-1c0-1 1-3 3-3l1 1a1 1 0 0 0 1 2v1l1-1 1-1-1-2zm-1 2v-1 1zm1 1l-1-2h1l1 1-1 1zm-3-18l1 1 1-1-1-2-1 2zm1-1l1 1-1 1-1-1 1-1zm109-14a3 3 0 1 0 5 0 3 3 0 0 0-5 0zm2-2a2 2 0 1 1 0 4 2 2 0 0 1 0-4zm-131-55c5 2 11 6 17 11 11 10 20 22 20 22s-7-13-17-25c-5-6-12-11-17-14l-12-5c-3 0-7 2-6 4 0 3 2 4 5 5l10 2zm233 17l1-2c0-1-1-2-2-1l-2 2c1 1 2 2 3 1zm-278 49v-1h-1v1h1zm62-23c2 0 2-1 2-2 0-2 0-2-2-2l-1 2 1 2zm0-4l2 2-2 1-1-1 1-2zm219-13l1-2c-1-1-2-2-3-1l-1 2 3 1zm2 5l-1 3h3v-2l-2-1zm-7-39c3 0 5-1 5-4 1-2 0-4-2-5s-5 0-6 3 1 5 3 6zm0 16l2-4c0-1-1-2-3-2-1 0-3 1-3 3 1 2 2 3 4 3zm-97 76l-4 1a3 3 0 0 0-4 2l2 2 1 2v-2a3 3 0 0 0 2-4 5 5 0 0 1 7 6l1-2c0-3-3-5-5-5zm-6 4l-2-1 2-2h2l-2 3zm1 0l1-2v1l-1 1zm-171-25v-2l-2 1 1 1h1zm6-16l-2 1 1 1 1-1v-1zm-3 7l2-1-1-1-1 1v1zm-1 4v-1h-1v2l1-1zm6-16l-2-2-1 2 1 1c1 1 2 0 2-1zm-4-13l-1 3c0 2 2 3 3 2l2-3c-1-2-2-3-4-2zm200 35a5 5 0 1 0 0 9 5 5 0 0 0 0-9zm0 9c-3-1-5-2-5-5a4 4 0 1 1 5 5zm-13-32a3 3 0 1 0 0 6 3 3 0 0 0 0-6zm0 5a2 2 0 1 1 0-4 2 2 0 0 1 0 4zm11-28a2 2 0 1 0 0-4 2 2 0 0 0 0 4zm0-3a1 1 0 0 1 0 2 1 1 0 0 1 0-2zm-25-6c-2-1-24 1-37 14-13 12-18 28-18 28s9-14 23-22c13-10 29-7 30-6 3 0 7-2 8-6 1-3-2-7-6-8zm41-25a2 2 0 1 0 0 3 2 2 0 0 0 0-3zm0 2a1 1 0 1 1 0-2 1 1 0 0 1 0 2zm-40 20a3 3 0 1 0 0-7 3 3 0 0 0 0 7zm0-6a3 3 0 1 1 0 5 3 3 0 0 1 0-5zm358-103c-1-14-11-28-26-30-14-3-30 3-35 17-6 13 0 31 14 34 15 4 28-13 20-26 7 13-7 28-20 24-13-3-17-20-11-31 5-12 19-16 31-14 12 3 20 15 21 27 1 13-4 25-12 34-8 8-21 12-33 13-24 2-49-10-66-27l-13-18c-21-22-50-35-79-40 30-20 55-50 66-85 6-7 14-13 22-17 10-5 23-9 34-7s21 10 25 21c3 5 3 12 2 18h-1c-1 5-4 11-8 14-5 4-12 4-15-2-4-4 2-12 8-10 2 2 4 5 2 8-2 2-7 2-7-2 0 4 5 5 7 2s1-7-2-8c-6-4-13 5-9 11 1 3 4 5 7 6l5-1c-8 5-18 5-26-1-9-6-12-22-2-30 8-9 27-4 26 9 1-13-18-19-27-10-10 8-8 25 2 33s26 5 35-4c9-8 11-23 6-35-4-11-15-20-28-23a72 72 0 0 0-54 17c5-21 6-44-3-65-7-13-17-23-29-30-9-7-16-16-19-27-4-12-1-31 13-34 7-1 15 0 19 6 3 5 3 14-2 19-4 5-14 4-17-3-4-6 4-16 11-11-7-5-16 4-12 12 3 7 14 9 19 3 7-5 7-15 3-21-5-7-14-9-21-8-18 3-22 24-18 38 2 7 5 13 9 18l-10-2c-22-6-49 2-61 23-12 19-12 48 6 64 16 16 47 16 60-4 5-10 6-23 0-32-5-10-17-15-28-13 11-2 22 3 28 13 5 10 4 22-2 31-12 19-41 17-56 2-16-15-15-41-4-58 12-19 35-25 56-20 20 5 39 19 47 38s7 42 1 62a130 130 0 0 1-13 32c-16 26-40 48-68 61l-20 1c-20 1-40 6-58 14 14-47-80-76-24-113-12 6-22 17-21 31 1 13 10 24 19 34 8 8 15 19 16 30s-4 22-11 28v1c-13 7-24 15-34 25v-17c-2-16-18-28-33-24-8 1-16 6-17 14s5 15 12 17c6 3 16 0 18-8 1-8-9-13-15-9 7-4 15 2 14 9-2 7-11 9-17 7s-11-9-9-16c1-6 7-10 14-11 14-2 26 8 28 22 2 9-1 18-6 26-24 27-42 58-55 91l-3 1-3 5-1 4-2 2-1-9 2-10v14s3-7 3-15v-5l2-3c2-1 2-3 1-4 0-2-3-2-5 0 0-6-4-11-9-11 1-2 3-5 2-8 0-4-5-7-9-8-9-2-17 5-19 14v9c-5-5-12-10-19-14-4-4-7-10-6-16 1-7 4-13 9-18s10-11 11-19c0-8-6-15-12-18 31 21-21 38-14 65a100 100 0 0 0-43-8v-1a90 90 0 0 1-42-41l-4-12c-3-12-4-25 1-36 4-10 15-18 26-21 12-3 25 0 31 11 7 10 7 25-2 34-8 8-24 9-31-2-3-5-4-12-1-17 3-6 9-9 16-8-6-1-13 2-16 7-4 6-3 13 0 19 7 12 24 11 34 2 9-9 10-25 3-36-7-12-22-17-34-14l-6 2 5-11c2-8 0-20-10-22-4-1-9 1-12 5-2 3-2 9 1 12 4 3 10 2 11-2 3-4-2-10-6-7 4-2 8 3 6 7s-7 4-10 1-3-8-1-11c3-3 7-4 11-3 8 2 9 12 7 19-1 7-6 12-11 16-6 4-12 10-16 17-5 12-4 25-2 38a40 40 0 0 0-30-10c-7 1-13 6-16 13-2 7-1 15 4 20s14 7 19 2c6-4 7-14 2-19-6-5-16-1-15 6-1-7 10-10 14-5 5 4 4 14-1 17-5 5-13 3-18-2-4-5-5-12-3-18s8-11 14-12c7-1 13 1 19 4 5 2 9 6 13 10 6 20 20 37 37 49-17 2-33 10-44 23l-8 10c-10 10-23 16-37 15-6 0-14-3-19-7-4-5-7-12-6-19s5-14 12-16c6-1 14 1 17 8 3 6 1 16-6 18-8 2-16-7-11-14-5 7 3 17 11 15s11-12 8-20c-3-7-12-11-20-10-8 2-14 10-15 18s1 17 7 23c6 7 14 10 22 11 11 1 21 0 30-6-4 15-3 31 4 45 11 22 38 38 62 29 24-7 40-37 27-60-6-10-17-18-30-18-12 0-23 8-27 20 4-12 16-20 27-19 12 0 23 8 28 18 12 22-4 50-26 56-17 5-35-2-47-15l9 2c4-1 7-4 9-7 5-8-4-19-11-14-4 2-5 7-3 10 3 3 9 2 9-2-1 4-6 5-8 2-3-3-1-8 2-9 7-4 14 6 10 12-4 7-13 7-18 2a23 23 0 0 1-8-10l-2-4-1-4c-6-19 1-41 14-55 16-16 40-22 62-20 23 3 44 14 59 30 14 16 24 34 30 54a3 3 0 0 0-3 0l-4-5h1c2 0 3-2 3-4s-1-3-3-3h-2c-3-4-8-11-15-17l-18-9h-11c-3 1-5 4-5 6 1 2 4 3 6 2 1-1 14-3 25 4l18 14-2 2-4-4c-8-8-22-9-23-9-3 1-4 3-4 5 1 2 3 4 5 3 1 0 11-2 20 4 6 4 10 9 12 12 0 2 1 3 2 3l1 1-1-1h1l2-2 2 6-1 7c-2-3-5-9-10-14-7-8-19-8-20-8-2 1-4 3-3 5 0 2 2 3 4 3 1 0 9-2 17 3 6 4 10 9 12 12l-1 3a22 22 0 0 0-16-9l-2 2 2 2c1 0 6-1 11 2l5 4-1 4-2-1a10 10 0 1 0-6 13l-1 4 1-4a5 5 0 0 1 6 0v4h25l1-4a6 6 0 0 0 10-3c0-3-2-5-4-6a4 4 0 0 0-5-3c3-18 7-35 12-52a3 3 0 1 0 1-1c11-35 29-68 54-94 28-29 65-48 105-53 40-4 83 6 111 35 24 24 35 62 25 96a57 57 0 0 1-8 19c-3 5-7 9-11 12-10 8-26 8-32-4-8-10 5-27 17-21 6 2 8 10 4 15-4 6-14 4-14-3 0 8 10 9 15 4 5-6 2-15-4-18-14-8-30 12-21 25 4 6 10 11 17 12 6 0 11-1 15-4-21 23-53 35-83 26-39-10-68-58-47-96 9-18 29-32 50-33s41 14 48 34c-7-21-27-36-48-35-22 0-42 13-53 32-23 40 6 92 48 104 43 15 91-12 111-51 13-24 14-52 6-78 16 10 34 13 55 10 14-2 28-7 38-18s14-26 12-41zM254 459v-2h1l2 2-2-3a3 3 0 0 1 4 1l1 2-1 2a3 3 0 0 1-3 1l-2-3zm-2 45a9 9 0 0 1-10-9 9 9 0 0 1 18-5l-5-1-1 2 1 2h6a9 9 0 0 1-9 11zm9-1a5 5 0 0 0-3 0 10 10 0 0 0 4-9h1l-2 9zm12-66v4a2 2 0 0 1 0-4zm-3-38c1 2 3 5 3 8h-1l-4-4c-2-1-4 0-4 2l2 3 4 4-2 3a10 10 0 0 1-13-1 10 10 0 0 1 1-15 9 9 0 0 0 7-3l7 3zm-13-1l4-1h-2l-2 1zm5 73h-1l-1-2a2 2 0 0 1 3-1l-2 1 2 2h-1zm2-2l-1 1-1-1 1-1 1 1zm8-16c-7-16-16-31-28-43-2-5-4-10-3-16 1-7 8-13 16-12 3 0 7 3 8 6 0 3-1 6-3 8l-6 2c-3 0-5-2-6-4 0-5 4-8 8-6-4-2-9 1-8 6 0 3 3 4 5 5a11 11 0 0 0 7 18l6-1a38 38 0 0 0 0 17c-1-1-2-2-3-1-1-1-1 0-1 1v2c1 0 4 1 5 4v7l1-3 3 7-1 3zm1-3l-2-10 2 2a37 37 0 0 0 0 5v3zm2-8v-1 1zm1-3v-1l2-6-2 7zm17 57a5 5 0 0 1 4 5l-2 3a5 5 0 0 1-8-1v-3h2c2 0 4-2 4-4zm0 0c0 2-2 4-4 4l-2-1v-2h1a5 5 0 0 1 5-2v1zm-4-4c2 0 3 1 4 3a6 6 0 0 0-5 1v-4h1zm14-54a2 2 0 1 1 0 4 2 2 0 0 1 0-4zm161 24v2h1l1-1-2-1zm-5-6v2h2v-2h-2zm-212 39l-1 1 1 2 2-2-2-1zm0 2l-1-1 1-1 1 1-1 1zm148-125c-2 0-9-1-20 1-10 1-22 7-31 15-13 10-23 22-28 29a6 6 0 0 0-9 5c0 4 3 6 6 6h1c-7 10-10 18-10 18s10-17 26-26c16-11 35-8 36-8 4 1 8-1 9-5s-2-7-7-8a59 59 0 0 0-49 22l-2-3c6-7 17-17 30-25 21-13 43-8 45-7 4 1 9-1 11-4 1-3-2-8-8-10zm-78 46l2 4-5 6h-1a5 5 0 0 1-5-6 5 5 0 0 1 8-4l-4 5 5-5zm82-87c-2 0-10 2-20 7-10 6-21 15-30 25-19 21-31 44-31 44s15-21 36-38c10-9 21-16 30-19 9-4 16-4 18-5 5-1 9-4 9-8 1-4-5-8-12-6z"/></svg>